<?xml version="1.0" encoding="UTF-8"?>
<svg width="30px" height="30px" viewBox="0 0 30 30" version="1.1" xmlns="http://www.w3.org/2000/svg" xmlns:xlink="http://www.w3.org/1999/xlink">
    <!-- Generator: Sketch 51.1 (57501) - http://www.bohemiancoding.com/sketch -->
    <title>consultant_icon</title>
    <desc>Created with Sketch.</desc>
    <defs></defs>
    <g id="Page-1" stroke="none" stroke-width="1" fill="none" fill-rule="evenodd">
        <g id="Desktop-HD" transform="translate(-418.000000, -3209.000000)" fill="#000000" fill-rule="nonzero">
            <g id="Group-10" transform="translate(418.000000, 3209.000000)">
                <g id="consultant_icon">
                    <path d="M27.2208837,12.1676389 L26.7958605,12.1676389 L26.7958605,11.7370833 C26.7958605,5.26527778 21.506093,0 15.0040465,0 C8.502,0 3.21237209,5.26527778 3.21237209,11.7372222 L3.21237209,12.1677778 L2.78734884,12.1677778 C1.29251163,12.1677778 0.0763255814,13.3783333 0.0763255814,14.86625 L0.0763255814,18.8131944 C0.0763255814,20.3011111 1.29251163,21.5116667 2.78734884,21.5116667 L4.2987907,21.5116667 C4.58623256,21.5116667 4.83265116,21.3384722 4.93953488,21.0915278 C6.72934884,24.6368056 9.33362791,26.9809722 9.50595349,27.13375 C9.59888372,27.2161111 9.71637209,27.2581944 9.83455814,27.2581944 C9.83525581,27.2581944 9.83595349,27.2584722 9.83693023,27.2581944 C10.1097209,27.2581944 10.3308837,27.0380556 10.3308837,26.7665278 C10.3308837,26.7019444 10.3184651,26.6404167 10.2957209,26.5838889 C10.2830233,26.53875 10.2608372,26.4579167 10.2325116,26.3476389 C11.4502326,27.8693056 12.7571163,28.7691667 13.7492093,29.2856944 C14.4823256,29.6675 15.3085116,29.8693056 16.1384651,29.8693056 C16.9684186,29.8693056 17.7947442,29.6675 18.5278605,29.2856944 C19.4751628,28.7923611 20.7090698,27.9472222 21.8785116,26.5477778 C24.0897209,25.7458333 25.7746047,23.8445833 26.2625581,21.5116667 L27.2208837,21.5116667 C28.7157209,21.5116667 29.931907,20.3011111 29.931907,18.8131944 L29.931907,14.86625 C29.931907,13.3781944 28.7157209,12.1676389 27.2208837,12.1676389 Z M5.45972093,7.63875 C7.05781395,3.96583333 10.7335814,1.38888889 15.0040465,1.38888889 C19.7113953,1.38888889 23.6956744,4.52013889 24.9711628,8.79916667 C24.4148372,8.26652778 23.8067442,7.96166667 23.2710698,7.85277778 C22.8916744,6.77638889 22.3328372,6.10875 22.2096279,5.97013889 C21.9760465,5.6575 19.8011163,2.91791667 15.3447907,2.91791667 C13.8182791,2.91791667 12.1869767,3.24736111 10.4966512,3.89722222 C9.2907907,4.36069444 7.11293023,5.44486111 5.45972093,7.63875 Z M18.069907,28.4144444 C17.4775814,28.7229167 16.8097674,28.8859722 16.1384651,28.8859722 C15.4673023,28.8859722 14.7994884,28.7229167 14.2071628,28.4144444 C12.9926512,27.7819444 11.2569767,26.5141667 9.88590698,24.0665278 C9.85869767,24.0180556 9.8335814,23.9680556 9.80706977,23.9190278 C9.6244186,22.0441667 9.75474419,19.6691667 11.2506977,18.4191667 C12.4091163,17.45125 14.3585581,17.0005556 16.243814,16.5647222 C18.6043256,16.0190278 21.0313953,15.4568056 22.3685581,13.86625 C22.7888372,14.2580556 23.1428372,14.7568056 23.2833488,15.3793056 C23.7627907,17.5033333 23.1475814,19.3234722 23.1387907,19.3490278 C23.0719535,19.5404167 23.1297209,19.7529167 23.2844651,19.8845833 C23.376,19.9623611 23.4901395,20.0023611 23.6053953,20.0023611 C23.6853488,20.0023611 23.7658605,19.9830556 23.8393953,19.9436111 C23.8445581,19.9408333 23.8566977,19.9340278 23.871907,19.9254167 C23.5618605,21.3661111 23.0938605,22.8123611 22.3913023,24.0665278 C22.1814419,24.4411111 21.9625116,24.7848611 21.7386977,25.1061111 C21.0627907,25.4034722 20.3164186,25.5698611 19.5312558,25.5698611 L18.8090233,25.5698611 C18.5247907,24.8123611 17.7926512,24.2704167 16.9336744,24.2704167 L15.026093,24.2704167 C13.9215349,24.2704167 13.0229302,25.1648611 13.0229302,26.2643056 C13.0229302,27.36375 13.9215349,28.2581944 15.026093,28.2581944 L16.9336744,28.2581944 C17.7926512,28.2581944 18.5249302,27.71625 18.8090233,26.95875 L19.5312558,26.95875 C19.7440465,26.95875 19.9544651,26.94875 20.1622326,26.9298611 C19.4084651,27.6268056 18.6745116,28.0995833 18.069907,28.4144444 Z M23.7142326,23.6336111 C24.344093,22.2545833 24.7516744,20.745 25.0116279,19.2863889 L25.0116279,20.1147222 C25.0116279,21.4548611 24.5226977,22.6829167 23.7142326,23.6336111 Z" id="Shape"></path>
                </g>
            </g>
        </g>
    </g>
</svg>