<?xml version="1.0" encoding="UTF-8"?>
<svg width="32px" height="32px" viewBox="0 0 32 32" version="1.1" xmlns="http://www.w3.org/2000/svg" xmlns:xlink="http://www.w3.org/1999/xlink">
    <!-- Generator: Sketch 51.1 (57501) - http://www.bohemiancoding.com/sketch -->
    <title>contactus_icon</title>
    <desc>Created with Sketch.</desc>
    <defs></defs>
    <g id="Page-1" stroke="none" stroke-width="1" fill="none" fill-rule="evenodd">
        <g id="Desktop-HD" transform="translate(-153.000000, -3208.000000)" fill="#000000" fill-rule="nonzero" stroke="#000000">
            <g id="Group-11" transform="translate(151.000000, 3209.000000)">
                <g id="contactus_icon" transform="translate(3.000000, 0.000000)">
                    <path d="M21.2389549,29.9733197 C21.3742008,29.9794672 21.5032992,29.9856148 21.6385451,29.9856148 C23.0832172,29.9856148 24.2881352,29.4630738 25.2348566,28.4364344 C25.2410041,28.4302869 25.2532992,28.4179918 25.2594467,28.4118443 C25.5975615,28.0061066 25.978709,27.6372541 26.3844467,27.249959 C26.6610861,26.9856148 26.943873,26.715123 27.2082172,26.4323361 C28.4684631,25.1167623 28.4623156,23.4507787 27.1959221,22.1843852 L23.6918238,18.6802869 C23.0893648,18.0532377 22.3701025,17.7212705 21.6078074,17.7212705 C20.8516598,17.7212705 20.12625,18.0470902 19.5053484,18.6679918 L17.433627,20.7397131 C17.2492008,20.6352049 17.058627,20.5429918 16.8742008,20.4507787 C16.6405943,20.3339754 16.4254303,20.2233197 16.2348566,20.1065164 C14.3352664,18.9015984 12.6139549,17.3278279 10.9664139,15.3052869 C10.1364959,14.2602049 9.58936475,13.3872541 9.20206967,12.4897131 C9.74305328,11.9979098 10.2471516,11.4876639 10.7328074,10.9897131 C10.9110861,10.8114344 11.0893648,10.6270082 11.273791,10.442582 C12.5893648,9.1270082 12.5893648,7.49790984 11.273791,6.18848361 L9.53403689,4.44872951 C9.33116803,4.24586066 9.13444672,4.0429918 8.93772541,3.84627049 C8.55043033,3.45282787 8.15084016,3.04094262 7.75125,2.67209016 C7.14879098,2.06963115 6.43567623,1.75610656 5.67952869,1.75610656 C4.92952869,1.75610656 4.20411885,2.06963115 3.57706967,2.67209016 L1.39469262,4.84831967 C0.595512295,5.6475 0.140594262,6.61881148 0.0422336066,7.74381148 C-0.0684221311,9.14545082 0.18977459,10.6331557 0.853709016,12.4282377 C1.88034836,15.2007787 3.42338115,17.7765984 5.71026639,20.5306967 C8.49510246,23.8503689 11.8393648,26.4753689 15.6631352,28.3257787 C17.1201025,29.0204508 19.068873,29.8319262 21.2389549,29.9733197 Z M6.87215164,19.5655328 C4.69592213,16.9466803 3.23895492,14.5122541 2.27379098,11.9056967 C1.67747951,10.3011885 1.45616803,9.0532377 1.54838115,7.8667623 C1.6160041,7.09831967 1.91108607,6.45897541 2.46436475,5.91184426 L4.63444672,3.7417623 C4.96641393,3.42209016 5.32911885,3.25610656 5.68567623,3.25610656 C6.03608607,3.25610656 6.38034836,3.42209016 6.71231557,3.74790984 C7.09961066,4.11061475 7.47461066,4.4917623 7.86805328,4.89135246 C8.06477459,5.09422131 8.26764344,5.3032377 8.47665984,5.50610656 L10.2164139,7.24586066 C10.9295287,7.95897541 10.9295287,8.65979508 10.2164139,9.37290984 C10.0319877,9.55733607 9.84756148,9.7417623 9.66928279,9.92618852 C9.12829918,10.4733197 8.62420082,10.9897131 8.06477459,11.4876639 C8.05247951,11.499959 8.04633197,11.5061066 8.03403689,11.5184016 C7.53608607,12.0163525 7.60985656,12.4958607 7.73280738,12.852418 C7.73895492,12.8708607 7.74510246,12.8831557 7.75125,12.9015984 C8.20002049,13.9835656 8.83321721,15.0102049 9.80452869,16.2397131 C11.5565779,18.3975 13.4008402,20.0757787 15.4418238,21.3729098 C15.693873,21.5327459 15.9582172,21.6679918 16.2164139,21.7970902 C16.4500205,21.9138934 16.6651844,22.0245492 16.8557582,22.1413525 C16.8803484,22.1536475 16.898791,22.1659426 16.9233811,22.1782377 C17.1201025,22.2765984 17.3106762,22.3257787 17.5073975,22.3257787 C17.9930533,22.3257787 18.3004303,22.0184016 18.398791,21.9138934 L20.581168,19.7315164 C20.9131352,19.3995492 21.2696926,19.227418 21.6201025,19.227418 C22.0504303,19.227418 22.4008402,19.4979098 22.6282992,19.7315164 L26.1446926,23.2479098 C27.0053484,24.1085656 26.6119057,24.8831557 26.12625,25.3934016 C25.8803484,25.6577459 25.6221516,25.9036475 25.3516598,26.1679918 C24.9397746,26.5614344 24.5155943,26.9733197 24.1282992,27.4343852 C23.4643648,28.1475 22.6774795,28.4794672 21.6508402,28.4794672 C21.5524795,28.4794672 21.4479713,28.4733197 21.3496107,28.4671721 C19.4377254,28.3442213 17.6672336,27.6003689 16.3332172,26.9671721 C12.693873,25.215123 9.51559426,22.7253689 6.87215164,19.5655328 Z" id="Shape"></path>
                    <path d="M16.4807582,5.48766393 C16.068873,5.42004098 15.6815779,5.69668033 15.6139549,6.10241803 C15.546332,6.51430328 15.8229713,6.90159836 16.228709,6.96922131 C17.9192828,7.25815574 19.456168,8.05733607 20.6856762,9.28069672 C21.9090369,10.5040574 22.7082172,12.0470902 22.9971516,13.7376639 C23.058627,14.1065164 23.3782992,14.3647131 23.7410041,14.3647131 C23.7840369,14.3647131 23.8270697,14.3585656 23.8701025,14.352418 C24.2819877,14.2847951 24.558627,13.8913525 24.4848566,13.4856148 C24.1467418,11.4876639 23.2000205,9.66184426 21.7553484,8.21717213 C20.2983811,6.76635246 18.478709,5.82577869 16.4807582,5.48766393 Z" id="Shape"></path>
                    <path d="M29.2123156,14.1065164 C29.2553484,14.1065164 29.2983811,14.1003689 29.3414139,14.0942213 C29.7532992,14.0265984 30.0299385,13.6331557 29.956168,13.227418 C29.3967418,9.92004098 27.8352664,6.91389344 25.443873,4.5225 C23.046332,2.13110656 20.0401844,0.569631148 16.7328074,0.010204918 C16.3209221,-0.0574180328 15.933627,0.219221311 15.8660041,0.624959016 C15.7983811,1.03684426 16.0750205,1.42413934 16.4807582,1.4917623 C19.4746107,2.0020082 22.2041189,3.41594262 24.3742008,5.58602459 C26.5442828,7.75610656 27.9582172,10.4856148 28.4684631,13.4794672 C28.5299385,13.8483197 28.8496107,14.1065164 29.2123156,14.1065164 Z" id="Shape"></path>
                </g>
            </g>
        </g>
    </g>
</svg>