<?xml version="1.0" encoding="UTF-8"?>
<svg width="36px" height="30px" viewBox="0 0 36 30" version="1.1" xmlns="http://www.w3.org/2000/svg" xmlns:xlink="http://www.w3.org/1999/xlink">
    <!-- Generator: Sketch 51.1 (57501) - http://www.bohemiancoding.com/sketch -->
    <title>econsult</title>
    <desc>Created with Sketch.</desc>
    <defs></defs>
    <g id="Page-1" stroke="none" stroke-width="1" fill="none" fill-rule="evenodd">
        <g id="Desktop-HD" transform="translate(-685.000000, -3209.000000)" fill="#000000" fill-rule="nonzero">
            <g id="Group-16" transform="translate(684.000000, 3209.000000)">
                <g id="econsult" transform="translate(1.000000, 0.000000)">
                    <g id="computer-screen">
                        <path d="M34.0450032,0.0525631639 L34.0450032,0 L33.8687682,0 L2.11352596,0 L1.93729095,0 L1.93729095,0.0525631639 C0.898351473,0.123861131 0.123235093,0.949132169 0,1.95076877 L0,2.12707561 L0,23.0186722 C0,23.4237903 0.105588063,23.7652453 0.281823069,24.0728132 C0.687292995,24.7856167 1.28582143,25.1457478 2.11358478,25.1457478 L13.702507,25.1457478 L13.702507,28.0643248 L11.50104,28.0643248 C10.9550997,28.0643248 10.5323946,28.4882364 10.5323946,29.0321918 C10.5323946,29.5761471 10.9550997,30 11.50104,30 L24.4813718,30 C25.027312,30 25.4677231,29.5760884 25.4677231,29.0321918 C25.4677231,28.4881777 25.0273709,28.0643248 24.4813718,28.0643248 L22.2799048,28.0643248 L22.2799048,25.1457478 L33.8687682,25.1457478 C34.6968845,25.1457478 35.300707,24.7856167 35.7005299,24.0728132 C35.8820002,23.7502104 36,23.4050555 36,23.0186722 L36,2.12713434 L36,1.9508275 C35.8767061,0.949132169 35.0489427,0.123861131 34.0450032,0.0525631639 Z M34.0450032,2.12713434 L34.0450032,23.0187309 C34.0450032,23.1425333 33.9923562,23.1950377 33.8687682,23.1950377 L2.11352596,23.1950377 C1.99029087,23.1950377 1.93729095,23.1425333 1.93729095,23.0187309 L1.93729095,2.12713434 L1.93729095,1.9508275 L34.0450032,1.9508275 L34.0449444,2.12713434 L34.0450032,2.12713434 Z" id="Shape"></path>
                    </g>
                    <g id="headphones" transform="translate(11.000000, 4.000000)" stroke="#000000" stroke-width="0.5">
                        <path d="M8,0 C3.58855111,0 0,3.6185625 0,7.98046875 L0,11.1445312 C0,12.6007031 1.19388444,13.78125 2.66666667,13.78125 L3.2,13.78125 L3.2,7.453125 L2.66666667,7.453125 C2.06346667,7.453125 1.51342222,7.65854297 1.06666667,7.99238672 L1.06666667,7.98046875 C1.06666667,4.20046875 4.17706667,1.0546875 8,1.0546875 C11.8229333,1.0546875 14.9333333,4.20046875 14.9333333,7.98046875 L14.9333333,7.99238672 C14.4865778,7.65854297 13.9365333,7.453125 13.3333333,7.453125 L12.8,7.453125 L12.8,13.78125 L13.3333333,13.78125 C13.9365333,13.78125 14.4865778,13.575832 14.9333333,13.2419883 L14.9333333,14.3085938 C14.9333333,15.1809609 14.2156089,15.890625 13.3333333,15.890625 L9.50176,15.890625 C9.28085333,15.2781328 8.6944,14.8359375 8,14.8359375 C7.11772444,14.8359375 6.4,15.5456016 6.4,16.4179688 C6.4,17.2903359 7.11772444,18 8,18 C8.6944,18 9.28085333,17.5578047 9.50176,16.9453125 L13.3333333,16.9453125 C14.8036622,16.9453125 16,15.7624102 16,14.3085938 L16,7.98046875 C16,3.6185625 12.4114489,0 8,0 Z" id="Shape"></path>
                        <rect id="Rectangle-path" x="4.21052632" y="7.71428571" width="1" height="6"></rect>
                        <rect id="Rectangle-path" x="10.9473684" y="7.71428571" width="1" height="6"></rect>
                    </g>
                </g>
            </g>
        </g>
    </g>
</svg>