<?xml version="1.0" encoding="UTF-8"?>
<svg width="29px" height="30px" viewBox="0 0 29 30" version="1.1" xmlns="http://www.w3.org/2000/svg" xmlns:xlink="http://www.w3.org/1999/xlink">
    <!-- Generator: Sketch 51.1 (57501) - http://www.bohemiancoding.com/sketch -->
    <title>facebookfooter_icon</title>
    <desc>Created with Sketch.</desc>
    <defs></defs>
    <g id="Page-1" stroke="none" stroke-width="1" fill="none" fill-rule="evenodd">
        <g id="Desktop-HD" transform="translate(-951.000000, -3209.000000)" fill="#000000" fill-rule="nonzero">
            <g id="Group-12" transform="translate(951.000000, 3209.000000)">
                <g id="facebookfooter_icon">
                    <path d="M25.6015625,0 L3.3984375,0 C1.52453906,0 0,1.57710938 0,3.515625 L0,26.484375 C0,28.4228906 1.52453906,30 3.3984375,30 L25.6015625,30 C27.4754609,30 29,28.4228906 29,26.484375 L29,3.515625 C29,1.57710938 27.4754609,0 25.6015625,0 Z M26.734375,26.484375 C26.734375,27.1305469 26.2261953,27.65625 25.6015625,27.65625 L19.1445312,27.65625 L19.1445312,18.1054688 L22.6443555,18.1054688 L23.2226562,14.4726563 L19.1445312,14.4726563 L19.1445312,11.953125 C19.1445312,10.9584961 19.8822754,10.1953125 20.84375,10.1953125 L23.1660156,10.1953125 L23.1660156,6.5625 L20.84375,6.5625 C17.9594395,6.5625 15.6340586,8.97949219 15.6340586,11.9633203 L15.6340586,14.4726563 L12.234375,14.4726563 L12.234375,18.1054688 L15.6340586,18.1054688 L15.6340586,27.65625 L3.3984375,27.65625 C2.77380469,27.65625 2.265625,27.1305469 2.265625,26.484375 L2.265625,3.515625 C2.265625,2.86945312 2.77380469,2.34375 3.3984375,2.34375 L25.6015625,2.34375 C26.2261953,2.34375 26.734375,2.86945312 26.734375,3.515625 L26.734375,26.484375 Z" id="Shape"></path>
                </g>
            </g>
        </g>
    </g>
</svg>