<?xml version="1.0" encoding="iso-8859-1"?>
<!-- Generator: Adobe Illustrator 19.0.0, SVG Export Plug-In . SVG Version: 6.00 Build 0)  -->
<svg version="1.1" id="Capa_1" xmlns="http://www.w3.org/2000/svg" xmlns:xlink="http://www.w3.org/1999/xlink" x="0px" y="0px"
	 viewBox="0 0 512 512" style="enable-background:new 0 0 512 512;" xml:space="preserve">
<g>
	<g>
		<path d="M256,0C131.928,0,31,102.928,31,227v90c0,41.42,33.578,75,75,75h15V212h-15c-16.965,0-32.435,5.843-45,15.339V227
			c0-107.52,87.48-197,195-197s195,89.48,195,197v0.339C438.435,217.843,422.965,212,406,212h-15v180h15
			c16.965,0,32.435-5.843,45-15.339V407c0,24.814-20.186,45-45,45H298.237c-6.213-17.422-22.707-30-42.237-30
			c-24.814,0-45,20.186-45,45c0,24.814,20.186,45,45,45c19.53,0,36.024-12.578,42.237-30H406c41.353,0,75-33.647,75-75V227
			C481,102.928,380.072,0,256,0z"/>
	</g>
</g>
<g>
	<g>
		<rect x="151" y="212" width="30" height="180"/>
	</g>
</g>
<g>
	<g>
		<rect x="331" y="212" width="30" height="180"/>
	</g>
</g>
<g>
</g>
<g>
</g>
<g>
</g>
<g>
</g>
<g>
</g>
<g>
</g>
<g>
</g>
<g>
</g>
<g>
</g>
<g>
</g>
<g>
</g>
<g>
</g>
<g>
</g>
<g>
</g>
<g>
</g>
</svg>
