<?xml version="1.0" standalone="no"?><!DOCTYPE svg PUBLIC "-//W3C//DTD SVG 1.1//EN" "http://www.w3.org/Graphics/SVG/1.1/DTD/svg11.dtd"><svg t="1532328146469" class="icon" style="" viewBox="0 0 1024 1024" version="1.1" xmlns="http://www.w3.org/2000/svg" p-id="3718" xmlns:xlink="http://www.w3.org/1999/xlink" width="200" height="200"><defs><style type="text/css"></style></defs><path d="M512.00307 4.375657c-280.338826 0-507.627413 227.303936-507.627413 507.658112 0 280.350083 227.288586 507.590574 507.627413 507.590574 280.332686 0 507.621273-227.177046 507.621273-507.590574C1019.624343 231.679593 792.335756 4.375657 512.00307 4.375657L512.00307 4.375657 512.00307 4.375657zM512.00307 942.205089c-255.339456 0-431.739025-219.624023-430.14983-430.239881C83.371826 302.367539 285.472753 80.20674 512.00307 81.793888c233.95031 1.714038 431.098435 211.186863 430.144714 430.239881C941.325046 715.919343 768.666684 927.482783 512.00307 942.205089L512.00307 942.205089 512.00307 942.205089zM394.610406 261.947967l312.699861 245.007133L394.610406 753.865583 394.610406 261.947967 394.610406 261.947967zM394.610406 261.947967" p-id="3719" fill="#ffffff"></path></svg>