<?xml version="1.0" encoding="UTF-8"?>
<svg width="452px" height="53px" viewBox="0 0 452 53" version="1.1" xmlns="http://www.w3.org/2000/svg" xmlns:xlink="http://www.w3.org/1999/xlink">
    <!-- Generator: Sketch 51.1 (57501) - http://www.bohemiancoding.com/sketch -->
    <title>twnic_logo</title>
    <desc>Created with Sketch.</desc>
    <defs>
        <polygon id="path-1" points="0 53 451.452227 53 451.452227 0.965777778 0 0.965777778"></polygon>
    </defs>
    <g id="Page-1" stroke="none" stroke-width="1" fill="none" fill-rule="evenodd">
        <g id="Desktop-HD" transform="translate(-151.000000, -23.000000)">
            <g id="twnic_logo" transform="translate(151.000000, 23.000000)">
                <path d="M237.038494,51.7095089 C238.048778,52.55162 239.411786,52.9744422 241.124013,52.9744422 C242.816386,52.9744422 244.167714,52.55162 245.177998,51.7059756 C246.18945,50.8603311 246.697512,49.6872644 246.697512,48.1879533 C246.697512,46.6721533 246.184778,45.4896644 245.168654,44.6416644 C244.149026,43.7948422 242.789522,43.3696644 241.092479,43.3696644 C240.154608,43.3696644 239.327693,43.4909756 238.609398,43.7347756 C238.072137,43.9185089 237.574587,44.19882 237.121419,44.5733533 C236.668251,44.9502422 236.309688,45.3742422 236.049233,45.8488867 C235.698845,46.4895978 235.523652,47.2822422 235.523652,48.2256422 C235.523652,49.7061089 236.029378,50.8673978 237.038494,51.7095089 M238.79744,45.7735089 C239.387259,45.2446867 240.160448,44.9796867 241.12051,44.9796867 C242.08174,44.9796867 242.850256,45.2423311 243.430732,45.7652644 C244.011207,46.2893756 244.300861,47.0808422 244.300861,48.1396644 C244.300861,49.2149756 244.003032,50.0193978 243.408541,50.5564644 C242.810546,51.0958867 242.049037,51.3632422 241.12051,51.3632422 C240.190814,51.3632422 239.425802,51.0947089 238.821967,50.5541089 C238.2193,50.0146867 237.917967,49.2173311 237.917967,48.16322 C237.917967,47.0996867 238.209957,46.3023311 238.79744,45.7735089" id="Fill-11" fill="#595757"></path>
                <path d="M250.418745,52.8124978 L250.418745,48.9493867 L250.888265,48.9493867 C251.420854,48.9493867 251.808616,48.9835422 252.056223,49.0518533 C252.302663,49.1213422 252.535086,49.24972 252.75583,49.4369867 C252.974239,49.6277867 253.381856,50.0776978 253.978683,50.7926089 L255.650032,52.8124978 L258.423934,52.8124978 L257.023551,51.0128533 C256.469939,50.2908756 256.029619,49.7879644 255.70259,49.5064756 C255.379066,49.2238089 254.965608,48.9646978 254.464554,48.7291422 C255.472502,48.6125422 256.22934,48.3251644 256.735066,47.8705422 C257.239624,47.4170978 257.494239,46.8388089 257.494239,46.1415644 C257.494239,45.5915422 257.326053,45.1015867 256.993184,44.6740533 C256.660316,44.24652 256.214156,43.9485422 255.65704,43.7812978 C255.101091,43.6128756 254.209939,43.5304311 252.983582,43.5304311 L248.105019,43.5304311 L248.105019,52.8124978 L250.418745,52.8124978 Z M250.418745,45.1133644 L252.227913,45.1133644 C253.16812,45.1133644 253.731076,45.1239644 253.917949,45.1463422 C254.294032,45.1981644 254.583686,45.3194756 254.790414,45.5149867 C254.997143,45.7069644 255.101091,45.9578311 255.101091,46.2699422 C255.101091,46.5490756 255.02167,46.7822756 254.866332,46.9671867 C254.709825,47.1520978 254.493753,47.2840089 254.215779,47.3593867 C253.938973,47.4359422 253.246373,47.4724533 252.133309,47.4724533 L250.418745,47.4724533 L250.418745,45.1133644 Z" id="Fill-13" fill="#595757"></path>
                <polygon id="Fill-15" fill="#595757" points="259.311933 52.8124978 259.311933 43.5304311 261.626827 43.5304311 261.626827 47.6267422 266.3337 43.5304311 269.461494 43.5304311 265.127199 47.1132311 269.674062 52.8124978 266.652553 52.8124978 263.514248 48.4464756 261.626827 50.00232 261.626827 52.8124978"></polygon>
                <mask id="mask-2" fill="white">
                    <use xlink:href="#path-1"></use>
                </mask>
                <g id="Clip-18"></g>
                <polygon id="Fill-17" fill="#595757" mask="url(#mask-2)" points="274.664165 52.8127333 277.324775 52.8127333 277.324775 42.1632667 274.664165 42.1632667"></polygon>
                <polygon id="Fill-19" fill="#595757" mask="url(#mask-2)" points="279.235556 52.8124978 279.235556 43.5304311 281.494388 43.5304311 286.231628 49.7667644 286.231628 43.5304311 288.388848 43.5304311 288.388848 52.8124978 286.057602 52.8124978 281.390439 46.7139644 281.390439 52.8124978"></polygon>
                <polygon id="Fill-20" fill="#595757" mask="url(#mask-2)" points="290.445272 52.8124978 290.445272 43.5304311 298.346513 43.5304311 298.346513 45.1133644 292.756663 45.1133644 292.756663 47.2851867 297.574492 47.2851867 297.574492 48.8692978 292.756663 48.8692978 292.756663 52.8124978"></polygon>
                <path d="M300.901072,51.7095089 C301.910188,52.55162 303.27086,52.9744422 304.985423,52.9744422 C306.677795,52.9744422 308.029124,52.55162 309.040576,51.7059756 C310.05086,50.8603311 310.557754,49.6872644 310.557754,48.1879533 C310.557754,46.6721533 310.048524,45.4896644 309.027728,44.6416644 C308.010436,43.7948422 306.653268,43.3696644 304.955056,43.3696644 C304.01485,43.3696644 303.190271,43.4909756 302.471976,43.7347756 C301.932379,43.9185089 301.434829,44.19882 300.981661,44.5733533 C300.529661,44.9502422 300.171098,45.3742422 299.909475,45.8488867 C299.559087,46.4895978 299.385061,47.2822422 299.385061,48.2256422 C299.385061,49.7061089 299.890788,50.8673978 300.901072,51.7095089 M302.660018,45.7735089 C303.248669,45.2446867 304.021857,44.9796867 304.983087,44.9796867 C305.941981,44.9796867 306.712834,45.2423311 307.29331,45.7652644 C307.872617,46.2893756 308.162271,47.0808422 308.162271,48.1396644 C308.162271,49.2149756 307.865609,50.0193978 307.268782,50.5564644 C306.671956,51.0958867 305.911614,51.3632422 304.983087,51.3632422 C304.052224,51.3632422 303.286043,51.0947089 302.682209,50.5541089 C302.079542,50.0146867 301.777041,49.2173311 301.777041,48.16322 C301.777041,47.0996867 302.070198,46.3023311 302.660018,45.7735089" id="Fill-21" fill="#595757" mask="url(#mask-2)"></path>
                <path d="M314.280038,52.8124978 L314.280038,48.9493867 L314.74839,48.9493867 C315.283315,48.9493867 315.672245,48.9835422 315.917516,49.0518533 C316.165124,49.1213422 316.396379,49.24972 316.615956,49.4369867 C316.835532,49.6277867 317.244317,50.0776978 317.838808,50.7926089 L319.511325,52.8124978 L322.286395,52.8124978 L320.884844,51.0128533 C320.331232,50.2908756 319.893248,49.7879644 319.563883,49.5064756 C319.239191,49.2238089 318.824565,48.9646978 318.325847,48.7291422 C319.331459,48.6125422 320.090633,48.3251644 320.595191,47.8705422 C321.103253,47.4170978 321.355532,46.8388089 321.355532,46.1415644 C321.355532,45.5915422 321.187346,45.1015867 320.852142,44.6740533 C320.521609,44.24652 320.075449,43.9485422 319.519501,43.7812978 C318.963552,43.6128756 318.0724,43.5304311 316.84254,43.5304311 L311.963976,43.5304311 L311.963976,52.8124978 L314.280038,52.8124978 Z M314.280038,45.1133644 L316.089206,45.1133644 C317.029413,45.1133644 317.591201,45.1239644 317.779242,45.1463422 C318.156493,45.1981644 318.447315,45.3194756 318.654043,45.5149867 C318.858436,45.7069644 318.961217,45.9578311 318.961217,46.2699422 C318.961217,46.5490756 318.881795,46.7822756 318.726457,46.9671867 C318.571118,47.1520978 318.353878,47.2840089 318.077072,47.3593867 C317.800266,47.4359422 317.104162,47.4724533 315.994602,47.4724533 L314.280038,47.4724533 L314.280038,45.1133644 Z" id="Fill-22" fill="#595757" mask="url(#mask-2)"></path>
                <polygon id="Fill-23" fill="#595757" mask="url(#mask-2)" points="323.146947 52.8124978 323.146947 43.5304311 326.628632 43.5304311 328.693582 49.8668756 330.728166 43.5304311 334.23905 43.5304311 334.23905 52.8124978 332.084166 52.8124978 332.072487 45.5020311 329.799639 52.8124978 327.554823 52.8124978 325.31351 45.5020311 325.302998 52.8124978"></polygon>
                <path d="M341.941504,43.5300778 L339.468935,43.5300778 L334.99215,52.8121444 L337.468222,52.8121444 L338.423612,50.6933222 L343.016026,50.6933222 L344.012295,52.8121444 L346.538589,52.8121444 L341.941504,43.5300778 Z M339.137235,49.1103889 L340.671933,45.7042556 L342.273204,49.1103889 L339.137235,49.1103889 Z" id="Fill-24" fill="#595757" mask="url(#mask-2)"></path>
                <polygon id="Fill-25" fill="#595757" mask="url(#mask-2)" points="348.757711 52.8124978 348.757711 45.1133644 345.377638 45.1133644 345.377638 43.5304311 354.450341 43.5304311 354.450341 45.1133644 351.072605 45.1133644 351.072605 52.8124978"></polygon>
                <polygon id="Fill-26" fill="#595757" mask="url(#mask-2)" points="355.516103 52.8115556 357.832165 52.8115556 357.832165 43.5294889 355.516103 43.5294889"></polygon>
                <path d="M360.698453,51.7095089 C361.708737,52.55162 363.071745,52.9744422 364.78514,52.9744422 C366.476344,52.9744422 367.827672,52.55162 368.837957,51.7059756 C369.849409,50.8603311 370.355135,49.6872644 370.355135,48.1879533 C370.355135,46.6721533 369.845905,45.4896644 368.827445,44.6416644 C367.808985,43.7948422 366.449481,43.3696644 364.752437,43.3696644 C363.815734,43.3696644 362.987652,43.4909756 362.271693,43.7347756 C361.730928,43.9185089 361.234546,44.19882 360.78021,44.5733533 C360.32821,44.9502422 359.970814,45.3742422 359.708024,45.8488867 C359.358804,46.4895978 359.182442,47.2822422 359.182442,48.2256422 C359.182442,49.7061089 359.687001,50.8673978 360.698453,51.7095089 M362.458566,45.7735089 C363.047218,45.2446867 363.819238,44.9796867 364.7793,44.9796867 C365.739362,44.9796867 366.511383,45.2423311 367.093026,45.7652644 C367.671166,46.2893756 367.961988,47.0808422 367.961988,48.1396644 C367.961988,49.2149756 367.661822,50.0193978 367.068499,50.5564644 C366.470504,51.0958867 365.708995,51.3632422 364.7793,51.3632422 C363.850773,51.3632422 363.08576,51.0947089 362.481926,50.5541089 C361.878091,50.0146867 361.577926,49.2173311 361.577926,48.16322 C361.577926,47.0996867 361.871083,46.3023311 362.458566,45.7735089" id="Fill-27" fill="#595757" mask="url(#mask-2)"></path>
                <polygon id="Fill-28" fill="#595757" mask="url(#mask-2)" points="371.765562 52.8124978 371.765562 43.5304311 374.022058 43.5304311 378.759298 49.7667644 378.759298 43.5304311 380.914182 43.5304311 380.914182 52.8124978 378.585272 52.8124978 373.91811 46.7139644 373.91811 52.8124978"></polygon>
                <path d="M395.682435,48.9237111 L398.261288,49.5656 C397.866518,50.7292444 397.205453,51.5913778 396.282766,52.1555333 C395.360079,52.7185111 394.188616,53 392.769546,53 C391.012936,53 389.571675,52.5171111 388.439924,51.5489778 C387.30934,50.5820222 386.74288,49.2617333 386.74288,47.5869333 C386.74288,45.8108444 387.312843,44.4304889 388.450435,43.4482222 C389.588027,42.4659556 391.083014,41.9736444 392.936564,41.9736444 C394.556523,41.9736444 395.869309,42.3552444 396.879593,43.1172667 C397.483427,43.566 397.936595,44.2137778 398.236761,45.0594222 L395.604182,45.5682222 C395.44534,45.0240889 395.117143,44.5918444 394.619593,44.2750222 C394.119706,43.9582 393.513536,43.7980222 392.801081,43.7980222 C391.81766,43.7980222 391.017608,44.0842222 390.40443,44.6519111 C389.790084,45.2207778 389.482911,46.1453333 389.482911,47.4244 C389.482911,48.7764889 389.785412,49.7387333 390.389247,50.3134889 C390.989577,50.8870667 391.774445,51.1756222 392.742683,51.1756222 C393.452802,51.1756222 394.06598,50.9954222 394.578714,50.6338444 C395.09028,50.2710889 395.459355,49.7010444 395.682435,48.9237111" id="Fill-29" fill="#595757" mask="url(#mask-2)"></path>
                <polygon id="Fill-30" fill="#595757" mask="url(#mask-2)" points="399.861508 52.8124978 399.861508 43.5304311 408.401622 43.5304311 408.401622 45.1133644 402.17757 45.1133644 402.17757 47.1520978 407.975317 47.1520978 407.975317 48.7350311 402.17757 48.7350311 402.17757 51.2307422 408.61419 51.2307422 408.61419 52.8124978"></polygon>
                <polygon id="Fill-31" fill="#595757" mask="url(#mask-2)" points="410.182759 52.8124978 410.182759 43.5304311 412.440423 43.5304311 417.178831 49.7667644 417.178831 43.5304311 419.336051 43.5304311 419.336051 52.8124978 417.007141 52.8124978 412.339978 46.7139644 412.339978 52.8124978"></polygon>
                <polygon id="Fill-32" fill="#595757" mask="url(#mask-2)" points="423.971211 52.8124978 423.971211 45.1133644 420.592307 45.1133644 420.592307 43.5304311 429.66501 43.5304311 429.66501 45.1133644 426.287273 45.1133644 426.287273 52.8124978"></polygon>
                <polygon id="Fill-33" fill="#595757" mask="url(#mask-2)" points="430.809025 52.8124978 430.809025 43.5304311 439.349139 43.5304311 439.349139 45.1133644 433.122751 45.1133644 433.122751 47.1520978 438.921666 47.1520978 438.921666 48.7350311 433.122751 48.7350311 433.122751 51.2307422 439.562875 51.2307422 439.562875 52.8124978"></polygon>
                <path d="M443.444469,52.8124978 L443.444469,48.9493867 L443.916325,48.9493867 C444.446578,48.9493867 444.836676,48.9835422 445.083115,49.0518533 C445.329555,49.1213422 445.561978,49.24972 445.780387,49.4369867 C445.999963,49.6277867 446.408748,50.0776978 447.005575,50.7926089 L448.675756,52.8124978 L451.451994,52.8124978 L450.048107,51.0128533 C449.497999,50.2908756 449.057679,49.7879644 448.73065,49.5064756 C448.403622,49.2238089 447.9925,48.9646978 447.490278,48.7291422 C448.497058,48.6125422 449.255064,48.3251644 449.76079,47.8705422 C450.27002,47.4170978 450.523467,46.8388089 450.523467,46.1415644 C450.523467,45.5915422 450.354113,45.1015867 450.020076,44.6740533 C449.68604,44.24652 449.23988,43.9485422 448.6851,43.7812978 C448.129151,43.6128756 447.237999,43.5304311 446.010474,43.5304311 L441.130743,43.5304311 L441.130743,52.8124978 L443.444469,52.8124978 Z M443.444469,45.1133644 L445.253637,45.1133644 C446.191508,45.1133644 446.755632,45.1239644 446.943673,45.1463422 C447.320924,45.1981644 447.611746,45.3194756 447.818474,45.5149867 C448.025203,45.7069644 448.127983,45.9578311 448.127983,46.2699422 C448.127983,46.5490756 448.04973,46.7822756 447.892056,46.9671867 C447.735549,47.1520978 447.518309,47.2840089 447.241503,47.3593867 C446.964697,47.4359422 446.270929,47.4724533 445.161368,47.4724533 L443.444469,47.4724533 L443.444469,45.1133644 Z" id="Fill-34" fill="#595757" mask="url(#mask-2)"></path>
                <path d="M140.850792,21.8118556 L133.597768,21.8118556 L133.597768,19.7813667 L141.497841,19.7813667 L141.497841,16.3705222 L143.743825,16.3705222 L143.743825,19.7813667 L146.015505,19.7813667 L146.015505,21.8118556 L143.743825,21.8118556 L143.743825,35.9722778 C143.725138,36.8756333 143.3292,37.5611 142.554843,38.0310333 C141.4009,38.7400556 139.217986,38.6635 135.999091,37.7954778 L136.049314,35.6613444 C137.23596,35.9911222 138.07105,36.2078333 138.553417,36.3114778 C139.137396,36.4339667 139.689841,36.5034556 140.204911,36.5199444 C140.584497,36.5199444 140.937221,36.3809667 141.264249,36.1041889 C141.41842,35.9817 141.497841,35.7567444 141.497841,35.4269667 L141.497841,25.3499 C139.449241,29.0657889 137.133179,31.9725444 134.551991,34.0737 L132.642378,32.9018111 C136.309768,29.7253444 139.042792,26.0294778 140.850792,21.8118556 Z M128.769427,34.9841222 L130.628818,33.8652333 C131.884373,35.3928111 132.780197,36.5564556 133.313955,37.3538111 L131.377479,38.3419667 C130.77598,37.4209444 129.905851,36.3020556 128.769427,34.9841222 Z M123.992476,33.6049444 L125.982678,34.5931 C125.431402,35.7732333 124.586967,37.1005889 123.45288,38.5763444 L121.516404,37.4833667 C122.684363,35.9381222 123.512445,34.6449222 123.992476,33.6049444 Z M124.845086,21.7859444 L129.931546,21.7859444 L129.931546,19.0523222 C129.931546,18.9993222 129.896507,18.9734111 129.827598,18.9734111 L124.92334,18.9734111 C124.85443,18.9734111 124.828735,18.9993222 124.845086,19.0523222 L124.845086,21.7859444 Z M124.845086,26.5747889 L129.931546,26.5747889 L129.931546,23.7363444 L124.845086,23.7363444 L124.845086,26.5747889 Z M129.931546,28.5287222 L124.845086,28.5287222 L124.845086,31.1575222 C124.828735,31.2093444 124.85443,31.2446778 124.92334,31.2611667 L129.827598,31.2611667 C129.896507,31.2446778 129.931546,31.2093444 129.931546,31.1575222 L129.931546,28.5287222 Z M132.177531,32.9018111 C132.177531,33.1091 132.065407,33.2139222 131.842327,33.2139222 L122.909779,33.2139222 C122.704218,33.2139222 122.599102,33.1091 122.599102,32.9018111 L122.599102,17.3080333 C122.599102,17.1160556 122.704218,17.0218333 122.909779,17.0218333 L131.842327,17.0218333 C132.065407,17.0218333 132.177531,17.1160556 132.177531,17.3080333 L132.177531,32.9018111 Z" id="Fill-35" fill="#595757" mask="url(#mask-2)"></path>
                <path d="M160.660422,23.8304489 L160.660422,22.9718489 L155.833249,22.9718489 C155.783026,22.9718489 155.764339,22.9895156 155.783026,23.0236711 L155.783026,23.8304489 L160.660422,23.8304489 Z M162.495285,22.9718489 L162.495285,23.8304489 L167.37268,23.8304489 L167.37268,23.0236711 C167.37268,22.9895156 167.348153,22.9718489 167.295595,22.9718489 L162.495285,22.9718489 Z M160.660422,26.0694044 L160.660422,25.1059822 L155.783026,25.1059822 L155.783026,25.9916711 C155.764339,26.0258267 155.783026,26.0517378 155.833249,26.0694044 L160.660422,26.0694044 Z M162.495285,25.1059822 L162.495285,26.0694044 L167.295595,26.0694044 C167.348153,26.0517378 167.37268,26.0258267 167.37268,25.9916711 L167.37268,25.1059822 L162.495285,25.1059822 Z M166.675409,27.8914267 L167.37268,27.3708489 L162.495285,27.3708489 L162.495285,28.3601822 L167.037476,28.25536 C166.917176,28.11756 166.795709,27.9962489 166.675409,27.8914267 Z M167.400711,32.6037156 L167.400711,34.3739156 C167.364504,34.91216 167.236029,35.3279156 167.012949,35.6247156 C166.753662,35.9368267 166.368236,36.1888711 165.85083,36.3796711 L170.755088,36.3796711 C170.910427,36.3796711 170.98868,36.3078267 170.98868,36.1700267 L170.98868,18.6505822 C170.98868,18.5280933 170.910427,18.4680267 170.755088,18.4680267 L162.495285,18.4680267 L162.495285,19.3278044 L169.619833,19.3278044 L169.619833,20.8118044 L162.495285,20.8118044 L162.495285,21.6704044 L168.948256,21.6704044 C169.119946,21.6704044 169.207543,21.7410711 169.207543,21.8788711 L169.207543,27.1376489 C169.207543,27.2931156 169.119946,27.3708489 168.948256,27.3708489 L168.663274,27.3708489 C169.28346,27.9962489 169.936349,28.7771156 170.624277,29.7146267 L169.154985,30.7027822 C168.930737,30.4083378 168.714665,30.1398044 168.509104,29.8960044 L167.400711,29.9490044 L167.400711,31.1456267 L170.446747,31.1456267 L170.446747,32.6037156 L167.400711,32.6037156 Z M156.583078,33.7237822 L157.770892,32.6037156 L153.176143,32.6037156 L153.176143,31.1456267 L165.463068,31.1456267 L165.463068,30.0008267 L153.897941,30.2611156 L153.691212,28.59456 L160.660422,28.4379156 L160.660422,27.3708489 L154.180587,27.3708489 C154.027584,27.3708489 153.948163,27.2931156 153.948163,27.1376489 L153.948163,21.8788711 C153.948163,21.7410711 154.027584,21.6704044 154.180587,21.6704044 L160.660422,21.6704044 L160.660422,20.8118044 L153.176143,20.8118044 L153.176143,19.3278044 L160.660422,19.3278044 L160.660422,18.4680267 L152.374923,18.4680267 C152.238272,18.4868711 152.168194,18.54576 152.168194,18.6505822 L152.168194,36.1700267 C152.185714,36.3078267 152.254623,36.3796711 152.374923,36.3796711 L164.740101,36.3796711 C164.223864,36.2748489 163.491553,36.0498933 162.545507,35.7024489 L162.599233,33.8533378 C164.095388,34.3562489 164.928143,34.5552933 165.102168,34.4528267 C165.343936,34.2961822 165.463068,34.1395378 165.463068,33.9828933 L165.463068,32.6037156 L158.003316,32.6037156 C158.673724,33.1254711 159.406034,33.8180044 160.19791,34.6860267 L158.83023,35.8060933 C157.968277,34.8509156 157.220783,34.1572044 156.583078,33.7237822 Z M173.027936,37.5739378 C173.010417,37.8884044 172.837559,38.0450489 172.51053,38.0450489 L150.618313,38.0450489 C150.291285,38.0273822 150.127771,37.8707378 150.127771,37.5739378 L150.127771,17.2443156 C150.127771,16.9498711 150.291285,16.8026489 150.618313,16.8026489 L172.51053,16.8026489 C172.856246,16.8026489 173.027936,16.9498711 173.027936,17.2443156 L173.027936,37.5739378 Z" id="Fill-36" fill="#595757" mask="url(#mask-2)"></path>
                <path d="M198.998898,36.9027222 L183.328397,38.1770778 C183.139188,37.5187 182.916107,36.7884778 182.657989,35.9911222 L185.445906,35.8073889 C187.165141,33.3093222 188.757069,30.6204556 190.221689,27.7396111 L184.258092,27.7396111 L184.258092,25.7079444 L191.33125,25.7079444 L191.33125,21.3607667 L184.87711,21.3607667 L184.87711,19.3291 L191.33125,19.3291 L191.33125,16.2845444 L193.576066,16.2845444 L193.576066,19.3291 L200.391105,19.3291 L200.391105,21.3607667 L193.576066,21.3607667 L193.576066,25.7079444 L201.321968,25.7079444 L201.321968,27.7396111 L192.829741,27.7396111 C191.779746,29.9090778 190.271911,32.5202111 188.312076,35.5730111 L197.915033,34.8969667 C197.002857,33.2315889 196.13156,31.8606556 195.306981,30.7841667 L197.269151,29.7701 C198.869255,31.7994111 200.400449,34.4364556 201.865069,37.6835889 L199.825813,38.5951889 C199.530319,38.0039444 199.258185,37.4386111 198.998898,36.9027222 M181.805379,29.0928778 L183.974278,29.6393667 C182.768945,33.3693889 181.160666,36.2243222 179.145937,38.2041667 L177.029596,37.1359222 C179.318795,34.8274778 180.909555,32.1480333 181.805379,29.0928778 M177.545834,24.6408778 L178.629699,22.8435889 C179.970516,23.3641667 181.477182,24.1627 183.147363,25.2391889 L181.933854,26.9846556 C180.162061,25.8728333 178.698609,25.0919667 177.545834,24.6408778 M177.803952,18.2879444 L179.040821,16.5707444 C180.506609,17.2644556 182.125399,18.2785222 183.896025,19.6153 L182.55404,21.2818556 C180.675963,19.8944333 179.093379,18.8968556 177.803952,18.2879444" id="Fill-37" fill="#595757" mask="url(#mask-2)"></path>
                <path d="M217.126201,25.2480222 C216.435937,27.5741333 215.472371,29.7000222 214.230831,31.6256889 C212.477725,34.2120889 209.999317,36.4675333 206.797942,38.3943778 L205.0425,36.8844667 C212.098139,33.2745778 215.729322,26.8792444 215.936051,17.6996444 L215.936051,16.3699333 L218.284816,16.3699333 L218.284816,17.6996444 C218.284816,18.0117556 218.277808,18.3144444 218.260288,18.6100667 L218.284816,18.6100667 C218.352557,21.3507556 218.784702,23.6851111 219.576578,25.6131333 C221.09142,29.6211111 224.327834,33.4748 229.283482,37.1706667 L227.321312,38.4473778 C226.049405,37.3885556 224.973715,36.4510444 224.09541,35.6348444 C220.703658,32.4925333 218.381756,29.0310444 217.126201,25.2480222" id="Fill-38" fill="#595757" mask="url(#mask-2)"></path>
                <path d="M252.317846,29.2236111 L237.344616,29.2236111 C237.258187,29.2236111 237.223148,29.2495222 237.240668,29.3025222 L237.240668,35.6024556 C237.240668,35.6542778 237.275706,35.6884333 237.344616,35.7049222 L252.317846,35.7049222 C252.403107,35.6884333 252.447489,35.6542778 252.447489,35.6024556 L252.447489,29.3025222 C252.42997,29.2495222 252.38442,29.2236111 252.317846,29.2236111 Z M254.796254,37.1630111 C254.796254,37.5446111 254.58135,37.7354111 254.149205,37.7354111 L235.510921,37.7354111 C235.098632,37.7354111 234.891903,37.5446111 234.891903,37.1630111 L234.891903,27.7396111 C234.891903,27.3591889 235.098632,27.1660333 235.510921,27.1660333 L254.149205,27.1660333 C254.58135,27.1660333 254.796254,27.3591889 254.796254,27.7396111 L254.796254,37.1630111 Z M253.300099,23.8093667 L233.136461,25.0578111 C232.964771,24.4347667 232.766218,23.7304556 232.544306,22.9484111 L234.891903,22.8447667 C236.820203,20.7977889 238.634042,18.5246778 240.338094,16.0254333 L242.197484,17.1702333 C241.216399,18.6966333 239.813681,20.5280778 237.989329,22.6633889 L251.284203,21.9343444 C249.632709,20.4256111 248.548843,19.4786778 248.032606,19.0959 L249.710962,17.6401667 C252.877298,20.2948778 255.424616,22.6810556 257.351748,24.7975222 L255.544916,26.1248778 C254.87334,25.3793444 254.124678,24.6067222 253.300099,23.8093667 Z" id="Fill-39" fill="#595757" mask="url(#mask-2)"></path>
                <path d="M267.195654,35.3925756 L266.936367,36.2523533 C266.35122,36.0438867 265.77308,35.8342422 265.207788,35.6269533 L266.343044,31.8003533 C266.480863,31.4705756 266.712119,31.33042 267.040315,31.3822422 L281.289411,31.3822422 L281.289411,30.7839311 C281.271891,30.6791089 281.202982,30.6296422 281.082682,30.6296422 L266.18537,30.6296422 L266.18537,29.1456422 L282.682786,29.1456422 C282.975943,29.1621311 283.12077,29.2916867 283.12077,29.5354867 L283.12077,33.5446422 L281.289411,33.5446422 L281.289411,32.86742 L268.301711,32.86742 C268.02724,32.9027533 267.890589,33.0841311 267.890589,33.4139089 L267.709556,33.9344867 L283.816873,33.9344867 C284.264202,33.9521533 284.48261,34.1264644 284.462755,34.4538867 C284.308584,36.0356422 283.947685,37.0850422 283.377721,37.60562 C283.155809,37.8129089 282.916377,37.9954644 282.65709,38.1521089 C281.452925,38.65502 277.46785,38.6985978 270.70537,38.2828422 L270.600253,36.5632867 C272.943178,36.8070867 274.843447,36.93782 276.306899,36.9554867 C279.696315,36.9884644 281.624615,36.8247533 282.089463,36.4596422 C282.226114,36.2523533 282.320718,35.8872422 282.373276,35.3666644 C282.355757,35.3843311 282.286848,35.3925756 282.166548,35.3925756 L267.195654,35.3925756 Z M282.6057,25.3166867 L284.181276,24.9798422 C284.765256,26.88902 285.066589,27.9207533 285.084109,28.0773978 L283.5097,28.3388644 C283.320491,27.5214867 283.019158,26.5156644 282.6057,25.3166867 Z M278.26907,24.9527533 L279.845814,25.2660422 C279.72201,26.3236867 279.507106,27.3907533 279.196429,28.46842 L277.647716,28.0773978 C277.907003,27.1575533 278.113731,26.1163978 278.26907,24.9527533 Z M280.413442,24.19662 L278.113731,24.4050867 C278.061173,23.9563533 277.932698,23.4534422 277.725969,22.8987089 L279.094817,22.7397089 C279.421845,22.4111089 279.775736,22.05542 280.154155,21.67382 C279.413669,20.8587978 278.647488,20.1886422 277.855612,19.6692422 C278.216512,19.2346422 278.561059,18.8094644 278.889256,18.3925311 C278.923127,18.3925311 278.972181,18.4278644 279.044594,18.4985311 C279.507106,17.7506422 279.954434,16.9709533 280.385411,16.1547533 C280.901649,16.4503756 281.400367,16.7189089 281.882734,16.9627089 C281.537018,17.6210867 280.996253,18.4714422 280.258103,19.5125978 C280.515054,19.75522 280.805876,20.0425978 281.13524,20.3711978 C281.614103,19.5903311 281.996026,18.8365533 282.270496,18.1063311 L283.92199,18.6269089 C283.594961,19.5997533 282.726,20.8835311 281.31277,22.4805978 L282.787902,22.3498644 C282.647747,21.9682644 282.553142,21.7256422 282.501752,21.62082 L284.051633,21.2050644 C284.60291,22.5241756 284.955633,23.5135089 285.108636,24.1730644 L283.534227,24.5110867 C283.481669,24.30262 283.423271,24.0941533 283.354362,23.8845089 L282.142021,24.0423311 L282.142021,28.8335311 L280.413442,28.8335311 L280.413442,24.19662 Z M275.944832,25.0575756 L273.879881,25.0575756 C273.829659,25.0575756 273.81214,25.06582 273.829659,25.0846644 L273.829659,27.0609756 C273.81214,27.0974867 273.829659,27.12222 273.879881,27.1398867 L275.944832,27.1398867 C275.995054,27.1057311 276.021917,27.0786422 276.021917,27.0609756 L276.021917,25.0846644 C276.021917,25.06582 275.995054,25.0575756 275.944832,25.0575756 Z M277.440987,28.12922 C277.425804,28.2681978 277.355726,28.3388644 277.236594,28.3388644 L272.588119,28.3388644 C272.468987,28.3211978 272.408253,28.2505311 272.408253,28.12922 L272.408253,24.01642 C272.408253,23.9115978 272.468987,23.8597756 272.588119,23.8597756 L277.236594,23.8597756 C277.374413,23.8597756 277.440987,23.9115978 277.440987,24.01642 L277.440987,28.12922 Z M272.460811,23.1837311 L277.339375,23.1837311 L277.339375,21.9859311 L272.460811,21.9859311 L272.460811,23.1837311 Z M272.358031,21.3864422 L277.442155,21.3864422 L277.442155,20.1886422 L272.358031,20.1886422 L272.358031,21.3864422 Z M271.737845,19.6162422 L277.855612,19.6162422 L277.855612,18.4184422 L271.737845,18.4184422 L271.737845,19.6162422 Z M272.148966,17.8213089 L277.544935,17.8213089 L277.544935,16.6235089 L272.148966,16.6235089 L272.148966,17.8213089 Z M269.800202,25.5781533 L271.402641,25.2919533 C271.675943,26.0386644 271.897855,26.8795978 272.073049,27.8182867 L270.472946,28.0255756 C270.24753,26.9161089 270.023282,26.0987311 269.800202,25.5781533 Z M265.387654,25.2401311 L266.936367,25.55342 C266.831251,26.1941311 266.618682,27.17522 266.290486,28.4931533 L264.739437,28.0514867 C265.018579,27.2023089 265.232315,26.2647978 265.387654,25.2401311 Z M267.606775,24.3285311 L265.232315,24.6147311 C265.163406,24.1636422 265.016243,23.6619089 264.791995,23.1059978 L266.083757,22.9493533 C266.480863,22.5830644 266.890817,22.1602422 267.322961,21.67382 C266.514734,21.0307533 265.712346,20.5360867 264.921638,20.1886422 C265.179757,19.7222422 265.436708,19.2546644 265.697163,18.7835533 C265.732202,18.7835533 265.808119,18.8188867 265.927251,18.8871978 C266.445824,18.0556867 266.918848,17.1440867 267.348656,16.1547533 C267.848543,16.4150422 268.354269,16.6670867 268.872842,16.9085311 C268.544646,17.6387533 268.019065,18.5668422 267.297266,19.6951533 C267.590424,19.90362 267.917452,20.1285756 268.278351,20.3711978 C268.742031,19.6256644 269.104098,18.9060422 269.361049,18.2111533 L271.014879,18.7317311 C270.70537,19.6692422 269.827065,20.9624422 268.381132,22.6101533 L269.905318,22.4028644 C269.800202,22.0719089 269.698589,21.7868867 269.594641,21.5430867 L271.169049,21.1261533 C271.564987,21.9765089 271.874496,23.0341533 272.098744,24.30262 L270.499809,24.64182 C270.447251,24.39802 270.394693,24.1730644 270.343302,23.9657756 L269.336522,24.1200644 L269.336522,28.75462 L267.606775,28.75462 L267.606775,24.3285311 Z M262.933773,28.5708867 L264.948501,28.6768867 C264.655344,32.39042 263.777039,35.4290867 262.313587,37.7869978 L260.198413,37.2157756 C261.867426,34.5587089 262.777266,31.6790422 262.933773,28.5708867 Z M260.170382,23.8597756 L261.514703,22.4546867 C262.495788,23.0965756 263.562134,23.97402 264.716078,25.0846644 L263.271313,26.4638422 C262.04846,25.2837089 261.014817,24.4156867 260.170382,23.8597756 Z M260.506755,18.3925311 L261.771654,16.9085311 C262.770258,17.4809311 263.847116,18.2900644 264.998724,19.3288644 L263.629876,20.7351311 C262.39184,19.65982 261.351189,18.8789533 260.506755,18.3925311 Z" id="Fill-40" fill="#595757" mask="url(#mask-2)"></path>
                <path d="M296.052408,29.9429978 L296.802238,34.7318422 L294.969711,34.9403089 L294.374052,30.2539311 L296.052408,29.9429978 Z M288.565793,29.9429978 L290.475406,30.0972867 C290.321235,33.3597311 290.142537,35.6693533 289.934641,37.02262 L288.050724,36.7635089 C288.394103,34.5751978 288.565793,32.3020867 288.565793,29.9429978 Z M291.356047,28.3800867 L288.48754,28.7181089 C288.402279,28.1798644 288.232925,27.5827311 287.97247,26.9219978 L289.080863,26.7924422 C289.840036,26.11522 290.640088,25.2118644 291.484522,24.0835533 C290.313059,22.9222644 289.09955,22.00242 287.843995,21.3251978 C288.186207,20.8057978 288.537762,20.2757978 288.904501,19.7363756 C289.021297,19.7540422 289.349494,19.9625089 289.883251,20.3617756 C290.468398,19.1651533 291.017339,17.8613533 291.534744,16.4562644 C292.153762,16.7012422 292.783292,16.9438644 293.419829,17.1853089 C293.006372,18.2782867 292.327788,19.7198867 291.381742,21.5065756 C291.742641,21.7857089 292.136243,22.1154867 292.568388,22.4959089 C293.410486,21.1084867 294.022496,19.7811311 294.399747,18.5126644 L296.363085,19.0085089 C295.812977,21.0048422 294.236233,23.4852422 291.638693,26.45442 L294.425442,26.0893089 C294.133452,25.2047978 293.952419,24.6229756 293.885845,24.34502 L295.768594,23.9799089 C296.335054,25.68062 296.748512,27.2611978 297.00663,28.7181089 L295.123881,28.9795756 C295.054972,28.64862 294.986062,28.3105978 294.917152,27.9643311 L293.496915,28.1197978 L293.496915,38.4017978 L291.356047,38.4017978 L291.356047,28.3800867 Z M307.281163,23.1990422 L309.942941,23.1990422 L309.942941,18.98142 C309.942941,18.8777756 309.881039,18.8247756 309.760739,18.8247756 L299.641545,18.8247756 C299.538765,18.8247756 299.486207,18.8777756 299.486207,18.98142 L299.486207,23.1990422 L305.063209,23.1990422 C305.905307,21.6714644 306.507974,20.3711978 306.868873,19.2935311 L308.702568,20.0484867 C308.27276,21.0743311 307.800904,22.1249089 307.281163,23.1990422 Z M299.486207,26.9479089 L303.694362,26.9479089 L303.694362,24.9692422 L299.486207,24.9692422 L299.486207,26.9479089 Z M305.73245,26.9479089 L309.941773,26.9479089 L309.941773,24.9692422 L305.73245,24.9692422 L305.73245,26.9479089 Z M301.525463,28.7181089 L299.486207,28.7181089 L299.486207,38.2993311 L297.343003,38.2993311 L297.343003,17.6552422 C297.360522,17.2029756 297.610465,16.9768422 298.092832,16.9768422 L311.311788,16.9768422 C311.826858,16.9945089 312.083809,17.2206422 312.083809,17.6552422 L312.083809,35.9555533 C312.083809,36.8059089 311.747437,37.4489756 311.077028,37.88122 C310.23493,38.4712867 308.471313,38.5054422 305.785008,37.9860422 L305.656532,35.82482 C306.979829,36.1899311 307.93522,36.3807311 308.522703,36.3983978 C308.831044,36.3983978 309.116026,36.3194867 309.371809,36.1616644 C309.751395,35.9555533 309.942941,35.6599311 309.942941,35.2783311 L309.942941,28.7181089 L303.565886,28.7181089 L303.565886,32.0500422 C303.565886,32.3809978 303.74692,32.5447089 304.106651,32.5447089 L308.65001,32.5447089 L308.65001,34.39382 L302.507716,34.39382 C301.853659,34.39382 301.525463,34.0899533 301.525463,33.48222 L301.525463,28.7181089 Z M300.855054,20.3358644 L302.688749,19.6845533 C303.099871,20.3617756 303.471282,21.2380422 303.797142,22.3133533 L301.93892,22.8869311 C301.576853,21.7939533 301.217121,20.9435978 300.855054,20.3358644 Z" id="Fill-41" fill="#595757" mask="url(#mask-2)"></path>
                <path d="M337.008514,31.0541133 L329.420286,31.0541133 C329.349041,31.0541133 329.323346,31.0882689 329.340865,31.1577578 L329.340865,35.8429578 C329.323346,35.8971356 329.349041,35.9324689 329.420286,35.94778 L337.008514,35.94778 C337.077423,35.9324689 337.111294,35.8971356 337.111294,35.8429578 L337.111294,31.1577578 C337.111294,31.0882689 337.077423,31.0541133 337.008514,31.0541133 Z M339.357279,37.5884244 C339.357279,37.7957133 339.245155,37.9017133 339.020906,37.9017133 L327.405558,37.9017133 C327.199997,37.9017133 327.094881,37.7957133 327.094881,37.5884244 L327.094881,29.3887356 C327.094881,29.1979356 327.199997,29.1025356 327.405558,29.1025356 L339.020906,29.1025356 C339.245155,29.1025356 339.357279,29.1979356 339.357279,29.3887356 L339.357279,37.5884244 Z M323.067759,18.7404467 L319.092028,18.7404467 C319.03947,18.7404467 319.013775,18.7604689 319.013775,18.7922689 L319.013775,22.9580689 C319.013775,23.0287356 319.03947,23.0617133 319.092028,23.0617133 L323.067759,23.0617133 C323.136669,23.0617133 323.17054,23.0287356 323.17054,22.9580689 L323.17054,18.7922689 C323.17054,18.7604689 323.136669,18.7404467 323.067759,18.7404467 Z M330.140917,19.10438 C331.22595,20.5978022 332.282953,21.8215133 333.317764,22.7766911 C334.280162,21.9086689 335.234384,20.7214689 336.182767,19.21038 C336.251676,18.8982689 336.199118,18.7404467 336.027428,18.7404467 L330.373341,18.7404467 C330.290416,18.8806022 330.210994,19.0019133 330.140917,19.10438 Z M328.774405,20.8498467 C328.102829,21.5270689 327.319129,22.17838 326.423304,22.8026022 L325.210963,21.5011578 L325.210963,24.6234467 C325.210963,24.8166022 325.107015,24.9108244 324.901454,24.9108244 L322.579552,24.9108244 L322.579552,28.5018689 L325.313744,28.5018689 L325.313744,30.35098 L322.579552,30.35098 L322.579552,34.5415133 C323.455521,34.2647356 324.159801,34.0232911 324.694726,33.8136467 L325.47025,35.6097578 C323.609692,36.4082911 320.632565,37.2610022 316.536534,38.1620022 L315.814736,36.3128911 C316.140596,36.2104244 316.49332,36.1326911 316.872906,36.0785133 L316.872906,27.4100689 L318.705434,27.4100689 L318.705434,35.6097578 C319.220503,35.4542911 319.797475,35.2976467 320.434012,35.1410022 L320.434012,24.9108244 L317.259501,24.9108244 C317.071459,24.9108244 316.975687,24.8166022 316.975687,24.6234467 L316.975687,17.1268911 C316.99087,16.9537578 317.086643,16.8666022 317.259501,16.8666022 L324.901454,16.8666022 C325.107015,16.8830911 325.210963,16.9702467 325.210963,17.1268911 L325.210963,21.2149578 C326.25979,20.5200689 327.044658,19.8699356 327.560896,19.2622022 C328.161227,18.5166689 328.780245,17.4649133 329.420286,16.1104689 L331.562322,16.1375578 C331.459542,16.3790022 331.354426,16.6251578 331.250478,16.8666022 L337.551614,16.8666022 L339.15055,17.8041133 C338.273413,19.8169356 337.334374,21.4057578 336.338105,22.5670467 C335.855739,23.1052911 335.382715,23.60938 334.9167,24.0781356 C336.412855,25.0839578 338.323635,26.0144022 340.647873,26.8612244 L339.15055,28.6078689 C337.05056,27.7233578 335.123428,26.6386244 333.370322,25.3536689 C331.303036,26.7410911 328.954271,27.9577356 326.320524,28.9965356 L325.004235,27.3323356 C327.689372,26.37598 329.934188,25.2924244 331.742188,24.0781356 C330.759935,23.1582911 329.771842,22.0818022 328.774405,20.8498467 Z" id="Fill-42" fill="#595757" mask="url(#mask-2)"></path>
                <path d="M349.276635,27.7496222 L362.932407,27.7496222 L362.932407,26.5518222 C362.932407,26.5 362.897368,26.4740889 362.827291,26.4740889 L349.35372,26.4740889 C349.283642,26.4740889 349.259115,26.5 349.276635,26.5518222 L349.276635,27.7496222 Z M349.276635,30.6646222 L362.932407,30.6646222 L362.932407,29.415 L349.276635,29.415 L349.276635,30.6646222 Z M362.932407,32.33 L349.276635,32.33 L349.276635,33.5030667 C349.259115,33.5548889 349.283642,33.5890444 349.35372,33.6067111 L362.827291,33.6067111 C362.897368,33.5890444 362.932407,33.5548889 362.932407,33.5030667 L362.932407,32.33 Z M359.989151,35.3769111 L352.114774,35.3769111 L352.579622,36.9115556 C350.446929,37.6594444 347.794495,38.2483333 344.628159,38.6829333 L344.165648,36.7549111 C346.882319,36.3391556 349.145823,35.8798222 350.953823,35.3769111 L347.312128,35.3769111 C347.124087,35.3769111 347.029482,35.2803333 347.029482,35.0907111 L347.029482,24.963 C347.045834,24.7898667 347.140438,24.7015333 347.312128,24.7015333 L349.35372,24.7015333 L364.867715,24.7015333 C365.073275,24.7215556 365.180728,24.8087111 365.180728,24.963 L365.180728,35.0907111 C365.180728,35.2803333 365.073275,35.3769111 364.867715,35.3769111 L360.840593,35.3769111 C363.509379,35.8444889 365.858144,36.3568222 367.890392,36.9115556 L367.217648,38.7347556 C364.548862,37.9197333 361.977017,37.3638222 359.499777,37.0682 L359.989151,35.3769111 Z M358.23371,20.8242889 C356.940779,22.7158 354.559312,23.9395111 351.082299,24.4930667 L350.256552,22.6204 C350.893089,22.5332444 351.451374,22.4543333 351.936076,22.3872 C354.069937,22.0056 355.754133,20.9279333 356.993337,19.1589111 L354.103808,19.1589111 C353.000087,20.1317556 352.184852,20.7724667 351.649927,21.0845778 L350.103549,19.6794889 C351.770226,18.6724889 353.07834,17.4405333 354.025555,15.9824444 L355.858082,17.0247778 C355.737782,17.1625778 355.640841,17.2827111 355.574268,17.3887111 L366.521544,17.3887111 L367.736221,18.4816889 C366.702578,19.6806667 365.581337,20.7995556 364.37834,21.8395333 L362.725679,20.6158222 C363.363384,20.0599111 363.912325,19.5746667 364.37834,19.1589111 L359.370133,19.1589111 C360.866288,21.4332 363.732459,22.7075556 367.965141,22.9866889 L367.321596,24.963 C367.233999,24.9453333 367.163921,24.9359111 367.113699,24.9359111 C363.173007,24.5554889 360.213399,23.1857333 358.23371,20.8242889 Z M349.120128,20.7453778 L350.488976,22.2552889 C348.387818,23.7487111 346.452511,24.6850444 344.679549,25.0678222 L343.698464,23.2728889 C345.763415,22.7676222 347.572583,21.9255111 349.120128,20.7453778 Z M344.292955,19.1059111 L350.103549,19.1059111 L350.103549,17.2568 L344.292955,17.2568 L344.292955,19.1059111 Z" id="Fill-43" fill="#595757" mask="url(#mask-2)"></path>
                <path d="M378.44138,31.0052356 L374.570765,31.0052356 C374.501855,31.0052356 374.47616,31.0323244 374.494848,31.0841467 L374.494848,35.90008 C374.47616,35.95308 374.501855,35.9884133 374.570765,36.0049022 L378.44138,36.0049022 C378.511457,35.9884133 378.546496,35.95308 378.546496,35.90008 L378.546496,31.0841467 C378.546496,31.0323244 378.511457,31.0052356 378.44138,31.0052356 Z M380.688532,37.5666356 C380.688532,37.7562578 380.585752,37.8540133 380.379023,37.8540133 L372.634289,37.8540133 C372.443912,37.8540133 372.349307,37.7562578 372.349307,37.5666356 L372.349307,29.4175911 C372.366827,29.2444578 372.462599,29.1573022 372.634289,29.1573022 L380.379023,29.1573022 C380.585752,29.1749689 380.688532,29.2633022 380.688532,29.4175911 L380.688532,37.5666356 Z M372.866713,28.1173244 L380.224853,28.1173244 L380.224853,26.2423022 L372.866713,26.2423022 L372.866713,28.1173244 Z M372.866713,25.0963244 L380.224853,25.0963244 L380.224853,23.2495689 L372.866713,23.2495689 L372.866713,25.0963244 Z M371.627509,22.1554133 L381.773566,22.1554133 L381.773566,20.2038356 L371.627509,20.2038356 L371.627509,22.1554133 Z M372.968326,19.0578578 L380.223685,19.0578578 L380.223685,17.1039244 L372.968326,17.1039244 L372.968326,19.0578578 Z M384.48323,26.9454356 L384.48323,19.10968 L381.928904,19.10968 L381.928904,17.0780133 L391.946486,17.0780133 C392.444036,17.0097022 392.702155,17.1404356 392.719674,17.4702133 C392.545649,27.7781244 392.752377,33.6799689 393.33986,35.1722133 C393.406434,35.3465244 393.544253,35.42308 393.75215,35.4054133 C393.818724,35.3889244 393.863106,35.3017689 393.882961,35.1451244 C393.913328,34.5032356 393.92384,33.5139022 393.903984,32.17948 L396.12661,32.5693244 C395.937401,35.62448 395.507592,37.4877244 394.836016,38.1673022 C394.476284,38.4782356 394.113049,38.63488 393.75215,38.63488 C393.287302,38.6172133 392.890196,38.4605689 392.564336,38.1673022 C391.87524,37.4359022 391.427912,36.5078133 391.220016,35.3795022 C390.619685,33.1911911 390.367406,27.8911911 390.472522,19.4736133 C390.541432,19.2839911 390.438651,19.1615022 390.164181,19.10968 L386.729214,19.10968 L386.729214,26.2941244 C387.643726,25.9655244 388.365525,25.7052356 388.896946,25.5132578 L389.722693,27.4141911 C389.103674,27.6909689 388.071199,28.0478356 386.627602,28.48008 C386.454744,29.8180356 386.290062,30.9369244 386.135891,31.8391022 C385.480667,34.6339689 384.55214,36.7327689 383.35031,38.1390356 L381.050599,37.4877244 C382.959044,35.0591467 384.069773,32.2654578 384.38045,29.10548 C383.311767,29.3846133 382.408935,29.6001467 381.669618,29.7567911 L380.869566,27.8558578 C381.919561,27.5779022 383.123726,27.2752133 384.48323,26.9454356 Z" id="Fill-44" fill="#595757" mask="url(#mask-2)"></path>
                <path d="M410.326418,21.6813578 L402.505766,21.6813578 C402.331741,21.6813578 402.24648,21.7602689 402.24648,21.9145578 L402.24648,30.2720689 C402.24648,30.4275356 402.331741,30.5064467 402.505766,30.5064467 L410.326418,30.5064467 L410.326418,21.6813578 Z M420.395389,21.6813578 L412.677518,21.6813578 L412.677518,30.5064467 L420.395389,30.5064467 C420.569415,30.5064467 420.654676,30.4275356 420.654676,30.2720689 L420.654676,21.9145578 C420.654676,21.7602689 420.569415,21.6813578 420.395389,21.6813578 Z M423.002273,32.0952689 C423.002273,32.4592022 422.796712,32.6417578 422.382087,32.6417578 L412.677518,32.6417578 L412.677518,38.3940244 L410.326418,38.3940244 L410.326418,32.6417578 L400.493374,32.6417578 C400.096268,32.6417578 399.897715,32.4592022 399.897715,32.0952689 L399.897715,20.0937133 C399.915234,19.7274244 400.114955,19.5472244 400.493374,19.5472244 L410.326418,19.5472244 L410.326418,16.3707578 L412.677518,16.3707578 L412.677518,19.5472244 L422.382087,19.5472244 C422.796712,19.5648911 423.002273,19.7474467 423.002273,20.0937133 L423.002273,32.0952689 Z" id="Fill-45" fill="#595757" mask="url(#mask-2)"></path>
                <path d="M446.005102,19.5385089 L448.199696,19.0944867 C449.729722,23.3651089 450.814756,28.6415533 451.452461,34.92382 L449.207644,35.2371089 C448.429784,28.6227089 447.364606,23.39102 446.005102,19.5385089 Z M437.845743,16.7271533 L440.0672,16.2843089 C441.410352,20.1203311 442.348223,24.8314422 442.88198,30.41882 L440.634828,30.7321089 C439.96442,24.8137756 439.035893,20.1462422 437.845743,16.7271533 Z M433.329247,17.8978644 L435.678011,17.8978644 L435.678011,34.6647089 C435.678011,35.1664422 435.739913,35.49622 435.859045,35.6516867 C436.100812,35.93082 436.531789,36.0697978 437.150807,36.0697978 L442.829422,36.0697978 C443.587427,36.0509533 444.102497,35.8519089 444.378135,35.4691311 C444.549825,35.2441756 444.670125,34.9403089 444.740203,34.5575311 C444.81028,34.1252867 444.81028,32.7025311 444.740203,30.2904422 L447.088967,30.6543756 C447.225619,33.2407756 447.208099,35.0015533 447.037577,35.9378867 C446.918445,36.4949756 446.703541,36.9366422 446.392864,37.2652422 C445.979407,37.6998422 445.609164,37.9601311 445.283303,38.0472867 C444.9189,38.1332644 444.351272,38.1768422 443.576916,38.1768422 L436.142859,38.1768422 C435.471283,38.1768422 434.922342,38.0472867 434.491365,37.7869978 C433.665619,37.2487533 433.277856,36.3206644 433.329247,35.0015533 L433.329247,17.8978644 Z M428.734497,20.0319978 L431.006177,20.1627311 C431.09027,24.5346422 430.481763,29.6991978 429.17365,35.6516867 L426.927665,35.3925756 C428.201908,29.0584867 428.802239,23.9386867 428.734497,20.0319978 Z" id="Fill-46" fill="#595757" mask="url(#mask-2)"></path>
                <path d="M90.2408072,34.9267644 C90.2408072,34.9573867 90.2408072,34.9738756 90.2337995,34.99272 C90.2408072,34.9726978 90.2408072,34.9491422 90.2408072,34.9267644" id="Fill-47" fill="#004098" mask="url(#mask-2)"></path>
                <path d="M0.00221912145,16.32612 L22.2039452,16.32612 C22.2039452,16.32612 24.1626119,16.1023422 25.8351287,17.8996311 C27.5076455,19.69692 27.2296713,21.2197867 27.2296713,21.2197867 L27.2296713,26.5586533 L31.7473354,18.0668756 C31.7473354,18.0668756 32.3628496,16.5463644 34.5936506,16.5463644 C36.8256196,16.5463644 37.3874078,18.1834756 37.3874078,18.1834756 L41.2895576,25.8884978 L41.2918935,16.7218533 L40.5128651,16.7218533 L40.5128651,15.7089644 L47.3162243,15.7089644 C47.3162243,15.7089644 47.7588806,10.5314533 52.6140848,5.86038667 C57.465785,1.19285333 63.6746532,0.965542222 65.4242553,0.965542222 C69.4864155,0.965542222 74.7597488,2.70747556 78.1024465,5.97345333 C81.4544879,9.23354222 82.8466946,13.4546978 83.1328444,15.7089644 L90.1546119,15.7089644 L90.1557798,16.7218533 L88.7040072,16.7218533 L88.7040072,34.7748311 C88.7040072,34.7748311 88.5358212,35.9537867 89.7680176,35.9537867 C90.9932062,35.9537867 90.9932062,34.9408978 90.9932062,34.6028756 L90.9932062,22.1148978 C90.9932062,22.1148978 91.1578884,17.7865644 95.5622605,16.8890978 L105.331067,16.8820311 C105.331067,16.8820311 107.004751,16.7218533 109.007801,18.6345644 C111.017857,20.5460978 110.679149,22.1148978 110.679149,22.1148978 L110.679149,24.7601867 L105.046085,24.7601867 L105.046085,23.5258756 C105.046085,23.5258756 105.056596,22.9275644 104.516999,22.9275644 L97.5209271,22.9275644 C97.5209271,22.9275644 96.7967928,22.89812 96.7967928,23.5294089 L96.7967928,35.3790311 C96.7967928,35.3790311 96.6391183,35.9820533 97.3772682,35.9820533 L104.514664,35.9820533 C104.514664,35.9820533 105.046085,36.0091422 105.046085,35.3790311 L105.046085,34.1411867 L110.581041,34.1411867 L110.581041,35.3790311 C110.581041,35.3790311 110.377816,41.0582756 106.795687,41.6895644 L88.4155214,41.6895644 C88.4155214,41.6895644 83.3454129,41.6318533 83.1211649,36.0998311 L83.1211649,16.7218533 L81.7756765,16.7218533 L81.7756765,15.7513644 C81.7756765,15.7513644 81.0375266,12.2886978 77.2264775,8.91554222 C73.4201003,5.53885333 69.3614439,4.27156444 65.3051235,4.27156444 C61.2429633,4.27156444 57.2684,5.83329778 55.2198005,7.18303111 C53.1700331,8.53512 50.2840072,11.0638089 48.4386326,15.7478311 L48.4386326,16.7218533 L47.1036558,16.7218533 L47.1036558,39.3328311 C47.1036558,39.3328311 46.9366377,41.2738089 44.6322553,41.26792 C42.3360486,41.26792 41.8314904,39.92172 41.5768755,39.4600311 L34.5936506,25.2348311 L27.1082036,39.1620533 C27.1082036,39.1620533 26.3478625,41.1018533 24.2618884,41.1018533 C22.1677385,41.1018533 21.6269736,39.1208311 21.6269736,38.8676089 L21.6269736,23.2149422 C21.6269736,23.2149422 21.7507773,22.1148978 20.4531752,22.1148978 L14.5561519,22.1148978 L14.5561519,41.0582756 L8.53182119,41.0582756 L8.53182119,22.1148978 L0.00221912145,22.1148978 L0.00221912145,16.32612 Z" id="Fill-48" fill="#004098" mask="url(#mask-2)"></path>
                <path d="M54.2143049,35.5909133 C54.2189767,36.8864689 53.1701499,37.9417578 51.8795556,37.9417578 C50.5866253,37.9417578 49.5436382,36.8864689 49.5436382,35.5909133 C49.5436382,34.2871133 50.5866253,33.2282911 51.8795556,33.2282911 C53.1701499,33.2282911 54.2143049,34.2871133 54.2143049,35.5909133" id="Fill-49" fill="#F5AC3C" mask="url(#mask-2)"></path>
                <path d="M86.3673891,3.46773111 C86.3673891,4.76799778 85.3208982,5.82210889 84.0303039,5.82210889 C82.7408775,5.81857556 81.6978904,4.76799778 81.6978904,3.46773111 C81.6967225,2.16746444 82.7408775,1.11335333 84.0303039,1.11335333 C85.3208982,1.11335333 86.370893,2.16746444 86.3673891,3.46773111" id="Fill-50" fill="#F5AC3C" mask="url(#mask-2)"></path>
                <path d="M84.042801,6.60203333 C82.432186,6.60203333 81.1147287,5.35594444 80.96523,3.76123333 L65.3437829,29.7123889 L65.3437829,18.3597889 C65.3437829,17.6896333 64.5110284,16.2138778 62.3316176,16.2138778 C60.1568786,16.2138778 59.1571059,17.9004556 59.1571059,17.9004556 L50.1556486,32.9842556 C50.653199,32.6544778 51.244186,32.4577889 51.8818915,32.4577889 C53.5135297,32.4577889 54.8391628,33.7403889 54.9582946,35.3504111 L59.8637209,26.9245889 L59.8637209,38.6128556 C59.8637209,39.4596778 60.7011473,41.1015 63.0872868,41.1015 C65.4710904,41.1015 66.1812093,39.1204778 66.1812093,39.1204778 L85.4770543,6.23692222 C85.0414057,6.46187778 84.5602067,6.60203333 84.042801,6.60203333" id="Fill-51" fill="#8CC56C" mask="url(#mask-2)"></path>
                <polygon id="Fill-52" fill="#004098" mask="url(#mask-2)" points="1.98120827 52.8498333 0.000350387597 47.1823667 1.60979742 47.1823667 2.78125995 50.8959 3.86278966 47.1823667 5.46289302 47.1823667 6.50821602 50.8959 7.70303773 47.1823667 9.33117209 47.1823667 7.328123 52.8498333 5.73969922 52.8498333 4.65583359 49.2046111 3.59182326 52.8498333"></polygon>
                <polygon id="Fill-53" fill="#004098" mask="url(#mask-2)" points="12.0639618 52.8498333 10.0877757 47.1823667 11.6972227 47.1823667 12.8675173 50.8959 13.949047 47.1823667 15.5468145 47.1823667 16.5979773 50.8959 17.7881271 47.1823667 19.4197654 47.1823667 17.4155483 52.8498333 15.8224527 52.8498333 14.740923 49.2046111 13.6792486 52.8498333"></polygon>
                <polygon id="Fill-54" fill="#004098" mask="url(#mask-2)" points="22.1558253 52.8498333 20.1737995 47.1823667 21.7820786 47.1823667 22.9523731 50.8959 24.0350708 47.1823667 25.6363421 47.1823667 26.6828331 50.8959 27.8753189 47.1823667 29.5022853 47.1823667 27.5015721 52.8498333 25.9073085 52.8498333 24.8316186 49.2046111 23.7641044 52.8498333"></polygon>
                <polygon id="Fill-55" fill="#004098" mask="url(#mask-2)" points="30.5993488 52.8492444 32.2473385 52.8492444 32.2473385 51.357 30.5993488 51.357"></polygon>
                <path d="M37.5480021,47.1817778 L37.5480021,48.3713333 L36.4290977,48.3713333 L36.4290977,50.6750667 C36.4290977,51.1438222 36.4372734,51.4147111 36.4594646,51.4912667 C36.4816558,51.5654667 36.5272062,51.6290667 36.6042915,51.6797111 C36.6813767,51.728 36.7724775,51.7539111 36.8869375,51.7539111 C37.0341003,51.7539111 37.2513406,51.7079778 37.5433302,51.6125778 L37.6659659,52.7750444 C37.2852114,52.9234444 36.8542346,53 36.3730357,53 C36.0845499,53 35.8159194,52.9552444 35.5776558,52.8633778 C35.3417282,52.7715111 35.1712062,52.6537333 35.0590822,52.5065111 C34.9527979,52.364 34.8710408,52.1684889 34.8301623,51.9223333 C34.7962915,51.7456667 34.7787721,51.3923333 34.7787721,50.8588 L34.7787721,48.3713333 L34.0067514,48.3713333 L34.0067514,47.1817778 L34.7787721,47.1817778 L34.7787721,46.0475778 L36.4290977,45.1607111 L36.4290977,47.1817778 L37.5480021,47.1817778 Z" id="Fill-56" fill="#004098" mask="url(#mask-2)"></path>
                <polygon id="Fill-57" fill="#004098" mask="url(#mask-2)" points="40.5899504 52.8498333 38.6102605 47.1823667 40.2232114 47.1823667 41.3935059 50.8959 42.4726997 47.1823667 44.0774749 47.1823667 45.12163 50.8959 46.3141158 47.1823667 47.9387463 47.1823667 45.9356972 52.8498333 44.3461054 52.8498333 43.2680796 49.2046111 42.2064052 52.8498333"></polygon>
                <path d="M55.1632713,52.8498333 L53.5141137,52.8498333 L53.5141137,49.9477889 C53.5141137,49.3306333 53.4755711,48.9325444 53.4054935,48.7511667 C53.336584,48.5721444 53.2197881,48.4331667 53.0609457,48.3330556 C52.8997674,48.2329444 52.7105581,48.1823 52.4863101,48.1823 C52.1966563,48.1823 51.9408734,48.2553222 51.7107855,48.3966556 C51.4830336,48.5403444 51.328863,48.7299667 51.2400982,48.9655222 C51.1525013,49.1975444 51.1151266,49.6356778 51.1151266,50.2728556 L51.1151266,52.8498333 L49.4636331,52.8498333 L49.4636331,47.1823667 L51.0006667,47.1823667 L51.0006667,48.0115222 C51.5472713,47.3566778 52.235199,47.0316111 53.0609457,47.0316111 C53.4253488,47.0316111 53.7582171,47.0893222 54.0595504,47.2094556 C54.3620517,47.3284111 54.5886357,47.4791667 54.7463101,47.6676111 C54.9028165,47.8548778 55.0079328,48.0657 55.0710026,48.3012556 C55.1340724,48.5379889 55.1632713,48.8760111 55.1632713,49.3176778 L55.1632713,52.8498333 Z" id="Fill-58" fill="#004098" mask="url(#mask-2)"></path>
                <path d="M57.5418191,52.8492444 L59.1886408,52.8492444 L59.1886408,47.1817778 L57.5418191,47.1817778 L57.5418191,52.8492444 Z M57.5418191,46.4056222 L59.1886408,46.4056222 L59.1886408,45.0264444 L57.5418191,45.0264444 L57.5418191,46.4056222 Z" id="Fill-59" fill="#004098" mask="url(#mask-2)"></path>
                <path d="M67.0960713,48.8248956 L65.467937,49.0887178 C65.410707,48.7978067 65.2857354,48.5763844 65.0883504,48.4256289 C64.8956372,48.2772289 64.6386863,48.2018511 64.3245054,48.2018511 C63.9087121,48.2018511 63.5770119,48.3325844 63.3294047,48.5964067 C63.0806295,48.8566956 62.9579938,49.2948289 62.9579938,49.9096289 C62.9579938,50.5892067 63.0806295,51.0709178 63.3294047,51.3524067 C63.5828517,51.63154 63.9168879,51.7740511 64.3420248,51.7740511 C64.6562057,51.7740511 64.9143245,51.6916067 65.1163814,51.5243622 C65.3196062,51.3618289 65.4585933,51.0779844 65.5426863,50.6751844 L67.1708207,50.9413622 C67.0049705,51.62094 66.680278,52.1344511 66.201415,52.4807178 C65.7248879,52.8281622 65.0801747,53.0001178 64.2766191,53.0001178 C63.3574357,53.0001178 62.6321333,52.7362956 62.0866966,52.2110067 C61.5424279,51.6868956 61.2691256,50.9590289 61.2691256,50.0238733 C61.2691256,49.0792956 61.5424279,48.34554 62.0925364,47.8190733 C62.6368052,47.2926067 63.374955,47.03114 64.308154,47.03114 C65.0684951,47.03114 65.6770016,47.1783622 66.1278336,47.4728067 C66.5786656,47.7672511 66.9021902,48.2195178 67.0960713,48.8248956" id="Fill-60" fill="#004098" mask="url(#mask-2)"></path>
                <polygon id="Fill-61" fill="#004098" mask="url(#mask-2)" points="69.0450439 52.8492444 70.6953695 52.8492444 70.6953695 51.357 69.0450439 51.357"></polygon>
                <path d="M78.789323,52.8498333 L77.1413333,52.8498333 L77.1413333,49.9477889 C77.1413333,49.3306333 77.1016227,48.9325444 77.0350491,48.7511667 C76.9626357,48.5721444 76.8470078,48.4331667 76.6869974,48.3330556 C76.5269871,48.2329444 76.3342739,48.1823 76.1111938,48.1823 C75.8262119,48.1823 75.5657571,48.2553222 75.3391731,48.3966556 C75.1114212,48.5403444 74.9560827,48.7299667 74.8708217,48.9655222 C74.7808889,49.1975444 74.7388424,49.6356778 74.7388424,50.2728556 L74.7388424,52.8498333 L73.0908527,52.8498333 L73.0908527,47.1823667 L74.6302222,47.1823667 L74.6302222,48.0115222 C75.173323,47.3566778 75.8600827,47.0316111 76.6869974,47.0316111 C77.0514005,47.0316111 77.3877726,47.0893222 77.6891059,47.2094556 C77.9927752,47.3284111 78.2181912,47.4791667 78.3711938,47.6676111 C78.5265323,47.8548778 78.6374884,48.0657 78.6958863,48.3012556 C78.7577881,48.5379889 78.789323,48.8760111 78.789323,49.3176778 L78.789323,52.8498333 Z" id="Fill-62" fill="#004098" mask="url(#mask-2)"></path>
                <path d="M84.8959948,49.5436933 C84.8843152,49.0984933 84.7616796,48.7592933 84.524584,48.5296267 C84.2909922,48.2987822 84.0013385,48.1821822 83.6614625,48.1821822 C83.3017313,48.1821822 83.0015659,48.3046711 82.7644703,48.5461156 C82.5262067,48.7887378 82.4129147,49.1220489 82.4140738,49.5436933 L84.8959948,49.5436933 Z M84.8048941,51.0712711 L86.4528837,51.3374489 C86.2391473,51.8780489 85.907447,52.2902711 85.4484393,52.5729378 C84.9929354,52.8591378 84.4171318,53.0004711 83.732708,53.0004711 C82.6441705,53.0004711 81.839447,52.6765822 81.3185375,52.0252711 C80.9027442,51.5082267 80.6983514,50.8522044 80.6983514,50.05956 C80.6983514,49.1138044 80.9751576,48.3706267 81.5135866,47.8347378 C82.0543514,47.2988489 82.7399432,47.0314933 83.5703618,47.0314933 C84.4988889,47.0314933 85.2382067,47.3106267 85.7719638,47.8783156 C86.3127287,48.4401156 86.5708475,49.3046044 86.5451525,50.4717822 L82.3872196,50.4717822 C82.3965633,50.9146267 82.5320465,51.2608933 82.7878295,51.5129378 C83.0436124,51.7590933 83.3636331,51.8839378 83.7455556,51.8839378 C84.0048424,51.8839378 84.2267545,51.8215156 84.4019483,51.6943156 C84.579478,51.5659378 84.7114574,51.3598267 84.8048941,51.0712711 Z" id="Fill-63" fill="#004098" mask="url(#mask-2)"></path>
                <path d="M91.4930925,47.1817778 L91.4930925,48.3713333 L90.3660124,48.3713333 L90.3660124,50.6750667 C90.3660124,51.1438222 90.3753561,51.4147111 90.3963793,51.4912667 C90.4209065,51.5654667 90.4687928,51.6290667 90.5435421,51.6797111 C90.6171235,51.728 90.7128961,51.7539111 90.8226842,51.7539111 C90.9768548,51.7539111 91.1917592,51.7079778 91.480245,51.6125778 L91.6028806,52.7750444 C91.224462,52.9234444 90.7923173,53 90.3134543,53 C90.0191287,53 89.75517,52.9552444 89.5180744,52.8633778 C89.2821468,52.7715111 89.106953,52.6537333 88.9995008,52.5065111 C88.8885447,52.364 88.8114594,52.1684889 88.767077,51.9223333 C88.7355421,51.7456667 88.7156868,51.3923333 88.7156868,50.8588 L88.7156868,48.3713333 L87.948338,48.3713333 L87.948338,47.1817778 L88.7156868,47.1817778 L88.7156868,46.0475778 L90.3660124,45.1607111 L90.3660124,47.1817778 L91.4930925,47.1817778 Z" id="Fill-64" fill="#004098" mask="url(#mask-2)"></path>
                <polygon id="Fill-65" fill="#004098" mask="url(#mask-2)" points="93.3362481 52.8492444 94.9842377 52.8492444 94.9842377 51.357 93.3362481 51.357"></polygon>
                <path d="M100.28934,47.1817778 L100.28934,48.3713333 L99.1634274,48.3713333 L99.1634274,50.6750667 C99.1634274,51.1438222 99.175107,51.4147111 99.1972982,51.4912667 C99.2183214,51.5654667 99.2673757,51.6290667 99.3409571,51.6797111 C99.4203783,51.728 99.512647,51.7539111 99.6200992,51.7539111 C99.7719339,51.7539111 99.9891742,51.7079778 100.27766,51.6125778 L100.39796,52.7750444 C100.024213,52.9234444 99.5920682,53 99.1143731,53 C98.8177116,53 98.5560889,52.9552444 98.3189933,52.8633778 C98.0818977,52.7715111 97.9067039,52.6537333 97.7992517,52.5065111 C97.6859597,52.364 97.6088744,52.1684889 97.5668279,51.9223333 C97.5341251,51.7456667 97.5119339,51.3923333 97.5119339,50.8588 L97.5119339,48.3713333 L96.7480889,48.3713333 L96.7480889,47.1817778 L97.5119339,47.1817778 L97.5119339,46.0475778 L99.1634274,45.1607111 L99.1634274,47.1817778 L100.28934,47.1817778 Z" id="Fill-66" fill="#004098" mask="url(#mask-2)"></path>
                <polygon id="Fill-67" fill="#004098" mask="url(#mask-2)" points="103.331288 52.8498333 101.348094 47.1823667 102.958709 47.1823667 104.130172 50.8959 105.211701 47.1823667 106.814141 47.1823667 107.858296 50.8959 109.051949 47.1823667 110.678916 47.1823667 108.675867 52.8498333 107.086275 52.8498333 106.005913 49.2046111 104.941903 52.8498333"></polygon>
            </g>
        </g>
    </g>
</svg>