<?xml version="1.0" encoding="utf-8"?>
<!-- Generator: Adobe Illustrator 22.0.1, SVG Export Plug-In . SVG Version: 6.00 Build 0)  -->
<svg version="1.1" id="圖層_1" xmlns="http://www.w3.org/2000/svg" xmlns:xlink="http://www.w3.org/1999/xlink" x="0px" y="0px"
	 viewBox="0 0 181.8 23.5" style="enable-background:new 0 0 181.8 23.5;" xml:space="preserve">
<style type="text/css">
	.st0{fill:#595757;}
	.st1{fill:#004097;}
	.st2{fill:#F5AC3C;}
	.st3{fill:#8BC56C;}
</style>
<title>twnic_logo</title>
<desc>Created with Sketch.</desc>
<g>
	<g>
		<g>
			<path class="st0" d="M50.7,19.9v-3.5h-1.6v-0.7h4.2v0.7h-1.6v3.5H50.7z"/>
			<path class="st0" d="M55,18.4l0.6-1.4l0.6,1.4H55z M56.1,16.2h-1l-1.8,3.7h1l0.4-0.8h1.8l0.4,0.8h1L56.1,16.2z"/>
			<path class="st0" d="M58.2,19.9v-3.7h0.9v3.7H58.2z"/>
			<path class="st0" d="M60.5,19.9l-1.1-3.7h1l0.7,2.5l0.8-2.5H63l0.8,2.6l0.7-2.6h0.9l-1.1,3.7h-1l-0.9-2.8l-0.9,2.8H60.5z"/>
			<path class="st0" d="M66.6,18.4l0.6-1.4l0.6,1.4H66.6z M67.8,16.2h-1L65,19.9h1l0.4-0.8h1.8l0.4,0.8h1L67.8,16.2z"/>
			<path class="st0" d="M69.9,19.9v-3.7h0.9l1.9,2.5v-2.5h0.9v3.7h-0.9l-1.9-2.4v2.4H69.9z"/>
			<path class="st0" d="M76.1,19.9v-4.2h1l2.2,2.8v-2.8h1v4.2h-1.1l-2.1-2.8v2.8H76.1z"/>
			<path class="st0" d="M81.2,19.9v-3.7h3.4v0.6h-2.5v0.8h2.3v0.6h-2.3v1h2.6v0.6H81.2z"/>
			<path class="st0" d="M86.4,19.9v-3.1H85v-0.6h3.6v0.6h-1.4v3.1H86.4z"/>
			<path class="st0" d="M89.7,19.9l-1.1-3.7h1l0.7,2.5l0.8-2.5h1.1l0.8,2.6l0.7-2.6h0.9l-1.1,3.7h-1l-0.9-2.8l-0.9,2.8H89.7z"/>
			<path class="st0" d="M96.1,17.1c0.2-0.2,0.5-0.3,0.9-0.3c0.4,0,0.7,0.1,0.9,0.3c0.2,0.2,0.3,0.5,0.3,0.9c0,0.4-0.1,0.7-0.4,1
				c-0.2,0.2-0.5,0.3-0.9,0.3c-0.4,0-0.7-0.1-0.9-0.3c-0.2-0.2-0.4-0.5-0.4-0.9C95.8,17.6,95.9,17.3,96.1,17.1z M95.4,19.5
				c0.4,0.3,1,0.5,1.6,0.5c0.7,0,1.2-0.2,1.6-0.5c0.4-0.3,0.6-0.8,0.6-1.4c0-0.6-0.2-1.1-0.6-1.4c-0.4-0.3-1-0.5-1.6-0.5
				c-0.4,0-0.7,0-1,0.1c-0.2,0.1-0.4,0.2-0.6,0.3c-0.2,0.1-0.3,0.3-0.4,0.5c-0.1,0.3-0.2,0.6-0.2,0.9C94.8,18.7,95,19.1,95.4,19.5z"
				/>
			<path class="st0" d="M100.8,16.8h0.7c0.4,0,0.6,0,0.7,0c0.2,0,0.3,0.1,0.3,0.1c0.1,0.1,0.1,0.2,0.1,0.3c0,0.1,0,0.2-0.1,0.3
				c-0.1,0.1-0.1,0.1-0.3,0.2c-0.1,0-0.4,0-0.8,0h-0.7V16.8z M100.8,19.9v-1.5h0.2c0.2,0,0.4,0,0.5,0c0.1,0,0.2,0.1,0.3,0.2
				c0.1,0.1,0.3,0.3,0.5,0.5l0.7,0.8h1.1l-0.6-0.7c-0.2-0.3-0.4-0.5-0.5-0.6c-0.1-0.1-0.3-0.2-0.5-0.3c0.4,0,0.7-0.2,0.9-0.3
				c0.2-0.2,0.3-0.4,0.3-0.7c0-0.2-0.1-0.4-0.2-0.6c-0.1-0.2-0.3-0.3-0.5-0.4c-0.2-0.1-0.6-0.1-1.1-0.1h-2v3.7H100.8z"/>
			<path class="st0" d="M104.3,19.9v-3.7h0.9v1.6l1.9-1.6h1.3l-1.7,1.4l1.8,2.3h-1.2l-1.3-1.7l-0.8,0.6v1.1H104.3z"/>
			<path class="st0" d="M110.5,19.9v-4.2h1.1v4.2H110.5z"/>
			<path class="st0" d="M112.3,19.9v-3.7h0.9l1.9,2.5v-2.5h0.9v3.7h-0.9l-1.9-2.4v2.4H112.3z"/>
			<path class="st0" d="M116.8,19.9v-3.7h3.2v0.6h-2.2v0.9h1.9v0.6h-1.9v1.6H116.8z"/>
			<path class="st0" d="M121.7,17.1c0.2-0.2,0.5-0.3,0.9-0.3c0.4,0,0.7,0.1,0.9,0.3c0.2,0.2,0.3,0.5,0.3,0.9c0,0.4-0.1,0.7-0.4,1
				c-0.2,0.2-0.5,0.3-0.9,0.3c-0.4,0-0.7-0.1-0.9-0.3c-0.2-0.2-0.4-0.5-0.4-0.9C121.3,17.6,121.5,17.3,121.7,17.1z M121,19.5
				c0.4,0.3,0.9,0.5,1.6,0.5c0.7,0,1.2-0.2,1.6-0.5c0.4-0.3,0.6-0.8,0.6-1.4c0-0.6-0.2-1.1-0.6-1.4c-0.4-0.3-1-0.5-1.6-0.5
				c-0.4,0-0.7,0-1,0.1c-0.2,0.1-0.4,0.2-0.6,0.3c-0.2,0.1-0.3,0.3-0.4,0.5c-0.1,0.3-0.2,0.6-0.2,0.9
				C120.4,18.7,120.6,19.1,121,19.5z"/>
			<path class="st0" d="M126.4,16.8h0.7c0.4,0,0.6,0,0.7,0c0.2,0,0.3,0.1,0.4,0.1c0.1,0.1,0.1,0.2,0.1,0.3c0,0.1,0,0.2-0.1,0.3
				c-0.1,0.1-0.1,0.1-0.3,0.2c-0.1,0-0.4,0-0.8,0h-0.7V16.8z M126.4,19.9v-1.5h0.2c0.2,0,0.4,0,0.5,0c0.1,0,0.2,0.1,0.3,0.2
				c0.1,0.1,0.3,0.3,0.5,0.5l0.7,0.8h1.1l-0.6-0.7c-0.2-0.3-0.4-0.5-0.5-0.6c-0.1-0.1-0.3-0.2-0.5-0.3c0.4,0,0.7-0.2,0.9-0.3
				c0.2-0.2,0.3-0.4,0.3-0.7c0-0.2-0.1-0.4-0.2-0.6c-0.1-0.2-0.3-0.3-0.5-0.4c-0.2-0.1-0.6-0.1-1.1-0.1h-2v3.7H126.4z"/>
			<path class="st0" d="M129.9,19.9v-3.7h1.4l0.8,2.5l0.8-2.5h1.4v3.7h-0.9l0-2.9l-0.9,2.9h-0.9l-0.9-2.9l0,2.9H129.9z"/>
			<path class="st0" d="M136.3,18.4l0.6-1.4l0.6,1.4H136.3z M137.4,16.2h-1l-1.8,3.7h1l0.4-0.8h1.8l0.4,0.8h1L137.4,16.2z"/>
			<path class="st0" d="M140.2,19.9v-3.1h-1.4v-0.6h3.6v0.6h-1.4v3.1H140.2z"/>
			<path class="st0" d="M142.9,19.9v-3.7h0.9v3.7H142.9z"/>
			<path class="st0" d="M145.6,17.1c0.2-0.2,0.5-0.3,0.9-0.3c0.4,0,0.7,0.1,0.9,0.3c0.2,0.2,0.3,0.5,0.3,0.9c0,0.4-0.1,0.7-0.4,1
				c-0.2,0.2-0.5,0.3-0.9,0.3c-0.4,0-0.7-0.1-0.9-0.3c-0.2-0.2-0.4-0.5-0.4-0.9C145.3,17.6,145.4,17.3,145.6,17.1z M144.9,19.5
				c0.4,0.3,1,0.5,1.6,0.5c0.7,0,1.2-0.2,1.6-0.5c0.4-0.3,0.6-0.8,0.6-1.4c0-0.6-0.2-1.1-0.6-1.4c-0.4-0.3-1-0.5-1.6-0.5
				c-0.4,0-0.7,0-1,0.1c-0.2,0.1-0.4,0.2-0.6,0.3c-0.2,0.1-0.3,0.3-0.4,0.5c-0.1,0.3-0.2,0.6-0.2,0.9
				C144.3,18.7,144.5,19.1,144.9,19.5z"/>
			<path class="st0" d="M149.4,19.9v-3.7h0.9l1.9,2.5v-2.5h0.9v3.7h-0.9l-1.9-2.4v2.4H149.4z"/>
			<path class="st0" d="M158.9,18.4l1,0.3c-0.2,0.5-0.4,0.8-0.8,1c-0.4,0.2-0.8,0.3-1.4,0.3c-0.7,0-1.3-0.2-1.7-0.6
				c-0.5-0.4-0.7-0.9-0.7-1.6c0-0.7,0.2-1.3,0.7-1.6c0.5-0.4,1.1-0.6,1.8-0.6c0.6,0,1.2,0.2,1.6,0.5c0.2,0.2,0.4,0.4,0.5,0.8
				l-1.1,0.2c-0.1-0.2-0.2-0.4-0.4-0.5c-0.2-0.1-0.4-0.2-0.7-0.2c-0.4,0-0.7,0.1-1,0.3c-0.2,0.2-0.4,0.6-0.4,1.1
				c0,0.5,0.1,0.9,0.4,1.1c0.2,0.2,0.6,0.3,0.9,0.3c0.3,0,0.5-0.1,0.7-0.2C158.7,18.9,158.9,18.7,158.9,18.4z"/>
			<path class="st0" d="M160.6,19.9v-3.7h3.4v0.6h-2.5v0.8h2.3v0.6h-2.3v1h2.6v0.6H160.6z"/>
			<path class="st0" d="M164.8,19.9v-3.7h0.9l1.9,2.5v-2.5h0.9v3.7h-0.9l-1.9-2.4v2.4H164.8z"/>
			<path class="st0" d="M170.3,19.9v-3.1h-1.4v-0.6h3.6v0.6h-1.4v3.1H170.3z"/>
			<path class="st0" d="M173,19.9v-3.7h3.4v0.6h-2.5v0.8h2.3v0.6h-2.3v1h2.6v0.6H173z"/>
			<path class="st0" d="M178.1,16.8h0.7c0.4,0,0.6,0,0.7,0c0.2,0,0.3,0.1,0.4,0.1c0.1,0.1,0.1,0.2,0.1,0.3c0,0.1,0,0.2-0.1,0.3
				c-0.1,0.1-0.1,0.1-0.3,0.2c-0.1,0-0.4,0-0.8,0h-0.7V16.8z M178.1,19.9v-1.5h0.2c0.2,0,0.4,0,0.5,0c0.1,0,0.2,0.1,0.3,0.2
				c0.1,0.1,0.3,0.3,0.5,0.5l0.7,0.8h1.1l-0.6-0.7c-0.2-0.3-0.4-0.5-0.5-0.6c-0.1-0.1-0.3-0.2-0.5-0.3c0.4,0,0.7-0.2,0.9-0.3
				c0.2-0.2,0.3-0.4,0.3-0.7c0-0.2-0.1-0.4-0.2-0.6c-0.1-0.2-0.3-0.3-0.5-0.4c-0.2-0.1-0.6-0.1-1.1-0.1h-2v3.7H178.1z"/>
		</g>
		<g>
			<path class="st0" d="M53.4,12c0,0.1,0,0.1-0.1,0.1h-3.6c-0.1,0-0.1,0-0.1-0.1V5.8c0-0.1,0-0.1,0.1-0.1h3.6c0.1,0,0.1,0,0.1,0.1
				V12z M52.5,10.3h-2v1c0,0,0,0,0,0h2c0,0,0,0,0,0V10.3z M50.5,9.5h2V8.4h-2V9.5z M50.5,7.6h2V6.5c0,0,0,0,0,0h-2c0,0,0,0,0,0V7.6z
				 M50.2,12.3l0.8,0.4c-0.2,0.5-0.6,1-1,1.6l-0.8-0.4C49.6,13.2,50,12.7,50.2,12.3z M52.1,12.8l0.7-0.4c0.5,0.6,0.9,1.1,1.1,1.4
				l-0.8,0.4C52.9,13.8,52.5,13.3,52.1,12.8z M56.9,7.6H54V6.8h3.2V5.4h0.9v1.4H59v0.8h-0.9v5.6c0,0.4-0.2,0.6-0.5,0.8
				c-0.5,0.3-1.3,0.3-2.6-0.1l0-0.8c0.5,0.1,0.8,0.2,1,0.3c0.2,0,0.5,0.1,0.7,0.1c0.2,0,0.3-0.1,0.4-0.2c0.1,0,0.1-0.1,0.1-0.3V9
				c-0.8,1.5-1.7,2.6-2.8,3.5L53.6,12C55.1,10.7,56.2,9.3,56.9,7.6z"/>
			<path class="st0" d="M69.8,13.9c0,0.1-0.1,0.2-0.2,0.2h-8.8c-0.1,0-0.2-0.1-0.2-0.2V5.8c0-0.1,0.1-0.2,0.2-0.2h8.8
				c0.1,0,0.2,0.1,0.2,0.2V13.9z M63.2,12.3l0.5-0.4h-1.8v-0.6h4.9v-0.5l-4.6,0.1l-0.1-0.7l2.8-0.1V9.8h-2.6c-0.1,0-0.1,0-0.1-0.1
				V7.6c0-0.1,0-0.1,0.1-0.1h2.6V7.2h-3V6.6h3V6.3h-3.3c-0.1,0-0.1,0-0.1,0.1v7c0,0.1,0,0.1,0.1,0.1h5c-0.2,0-0.5-0.1-0.9-0.3l0-0.7
				c0.6,0.2,0.9,0.3,1,0.2c0.1-0.1,0.1-0.1,0.1-0.2v-0.5h-3c0.3,0.2,0.6,0.5,0.9,0.8l-0.5,0.4C63.8,12.8,63.5,12.5,63.2,12.3z
				 M67.5,11.9v0.7c0,0.2-0.1,0.4-0.2,0.5c-0.1,0.1-0.3,0.2-0.5,0.3h2c0.1,0,0.1,0,0.1-0.1v-7c0,0,0-0.1-0.1-0.1h-3.3v0.3h2.9v0.6
				h-2.9v0.3h2.6c0.1,0,0.1,0,0.1,0.1v2.1c0,0.1,0,0.1-0.1,0.1h-0.1c0.2,0.2,0.5,0.6,0.8,0.9l-0.6,0.4c-0.1-0.1-0.2-0.2-0.3-0.3
				l-0.4,0v0.5h1.2v0.6H67.5z M67.3,10l0.3-0.2h-2v0.4l1.8,0C67.4,10.1,67.3,10,67.3,10z M65.6,8.9v0.4h1.9c0,0,0,0,0,0V8.9H65.6z
				 M64.8,9.3V8.9h-2v0.4c0,0,0,0,0,0H64.8z M65.6,8.1v0.3h2V8.1c0,0,0,0,0,0H65.6z M64.8,8.4V8.1h-1.9c0,0,0,0,0,0v0.3H64.8z"/>
			<path class="st0" d="M71.7,6.2l0.5-0.7c0.6,0.3,1.2,0.7,1.9,1.2l-0.5,0.7C72.9,6.8,72.2,6.4,71.7,6.2z M71.6,8.7L72,8
				c0.5,0.2,1.1,0.5,1.8,1l-0.5,0.7C72.7,9.2,72.1,8.9,71.6,8.7z M73.3,10.5l0.9,0.2c-0.5,1.5-1.1,2.6-1.9,3.4l-0.8-0.4
				C72.3,12.8,73,11.7,73.3,10.5z M80.2,13.6l-6.3,0.5c-0.1-0.3-0.2-0.6-0.3-0.9l1.1-0.1c0.7-1,1.3-2.1,1.9-3.2h-2.4V9.1h2.8V7.4
				h-2.6V6.6h2.6V5.4H78v1.2h2.7v0.8H78v1.7h3.1v0.8h-3.4c-0.4,0.9-1,1.9-1.8,3.1l3.8-0.3c-0.4-0.7-0.7-1.2-1-1.6l0.8-0.4
				c0.6,0.8,1.3,1.9,1.8,3.1l-0.8,0.4C80.4,14,80.3,13.8,80.2,13.6z"/>
			<path class="st0" d="M87.5,9c-0.3,0.9-0.7,1.8-1.2,2.5c-0.7,1-1.7,1.9-3,2.7l-0.7-0.6c2.8-1.4,4.3-4,4.4-7.6V5.4h0.9V6
				c0,0.1,0,0.2,0,0.4h0c0,1.1,0.2,2,0.5,2.8c0.6,1.6,1.9,3.1,3.9,4.6l-0.8,0.5c-0.5-0.4-0.9-0.8-1.3-1.1C88.9,11.8,88,10.5,87.5,9z
				"/>
			<path class="st0" d="M101.9,8.4l-8.1,0.5c-0.1-0.2-0.1-0.5-0.2-0.8l0.9,0c0.8-0.8,1.5-1.7,2.2-2.7l0.7,0.5
				c-0.4,0.6-1,1.3-1.7,2.2l5.3-0.3c-0.7-0.6-1.1-1-1.3-1.1l0.7-0.6c1.3,1.1,2.3,2,3.1,2.8l-0.7,0.5C102.6,9,102.3,8.7,101.9,8.4z
				 M102.5,13.7c0,0.2-0.1,0.2-0.3,0.2h-7.5c-0.2,0-0.2-0.1-0.2-0.2V9.9c0-0.2,0.1-0.2,0.2-0.2h7.5c0.2,0,0.3,0.1,0.3,0.2V13.7z
				 M101.5,10.5h-6c0,0,0,0,0,0v2.5c0,0,0,0,0,0h6c0,0,0.1,0,0.1,0L101.5,10.5C101.6,10.5,101.6,10.5,101.5,10.5z"/>
			<path class="st0" d="M104.8,6.2l0.5-0.6c0.4,0.2,0.8,0.5,1.3,1l-0.5,0.6C105.6,6.7,105.2,6.4,104.8,6.2z M104.7,8.4l0.5-0.6
				c0.4,0.3,0.8,0.6,1.3,1l-0.6,0.5C105.4,9,105,8.6,104.7,8.4z M105.8,10.3l0.8,0c-0.1,1.5-0.5,2.7-1.1,3.6l-0.8-0.2
				C105.4,12.7,105.7,11.5,105.8,10.3z M107.7,8.6l-1,0.1c0-0.2-0.1-0.4-0.2-0.6l0.5-0.1c0.2-0.1,0.3-0.3,0.5-0.5
				c-0.3-0.3-0.6-0.5-1-0.6c0.1-0.2,0.2-0.4,0.3-0.6c0,0,0,0,0.1,0c0.2-0.3,0.4-0.7,0.6-1.1c0.2,0.1,0.4,0.2,0.6,0.3
				c-0.1,0.3-0.3,0.7-0.6,1.1c0.1,0.1,0.2,0.2,0.4,0.3c0.2-0.3,0.3-0.6,0.4-0.9l0.7,0.2c-0.1,0.4-0.5,0.9-1.1,1.5l0.6-0.1
				c0-0.1-0.1-0.2-0.1-0.3l0.6-0.2c0.2,0.3,0.3,0.8,0.4,1.3l-0.6,0.1c0-0.1,0-0.2-0.1-0.3l-0.4,0.1v1.8h-0.7V8.6z M106.8,9l0.6,0.1
				c0,0.3-0.1,0.6-0.3,1.2l-0.6-0.2C106.6,9.7,106.7,9.4,106.8,9z M108.5,9.1l0.6-0.1c0.1,0.3,0.2,0.6,0.3,1l-0.6,0.1
				C108.7,9.6,108.6,9.3,108.5,9.1z M109.5,5.5h2.2V6h-2.2V5.5z M109.3,6.2h2.4v0.5h-2.4V6.2z M109.6,6.9h2v0.5h-2V6.9z M109.6,7.7
				h2v0.5h-2V7.7z M111.6,10.1C111.6,10.2,111.6,10.2,111.6,10.1l-1.9,0.1c0,0-0.1,0-0.1-0.1V8.5c0,0,0-0.1,0.1-0.1h1.9
				c0.1,0,0.1,0,0.1,0.1V10.1z M111,8.9h-0.8c0,0,0,0,0,0v0.8c0,0,0,0,0,0h0.8c0,0,0,0,0,0L111,8.9C111,8.9,111,8.9,111,8.9z
				 M112.8,8.5l-0.9,0.1c0-0.2-0.1-0.4-0.2-0.6l0.5-0.1c0.1-0.1,0.3-0.3,0.4-0.4c-0.3-0.3-0.6-0.6-0.9-0.8c0.1-0.2,0.3-0.3,0.4-0.5
				c0,0,0,0,0.1,0c0.2-0.3,0.4-0.6,0.5-0.9c0.2,0.1,0.4,0.2,0.6,0.3c-0.1,0.3-0.4,0.6-0.7,1c0.1,0.1,0.2,0.2,0.4,0.3
				c0.2-0.3,0.3-0.6,0.5-0.9l0.7,0.2c-0.1,0.4-0.5,0.9-1,1.5l0.6-0.1c-0.1-0.2-0.1-0.2-0.1-0.3l0.6-0.2c0.2,0.5,0.4,0.9,0.4,1.2
				L114,8.7c0-0.1,0-0.2-0.1-0.2l-0.5,0.1v1.9h-0.7V8.5z M111.9,8.8l0.6,0.1c0,0.4-0.1,0.8-0.3,1.3l-0.6-0.2
				C111.8,9.7,111.9,9.3,111.9,8.8z M113.7,9l0.6-0.1c0.2,0.8,0.4,1.2,0.4,1.2l-0.6,0.1C114,9.9,113.8,9.5,113.7,9z M107.5,13
				l-0.1,0.3c-0.2-0.1-0.5-0.2-0.7-0.2l0.5-1.5c0.1-0.1,0.1-0.2,0.3-0.2h5.7v-0.2c0,0,0-0.1-0.1-0.1h-6v-0.6h6.6
				c0.1,0,0.2,0.1,0.2,0.2v1.6c-0.3,0-0.5,0-0.7,0V12h-5.2c-0.1,0-0.2,0.1-0.2,0.2l-0.1,0.2h6.4c0.2,0,0.3,0.1,0.3,0.2
				c-0.1,0.6-0.2,1-0.4,1.3c-0.1,0.1-0.2,0.2-0.3,0.2c-0.5,0.2-2.1,0.2-4.8,0.1l0-0.7c0.9,0.1,1.7,0.1,2.3,0.2
				c1.4,0,2.1-0.1,2.3-0.2c0.1-0.1,0.1-0.2,0.1-0.4c0,0,0,0-0.1,0H107.5z"/>
			<path class="st0" d="M121,7l0.7-0.3c0.2,0.3,0.3,0.6,0.4,1L121.4,8C121.3,7.6,121.1,7.2,121,7z M121.2,10.3h-0.8v3.8h-0.9V5.9
				c0-0.2,0.1-0.3,0.3-0.3h5.3c0.2,0,0.3,0.1,0.3,0.3v7.3c0,0.3-0.1,0.6-0.4,0.8c-0.3,0.2-1,0.2-2.1,0l-0.1-0.9
				c0.5,0.1,0.9,0.2,1.1,0.2c0.1,0,0.2,0,0.3-0.1c0.2-0.1,0.2-0.2,0.2-0.4v-2.6h-2.6v1.3c0,0.1,0.1,0.2,0.2,0.2h1.8v0.7h-2.5
				c-0.3,0-0.4-0.1-0.4-0.4V10.3z M122.9,9.6h1.7V8.8h-1.7V9.6z M120.4,9.6h1.7V8.8h-1.7V9.6z M123.6,8.1h1.1V6.5c0,0,0-0.1-0.1-0.1
				h-4.1c0,0-0.1,0-0.1,0.1v1.7h2.2c0.3-0.6,0.6-1.1,0.7-1.6l0.7,0.3C124,7.3,123.8,7.7,123.6,8.1z M117.2,10.2l-1.1,0.1
				c0-0.2-0.1-0.5-0.2-0.7l0.4-0.1c0.3-0.3,0.6-0.6,1-1.1c-0.5-0.5-1-0.8-1.5-1.1c0.1-0.2,0.3-0.4,0.4-0.6c0,0,0.2,0.1,0.4,0.2
				c0.2-0.5,0.5-1,0.7-1.6c0.2,0.1,0.5,0.2,0.8,0.3c-0.2,0.4-0.4,1-0.8,1.7c0.1,0.1,0.3,0.2,0.5,0.4c0.3-0.6,0.6-1.1,0.7-1.6
				l0.8,0.2c-0.2,0.8-0.9,1.8-1.9,3l1.1-0.1c-0.1-0.4-0.2-0.6-0.2-0.7l0.8-0.1c0.2,0.7,0.4,1.3,0.5,1.9l-0.8,0.1
				c0-0.1-0.1-0.3-0.1-0.4l-0.6,0.1v4.1h-0.9V10.2z M116.1,10.8l0.8,0.1c-0.1,1.3-0.1,2.2-0.2,2.7l-0.8-0.1
				C116,12.7,116.1,11.8,116.1,10.8z M119.1,10.8l0.3,1.9l-0.7,0.1l-0.2-1.9L119.1,10.8z"/>
			<path class="st0" d="M132.2,7.2c-0.3,0.3-0.6,0.5-0.9,0.8l-0.5-0.5v1.2c0,0.1,0,0.1-0.1,0.1h-0.9v1.4h1.1V11h-1.1v1.7
				c0.4-0.1,0.6-0.2,0.8-0.3l0.3,0.7c-0.7,0.3-1.9,0.7-3.6,1l-0.3-0.7c0.1,0,0.3-0.1,0.4-0.1V9.8h0.7v3.3c0.2-0.1,0.4-0.1,0.7-0.2
				V8.8h-1.3c-0.1,0-0.1,0-0.1-0.1v-3c0-0.1,0-0.1,0.1-0.1h3.1c0.1,0,0.1,0,0.1,0.1v1.6c0.4-0.3,0.7-0.5,0.9-0.8
				c0.2-0.3,0.5-0.7,0.7-1.3l0.9,0c0,0.1-0.1,0.2-0.1,0.3h2.5l0.6,0.4c-0.4,0.8-0.7,1.4-1.1,1.9c-0.2,0.2-0.4,0.4-0.6,0.6
				c0.6,0.4,1.4,0.8,2.3,1.1l-0.6,0.7c-0.8-0.4-1.6-0.8-2.3-1.3c-0.8,0.6-1.8,1-2.8,1.4l-0.5-0.7c1.1-0.4,2-0.8,2.7-1.3
				C133,8.1,132.6,7.7,132.2,7.2z M132.7,6.5c0.4,0.6,0.9,1.1,1.3,1.5c0.4-0.3,0.8-0.8,1.1-1.4c0-0.1,0-0.2-0.1-0.2h-2.3
				C132.8,6.4,132.7,6.5,132.7,6.5z M129.9,6.4h-1.6c0,0,0,0,0,0V8c0,0,0,0,0,0h1.6c0,0,0,0,0,0L129.9,6.4
				C129.9,6.4,129.9,6.4,129.9,6.4z M136.4,13.9c0,0.1,0,0.1-0.1,0.1h-4.7c-0.1,0-0.1,0-0.1-0.1v-3.3c0-0.1,0-0.1,0.1-0.1h4.7
				c0.1,0,0.1,0,0.1,0.1V13.9z M135.5,11.3h-3c0,0,0,0,0,0v1.9c0,0,0,0,0,0h3c0,0,0,0,0,0L135.5,11.3
				C135.5,11.3,135.5,11.3,135.5,11.3z"/>
			<path class="st0" d="M138.4,5.8h2.3v0.7h-2.3V5.8z M140.3,7.2l0.5,0.6c-0.8,0.6-1.6,1-2.3,1.1l-0.4-0.7
				C139,8,139.7,7.6,140.3,7.2z M144,7.2c-0.5,0.8-1.5,1.2-2.9,1.5l-0.3-0.7c0.3,0,0.5-0.1,0.7-0.1c0.9-0.2,1.5-0.6,2-1.3h-1.2
				c-0.4,0.4-0.8,0.6-1,0.8l-0.6-0.6c0.7-0.4,1.2-0.9,1.6-1.5l0.7,0.4c0,0.1-0.1,0.1-0.1,0.1h4.4l0.5,0.4c-0.4,0.5-0.9,0.9-1.3,1.3
				l-0.7-0.5c0.3-0.2,0.5-0.4,0.7-0.6h-2c0.6,0.9,1.7,1.4,3.4,1.5l-0.3,0.8c0,0-0.1,0-0.1,0C145.9,8.7,144.7,8.1,144,7.2z M144.7,13
				h-3.2l0.2,0.6c-0.9,0.3-1.9,0.5-3.2,0.7l-0.2-0.8c1.1-0.2,2-0.3,2.7-0.5h-1.5c-0.1,0-0.1,0-0.1-0.1v-4c0-0.1,0-0.1,0.1-0.1h0.8
				h6.2c0.1,0,0.1,0,0.1,0.1v4c0,0.1,0,0.1-0.1,0.1H145c1.1,0.2,2,0.4,2.8,0.6l-0.3,0.7c-1.1-0.3-2.1-0.5-3.1-0.7L144.7,13z
				 M145.8,11.8h-5.5v0.5c0,0,0,0,0,0h5.4c0,0,0,0,0,0V11.8z M140.4,11.1h5.5v-0.5h-5.5V11.1z M140.4,9.9h5.5V9.5c0,0,0,0,0,0h-5.4
				c0,0,0,0,0,0V9.9z"/>
			<path class="st0" d="M154.5,9.6V6.5h-1V5.7h4c0.2,0,0.3,0,0.3,0.2c-0.1,4.1,0,6.4,0.2,7c0,0.1,0.1,0.1,0.2,0.1c0,0,0,0,0.1-0.1
				c0-0.3,0-0.6,0-1.2l0.9,0.2c-0.1,1.2-0.2,2-0.5,2.2c-0.1,0.1-0.3,0.2-0.4,0.2c-0.2,0-0.3-0.1-0.5-0.2c-0.3-0.3-0.5-0.7-0.5-1.1
				c-0.2-0.9-0.3-3-0.3-6.3c0-0.1,0-0.1-0.1-0.1h-1.4v2.9c0.4-0.1,0.7-0.2,0.9-0.3l0.3,0.8c-0.2,0.1-0.7,0.3-1.2,0.4
				c-0.1,0.5-0.1,1-0.2,1.3c-0.3,1.1-0.6,1.9-1.1,2.5l-0.9-0.3c0.8-1,1.2-2.1,1.3-3.3c-0.4,0.1-0.8,0.2-1.1,0.3L153,10
				C153.4,9.9,153.9,9.8,154.5,9.6z M149.9,5.7h2.9v0.8h-2.9V5.7z M149.3,7h4.1v0.8h-4.1V7z M149.8,8.2h2.9v0.7h-2.9V8.2z
				 M149.8,9.4h2.9v0.7h-2.9V9.4z M152.9,13.8c0,0.1,0,0.1-0.1,0.1h-3.1c-0.1,0-0.1,0-0.1-0.1v-3.2c0-0.1,0-0.1,0.1-0.1h3.1
				c0.1,0,0.1,0,0.1,0.1V13.8z M152,11.2h-1.5c0,0,0,0,0,0v1.9c0,0,0,0,0,0h1.5c0,0,0,0,0,0L152,11.2
				C152.1,11.3,152.1,11.2,152,11.2z"/>
			<path class="st0" d="M169.9,11.7c0,0.1-0.1,0.2-0.2,0.2h-3.9v2.3h-0.9v-2.3h-3.9c-0.2,0-0.2-0.1-0.2-0.2V6.9
				c0-0.1,0.1-0.2,0.2-0.2h3.9V5.4h0.9v1.3h3.9c0.2,0,0.2,0.1,0.2,0.2V11.7z M168.8,7.5h-3.1V11h3.1c0.1,0,0.1,0,0.1-0.1V7.6
				C168.9,7.6,168.9,7.5,168.8,7.5z M164.8,7.5h-3.1c-0.1,0-0.1,0-0.1,0.1V11c0,0.1,0,0.1,0.1,0.1h3.1V7.5z"/>
			<path class="st0" d="M172.2,6.9l0.9,0.1c0,1.7-0.2,3.8-0.7,6.1l-0.9-0.1C172,10.5,172.2,8.4,172.2,6.9z M174,6h0.9v6.7
				c0,0.2,0,0.3,0.1,0.4c0.1,0.1,0.3,0.2,0.5,0.2h2.3c0.3,0,0.5-0.1,0.6-0.2c0.1-0.1,0.1-0.2,0.1-0.4c0-0.2,0-0.7,0-1.7l0.9,0.1
				c0.1,1,0,1.7,0,2.1c0,0.2-0.1,0.4-0.3,0.5c-0.2,0.2-0.3,0.3-0.4,0.3c-0.1,0-0.4,0.1-0.7,0.1h-3c-0.3,0-0.5-0.1-0.7-0.2
				c-0.3-0.2-0.5-0.6-0.5-1.1V6z M175.8,5.6l0.9-0.2c0.5,1.5,0.9,3.4,1.1,5.6l-0.9,0.1C176.7,8.8,176.3,6.9,175.8,5.6z M179.1,6.7
				l0.9-0.2c0.6,1.7,1,3.8,1.3,6.3l-0.9,0.1C180.1,10.3,179.6,8.2,179.1,6.7z"/>
		</g>
	</g>
	<g>
		<g>
			<path class="st1" d="M36.7,17L36.7,17C36.7,17,36.7,17,36.7,17C36.7,17,36.7,17,36.7,17z"/>
			<path class="st1" d="M0.5,9.6h8.9c0,0,0.8-0.1,1.5,0.6c0.7,0.7,0.6,1.3,0.6,1.3v2.1l1.8-3.4c0,0,0.2-0.6,1.1-0.6
				c0.9,0,1.1,0.7,1.1,0.7l1.6,3.1l0-3.6h-0.3V9.4h2.7c0,0,0.2-2.1,2.1-3.9c1.9-1.9,4.4-1.9,5.1-1.9c1.6,0,3.7,0.7,5.1,2
				c1.3,1.3,1.9,3,2,3.9h2.8l0,0.4H36v7.2c0,0-0.1,0.5,0.4,0.5c0.5,0,0.5-0.4,0.5-0.5v-5c0,0,0.1-1.7,1.8-2.1l3.9,0
				c0,0,0.7-0.1,1.5,0.7c0.8,0.8,0.7,1.4,0.7,1.4V13h-2.3v-0.5c0,0,0-0.2-0.2-0.2h-2.8c0,0-0.3,0-0.3,0.2v4.7c0,0-0.1,0.2,0.2,0.2
				h2.9c0,0,0.2,0,0.2-0.2v-0.5h2.2v0.5c0,0-0.1,2.3-1.5,2.5h-7.4c0,0-2,0-2.1-2.2V9.8h-0.5V9.4c0,0-0.3-1.4-1.8-2.7
				c-1.5-1.3-3.1-1.8-4.8-1.8c-1.6,0-3.2,0.6-4,1.2c-0.8,0.5-2,1.5-2.7,3.4v0.4h-0.5v9c0,0-0.1,0.8-1,0.8c-0.9,0-1.1-0.5-1.2-0.7
				l-2.8-5.6l-3,5.5c0,0-0.3,0.8-1.1,0.8c-0.8,0-1.1-0.8-1.1-0.9v-6.2c0,0,0-0.4-0.5-0.4H6.3v7.5H3.9v-7.5H0.5V9.6z"/>
			<path class="st2" d="M22.2,17.3c0,0.5-0.4,0.9-0.9,0.9c-0.5,0-0.9-0.4-0.9-0.9c0-0.5,0.4-0.9,0.9-0.9
				C21.8,16.3,22.2,16.8,22.2,17.3z"/>
			<path class="st2" d="M35.1,4.5c0,0.5-0.4,0.9-0.9,0.9c-0.5,0-0.9-0.4-0.9-0.9c0-0.5,0.4-0.9,0.9-0.9C34.7,3.6,35.1,4,35.1,4.5z"
				/>
			<path class="st3" d="M34.2,5.8c-0.6,0-1.2-0.5-1.2-1.1l-6.3,10.3v-4.5c0-0.3-0.3-0.9-1.2-0.9c-0.9,0-1.3,0.7-1.3,0.7l-3.6,6
				c0.2-0.1,0.4-0.2,0.7-0.2c0.7,0,1.2,0.5,1.2,1.1l2-3.3v4.6c0,0.3,0.3,1,1.3,1c1,0,1.2-0.8,1.2-0.8l7.7-13.1
				C34.6,5.7,34.4,5.8,34.2,5.8z"/>
		</g>
	</g>
</g>
</svg>
