<?xml version="1.0" encoding="utf-8"?>
<!-- Generator: Adobe Illustrator 22.0.1, SVG Export Plug-In . SVG Version: 6.00 Build 0)  -->
<svg version="1.1" id="圖層_1" xmlns="http://www.w3.org/2000/svg" xmlns:xlink="http://www.w3.org/1999/xlink" x="0px" y="0px"
	 viewBox="0 0 181.8 23.5" style="enable-background:new 0 0 181.8 23.5;" xml:space="preserve">
<style type="text/css">
	.st0{fill:#595757;}
	.st1{clip-path:url(#SVGID_3_);}
	.st2{clip-path:url(#SVGID_4_);fill:#004098;}
	.st3{fill:#004098;}
	.st4{fill:#F5AC3C;}
	.st5{fill:#8CC56C;}
</style>
<title>twnic_logo</title>
<desc>Created with Sketch.</desc>
<g id="Page-1">
	<g id="Desktop-HD" transform="translate(-151.000000, -23.000000)">
		<g id="twnic_logo" transform="translate(151.000000, 23.000000)">
			<path id="Fill-11" class="st0" d="M95.5,22.1c0.4,0.3,1,0.5,1.6,0.5c0.7,0,1.2-0.2,1.6-0.5c0.4-0.3,0.6-0.8,0.6-1.4
				s-0.2-1.1-0.6-1.4c-0.4-0.3-1-0.5-1.6-0.5c-0.4,0-0.7,0-1,0.2c-0.2,0.1-0.4,0.2-0.6,0.3c-0.2,0.2-0.3,0.3-0.4,0.5
				c-0.2,0.2-0.2,0.6-0.2,1C94.9,21.3,95.1,21.8,95.5,22.1 M96.2,19.8c0.2-0.2,0.6-0.3,0.9-0.3c0.4,0,0.7,0.1,0.9,0.3
				c0.2,0.2,0.4,0.5,0.4,1c0,0.4-0.1,0.8-0.4,1c-0.2,0.2-0.6,0.3-0.9,0.3c-0.4,0-0.7-0.1-0.9-0.3c-0.2-0.2-0.4-0.5-0.4-1
				C95.9,20.3,96,20,96.2,19.8"/>
			<path id="Fill-13" class="st0" d="M100.8,22.6V21h0.2c0.2,0,0.4,0,0.5,0c0.1,0,0.2,0.1,0.3,0.2c0.1,0.1,0.2,0.2,0.5,0.6l0.7,0.8
				h1.1l-0.6-0.7c-0.2-0.3-0.4-0.5-0.5-0.6c-0.1-0.1-0.3-0.2-0.5-0.3c0.4,0,0.7-0.2,0.9-0.4s0.3-0.4,0.3-0.7c0-0.2-0.1-0.4-0.2-0.6
				c-0.1-0.2-0.3-0.3-0.5-0.4c-0.2-0.1-0.6-0.1-1.1-0.1h-1.9v3.7L100.8,22.6L100.8,22.6z M100.8,19.5h0.7c0.4,0,0.6,0,0.7,0
				c0.2,0,0.3,0.1,0.4,0.2c0.1,0.1,0.1,0.2,0.1,0.3c0,0.1,0,0.2-0.1,0.3c-0.1,0.1-0.2,0.1-0.3,0.2c-0.1,0-0.4,0-0.8,0h-0.7V19.5z"/>
			<polygon id="Fill-15" class="st0" points="104.4,22.6 104.4,18.9 105.3,18.9 105.3,20.5 107.1,18.9 108.4,18.9 106.7,20.3 
				108.5,22.6 107.3,22.6 106,20.8 105.3,21.5 105.3,22.6 			"/>
			<g id="Clip-18">
			</g>
			<polygon id="Fill-17" class="st0" points="110.5,22.6 111.5,22.6 111.5,18.4 110.5,18.4 			"/>
			<polygon id="Fill-19" class="st0" points="112.3,22.6 112.3,18.9 113.2,18.9 115,21.4 115,18.9 115.9,18.9 115.9,22.6 115,22.6 
				113.1,20.1 113.1,22.6 			"/>
			<polygon id="Fill-20" class="st0" points="116.7,22.6 116.7,18.9 119.8,18.9 119.8,19.5 117.7,19.5 117.7,20.4 119.6,20.4 
				119.6,21 117.7,21 117.7,22.6 			"/>
			<path id="Fill-21" class="st0" d="M120.9,22.1c0.4,0.3,1,0.5,1.6,0.5s1.2-0.2,1.6-0.5c0.4-0.3,0.6-0.8,0.6-1.4s-0.2-1.1-0.6-1.4
				c-0.4-0.3-1-0.5-1.6-0.5c-0.4,0-0.7,0-1,0.2c-0.2,0.1-0.4,0.2-0.6,0.3c-0.2,0.2-0.3,0.3-0.4,0.5c-0.2,0.2-0.2,0.6-0.2,1
				C120.3,21.3,120.5,21.8,120.9,22.1 M121.6,19.8c0.2-0.2,0.6-0.3,0.9-0.3c0.4,0,0.7,0.1,0.9,0.3c0.2,0.2,0.4,0.5,0.4,1
				c0,0.4-0.1,0.8-0.4,1c-0.2,0.2-0.6,0.3-0.9,0.3s-0.7-0.1-0.9-0.3c-0.2-0.2-0.4-0.5-0.4-1C121.2,20.3,121.3,20,121.6,19.8"/>
			<path id="Fill-22" class="st0" d="M126.2,22.6V21h0.2c0.2,0,0.4,0,0.5,0c0.1,0,0.2,0.1,0.3,0.2c0.1,0.1,0.2,0.2,0.5,0.6l0.7,0.8
				h1.1l-0.6-0.7c-0.2-0.3-0.4-0.5-0.5-0.6c-0.1-0.1-0.3-0.2-0.5-0.3c0.4,0,0.7-0.2,0.9-0.4s0.3-0.4,0.3-0.7c0-0.2-0.1-0.4-0.2-0.6
				c-0.1-0.2-0.3-0.3-0.5-0.4c-0.2-0.1-0.6-0.1-1.1-0.1h-2v3.7L126.2,22.6L126.2,22.6z M126.2,19.5h0.7c0.4,0,0.6,0,0.7,0
				c0.2,0,0.3,0.1,0.4,0.2c0.1,0.1,0.1,0.2,0.1,0.3c0,0.1,0,0.2-0.1,0.3c-0.1,0.1-0.2,0.1-0.2,0.2c-0.1,0-0.4,0-0.8,0h-0.7
				L126.2,19.5L126.2,19.5z"/>
			<polygon id="Fill-23" class="st0" points="129.7,22.6 129.7,18.9 131.1,18.9 131.9,21.4 132.7,18.9 134.1,18.9 134.1,22.6 
				133.2,22.6 133.2,19.7 132.3,22.6 131.5,22.6 130.6,19.7 130.6,22.6 			"/>
			<path id="Fill-24" class="st0" d="M137.1,18.9h-1l-1.8,3.7h1l0.4-0.8h1.8l0.4,0.8h1L137.1,18.9z M136,21.1l0.6-1.3l0.6,1.3H136z"
				/>
			<polygon id="Fill-25" class="st0" points="139.9,22.6 139.9,19.5 138.5,19.5 138.5,18.9 142.1,18.9 142.1,19.5 140.8,19.5 
				140.8,22.6 			"/>
			<polygon id="Fill-26" class="st0" points="142.5,22.6 143.5,22.6 143.5,18.9 142.5,18.9 			"/>
			<path id="Fill-27" class="st0" d="M144.6,22.1c0.4,0.3,1,0.5,1.6,0.5s1.2-0.2,1.6-0.5c0.4-0.3,0.6-0.8,0.6-1.4s-0.2-1.1-0.6-1.4
				s-1-0.5-1.6-0.5c-0.4,0-0.7,0-1,0.2c-0.2,0.1-0.4,0.2-0.6,0.3c-0.2,0.2-0.3,0.3-0.4,0.5c-0.1,0.2-0.2,0.6-0.2,1
				C144,21.3,144.2,21.8,144.6,22.1 M145.3,19.8c0.2-0.2,0.6-0.3,0.9-0.3s0.7,0.1,0.9,0.3c0.2,0.2,0.4,0.5,0.4,1
				c0,0.4-0.1,0.8-0.4,1c-0.2,0.2-0.6,0.3-0.9,0.3s-0.7-0.1-0.9-0.3c-0.2-0.2-0.4-0.5-0.4-1S145.1,20,145.3,19.8"/>
			<polygon id="Fill-28" class="st0" points="149,22.6 149,18.9 149.9,18.9 151.8,21.4 151.8,18.9 152.6,18.9 152.6,22.6 
				151.7,22.6 149.8,20.1 149.8,22.6 			"/>
			<path id="Fill-29" class="st0" d="M158.5,21l1,0.2c-0.2,0.5-0.4,0.8-0.8,1c-0.4,0.2-0.8,0.3-1.4,0.3c-0.7,0-1.3-0.2-1.7-0.6
				c-0.4-0.4-0.7-0.9-0.7-1.6c0-0.7,0.2-1.3,0.7-1.6c0.4-0.4,1-0.6,1.8-0.6c0.6,0,1.2,0.2,1.5,0.4c0.2,0.2,0.4,0.4,0.6,0.8l-1,0.2
				c-0.1-0.2-0.2-0.4-0.4-0.5s-0.4-0.2-0.7-0.2c-0.4,0-0.7,0.1-1,0.4c-0.2,0.2-0.4,0.6-0.4,1.1c0,0.6,0.1,0.9,0.4,1.2
				c0.2,0.2,0.6,0.4,1,0.4c0.3,0,0.5-0.1,0.7-0.2C158.3,21.6,158.4,21.3,158.5,21"/>
			<polygon id="Fill-30" class="st0" points="160.2,22.6 160.2,18.9 163.5,18.9 163.5,19.5 161.1,19.5 161.1,20.3 163.4,20.3 
				163.4,20.9 161.1,20.9 161.1,21.9 163.6,21.9 163.6,22.6 			"/>
			<polygon id="Fill-31" class="st0" points="164.2,22.6 164.2,18.9 165.1,18.9 167,21.4 167,18.9 167.9,18.9 167.9,22.6 
				166.9,22.6 165.1,20.1 165.1,22.6 			"/>
			<polygon id="Fill-32" class="st0" points="169.7,22.6 169.7,19.5 168.4,19.5 168.4,18.9 172,18.9 172,19.5 170.6,19.5 
				170.6,22.6 			"/>
			<polygon id="Fill-33" class="st0" points="172.4,22.6 172.4,18.9 175.8,18.9 175.8,19.5 173.3,19.5 173.3,20.3 175.6,20.3 
				175.6,20.9 173.3,20.9 173.3,21.9 175.9,21.9 175.9,22.6 			"/>
			<path id="Fill-34" class="st0" d="M177.4,22.6V21h0.2c0.2,0,0.4,0,0.5,0c0.1,0,0.2,0.1,0.3,0.2c0.1,0.1,0.2,0.2,0.5,0.6l0.7,0.8
				h1.1l-0.6-0.7c-0.2-0.3-0.4-0.5-0.5-0.6c-0.1-0.1-0.3-0.2-0.5-0.3c0.4,0,0.7-0.2,0.9-0.4s0.3-0.4,0.3-0.7c0-0.2-0.1-0.4-0.2-0.6
				c-0.1-0.2-0.3-0.3-0.5-0.4c-0.2-0.1-0.6-0.1-1.1-0.1h-1.9v3.7L177.4,22.6L177.4,22.6z M177.4,19.5h0.7c0.4,0,0.6,0,0.7,0
				c0.2,0,0.3,0.1,0.4,0.2c0.1,0.1,0.1,0.2,0.1,0.3c0,0.1,0,0.2-0.1,0.3c-0.1,0.1-0.2,0.1-0.3,0.2c-0.1,0-0.4,0-0.8,0h-0.7
				L177.4,19.5L177.4,19.5z"/>
			<path id="Fill-35" class="st0" d="M57.4,10.3h-2.9V9.5h3.1V8.1h0.9v1.3h0.9v0.8h-0.9v5.6c0,0.4-0.2,0.6-0.5,0.8
				c-0.5,0.3-1.3,0.2-2.6-0.1l0-0.8c0.5,0.1,0.8,0.2,1,0.3c0.2,0,0.4,0.1,0.7,0.1c0.2,0,0.3,0,0.4-0.2c0.1,0,0.1-0.1,0.1-0.3v-4.1
				c-0.8,1.5-1.7,2.6-2.7,3.5l-0.8-0.5C55.5,13.4,56.6,11.9,57.4,10.3z M52.6,15.5l0.8-0.4c0.5,0.6,0.9,1.1,1.1,1.4l-0.8,0.4
				C53.4,16.4,53,16,52.6,15.5z M50.7,14.9l0.8,0.4c-0.2,0.5-0.6,1-1,1.6l-0.8-0.4C50.1,15.9,50.5,15.3,50.7,14.9z M51,10.3h2V9.2
				c0,0,0,0,0,0H51c0,0,0,0,0,0V10.3z M51,12.2h2v-1.1h-2C51,11.1,51,12.2,51,12.2z M53,12.9h-2v1c0,0,0,0,0,0H53c0,0,0,0,0,0V12.9z
				 M53.9,14.7c0,0.1,0,0.1-0.1,0.1h-3.5c-0.1,0-0.1,0-0.1-0.1V8.5c0-0.1,0-0.1,0.1-0.1h3.5c0.1,0,0.1,0,0.1,0.1V14.7z"/>
			<path id="Fill-36" class="st0" d="M65.2,11.1v-0.3h-1.9c0,0,0,0,0,0v0.3L65.2,11.1L65.2,11.1z M65.9,10.7v0.4h1.9v-0.4
				c0,0,0,0,0,0L65.9,10.7L65.9,10.7z M65.2,12v-0.4h-1.9v0.4c0,0,0,0,0,0H65.2z M65.9,11.6V12h1.9c0,0,0,0,0,0v-0.4H65.9z
				 M67.6,12.7l0.3-0.2h-1.9v0.4l1.8,0C67.7,12.8,67.6,12.7,67.6,12.7z M67.9,14.5v0.7c0,0.2-0.1,0.4-0.2,0.5
				c-0.1,0.1-0.2,0.2-0.5,0.3h1.9c0.1,0,0.1,0,0.1-0.1V9c0,0,0-0.1-0.1-0.1h-3.3v0.4h2.8v0.6h-2.8v0.4h2.6c0.1,0,0.1,0,0.1,0.1v2.1
				c0,0.1,0,0.1-0.1,0.1h-0.1c0.2,0.2,0.5,0.6,0.8,0.9l-0.6,0.4c-0.1-0.1-0.2-0.2-0.2-0.3l-0.4,0V14h1.2v0.6L67.9,14.5L67.9,14.5z
				 M63.6,15l0.5-0.4h-1.8v-0.6h4.9v-0.4l-4.6,0.1L62.4,13l2.8-0.1v-0.4h-2.6c-0.1,0-0.1,0-0.1-0.1v-2.1c0,0,0-0.1,0.1-0.1h2.6V9.8
				h-3V9.2h3V8.9h-3.3c0,0-0.1,0-0.1,0.1v6.9c0,0,0,0.1,0.1,0.1h4.9c-0.2,0-0.5-0.1-0.9-0.3l0-0.7c0.6,0.2,0.9,0.3,1,0.2
				c0.1-0.1,0.2-0.1,0.2-0.2v-0.6h-3c0.3,0.2,0.6,0.5,0.9,0.8l-0.6,0.4C64.1,15.5,63.8,15.2,63.6,15z M70.1,16.5
				c0,0.1-0.1,0.2-0.2,0.2h-8.7c-0.1,0-0.2-0.1-0.2-0.2V8.4c0-0.1,0.1-0.2,0.2-0.2h8.7c0.1,0,0.2,0,0.2,0.2V16.5z"/>
			<path id="Fill-37" class="st0" d="M80.4,16.3l-6.2,0.5c-0.1-0.3-0.2-0.6-0.3-0.9l1.1-0.1c0.7-1,1.3-2.1,1.9-3.2h-2.4v-0.8h2.8
				v-1.7h-2.6V9.3h2.6V8.1h0.9v1.2h2.7v0.8h-2.7v1.7h3.1v0.8h-3.4c-0.4,0.9-1,1.9-1.8,3.1l3.8-0.3c-0.4-0.7-0.7-1.2-1-1.6l0.8-0.4
				c0.6,0.8,1.2,1.9,1.8,3.1l-0.8,0.4C80.6,16.7,80.5,16.4,80.4,16.3 M73.6,13.2l0.9,0.2c-0.5,1.5-1.1,2.6-1.9,3.4l-0.8-0.4
				C72.6,15.4,73.2,14.3,73.6,13.2 M71.9,11.4l0.4-0.7c0.5,0.2,1.1,0.5,1.8,1l-0.5,0.7C73,11.9,72.4,11.6,71.9,11.4 M72,8.9l0.5-0.7
				c0.6,0.3,1.2,0.7,1.9,1.2l-0.5,0.7C73.2,9.5,72.5,9.1,72,8.9"/>
			<path id="Fill-38" class="st0" d="M87.6,11.6c-0.3,0.9-0.7,1.8-1.2,2.5c-0.7,1-1.7,1.9-2.9,2.7l-0.7-0.6c2.8-1.4,4.2-4,4.3-7.6
				V8.1H88v0.5c0,0.1,0,0.2,0,0.4l0,0c0,1.1,0.2,2,0.5,2.8c0.6,1.6,1.9,3.1,3.9,4.6l-0.8,0.5c-0.5-0.4-0.9-0.8-1.3-1.1
				C89,14.5,88.1,13.1,87.6,11.6"/>
			<path id="Fill-39" class="st0" d="M101.6,13.2h-6c0,0,0,0,0,0v2.5c0,0,0,0,0,0h6c0,0,0,0,0,0L101.6,13.2
				C101.6,13.2,101.6,13.2,101.6,13.2z M102.6,16.4c0,0.2-0.1,0.2-0.2,0.2h-7.4c-0.2,0-0.2-0.1-0.2-0.2v-3.7c0-0.2,0.1-0.2,0.2-0.2
				h7.4c0.2,0,0.2,0.1,0.2,0.2V16.4z M102,11.1l-8,0.5c-0.1-0.2-0.2-0.5-0.2-0.8l0.9,0c0.8-0.8,1.5-1.7,2.1-2.7l0.8,0.4
				c-0.4,0.6-1,1.3-1.7,2.2l5.3-0.3c-0.7-0.6-1.1-1-1.3-1.1l0.7-0.6c1.3,1.1,2.3,2,3,2.9l-0.7,0.5C102.6,11.7,102.3,11.4,102,11.1z"
				/>
			<path id="Fill-40" class="st0" d="M107.5,15.7l-0.1,0.4c-0.2-0.1-0.5-0.2-0.7-0.2l0.4-1.5c0-0.1,0.2-0.2,0.3-0.2h5.6v-0.2
				c0,0,0-0.1-0.1-0.1h-5.9v-0.6h6.5c0.1,0,0.2,0,0.2,0.2v1.6H113v-0.3h-5.2c-0.1,0-0.2,0.1-0.2,0.2l-0.1,0.2h6.4
				c0.2,0,0.3,0.1,0.2,0.2c-0.1,0.6-0.2,1-0.4,1.3c-0.1,0.1-0.2,0.2-0.3,0.2c-0.5,0.2-2.1,0.2-4.8,0l0-0.7c0.9,0.1,1.7,0.2,2.3,0.2
				c1.3,0,2.1,0,2.3-0.2c0-0.1,0.1-0.2,0.1-0.4c0,0,0,0-0.1,0L107.5,15.7L107.5,15.7z M113.6,11.6l0.6-0.1c0.2,0.8,0.4,1.2,0.4,1.2
				l-0.6,0.1C113.9,12.5,113.8,12.1,113.6,11.6z M111.9,11.5l0.6,0.1c0,0.4-0.1,0.8-0.2,1.3l-0.6-0.2
				C111.7,12.4,111.8,12,111.9,11.5z M112.7,11.2l-0.9,0.1c0-0.2-0.1-0.4-0.2-0.6l0.6-0.1c0.1-0.1,0.3-0.3,0.4-0.4
				c-0.3-0.3-0.6-0.6-0.9-0.8c0.2-0.2,0.3-0.4,0.4-0.5c0,0,0,0,0.1,0c0.2-0.3,0.4-0.6,0.5-0.9c0.2,0.1,0.4,0.2,0.6,0.3
				c-0.1,0.3-0.4,0.6-0.6,1c0.1,0.1,0.2,0.2,0.4,0.4c0.2-0.3,0.4-0.6,0.4-0.9l0.7,0.2c-0.1,0.4-0.5,0.9-1,1.5l0.6,0
				c0-0.2-0.1-0.2-0.1-0.3l0.6-0.2c0.2,0.5,0.4,0.9,0.4,1.2l-0.6,0.1c0-0.1,0-0.2-0.1-0.2l-0.5,0.1v1.9h-0.7L112.7,11.2L112.7,11.2z
				 M110.9,11.6h-0.8c0,0,0,0,0,0v0.8c0,0,0,0,0,0h0.8c0,0,0,0,0,0L110.9,11.6C111,11.6,111,11.6,110.9,11.6z M111.5,12.8
				C111.5,12.8,111.5,12.8,111.5,12.8l-1.9,0.1c0,0-0.1,0-0.1-0.1v-1.6c0,0,0-0.1,0.1-0.1h1.8c0,0,0.1,0,0.1,0.1V12.8z M109.6,10.8
				h1.9v-0.5h-1.9V10.8z M109.6,10.1h2V9.6h-2V10.1z M109.3,9.4h2.4V8.9h-2.4V9.4z M109.4,8.7h2.1V8.2h-2.1V8.7z M108.5,11.8
				l0.6-0.1c0.1,0.3,0.2,0.6,0.3,1l-0.6,0.1C108.7,12.3,108.6,12,108.5,11.8z M106.8,11.6l0.6,0.1c0,0.2-0.1,0.6-0.2,1.2l-0.6-0.2
				C106.6,12.4,106.7,12,106.8,11.6z M107.6,11.2l-1,0.1c0-0.2-0.1-0.4-0.2-0.6l0.5-0.1c0.2-0.2,0.3-0.3,0.5-0.5
				c-0.3-0.2-0.6-0.4-1-0.6c0.1-0.2,0.2-0.4,0.3-0.6c0,0,0,0,0.1,0c0.2-0.3,0.4-0.7,0.6-1.1c0.2,0.1,0.4,0.2,0.6,0.3
				c-0.1,0.3-0.4,0.7-0.6,1.1c0.1,0.1,0.2,0.2,0.4,0.3c0.2-0.3,0.3-0.6,0.4-0.9L109,9c-0.1,0.4-0.5,0.9-1,1.5l0.6-0.1
				c0-0.1-0.1-0.2-0.1-0.4l0.6-0.2c0.2,0.4,0.3,0.8,0.4,1.3l-0.6,0.1c0-0.1,0-0.2-0.1-0.3l-0.4,0.1V13h-0.7V11.2z M105.8,13l0.8,0
				c-0.1,1.5-0.5,2.7-1,3.6l-0.8-0.2C105.4,15.3,105.7,14.2,105.8,13z M104.7,11.1l0.5-0.6c0.4,0.2,0.8,0.6,1.3,1l-0.6,0.6
				C105.4,11.6,105,11.3,104.7,11.1z M104.8,8.9l0.5-0.6c0.4,0.2,0.8,0.6,1.3,1l-0.6,0.6C105.6,9.4,105.2,9.1,104.8,8.9z"/>
			<path id="Fill-41" class="st0" d="M119,13.5l0.3,1.9l-0.7,0.1l-0.2-1.9L119,13.5z M116,13.5l0.8,0.1c-0.1,1.3-0.1,2.2-0.2,2.7
				l-0.8-0.1C115.9,15.3,116,14.4,116,13.5z M117.1,12.9l-1.2,0.1c0-0.2-0.1-0.4-0.2-0.7l0.4,0c0.3-0.3,0.6-0.6,1-1.1
				c-0.5-0.5-1-0.8-1.4-1.1c0.1-0.2,0.3-0.4,0.4-0.6c0,0,0.2,0.1,0.4,0.2c0.2-0.5,0.4-1,0.7-1.5c0.2,0.1,0.5,0.2,0.8,0.3
				c-0.2,0.4-0.4,1-0.8,1.7c0.2,0.1,0.3,0.2,0.5,0.4c0.3-0.6,0.6-1.1,0.7-1.6l0.8,0.2c-0.2,0.8-0.8,1.8-1.9,2.9l1.1-0.2
				c-0.1-0.4-0.2-0.6-0.2-0.7l0.8-0.2c0.2,0.7,0.4,1.3,0.5,1.9l-0.8,0.1c0-0.1,0-0.3-0.1-0.4l-0.6,0.1v4.1h-0.8v-3.9H117.1z
				 M123.4,10.8h1.1V9.1c0,0,0-0.1-0.1-0.1h-4c0,0-0.1,0-0.1,0.1v1.7h2.2c0.3-0.6,0.6-1.1,0.7-1.5l0.7,0.3
				C123.8,10,123.6,10.4,123.4,10.8z M120.3,12.3h1.7v-0.8h-1.7V12.3z M122.8,12.3h1.7v-0.8h-1.7V12.3z M121.1,13h-0.8v3.8h-0.8V8.6
				c0-0.2,0.1-0.3,0.3-0.3h5.2c0.2,0,0.3,0.1,0.3,0.3v7.3c0,0.4-0.1,0.6-0.4,0.8c-0.3,0.2-1,0.2-2.1,0l0-0.9
				c0.5,0.2,0.9,0.2,1.2,0.2c0.1,0,0.2,0,0.3-0.1c0.2-0.1,0.2-0.2,0.2-0.4V13h-2.5v1.3c0,0.1,0.1,0.2,0.2,0.2h1.8v0.7h-2.4
				c-0.3,0-0.4-0.1-0.4-0.4V13z M120.9,9.7l0.7-0.3c0.2,0.3,0.3,0.6,0.4,1l-0.8,0.2C121.1,10.3,121,9.9,120.9,9.7z"/>
			<path id="Fill-42" class="st0" d="M135.2,13.9h-3c0,0,0,0,0,0v1.9c0,0,0,0,0,0h3c0,0,0,0,0,0L135.2,13.9
				C135.2,13.9,135.2,13.9,135.2,13.9z M136.1,16.5c0,0.1,0,0.1-0.1,0.1h-4.6c-0.1,0-0.1,0-0.1-0.1v-3.3c0-0.1,0-0.1,0.1-0.1h4.6
				c0.1,0,0.1,0,0.1,0.1L136.1,16.5L136.1,16.5z M129.7,9h-1.6c0,0,0,0,0,0v1.7c0,0,0,0,0,0h1.6c0,0,0,0,0,0L129.7,9L129.7,9z
				 M132.5,9.2c0.4,0.6,0.8,1.1,1.3,1.5c0.4-0.4,0.8-0.8,1.2-1.4c0-0.1,0-0.2-0.1-0.2h-2.3C132.5,9.1,132.5,9.1,132.5,9.2z
				 M131.9,9.9c-0.3,0.3-0.6,0.5-1,0.8l-0.5-0.5v1.2c0,0.1,0,0.1-0.1,0.1h-0.9v1.4h1.1v0.7h-1.1v1.7c0.4-0.1,0.6-0.2,0.8-0.3
				l0.3,0.7c-0.8,0.3-1.9,0.7-3.5,1l-0.3-0.7c0.1,0,0.3-0.1,0.4-0.1v-3.5h0.7v3.3c0.2-0.1,0.4-0.1,0.7-0.2v-4.1h-1.3
				c-0.1,0-0.1,0-0.1-0.1v-3c0-0.1,0-0.1,0.1-0.1h3c0.1,0,0.1,0,0.1,0.1V10c0.4-0.3,0.7-0.5,0.9-0.8c0.2-0.3,0.5-0.7,0.8-1.3h0.8
				c0,0.1-0.1,0.2-0.1,0.3h2.5l0.6,0.4c-0.4,0.8-0.7,1.4-1.1,1.9c-0.2,0.2-0.4,0.4-0.6,0.6c0.6,0.4,1.3,0.8,2.3,1.1l-0.6,0.7
				c-0.8-0.4-1.6-0.8-2.3-1.3c-0.8,0.6-1.7,1-2.8,1.4l-0.5-0.7c1.1-0.4,1.9-0.8,2.7-1.3C132.7,10.8,132.3,10.4,131.9,9.9z"/>
			<path id="Fill-43" class="st0" d="M140.1,12.6h5.4v-0.5c0,0,0,0,0,0h-5.4c0,0,0,0,0,0V12.6z M140.1,13.8h5.4v-0.5h-5.4V13.8z
				 M145.5,14.4H140v0.5c0,0,0,0,0,0h5.4c0,0,0,0,0,0V14.4z M144.3,15.7h-3.1l0.2,0.6c-0.8,0.3-1.9,0.5-3.2,0.7l-0.2-0.8
				c1.1-0.2,2-0.4,2.7-0.6h-1.4c-0.1,0-0.1,0-0.1-0.1v-4c0-0.1,0-0.1,0.1-0.1h0.8h6.2c0.1,0,0.1,0,0.1,0.1v4c0,0.1,0,0.1-0.1,0.1
				h-1.6c1.1,0.2,2,0.4,2.8,0.6l-0.3,0.7c-1.1-0.3-2.1-0.6-3.1-0.7L144.3,15.7z M143.6,9.9c-0.5,0.8-1.5,1.2-2.9,1.5l-0.3-0.8
				c0.2,0,0.5-0.1,0.7-0.1c0.8-0.2,1.5-0.6,2-1.3H142c-0.4,0.4-0.8,0.6-1,0.8l-0.6-0.6c0.7-0.4,1.2-0.9,1.5-1.5l0.7,0.4
				c0,0-0.1,0.1-0.1,0.2h4.3l0.5,0.4c-0.4,0.5-0.9,0.9-1.3,1.3l-0.7-0.5c0.2-0.2,0.5-0.4,0.7-0.6h-2c0.6,0.9,1.7,1.4,3.4,1.5
				l-0.2,0.8c0,0-0.1,0-0.1,0C145.6,11.4,144.4,10.8,143.6,9.9z M140,9.8l0.6,0.6c-0.8,0.6-1.6,1-2.3,1.1l-0.4-0.7
				C138.7,10.7,139.4,10.3,140,9.8z M138.1,9.2h2.3V8.5h-2.3V9.2z"/>
			<path id="Fill-44" class="st0" d="M151.6,13.9h-1.5c0,0,0,0,0,0v1.9c0,0,0,0,0,0h1.5c0,0,0,0,0,0L151.6,13.9
				C151.7,13.9,151.7,13.9,151.6,13.9z M152.5,16.5c0,0.1,0,0.1-0.1,0.1h-3.1c-0.1,0-0.1,0-0.1-0.1v-3.2c0-0.1,0-0.1,0.1-0.1h3.1
				c0.1,0,0.1,0,0.1,0.1V16.5z M149.4,12.8h2.9V12h-2.9V12.8z M149.4,11.6h2.9v-0.7h-2.9V11.6z M148.9,10.4h4V9.6h-4V10.4z
				 M149.5,9.2h2.9V8.4h-2.9V9.2z M154,12.3V9.2h-1V8.4h4c0.2,0,0.3,0,0.3,0.2c-0.1,4.1,0,6.4,0.2,7c0,0.1,0.1,0.1,0.2,0.1
				c0,0,0,0,0-0.1c0-0.2,0-0.6,0-1.2l0.9,0.2c-0.1,1.2-0.2,1.9-0.5,2.2c-0.2,0.1-0.3,0.2-0.4,0.2c-0.2,0-0.4-0.1-0.5-0.2
				c-0.3-0.3-0.4-0.7-0.5-1.1c-0.2-0.9-0.4-3-0.3-6.3c0-0.1,0-0.1-0.1-0.2h-1.3V12c0.4-0.1,0.6-0.2,0.9-0.3l0.3,0.8
				c-0.2,0.1-0.7,0.2-1.2,0.4c-0.1,0.5-0.1,1-0.2,1.3c-0.3,1.1-0.6,1.9-1.1,2.5l-0.9-0.3c0.8-1,1.2-2.1,1.3-3.3
				c-0.4,0.1-0.8,0.2-1.1,0.3l-0.3-0.8C153,12.6,153.5,12.4,154,12.3z"/>
			<path id="Fill-45" class="st0" d="M164.3,10.2h-3.1c-0.1,0-0.1,0-0.1,0.1v3.3c0,0.1,0,0.1,0.1,0.1h3.1V10.2z M168.3,10.2h-3.1
				v3.5h3.1c0.1,0,0.1,0,0.1-0.1v-3.3C168.4,10.3,168.4,10.2,168.3,10.2z M169.3,14.3c0,0.2-0.1,0.2-0.2,0.2h-3.9v2.3h-1v-2.3h-3.9
				c-0.2,0-0.2-0.1-0.2-0.2V9.6c0-0.2,0.1-0.2,0.2-0.2h3.9V8.1h1v1.3h3.9c0.2,0,0.2,0.1,0.2,0.2V14.3z"/>
			<path id="Fill-46" class="st0" d="M178.5,9.3l0.9-0.2c0.6,1.7,1,3.8,1.3,6.3l-0.9,0.1C179.4,13,179,10.9,178.5,9.3z M175.2,8.2
				l0.9-0.2c0.5,1.5,0.9,3.4,1.1,5.6l-0.9,0.1C176.1,11.4,175.7,9.6,175.2,8.2z M173.4,8.7h0.9v6.7c0,0.2,0,0.3,0.1,0.4
				c0.1,0.1,0.3,0.2,0.5,0.2h2.3c0.3,0,0.5-0.1,0.6-0.2c0.1-0.1,0.1-0.2,0.2-0.4c0-0.2,0-0.8,0-1.7l0.9,0.2c0,1,0,1.7,0,2.1
				c0,0.2-0.1,0.4-0.2,0.5c-0.2,0.2-0.3,0.3-0.4,0.3c-0.2,0-0.4,0-0.7,0h-2.9c-0.3,0-0.5,0-0.7-0.2c-0.3-0.2-0.5-0.6-0.5-1.1
				L173.4,8.7L173.4,8.7z M171.6,9.5l0.9,0c0,1.7-0.2,3.8-0.7,6.2l-0.9-0.1C171.4,13.2,171.6,11.1,171.6,9.5z"/>
			<g>
				<defs>
					<polygon id="SVGID_1_" points="1.8,2 2.2,2 1.8,2.4 					"/>
				</defs>
				<defs>
					<polygon id="SVGID_2_" points="1,1.2 0.6,1.2 1,0.8 					"/>
				</defs>
				<clipPath id="SVGID_3_">
					<use xlink:href="#SVGID_1_"  style="overflow:visible;"/>
				</clipPath>
				<clipPath id="SVGID_4_" class="st1">
					<use xlink:href="#SVGID_2_"  style="overflow:visible;"/>
				</clipPath>
				<path id="Fill-47" class="st2" d="M37.2,15.5C37.2,15.5,37.2,15.5,37.2,15.5C37.2,15.5,37.2,15.5,37.2,15.5"/>
			</g>
			<path id="Fill-48" class="st3" d="M1.4,8.1h8.8c0,0,0.8-0.1,1.4,0.6c0.7,0.7,0.6,1.3,0.6,1.3v2.1L14,8.7c0,0,0.2-0.6,1.1-0.6
				c0.9,0,1.1,0.6,1.1,0.6l1.5,3.1V8.2h-0.3V7.8h2.7c0,0,0.2-2.1,2.1-3.9c2-1.8,4.4-1.9,5.1-1.9c1.6,0,3.7,0.7,5,2
				c1.3,1.3,1.9,3,2,3.9h2.8v0.4h-0.6v7.2c0,0-0.1,0.5,0.4,0.5c0.5,0,0.5-0.4,0.5-0.6v-5c0,0,0.1-1.7,1.8-2.1h3.9
				c0,0,0.7-0.1,1.5,0.7c0.8,0.8,0.7,1.4,0.7,1.4v1h-2.3V11c0,0,0-0.2-0.2-0.2h-2.8c0,0-0.3,0-0.3,0.2v4.7c0,0-0.1,0.2,0.2,0.2h2.8
				c0,0,0.2,0,0.2-0.2v-0.5h2.2v0.5c0,0-0.1,2.3-1.5,2.5h-7.3c0,0-2,0-2.1-2.2V8.2h-0.5V7.8c0,0-0.3-1.4-1.8-2.7
				c-1.5-1.3-3.1-1.8-4.7-1.8c-1.6,0-3.2,0.6-4,1.2C22.6,5,21.4,6,20.7,7.9v0.4h-0.5v9c0,0-0.1,0.8-1,0.8c-0.9,0-1.1-0.5-1.2-0.7
				l-2.8-5.6l-3,5.5c0,0-0.3,0.8-1.1,0.8c-0.8,0-1-0.8-1-0.9v-6.2c0,0,0-0.4-0.5-0.4H7.2v7.5H4.8v-7.5H1.4V8.1z"/>
			<path id="Fill-49" class="st4" d="M22.9,15.7c0,0.5-0.4,1-0.9,1c-0.5,0-0.9-0.4-0.9-1c0-0.5,0.4-1,0.9-1
				C22.6,14.8,22.9,15.2,22.9,15.7"/>
			<path id="Fill-50" class="st4" d="M35.7,3c0,0.5-0.4,1-0.9,1s-0.9-0.4-0.9-1s0.4-1,0.9-1C35.3,2,35.7,2.5,35.7,3"/>
			<path id="Fill-51" class="st5" d="M34.8,4.2c-0.6,0-1.2-0.5-1.2-1.1l-6.2,10.3V8.9c0-0.3-0.3-0.8-1.2-0.8c-0.9,0-1.3,0.7-1.3,0.7
				l-3.6,6c0.2-0.1,0.4-0.2,0.7-0.2c0.6,0,1.2,0.5,1.2,1.2l1.9-3.3V17c0,0.3,0.3,1,1.3,1c1,0,1.2-0.8,1.2-0.8l7.7-13.1
				C35.2,4.2,35,4.2,34.8,4.2"/>
		</g>
	</g>
</g>
</svg>
