<?xml version="1.0" encoding="UTF-8"?>
<svg width="29px" height="30px" viewBox="0 0 29 30" version="1.1" xmlns="http://www.w3.org/2000/svg" xmlns:xlink="http://www.w3.org/1999/xlink">
    <!-- Generator: Sketch 51.1 (57501) - http://www.bohemiancoding.com/sketch -->
    <title>youtubefooter_icon</title>
    <desc>Created with Sketch.</desc>
    <defs></defs>
    <g id="Page-1" stroke="none" stroke-width="1" fill="none" fill-rule="evenodd">
        <g id="Desktop-HD" transform="translate(-1219.000000, -3209.000000)" fill-rule="nonzero">
            <g id="youtubefooter_icon" transform="translate(1219.000000, 3209.000000)">
                <g id="instagram-logo-(1)-copy-2" fill="#000000">
                    <path d="M20.8810235,0 L7.95862353,0 C3.57024118,0 0,3.69352941 0,8.23323529 L0,21.6012353 C0,26.1411176 3.57024118,29.8344706 7.95862353,29.8344706 L20.8810235,29.8344706 C25.2697471,29.8344706 28.8399882,26.1409412 28.8399882,21.6012353 L28.8399882,8.23323529 C28.8401588,3.69352941 25.2697471,0 20.8810235,0 Z M26.2813353,21.6012353 C26.2813353,24.6815294 23.8588118,27.1874118 20.8811941,27.1874118 L7.95862353,27.1874118 C4.98117647,27.1875882 2.55882353,24.6815294 2.55882353,21.6012353 L2.55882353,8.23323529 C2.55882353,5.15311765 4.98117647,2.64705882 7.95862353,2.64705882 L20.8810235,2.64705882 C23.8586412,2.64705882 26.2811647,5.15311765 26.2811647,8.23323529 L26.2811647,21.6012353 L26.2813353,21.6012353 Z" id="Shape"></path>
                </g>
                <g id="youtube" transform="translate(8.000000, 11.000000)">
                    <path d="M13.405,0.867272727 C13.02525,0.235636364 12.613125,0.119454545 11.774,0.0752727273 C10.93575,0.0220909091 8.827875,0 7.00175,0 C5.172125,0 3.063375,0.0220909091 2.226,0.0744545455 C1.388625,0.119454545 0.975625,0.234818182 0.592375,0.867272727 C0.20125,1.49809091 0,2.58463636 0,4.49754545 C0,4.49918182 0,4.5 0,4.5 C0,4.50163636 0,4.50245455 0,4.50245455 L0,4.50409091 C0,6.40881818 0.20125,7.50354545 0.592375,8.12781818 C0.975625,8.75945455 1.38775,8.874 2.225125,8.92718182 C3.063375,8.973 5.172125,9 7.00175,9 C8.827875,9 10.93575,8.973 11.774875,8.928 C12.614,8.87481818 13.026125,8.76027273 13.405875,8.12863636 C13.8005,7.50436364 14,6.40963636 14,4.50490909 C14,4.50490909 14,4.50245455 14,4.50081818 C14,4.50081818 14,4.49918182 14,4.49836364 C14,2.58463636 13.8005,1.49809091 13.405,0.867272727 Z" id="Shape" fill="#000000"></path>
                    <polygon id="Shape" fill="#DCDDDC" points="5 7 5 2 10 4.5"></polygon>
                </g>
            </g>
        </g>
    </g>
</svg>