<?xml version="1.0" encoding="UTF-8"?>
<svg width="308px" height="30px" viewBox="0 0 308 30" version="1.1" xmlns="http://www.w3.org/2000/svg" xmlns:xlink="http://www.w3.org/1999/xlink">
    <!-- Generator: Sketch 51.2 (57519) - http://www.bohemiancoding.com/sketch -->
    <title>activemethod</title>
    <desc>Created with Sketch.</desc>
    <defs>
        <polygon id="path-1" points="0 0.000125 307.786875 0.000125 307.786875 29.61825 0 29.61825"></polygon>
    </defs>
    <g id="Page-1" stroke="none" stroke-width="1" fill="none" fill-rule="evenodd">
        <g id="Desktop-HD" transform="translate(-566.000000, -4611.000000)">
            <g id="activemethod" transform="translate(566.000000, 4611.000000)">
                <mask id="mask-2" fill="white">
                    <use xlink:href="#path-1"></use>
                </mask>
                <g id="Clip-2"></g>
                <path d="M15.5525,24.850125 L23.76,24.850125 L23.76,17.39825 L15.5525,17.39825 L15.5525,24.850125 Z M17.035625,4.357625 C14.31125,4.16825 11.586875,4.042 8.896875,3.5995 L8.896875,3.252 C13.96625,2.810125 18.966875,1.862625 23.86375,0.600125 L29.898125,3.31575 C27.34625,3.82075 24.794375,4.042 22.208125,4.262625 L22.208125,8.241375 L30.795,8.241375 L30.795,10.262 L22.208125,10.262 L22.208125,15.34575 L23.621875,15.34575 L25.208125,13.956375 L30.20875,14.967 L28.9325,16.167 L28.9325,29.050125 L23.76,29.050125 L23.76,26.902625 L15.5525,26.902625 L15.5525,29.11325 L10.483125,29.11325 L10.483125,14.462 L15.5525,14.462 L15.5525,15.34575 L17.035625,15.34575 L17.035625,10.262 L8.896875,10.262 L8.896875,8.241375 L17.035625,8.241375 L17.035625,4.357625 Z M1.06875,1.2945 C3.345,1.76825 9.345625,2.3995 9.345625,5.336375 C9.345625,6.5995 8.138125,6.947 6.93125,7.010125 C5.5175,7.1045 4.62125,6.347 3.69,4.610125 C3.034375,3.410125 1.93125,2.431375 0.75875,1.610125 L1.06875,1.2945 Z M0.379375,8.272625 C2.58625,8.715125 5.551875,8.620125 7.000625,10.38825 C7.414375,10.862 7.828125,11.68325 7.828125,12.3145 C7.828125,13.577625 6.896875,14.49325 5.655625,14.49325 C5.035,14.49325 4.035,14.367 3.44875,13.73575 C2.620625,12.88325 2.58625,11.777625 2.069375,10.73575 C1.655,9.88325 0.93125,9.157 0.24125,8.493875 L0.379375,8.272625 Z M7.96625,15.061375 L8.5175,15.282625 C7.655625,21.75575 7.069375,23.618875 2.793125,28.923875 L0,23.840125 C3.206875,21.25075 5.8625,18.472 7.96625,15.061375 Z" id="Fill-1" fill="#AE7441" mask="url(#mask-2)"></path>
                <path d="M45.24125,16.29325 L47.24125,16.29325 L47.24125,14.272625 L45.24125,14.272625 L45.24125,16.29325 Z M45.24125,12.377625 L47.24125,12.377625 L47.24125,10.38825 L45.24125,10.38825 L45.24125,12.377625 Z M39.516875,16.29325 L41.689375,16.29325 L41.689375,14.272625 L39.516875,14.272625 L39.516875,16.29325 Z M39.516875,12.377625 L41.689375,12.377625 L41.689375,10.38825 L39.516875,10.38825 L39.516875,12.377625 Z M45.24125,5.02075 L51.8275,5.02075 L51.8275,6.567625 L54.241875,6.567625 L54.310625,0.883875 L58.2075,0.883875 L58.10375,6.567625 L60.069375,6.567625 L61.241875,5.462625 L65.38,6.315125 L64.104375,7.388875 L63.863125,25.60825 C63.863125,26.2395 63.79375,27.028875 63.449375,27.597625 C62.690625,28.733875 60.241875,29.11325 58.896875,29.11325 C56.79375,29.11325 59.000625,28.228875 56.69,27.250125 C55.75875,26.871375 54.69,26.682 53.69,26.492625 L53.724375,26.082 C55.27625,26.145125 57.000625,26.302625 58.5525,26.302625 C59.518125,26.302625 59.828125,25.797625 59.828125,24.976375 L60.173125,8.462 L58.069375,8.462 C58.000625,11.998875 58.035,15.503875 57.414375,18.977 C56.62125,23.397625 52.551875,26.96575 48.620625,29.2395 L48.1725,29.01825 C51.58625,25.545125 53.241875,22.482 53.8625,17.808875 C54.241875,14.746375 54.1725,11.525125 54.241875,8.462 L51.58625,8.462 L51.58625,6.883875 L45.24125,6.883875 L45.24125,8.462 L47.24125,8.462 L48.31,7.515125 L52.034375,8.68325 L50.861875,9.315125 L50.861875,18.977 L47.344375,18.977 L47.344375,18.2195 L45.24125,18.2195 L45.24125,20.177 L50.861875,20.177 L50.861875,22.00825 L45.24125,22.00825 L45.24125,24.06075 C47.448125,23.80825 49.655,23.587625 51.8275,23.240125 L51.965625,23.682 C46.930625,25.545125 41.62,26.8395 36.34375,28.07075 L34.86125,24.882 C37.136875,24.75575 39.413125,24.597625 41.689375,24.377 L41.689375,22.00825 L35.68875,22.00825 L35.68875,20.177 L41.689375,20.177 L41.689375,18.2195 L39.4475,18.2195 L39.4475,19.040125 L36.068125,19.040125 L36.068125,7.957 L39.4475,7.957 L39.4475,8.462 L41.689375,8.462 L41.689375,6.883875 L34.964375,6.883875 L34.964375,5.02075 L41.689375,5.02075 L41.689375,3.378875 C39.344375,3.347 36.965,3.252 34.62,3.157625 L34.585,2.71575 C39.481875,2.336375 44.585625,1.831375 49.24125,0.283875 L52.24125,3.12575 C49.93125,3.252 47.58625,3.283875 45.24125,3.378875 L45.24125,5.02075 Z" id="Fill-3" fill="#AE7441" mask="url(#mask-2)"></path>
                <path d="M91.6201875,12.788125 C90.4133125,12.661875 90.3789375,10.925625 90.3789375,9.78875 C90.3789375,8.778125 90.3095625,8.24125 89.8270625,7.325625 L90.2408125,7.13625 C91.7583125,8.051875 94.4133125,9.251875 94.1720625,11.083125 C94.0339375,12.251875 92.8964375,12.94625 91.6201875,12.788125 Z M98.9651875,9.725625 C98.2070625,11.051875 96.9995625,12.314375 95.9308125,13.45125 L99.5864375,13.45125 L99.5864375,15.440625 L96.2064375,15.440625 L96.2064375,19.83 L99.3101875,19.83 L99.3101875,21.819375 L96.2064375,21.819375 L96.2064375,29.144375 L92.4820625,29.144375 L92.4820625,21.819375 L89.6201875,21.819375 L89.6201875,19.83 L92.4820625,19.83 L92.4820625,15.440625 L90.1026875,15.440625 L90.1026875,13.45125 L94.5514375,13.45125 C95.4826875,11.051875 95.6551875,9.504375 95.9651875,7.04125 L99.9658125,7.830625 C99.6551875,8.4625 99.3101875,9.09375 98.9651875,9.725625 Z M72.8951875,12.566875 C71.9639375,12.566875 71.1364375,12.283125 71.1364375,11.30375 C71.1364375,10.483125 71.4464375,9.69375 71.4464375,8.8725 C71.4464375,8.335625 71.2739375,7.8625 71.1364375,7.3575 L71.4120625,7.199375 C72.9295625,7.98875 75.0326875,8.935625 75.0326875,10.7675 C75.0326875,11.90375 74.1020625,12.566875 72.8951875,12.566875 Z M69.9983125,6.915 L69.9983125,4.925625 L73.4814375,4.925625 C72.8601875,4.3575 72.9983125,3.694375 72.8951875,2.905 C72.7914375,2.020625 72.5845625,1.768125 72.0326875,1.010625 L72.3433125,0.789375 C73.5845625,1.105 74.8258125,1.42125 75.9639375,1.894375 C76.7914375,2.21 77.4470625,2.68375 77.4470625,3.53625 C77.4470625,4.13625 77.1708125,4.57875 76.6539375,4.925625 L79.5158125,4.925625 L79.5158125,6.915 L69.9983125,6.915 Z M90.0339375,6.88375 L89.0683125,7.704375 L88.8958125,26.208125 C88.8614375,28.32375 86.0339375,28.355625 84.3439375,28.355625 C82.8264375,28.355625 84.2058125,27.345 82.9645625,26.681875 C82.4470625,26.3975 80.8264375,26.081875 80.2401875,25.92375 L80.3783125,25.545 C81.7920625,25.67125 83.2401875,25.734375 84.6889375,25.734375 C85.5164375,25.734375 85.5508125,25.41875 85.5508125,24.724375 L85.6889375,8.715 L84.4126875,8.715 C84.3439375,14.2725 84.5164375,19.103125 81.1714375,24.029375 C79.9645625,25.7975 78.4814375,27.439375 76.6195625,28.67125 L76.2401875,28.45 C77.4470625,26.808125 78.2745625,25.41875 79.0333125,23.555625 C79.5158125,22.41875 79.8951875,21.2825 80.1714375,20.11375 C81.0676875,16.60875 80.9301875,12.283125 80.9989375,8.715 L79.8264375,8.715 L79.8264375,8.020625 C78.7920625,9.883125 77.7570625,11.62 76.4814375,13.325 L80.0676875,13.325 L80.0676875,15.314375 L76.9983125,15.314375 L76.9983125,18.125 L79.0676875,18.125 L79.0676875,20.11375 L76.9295625,20.11375 C76.5501875,22.26125 75.8951875,24.155625 74.3089375,25.829375 C73.8601875,26.303125 73.4814375,26.87125 72.9639375,27.281875 C72.0326875,27.97625 71.0326875,28.608125 70.0670625,29.239375 L69.6876875,28.986875 C70.4464375,28.1025 71.1364375,27.155625 71.7226875,26.145 C72.8951875,24.124375 73.0670625,22.35625 73.3089375,20.11375 L69.9983125,20.11375 L69.9983125,18.125 L73.3776875,18.125 L73.3776875,15.314375 L69.6876875,15.314375 L69.6876875,13.325 L74.8951875,13.325 C75.7570625,11.02 76.0333125,9.44125 76.1364375,6.978125 L79.8264375,7.48375 L79.8264375,6.694375 L80.9989375,6.694375 L80.9989375,0.63125 L84.4126875,0.63125 L84.4126875,6.694375 L85.5851875,6.694375 L86.6889375,5.68375 L89.8270625,6.346875 L89.8270625,4.925625 L93.1376875,4.925625 C92.1720625,4.48375 92.3101875,4.105 92.1376875,3.189375 C92.0683125,2.841875 91.9308125,2.52625 91.7926875,2.21 C91.4820625,1.389375 91.3095625,1.32625 90.6889375,0.663125 L90.9995625,0.441875 C92.3445625,0.72625 93.7239375,1.07375 94.9995625,1.5475 C95.8270625,1.83125 96.7583125,2.305 96.7583125,3.220625 C96.7583125,3.915625 96.3445625,4.515625 95.7239375,4.925625 L99.3101875,4.925625 L99.3101875,6.88375 L90.0339375,6.88375 Z" id="Fill-4" fill="#AE7441" mask="url(#mask-2)"></path>
                <path d="M126.343375,14.524875 C125.757125,15.75675 125.170875,16.988 124.4815,18.156125 C122.929625,20.77675 120.20525,22.798 117.825875,24.72425 C119.20525,24.787375 120.619,24.818625 122.03275,24.818625 C124.102125,24.818625 126.20525,24.72425 128.274625,24.661125 C127.584625,22.513625 127.033375,21.47175 125.55025,19.608625 L125.860875,19.356125 C128.55025,20.682375 132.654,21.693 133.8265,24.439875 C134.309625,25.608 134.654,26.713 134.205875,27.6605 C133.654,28.766125 133.06775,29.23925 131.41275,29.23925 C130.24025,29.23925 129.24025,28.63925 128.999,27.53425 C128.860875,26.871125 128.757125,26.208 128.619625,25.544875 C126.515875,26.334875 124.37775,27.123625 122.20525,27.597375 C119.825875,28.13425 117.4115,28.48175 114.99775,28.82925 L113.7565,24.661125 C113.894625,24.692375 114.0665,24.692375 114.204625,24.692375 C115.135875,24.692375 115.4115,24.37675 115.963375,23.713625 C116.4465,23.113625 116.929,22.48175 117.377125,21.8505 C118.653375,19.956125 119.722125,16.7355 120.274,14.524875 L126.343375,14.524875 Z M113.273375,11.746125 L121.135875,11.746125 L121.135875,6.283625 L114.135875,6.283625 L114.135875,4.263 L121.135875,4.263 L121.135875,0.821125 L126.619,0.821125 L126.619,4.263 L133.654,4.263 L133.654,6.283625 L126.619,6.283625 L126.619,11.746125 L134.619625,11.746125 L134.619625,13.86175 L113.273375,13.86175 L113.273375,11.746125 Z M105.30775,1.326125 C106.894,1.673625 108.48025,2.021125 109.99775,2.526125 C110.859625,2.809875 112.0665,2.968 112.65275,3.631125 C112.963375,3.978625 113.584,4.483625 113.273375,5.683625 C112.99775,6.85175 111.859625,7.388625 110.7215,7.388625 C108.100875,7.388625 107.997125,4.957375 106.755875,3.3155 C106.273375,2.683625 105.65275,2.147375 105.0665,1.6105 L105.30775,1.326125 Z M112.4115,15.15675 L112.790875,15.15675 C112.0665,21.408625 111.34275,23.934875 107.273375,28.98675 L104.410875,23.998 C107.82525,21.503625 110.30775,18.66175 112.4115,15.15675 Z M104.583375,9.914875 C106.445875,10.10425 108.48025,10.072375 109.894,10.641125 C111.4115,11.272375 111.894,12.093625 111.99775,13.388 C112.0665,14.3355 110.82525,15.219875 109.755875,15.219875 C108.618375,15.251125 107.032125,14.398625 106.82525,12.693625 C106.687125,11.588625 105.273375,10.862375 104.342125,10.167375 L104.583375,9.914875 Z" id="Fill-5" fill="#AE7441" mask="url(#mask-2)"></path>
                <path d="M164.756188,28.7973125 C162.894313,28.7973125 162.445563,27.9448125 161.411188,26.6816875 C160.824938,25.9235625 160.204313,25.2291875 159.514313,24.5660625 C158.411188,23.4610625 156.962438,22.5454375 155.617438,21.6929375 L155.789938,21.4404375 C158.341813,22.0398125 161.066188,22.4185625 163.549313,23.2085625 C165.308063,23.7766875 167.273688,24.7554375 167.273688,26.6816875 C167.273688,27.8498125 165.894313,28.7973125 164.756188,28.7973125 Z M152.996813,8.9991875 L151.306813,10.4198125 L148.134313,8.6516875 L149.583063,7.8310625 L149.789938,4.1679375 C148.065563,4.3891875 146.375563,4.5785625 144.651813,4.7048125 L144.893063,8.1779375 L147.858688,8.1779375 L147.858688,10.0410625 L144.961813,10.0410625 L145.134313,13.4829375 L148.168688,13.4829375 L148.168688,15.3141875 L145.238063,15.3141875 L145.444938,18.6616875 L148.789938,18.6616875 L149.238063,11.0829375 L152.996813,11.2091875 L152.514313,18.6616875 L154.479938,18.6616875 L154.789938,8.9991875 L152.996813,8.9991875 Z M166.928688,3.8204375 L165.963063,18.6616875 L167.894313,18.6616875 L167.894313,20.6823125 L139.064938,20.6823125 L139.064938,18.6616875 L141.341188,18.6616875 L140.444313,1.8629375 L144.548063,1.7366875 L144.616813,3.2204375 C145.789313,2.7154375 146.858688,2.0841875 147.858688,1.3579375 L149.858688,3.2523125 L149.996813,0.6948125 L154.031188,0.7891875 L153.789938,3.4416875 L158.652438,3.4416875 L158.652438,5.3048125 L153.651813,5.3048125 L153.548688,7.1360625 L155.410563,7.1360625 L156.859313,6.1573125 L160.307438,7.8941875 L158.652438,8.7779375 L158.445563,18.6616875 L161.997438,18.6616875 L162.169938,15.2823125 L159.341813,15.2823125 L159.341813,13.4198125 L162.342438,13.4198125 L162.549313,10.0410625 L159.583688,10.0410625 L159.583688,8.1779375 L162.686813,8.1779375 L162.894313,4.5154375 L159.479938,4.5154375 L159.479938,2.6835625 L162.824938,2.6835625 L164.238688,1.2948125 L168.273688,2.8729375 L166.928688,3.8204375 Z M149.651813,23.8085625 C147.996813,25.3866875 144.513688,27.3448125 142.271813,28.1973125 C141.064938,28.6398125 139.858063,29.0185625 138.651188,29.3973125 L138.444313,29.1448125 C140.064938,28.0710625 142.203063,26.5235625 143.375563,25.0085625 C143.927438,24.2816875 144.582438,23.4610625 144.961813,22.6398125 L145.651813,21.1560625 L151.789938,21.6298125 C151.134938,22.3873125 150.410563,23.1135625 149.651813,23.8085625 Z" id="Fill-6" fill="#AE7441" mask="url(#mask-2)"></path>
                <path d="M188.651125,0.694625 C190.0305,0.852125 191.513625,0.852125 192.858,1.168375 C193.7205,1.35775 194.548,1.86275 195.031125,2.620875 C195.341125,3.094625 195.582375,3.599625 195.582375,4.168375 C195.582375,5.36775 193.927375,5.8415 192.858,5.8415 C190.09925,5.8415 190.341125,3.91525 189.513,2.21025 C189.27175,1.7365 188.78925,1.26275 188.3755,0.915875 L188.651125,0.694625 Z M184.306125,14.967125 L190.13425,14.967125 L190.13425,8.462125 L183.133625,8.462125 L183.133625,6.378375 L202.962375,6.378375 L202.962375,8.462125 L195.409875,8.462125 L195.409875,14.967125 L201.789875,14.967125 L201.789875,17.019625 L195.409875,17.019625 L195.409875,26.082125 L203.617375,26.082125 L203.583,28.10275 L181.133625,28.10275 L181.133625,26.082125 L190.13425,26.082125 L190.13425,17.019625 L184.306125,17.019625 L184.306125,14.967125 Z M175.3055,1.51525 C177.374875,1.768375 182.616125,2.30525 182.616125,5.052125 C182.616125,6.41025 181.374875,7.073375 180.029875,7.073375 C178.512375,7.073375 177.926125,6.599625 177.40925,5.46275 C177.202375,5.02025 177.098625,4.389 176.89175,3.978375 C176.3055,2.9365 175.926125,2.55775 174.994875,1.768375 L175.3055,1.51525 Z M182.06425,15.28275 L182.513,15.409 C182.40925,16.57775 182.374875,17.77775 182.168,18.977125 C181.513,22.89275 179.3405,25.70275 176.6505,28.70275 L173.788,24.155875 C177.443625,21.4715 179.616125,18.914 182.06425,15.28275 Z M173.994875,9.914625 C175.823,10.104625 179.40925,10.009625 180.547375,11.52525 C180.89175,11.999 181.3405,12.914625 181.3405,13.48275 C181.3405,14.809 180.029875,15.472125 178.71925,15.472125 C178.098625,15.472125 177.374875,15.345875 176.9605,14.840875 C176.3055,14.019625 176.029875,13.009625 175.54675,12.093375 C175.167375,11.335875 174.478,10.767125 173.788,10.230875 L173.994875,9.914625 Z" id="Fill-7" fill="#AE7441" mask="url(#mask-2)"></path>
                <path d="M232.547625,21.661125 C234.272,22.261125 236.582,22.5455 237.85825,23.808625 C238.341375,24.313625 238.823875,25.67175 238.823875,26.366125 C238.823875,27.566125 237.547625,28.166125 236.37575,28.166125 C235.47825,28.166125 234.34075,27.503 233.892625,26.4605 C233.4445,25.449875 233.651375,24.72425 233.237625,23.6505 C232.99575,23.018625 232.651375,22.418625 232.237625,21.81925 L232.547625,21.661125 Z M221.75325,20.36675 C223.13325,20.52425 226.4095,20.61925 227.098875,21.882375 C227.271375,22.229875 227.47825,23.018625 227.47825,23.42925 C227.47825,24.408625 226.30575,24.8505 225.3745,24.8505 C223.547,24.8505 223.3745,23.903 222.96075,22.48175 C222.753875,21.72425 222.167625,21.061125 221.546375,20.556125 L221.75325,20.36675 Z M218.305125,18.282375 L230.30575,18.282375 L230.30575,16.829875 L218.305125,16.829875 L218.305125,18.282375 Z M218.305125,15.124875 L230.30575,15.124875 L230.30575,13.70425 L218.305125,13.70425 L218.305125,15.124875 Z M226.650125,8.49425 C227.375125,7.45175 227.99575,6.441125 228.581375,5.336125 L217.23575,5.336125 C218.40825,5.49425 221.650125,5.841125 221.650125,7.388625 C221.650125,7.768 221.236375,8.209875 220.995125,8.49425 L226.650125,8.49425 Z M220.305125,21.156125 L220.305125,24.598 C220.305125,24.97675 220.3395,25.48175 220.650125,25.766125 C220.92575,26.018625 222.44325,26.018625 222.857,26.018625 C227.202,26.018625 228.0645,26.049875 230.167625,22.32425 L230.65075,22.356125 C230.581375,22.829875 230.512625,23.303 230.512625,23.77675 C230.512625,25.9555 232.547625,25.22925 232.547625,26.08175 C232.547625,26.366125 232.30575,26.618625 232.0995,26.839875 C231.51325,27.503 230.7195,28.071125 229.753875,28.323625 C227.65075,28.82925 225.3745,28.703 223.202,28.703 C221.650125,28.703 216.6495,28.82925 215.92575,27.28175 C215.6495,26.744875 215.512,26.144875 215.512,25.544875 L215.512,21.156125 L220.305125,21.156125 Z M213.3045,11.146125 L218.305125,11.146125 L218.305125,11.9355 L230.3745,11.9355 L231.306375,10.95675 L236.7545,11.746125 L235.47825,12.851125 L235.47825,20.713625 L230.30575,20.713625 L230.30575,19.987375 L218.305125,19.987375 L218.305125,20.587375 L213.3045,20.587375 L213.3045,11.146125 Z M213.167,21.503625 C213.6495,22.57675 214.167,23.839875 214.167,25.008 C214.167,26.808 213.3395,28.22925 211.40825,28.22925 C210.442625,28.22925 209.201375,27.944875 209.201375,26.839875 C209.201375,25.292375 211.511375,24.439875 212.270125,22.67175 L212.75325,21.534875 L213.167,21.503625 Z M217.305125,8.49425 C216.3395,7.673 216.6845,7.262375 216.028875,6.378 C215.787625,6.031125 215.442625,5.74675 215.09825,5.463 L215.167,5.336125 L211.167,5.336125 L211.167,3.409875 L222.305125,3.409875 C221.650125,2.93675 221.61575,2.873 221.132625,2.24175 C220.78825,1.73675 220.27075,1.358 219.75325,0.978625 L219.822625,0.726125 C220.891375,0.63175 221.857,-0.000125 222.92575,-0.000125 C223.650125,-0.000125 226.44325,0.599875 226.857625,1.294875 C226.995125,1.547375 227.237,1.98925 227.237,2.304875 C227.237,2.84175 226.926375,2.999875 226.581375,3.409875 L237.582625,3.409875 L237.582625,5.336125 L230.616375,5.336125 C231.616375,5.652375 232.651375,5.904875 233.651375,6.157375 C232.202625,6.883625 231.4095,7.45175 230.237,8.49425 L238.927,8.49425 L238.927,10.419875 L208.89075,10.419875 L208.89075,8.49425 L217.305125,8.49425 Z" id="Fill-8" fill="#AE7441" mask="url(#mask-2)"></path>
                <path d="M260.54625,20.966375 L266.788125,20.966375 L266.788125,19.672 L260.54625,19.672 L260.54625,20.966375 Z M260.54625,17.651375 L266.788125,17.651375 L266.788125,16.38825 L260.54625,16.38825 L260.54625,17.651375 Z M260.54625,10.325125 L265.029375,10.325125 L265.029375,8.746375 L260.54625,8.746375 L260.54625,10.325125 Z M251.37375,10.325125 L255.4775,10.325125 L255.4775,8.746375 L251.37375,8.746375 L251.37375,10.325125 Z M242.751875,17.651375 L255.4775,17.651375 L255.4775,16.38825 L245.235,16.38825 L245.235,14.39825 L255.4775,14.430125 L255.4775,12.18825 L251.373125,12.18825 L251.373125,13.167 L246.441875,13.167 L246.441875,6.220125 L251.373125,6.220125 L251.373125,6.883875 L255.4775,6.883875 L255.4775,4.957 L242.786875,4.957 L242.786875,2.905125 L255.4775,2.905125 L255.4775,0.82075 L260.54625,0.82075 L260.54625,2.905125 L273.03,2.905125 L273.03,4.957 L260.54625,4.957 L260.54625,6.883875 L264.89125,6.883875 L266.09875,5.77825 L271.305625,6.693875 L270.133125,7.798875 L270.133125,13.103875 L265.029375,13.103875 L265.029375,12.18825 L260.54625,12.18825 L260.54625,14.430125 L266.684375,14.430125 L267.684375,13.38825 L272.788125,14.335125 L271.719375,15.377625 L271.719375,17.651375 L273.1675,17.651375 L273.1675,19.672 L271.719375,19.672 L271.719375,24.282 L266.788125,24.282 L266.788125,22.987625 L260.54625,22.987625 L260.54625,26.682 C260.54625,28.76575 257.994375,28.955125 256.305,29.081375 C255.68375,29.1445 255.06375,29.176375 254.476875,29.176375 C252.063125,29.176375 253.4425,28.16575 252.235,26.997625 C251.890625,26.650125 249.51125,26.271375 249.028125,26.20825 L249.0975,25.76575 C250.649375,25.8295 252.200625,25.892625 253.7525,25.892625 C254.68375,25.892625 255.4775,26.018875 255.4775,24.945125 L255.4775,22.987625 L245.235,22.987625 L245.235,20.966375 L255.4775,20.966375 L255.4775,19.672 L242.751875,19.672 L242.751875,17.651375 Z" id="Fill-9" fill="#AE7441" mask="url(#mask-2)"></path>
                <path d="M299.1315,22.008375 C300.959625,22.703375 304.510875,23.555875 306.23525,24.819 C306.959,25.35525 307.718375,26.74525 307.718375,27.029 C307.718375,28.197125 306.855875,29.20775 305.339,29.20775 C304.71775,29.20775 303.510875,28.418375 303.06275,28.039625 C302.407125,27.534 301.4765,25.35525 300.8215,24.4715 C300.20025,23.682125 299.407125,22.987125 298.649,22.324 L299.1315,22.008375 Z M294.02775,19.324625 L301.338375,19.324625 L301.338375,16.704 L294.02775,16.704 L294.02775,19.324625 Z M294.02775,14.714 L301.338375,14.714 L301.338375,12.63025 L294.02775,12.63025 L294.02775,14.714 Z M294.02775,10.640875 L301.338375,10.640875 L301.338375,8.683375 L294.02775,8.683375 L294.02775,10.640875 Z M280.682125,21.155875 L280.682125,4.7365 L277.889,4.7365 L277.889,2.747125 L288.54525,2.747125 L288.54525,4.7365 L285.578375,4.7365 L285.578375,19.924625 C286.785875,19.514 287.993375,19.072125 289.199625,18.598375 L289.199625,6.030875 L294.02775,6.030875 L294.02775,6.852125 C294.544625,5.873375 294.993375,4.830875 295.304,3.789 L288.959,3.789 L288.959,1.799625 L307.44275,1.799625 L307.44275,3.789 L299.89025,3.789 C298.924625,4.830875 297.924625,5.8415 296.7865,6.72525 L301.23525,6.72525 L302.58025,5.399625 L307.787125,6.56775 L306.1665,7.862125 L306.1665,22.355875 L301.338375,22.355875 L301.338375,21.314 L294.02775,21.314 L294.02775,22.29275 L298.06275,22.29275 C297.4765,23.05025 296.889625,23.74525 296.234625,24.439625 C293.99275,26.808375 289.7865,28.5765 286.579,29.618375 L286.268375,29.239625 C288.717125,27.534 291.20025,25.229 292.1315,22.482125 L289.199625,22.482125 L289.199625,19.450875 C288.027125,20.460875 286.82025,21.44025 285.544625,22.355875 C283.544625,23.84025 281.234,24.913375 278.95775,26.019 L277.578375,21.69275 C278.613375,21.5665 279.647125,21.377125 280.682125,21.155875 Z" id="Fill-10" fill="#AE7441" mask="url(#mask-2)"></path>
            </g>
        </g>
    </g>
</svg>