<?xml version="1.0" encoding="UTF-8"?>
<svg width="222px" height="123px" viewBox="0 0 222 123" version="1.1" xmlns="http://www.w3.org/2000/svg" xmlns:xlink="http://www.w3.org/1999/xlink">
    <!-- Generator: Sketch 51.2 (57519) - http://www.bohemiancoding.com/sketch -->
    <title>bigchallenge</title>
    <desc>Created with Sketch.</desc>
    <defs>
        <filter x="-4.3%" y="-6.3%" width="110.5%" height="119.8%" filterUnits="objectBoundingBox" id="filter-1">
            <feOffset dx="2" dy="4" in="SourceAlpha" result="shadowOffsetOuter1"></feOffset>
            <feGaussianBlur stdDeviation="3" in="shadowOffsetOuter1" result="shadowBlurOuter1"></feGaussianBlur>
            <feColorMatrix values="0 0 0 0 0   0 0 0 0 0   0 0 0 0 0  0 0 0 0.3 0" type="matrix" in="shadowBlurOuter1" result="shadowMatrixOuter1"></feColorMatrix>
            <feMerge>
                <feMergeNode in="shadowMatrixOuter1"></feMergeNode>
                <feMergeNode in="SourceGraphic"></feMergeNode>
            </feMerge>
        </filter>
    </defs>
    <g id="Page-1" stroke="none" stroke-width="1" fill="none" fill-rule="evenodd">
        <g id="bigchallenge" transform="translate(4.000000, 2.000000)">
            <g id="Group-11-Copy" filter="url(#filter-1)" fill-rule="nonzero">
                <polygon id="Path-5" fill="#FFD968" points="0 0 0 111 103.545806 84.8273212 210 111 210 0"></polygon>
                <rect id="Rectangle-3" fill="#C3C3C3" x="25" y="11" width="160" height="4" rx="2"></rect>
                <circle id="Oval-2" fill="#C3C3C3" cx="14" cy="13" r="4"></circle>
                <g id="screw" transform="translate(8.000000, 8.000000)">
                    <path d="M11.3790625,4.81526786 L8.70667411,0.186517857 C8.64066964,0.0722098214 8.51870536,0.00178571429 8.38671875,0.00178571429 L3.04185268,0.00178571429 C2.90986607,0.00178571429 2.78787946,0.0722098214 2.72189732,0.186517857 L0.0495089286,4.81526786 C-0.0164955357,4.92957589 -0.0164955357,5.07042411 0.0495089286,5.18473214 L2.72189732,9.81348214 C2.78790179,9.92779018 2.90986607,9.99821429 3.04185268,9.99821429 L8.38669643,9.99821429 C8.51868304,9.99821429 8.64066964,9.92779018 8.70665179,9.81348214 L11.3790625,5.18473214 C11.445067,5.07042411 11.445067,4.92957589 11.3790625,4.81526786 Z M5.71428571,7.56160714 C4.30180804,7.56160714 3.15267857,6.41247768 3.15267857,5 C3.15267857,3.58752232 4.30180804,2.43839286 5.71428571,2.43839286 C7.12676339,2.43839286 8.27589286,3.58752232 8.27589286,5 C8.27589286,6.41247768 7.12676339,7.56160714 5.71428571,7.56160714 Z" id="Shape" fill="#787680"></path>
                    <path d="M11.3790625,4.81526786 L8.70667411,0.186517857 C8.64066964,0.0722098214 8.51870536,0.00178571429 8.38671875,0.00178571429 L5.71428571,0.00178571429 L5.71428571,2.43839286 C7.12676339,2.43839286 8.27589286,3.58752232 8.27589286,5 C8.27589286,6.41247768 7.12676339,7.56160714 5.71428571,7.56160714 L5.71428571,9.99821429 L8.38671875,9.99821429 C8.51870536,9.99821429 8.64069196,9.92779018 8.70667411,9.81348214 L11.3790848,5.18473214 C11.445067,5.07042411 11.445067,4.92957589 11.3790625,4.81526786 Z" id="Shape" fill="#57565C"></path>
                    <path d="M5.71428571,1.46939732 L5.71428571,2.60582589 C7.03654018,2.60582589 8.10845982,3.67774554 8.10845982,5 C8.10845982,6.32225446 7.03654018,7.39415179 5.71428571,7.39415179 L5.71428571,8.53058036 C7.66419643,8.53058036 9.24488839,6.94986607 9.24488839,4.99997768 C9.24488839,3.05008929 7.66419643,1.46939732 5.71428571,1.46939732 Z" id="Shape" fill="#787680"></path>
                    <path d="M3.32011161,5 C3.32011161,3.67774554 4.39203125,2.60582589 5.71428571,2.60582589 L5.71428571,1.46939732 C3.764375,1.46939732 2.18368304,3.05011161 2.18368304,5 C2.18368304,6.94988839 3.764375,8.53060268 5.71428571,8.53060268 L5.71428571,7.39419643 C4.39203125,7.39417411 3.32011161,6.32225446 3.32011161,5 Z" id="Shape" fill="#57565C"></path>
                </g>
                <circle id="Oval-2-Copy" fill="#C3C3C3" cx="195.5" cy="13.5" r="3.5"></circle>
                <g id="screw-copy" transform="translate(190.000000, 8.000000)">
                    <path d="M11.3790625,4.81526786 L8.70667411,0.186517857 C8.64066964,0.0722098214 8.51870536,0.00178571429 8.38671875,0.00178571429 L3.04185268,0.00178571429 C2.90986607,0.00178571429 2.78787946,0.0722098214 2.72189732,0.186517857 L0.0495089286,4.81526786 C-0.0164955357,4.92957589 -0.0164955357,5.07042411 0.0495089286,5.18473214 L2.72189732,9.81348214 C2.78790179,9.92779018 2.90986607,9.99821429 3.04185268,9.99821429 L8.38669643,9.99821429 C8.51868304,9.99821429 8.64066964,9.92779018 8.70665179,9.81348214 L11.3790625,5.18473214 C11.445067,5.07042411 11.445067,4.92957589 11.3790625,4.81526786 Z M5.71428571,7.56160714 C4.30180804,7.56160714 3.15267857,6.41247768 3.15267857,5 C3.15267857,3.58752232 4.30180804,2.43839286 5.71428571,2.43839286 C7.12676339,2.43839286 8.27589286,3.58752232 8.27589286,5 C8.27589286,6.41247768 7.12676339,7.56160714 5.71428571,7.56160714 Z" id="Shape" fill="#787680"></path>
                    <path d="M11.3790625,4.81526786 L8.70667411,0.186517857 C8.64066964,0.0722098214 8.51870536,0.00178571429 8.38671875,0.00178571429 L5.71428571,0.00178571429 L5.71428571,2.43839286 C7.12676339,2.43839286 8.27589286,3.58752232 8.27589286,5 C8.27589286,6.41247768 7.12676339,7.56160714 5.71428571,7.56160714 L5.71428571,9.99821429 L8.38671875,9.99821429 C8.51870536,9.99821429 8.64069196,9.92779018 8.70667411,9.81348214 L11.3790848,5.18473214 C11.445067,5.07042411 11.445067,4.92957589 11.3790625,4.81526786 Z" id="Shape" fill="#57565C"></path>
                    <path d="M5.71428571,1.46939732 L5.71428571,2.60582589 C7.03654018,2.60582589 8.10845982,3.67774554 8.10845982,5 C8.10845982,6.32225446 7.03654018,7.39415179 5.71428571,7.39415179 L5.71428571,8.53058036 C7.66419643,8.53058036 9.24488839,6.94986607 9.24488839,4.99997768 C9.24488839,3.05008929 7.66419643,1.46939732 5.71428571,1.46939732 Z" id="Shape" fill="#787680"></path>
                    <path d="M3.32011161,5 C3.32011161,3.67774554 4.39203125,2.60582589 5.71428571,2.60582589 L5.71428571,1.46939732 C3.764375,1.46939732 2.18368304,3.05011161 2.18368304,5 C2.18368304,6.94988839 3.764375,8.53060268 5.71428571,8.53060268 L5.71428571,7.39419643 C4.39203125,7.39417411 3.32011161,6.32225446 3.32011161,5 Z" id="Shape" fill="#57565C"></path>
                </g>
            </g>
            <g id="Group-7" transform="translate(23.000000, 35.000000)" fill="#AE7441">
                <path d="M18.2308506,6.81049061 L22.9034386,6.81049061 L22.9034386,5.59667597 L18.2308506,5.59667597 L18.2308506,6.81049061 Z M18.2308506,4.1161855 L22.9034386,4.1161855 L22.9034386,2.81328355 L18.2308506,2.81328355 L18.2308506,4.1161855 Z M10.0960115,17.0561177 L13.1017214,17.0561177 L13.1017214,15.9900004 L10.0960115,15.9900004 L10.0960115,17.0561177 Z M10.0960115,14.5980111 L13.1017214,14.5980111 L13.1017214,13.6502862 L10.0960115,13.6502862 L10.0960115,14.5980111 Z M10.0960115,12.3180793 L13.1017214,12.3180793 L13.1017214,11.5186379 L10.0960115,11.5186379 L10.0960115,12.3180793 Z M20.5508607,10.2157359 L20.5508607,11.5186379 L15.8782726,11.5186379 L15.8782726,12.3180793 L20.0605676,12.3180793 L20.0605676,13.6502862 L15.8782726,13.6502862 L15.8782726,14.5980111 L19.9628643,14.5980111 L19.9628643,15.9900004 L15.8782726,15.9900004 L15.8782726,17.0561177 L18.4268494,17.0561177 L19.3091401,16.0790877 L22.2822823,16.877943 L21.2697204,17.7664717 L21.1714249,21.9711585 C21.1388572,23.5700413 20.0937275,23.6591286 18.6228482,24.0143056 C19.5051389,24.0735018 20.4199975,24.1625891 21.3022882,24.1625891 C22.2171467,24.1625891 22.9034386,24.132698 22.9034386,23.1556681 L22.9034386,8.32087221 L18.2308506,8.32087221 L18.2308506,9.12031362 L14.5062809,9.12031362 L14.5062809,0.592547849 L18.2308506,0.592547849 L18.2308506,1.30290195 L22.8051432,1.30290195 L23.7851372,0.11839235 L28,1.00692107 L26.6599839,2.13223449 L26.6599839,24.2510903 C26.6599839,26.116649 25.8108531,26.3833248 23.9160005,26.7976981 C23.3931396,26.9160904 22.837711,27.0344828 22.2822823,27.0344828 C21.5634226,27.0344828 21.3674238,26.9160904 21.3674238,26.2948236 C21.3674238,24.8729432 18.8520069,24.6361585 17.7411496,24.429265 L17.9039885,24.0735018 C17.6102863,24.103393 17.2834243,24.103393 16.98913,24.103393 C16.2051347,24.103393 15.9765681,24.1918942 15.9765681,23.4223439 C15.9765681,23.2740604 15.9440003,23.0964719 15.846297,22.9780795 C15.486275,22.5045101 13.4605592,22.1786381 12.8725627,22.0895508 L12.9708582,21.6751776 C14.3754177,21.8234611 15.8131371,21.9418534 17.2182887,21.9418534 C18.0680117,21.9418534 18.4600093,21.9119623 18.4919849,21.0240197 L18.5577126,18.4774119 L15.8131371,18.4774119 C16.4342934,18.9509813 17.6428541,19.6320304 17.6428541,20.461363 C17.6428541,21.0240197 17.0874255,21.3791967 16.499429,21.3791967 C16.2051347,21.3791967 15.8782726,21.3493056 15.7154337,21.0832158 C15.5520027,20.7866489 15.4542994,20.4314718 15.3560039,20.1061859 C15.1600051,19.5435292 14.833143,19.0101775 14.5062809,18.4774119 L12.4479973,18.4774119 C13.0365859,18.9216763 14.343442,19.7797278 14.343442,20.5498642 C14.343442,21.1125209 13.8531489,21.4975891 13.2325847,21.4975891 C11.7948653,21.4975891 12.0885674,20.6389515 11.9257285,19.7205316 C11.8600008,19.3952457 11.664002,18.7733928 11.4680032,18.4774119 L10.0960115,18.4774119 L10.0960115,18.9509813 C10.5531447,19.5136381 11.1737089,20.1354909 11.1737089,20.8757362 C11.1737089,21.4975891 10.5531447,21.8527661 9.90001269,21.8527661 C9.31201624,21.8527661 8.91942647,21.6751776 8.91942647,21.0832158 C8.91942647,20.6682565 9.01772195,20.461363 9.01772195,20.0469897 C9.01772195,19.7797278 9.05028973,19.3061584 9.01772195,19.0400687 L8.16799898,19.0400687 C8.00516009,20.0469897 7.84113691,21.5268941 6.82857505,22.1194419 C6.43657742,22.3269216 5.97944423,22.5045101 5.5217189,22.5045101 C5.03142579,22.5045101 4.28059045,22.4154228 4.28059045,21.9119623 C4.28059045,21.5268941 4.60686038,21.2016082 5.09656135,20.9349324 C6.01141987,20.4314718 6.7634395,19.8688151 7.35143594,19.0400687 L7.09030157,19.0400687 L7.09030157,9.56457799 L10.0960115,9.56457799 L10.0960115,10.2157359 L20.5508607,10.2157359 Z M3.75772956,3.99779315 L8.46229328,3.99779315 L8.46229328,2.81328355 L3.75772956,2.81328355 L3.75772956,3.99779315 Z M3.72456964,6.72198939 L8.46229328,6.72198939 L8.46229328,5.41908745 L3.72456964,5.41908745 L3.72456964,6.72198939 Z M3.75772956,0.562656711 L3.75772956,1.30290195 L8.33143002,1.30290195 L9.34399188,0 L13.4285835,0.947724897 L12.2194307,2.07303832 L12.2194307,9.03122631 L8.46229328,9.03122631 L8.46229328,8.29098108 L3.75772956,8.29098108 L3.75772956,26.3534337 L0,26.3534337 L0,0.562656711 L3.75772956,0.562656711 Z" id="Fill-1"></path>
                <path d="M52.647746,6.44544405 L56.922546,6.44544405 L56.922546,5.40122659 L52.647746,5.40122659 L52.647746,6.44544405 Z M52.647746,3.90931862 L56.922546,3.90931862 L56.922546,2.86451055 L52.647746,2.86451055 L52.647746,3.90931862 Z M53.2777355,14.4424488 C52.9792562,13.8754529 52.6807769,13.3385786 52.2832049,12.8312354 C51.1895816,13.487415 50.0298964,14.1140636 48.8371804,14.6214068 C50.3277752,14.5912852 51.7859396,14.5021014 53.2777355,14.4424488 Z M44.8608597,14.4719798 C44.5623804,13.9646366 44.296932,13.487415 43.9660224,13.0101935 C42.6075513,13.7856785 41.6460516,14.2634907 40.1554568,14.8003649 C41.7457448,14.7407122 43.303002,14.6214068 44.8608597,14.4719798 Z M39.5590988,19.6345956 L39.5590988,17.4557957 L42.309072,17.4557957 L42.309072,19.6936577 C42.90543,19.604474 43.5354195,19.5152902 44.098146,19.3658632 C44.1648084,18.4409511 44.1978393,17.5154484 44.1978393,16.5905364 L46.9153822,16.5905364 C46.8493203,18.142097 46.981444,19.783432 46.4511478,21.3054617 C45.6229728,23.69216 41.1824177,24.9755789 38.7963851,25.6618802 L38.5975991,25.3636167 C40.3206113,24.4682357 43.3366335,22.8570223 43.89936,21.0066076 L44.0657157,20.4697333 C42.8393682,21.0066076 41.5799897,21.4844197 40.3206113,21.9321103 L38.8630475,20.0822861 C39.1278953,20.0220428 39.5590988,19.9328591 39.5590988,19.6345956 Z M43.1708784,11.1007167 C43.4357262,10.7422099 43.6681437,10.354172 43.8669297,9.96672485 L47.2468924,10.2348667 C46.4511478,11.0404733 45.5899419,11.816549 44.6951046,12.5323813 C45.6560037,13.0993772 46.3190241,13.6362515 47.1471991,14.3827961 C48.6047629,13.8453312 49.3014148,13.2488043 50.5932236,12.3534232 C49.4665693,12.6221557 48.3399151,12.7715827 47.2468924,12.9800718 L46.4841787,11.2194314 C48.1080982,10.921168 48.6714253,9.90707216 49.2347524,8.65318434 L48.8371804,8.65318434 L48.8371804,0.507343209 L52.647746,0.507343209 L52.647746,1.28282823 L56.8564842,1.28282823 L57.8834451,0.119305388 L61.7931034,0.985155381 L60.7661425,2.05890387 L60.7661425,24.4387046 C60.7661425,24.8562735 60.7000807,25.3636167 60.4352329,25.7215329 C59.6725192,26.6765666 57.2540562,27.0344828 56.0277087,27.0344828 C55.8949845,27.0344828 55.4313507,27.0344828 55.3322579,26.9748301 C55.2319641,26.9151774 55.2319641,26.5271395 55.2319641,26.4373652 C55.1995338,26.049918 55.0007477,25.7516545 54.7352994,25.4829221 C54.2380341,25.0352316 52.7474393,24.7369681 52.1174498,24.6176627 L52.1835116,24.1995032 C53.4098591,24.2892776 54.6356061,24.3784613 55.8619536,24.3784613 C56.7567909,24.3784613 56.922546,24.3188086 56.922546,23.4836709 L56.922546,7.84757766 L52.647746,7.84757766 L52.647746,8.71342766 L52.7798696,8.77308035 C51.7535093,9.69799242 50.5271617,10.3842937 49.4005075,11.1597787 L51.8195711,11.070595 C52.3498673,10.5933734 52.7474393,9.99625589 53.1450113,9.39972895 L56.4583116,9.8172978 C55.4313507,10.7120882 54.3377273,11.5478165 53.1450113,12.2045868 C54.3046964,12.8607664 56.2264947,13.7260258 56.2264947,15.1582811 C56.2264947,15.9343567 55.5310439,16.4411093 54.7352994,16.4411093 C53.6753075,16.4411093 53.7413693,16.2030892 53.4765215,15.3968919 C51.9522953,15.7553986 50.4604994,16.0536621 48.9362731,16.3223945 L51.024427,16.3223945 L51.024427,19.7237793 L52.8801635,19.7237793 L52.8801635,17.1280012 L55.5971058,17.1280012 L55.5971058,22.5587589 L52.8801635,22.5587589 L52.8801635,21.3651144 L51.024427,21.3651144 L51.024427,24.4387046 L48.3399151,24.4387046 L48.3399151,16.471231 L47.9093122,16.620658 L47.379016,15.6059716 C47.1141682,15.9638878 46.6829647,16.3519256 46.1526685,16.3519256 C45.5563104,16.3519256 45.1257075,15.9343567 45.0260142,15.4270135 C43.104216,15.874704 41.1493868,16.2030892 39.1939571,16.471231 L38.6642615,14.6509379 C40.3206113,14.3526744 41.1493868,13.3982313 42.2430101,12.3238922 C41.1824177,12.562503 40.089395,12.8312354 38.9951711,12.9800718 L38.2660889,11.0404733 C38.5315373,10.9808206 38.7963851,10.8916369 39.0288026,10.7717409 C39.7242533,10.4138247 40.288181,9.3099546 40.5193973,8.65318434 L44.2645017,8.95203843 C43.0711851,9.90707216 41.9775618,10.5035991 40.5193973,11.1597787 C41.4148352,11.1597787 42.309072,11.1302477 43.1708784,11.1007167 Z M37.5706381,6.44544405 L42.4748271,6.44544405 L42.4748271,5.40122659 L37.5706381,5.40122659 L37.5706381,6.44544405 Z M37.5706381,3.90931862 L42.4748271,3.90931862 L42.4748271,2.86451055 L37.5706381,2.86451055 L37.5706381,3.90931862 Z M37.5706381,1.25329719 L42.3751338,1.25329719 L43.303002,0 L47.379016,0.895381029 L46.2853927,1.99925118 L46.2853927,8.77308035 L42.4748271,8.77308035 L42.4748271,7.81804663 L37.5706381,7.81804663 L37.5706381,26.6765666 L33.7931034,26.6765666 L33.7931034,0.68630129 L37.5706381,0.68630129 L37.5706381,1.25329719 Z" id="Fill-3"></path>
                <path d="M77.8384892,6.54012919 C77.8713122,6.02768087 77.9369583,5.51523254 77.9369583,5.00278422 C77.9369583,3.34552992 77.8713122,1.68767905 77.8384892,0 L83.172532,0 C83.0734661,2.20012738 82.942174,4.36983 82.8759311,6.54012919 L94.5985317,6.54012919 L94.5985317,8.58932592 L83.2387749,8.58932592 C84.5224543,12.9293277 87.5851426,16.9680648 90.9766581,20.1626641 C92.2609343,21.3987443 93.9074574,22.3329633 95.5862069,23.0261704 L95.4220917,23.4479411 C94.2368814,23.5988717 93.2157864,23.8404801 92.7544735,24.985286 C92.6888274,25.1660449 92.6560043,25.3468037 92.6560043,25.5281591 C92.6560043,25.9797579 92.8863624,26.4319533 93.0510744,26.8238957 L92.6560043,27.0344828 C92.0633992,26.7940675 91.4707941,26.522631 90.9104152,26.2213663 C90.1859212,25.8294238 89.5276699,25.2865508 88.868822,24.8045272 C85.6420184,22.3031351 83.5681989,18.7165934 82.6461698,14.9486963 L81.7897868,11.4224075 C81.4275397,12.4473042 81.0324696,13.4417761 80.6368028,14.4666727 C79.1555884,18.2942262 75.8297189,21.3987443 72.2734914,23.6895494 C70.3637871,24.8952049 68.1574819,25.7691709 66.0502425,26.6127121 L65.6551724,26.2816192 C69.408935,23.7796305 72.0759564,21.1273078 74.2488418,17.3295825 C75.9287849,14.4064198 76.850814,11.8447747 77.377773,8.58932592 L66.4453126,8.58932592 L66.4453126,6.54012919 L77.8384892,6.54012919 Z" id="Fill-4"></path>
                <path d="M123.037714,0.965517241 L123.037714,9.51228915 C123.754603,7.93635247 124.178005,6.39041079 124.405945,4.69329436 L128.120305,4.69329436 C127.924844,5.3603829 127.729382,5.99687654 127.501442,6.66336518 C126.84951,8.57284612 124.764389,10.4823271 123.037714,11.6641296 L123.037714,13.6647953 C124.145526,14.0589294 125.872202,14.5436484 127.044971,15.4524966 C127.859887,16.0889902 128.413793,16.8166686 128.413793,17.7255168 C128.413793,18.7867395 127.533921,19.7261825 126.426108,19.7261825 C124.405945,19.7261825 124.536449,18.4531952 124.242962,16.9078534 C124.015022,15.8166357 123.721534,15.1495472 123.037714,14.2400992 L123.037714,23.696919 C123.037714,24.1210481 123.330611,24.2728228 123.787082,24.2728228 C124.276031,24.2728228 124.666954,23.9992685 124.99292,23.6663241 C125.774766,22.817466 126.328082,21.8174331 127.044971,20.9085849 L127.533921,21.0291648 C127.142998,21.8174331 126.752074,22.6356963 126.752074,23.5145495 C126.752074,24.8481267 128.381315,24.5751723 128.381315,25.0604912 C128.381315,25.2116659 128.315767,25.3334456 128.217741,25.4846203 C127.892365,25.9999342 127.404007,26.4852531 126.947536,26.9393772 C126.198168,27.7276455 124.340988,27.7882354 123.298132,27.7882354 C122.157841,27.7882354 121.114986,27.6670556 120.072721,27.3029165 C118.997387,26.9093822 118.736968,25.9393443 118.736968,24.9693064 L118.736968,0.965517241 L123.037714,0.965517241 Z M116.944745,0.996112129 L116.944745,15.8166357 C116.944745,17.3319825 116.879198,18.9685091 116.488274,20.423266 C116.260334,21.2415293 115.510966,22.3021521 115.022608,22.9692406 C113.393367,25.1816709 110.819298,26.5152481 108.342664,27.7882354 L108.016698,27.5758709 C109.092622,26.575838 109.906947,25.6058001 110.721862,24.4239975 C112.676478,21.6656584 112.708957,18.8167344 112.708957,15.6348661 C111.959589,16.9078534 111.112785,18.3626103 110.036861,19.4532281 L108.766656,20.7568103 L107.658843,16.6043041 C109.548502,15.695456 111.112785,14.4224687 112.708957,13.1188865 L112.676478,0.996112129 L116.944745,0.996112129 Z M107.593886,13.2706612 C107.430313,13.4224358 107.234851,13.5736105 107.072459,13.7553802 C106.909476,13.9071548 106.909476,16.3619446 106.909476,16.664894 C106.909476,19.0896888 107.007502,21.5444787 107.007502,23.9992685 C107.007502,24.3028178 107.007502,26.3334785 106.876997,26.545843 C106.746493,26.8787873 106.486074,27.1217467 106.192586,27.3029165 C105.475697,27.6976505 103.520491,28 102.673687,28 C102.510704,28 102.282764,28 102.15226,27.9094151 C101.859362,27.7276455 102.15226,26.1517088 100.718481,25.6363949 C100.327558,25.4846203 99.8716775,25.3940354 99.4482759,25.2728557 L99.5132329,24.9087165 C100.197053,24.9693064 100.947012,24.9693064 101.630832,24.9693064 C102.217217,24.9693064 102.738644,25.0298963 102.738644,24.3634076 L102.738644,16.4831244 C101.89125,16.9378484 100.97949,17.3013877 100.067139,17.6349319 L99.5132329,14.2101042 C100.621045,14.0283346 101.695789,13.7253852 102.738644,13.331251 L102.738644,6.32982091 L99.6437374,6.32982091 L99.6437374,4.45093486 L102.738644,4.45093486 L102.738644,1.05610211 L107.072459,1.05610211 L107.072459,4.45093486 L109.418588,4.45093486 L109.418588,6.32982091 L107.072459,6.32982091 L107.072459,11.937084 C107.7238,11.6341346 108.408211,11.3611802 109.092622,11.0582308 C108.929049,10.4517322 109.320562,9.84583341 109.548502,9.26992964 C109.874468,8.54225123 109.939425,7.96634746 109.939425,7.14868408 C109.939425,6.78454493 109.874468,6.45160056 109.776442,6.08746141 L110.265392,5.96628165 C110.884255,6.57278031 111.47064,7.17867907 111.861563,7.8757626 C112.285555,8.57284612 112.545974,9.36111441 112.545974,10.3005574 C112.545974,11.3911752 111.601144,12.1494485 110.493332,12.1494485 C110.004973,12.1494485 109.580981,11.9976739 109.222536,11.6641296 C108.701699,12.2100384 108.180271,12.7553473 107.593886,13.2706612 Z" id="Fill-5"></path>
                <path d="M146.518858,5.40075396 L148.240501,5.40075396 L148.240501,2.77479682 L146.518858,2.77479682 L146.518858,5.40075396 Z M144.829619,16.2920382 L147.544403,16.2920382 L147.544403,14.5018276 L144.829619,14.5018276 L144.829619,16.2920382 Z M144.829619,12.7411488 L147.544403,12.7411488 L147.544403,10.9208159 L144.829619,10.9208159 L144.829619,12.7411488 Z M150.723053,19.8730499 L150.723053,21.4842985 C151.749798,20.6190202 152.676929,19.7838643 153.60406,18.8288097 C152.974571,15.9045825 152.942166,12.8905791 152.875557,9.90610733 L151.385546,10.1151916 L151.252927,9.66808198 L150.855671,10.08566 L150.855671,18.8288097 L147.544403,18.8288097 L147.544403,18.0231854 L144.829619,18.0231854 L144.829619,19.8730499 L150.723053,19.8730499 Z M148.107883,1.10389426 L149.035014,0.0295316818 L152.312677,0.864687642 L151.286532,1.84986455 L151.286532,7.7579728 L148.240501,7.7579728 L148.240501,7.16143283 L146.518858,7.16143283 L146.518858,7.7579728 L143.505231,7.7579728 L143.505231,0.357333349 L146.518858,0.357333349 L146.518858,1.10389426 L148.107883,1.10389426 Z M138.572534,16.2920382 L141.287318,16.2920382 L141.287318,14.5018276 L138.572534,14.5018276 L138.572534,16.2920382 Z M138.572534,12.7411488 L141.287318,12.7411488 L141.287318,10.9208159 L138.572534,10.9208159 L138.572534,12.7411488 Z M137.677807,5.40075396 L139.134813,5.40075396 L139.134813,2.77479682 L137.677807,2.77479682 L137.677807,5.40075396 Z M137.677807,0.238025355 L137.677807,1.10389426 L138.96919,1.10389426 L140.061944,0 L143.372613,0.894809958 L142.246853,1.81974223 L142.246853,7.7579728 L139.134813,7.7579728 L139.134813,7.16143283 L137.677807,7.16143283 L137.677807,7.78809512 L134.499157,7.78809512 L134.499157,0.238025355 L137.677807,0.238025355 Z M141.287318,18.0231854 L138.571933,18.0231854 L138.571933,18.8288097 L135.194656,18.8288097 L135.194656,8.56359708 L138.571933,8.56359708 L138.571933,9.24991336 L147.379379,9.24991336 L148.471534,8.11589678 L151.021295,8.98176569 L150.855671,8.32498109 L152.842552,8.11589678 C152.809548,5.46040796 152.775943,2.77479682 152.743538,0.119307994 L156.650091,0.119307994 L156.7167,1.16354826 C157.874864,1.49134993 159.034228,1.84986455 160.126383,2.35721884 C160.854886,2.68502051 161.550384,3.16284312 161.550384,3.9684674 C161.550384,5.07236166 160.788877,5.66949227 159.596508,5.66949227 C157.84246,5.66949227 157.84246,4.80362336 157.643832,3.49123542 C157.544218,2.80491913 157.113957,2.35721884 156.7167,1.76008823 C156.7167,3.72926077 156.749105,5.66949227 156.78271,7.60854249 L161.186133,7.0415342 L161.683003,8.74255907 L156.78271,9.42887536 C156.78271,11.3389845 156.848719,13.2183808 156.915329,15.1284899 C157.84246,13.5473637 158.438344,11.9355245 158.968219,10.204968 L162.973786,10.9208159 C162.212878,12.5025328 161.51738,14.0541274 160.523639,15.5165362 C159.663117,16.7698608 158.636972,17.7839788 157.610227,18.8884637 C157.77585,19.3952273 158.868605,22.1109608 159.265861,22.1109608 C159.497494,22.1109608 159.530499,21.9319988 159.596508,21.7825685 C160.192992,20.2610962 160.656258,18.470295 160.987505,16.8891688 L161.649398,16.9783545 C161.484375,18.2316791 161.418366,19.5446576 161.418366,20.7979822 C161.418366,22.4990071 163.172414,21.6036065 163.172414,22.7075007 C163.172414,23.6029013 162.212878,27.0344828 160.987505,27.0344828 C160.424625,27.0344828 159.729127,26.6765588 159.265861,26.4078205 C156.683096,24.9460022 155.821974,23.6029013 154.332563,21.2758048 C153.173199,21.9621211 151.981431,22.7075007 150.756657,23.274509 C149.366261,23.9312936 147.942259,24.5278336 146.518858,25.1249642 L146.154006,24.7965719 C147.942259,23.6625553 148.902395,22.9467074 150.558029,21.6036065 L144.829619,21.6036065 L144.829619,26.6464365 L141.287318,26.6464365 L141.287318,21.6036065 L133.241379,21.6036065 L133.241379,19.8730499 L141.287318,19.8730499 L141.287318,18.0231854 Z" id="Fill-6"></path>
            </g>
        </g>
    </g>
</svg>