<?xml version="1.0" encoding="UTF-8"?>
<svg width="222px" height="123px" viewBox="0 0 222 123" version="1.1" xmlns="http://www.w3.org/2000/svg" xmlns:xlink="http://www.w3.org/1999/xlink">
    <!-- Generator: Sketch 51.2 (57519) - http://www.bohemiancoding.com/sketch -->
    <title>bigprize</title>
    <desc>Created with Sketch.</desc>
    <defs>
        <filter x="-4.3%" y="-6.3%" width="110.5%" height="119.8%" filterUnits="objectBoundingBox" id="filter-1">
            <feOffset dx="2" dy="4" in="SourceAlpha" result="shadowOffsetOuter1"></feOffset>
            <feGaussianBlur stdDeviation="3" in="shadowOffsetOuter1" result="shadowBlurOuter1"></feGaussianBlur>
            <feColorMatrix values="0 0 0 0 0   0 0 0 0 0   0 0 0 0 0  0 0 0 0.3 0" type="matrix" in="shadowBlurOuter1" result="shadowMatrixOuter1"></feColorMatrix>
            <feMerge>
                <feMergeNode in="shadowMatrixOuter1"></feMergeNode>
                <feMergeNode in="SourceGraphic"></feMergeNode>
            </feMerge>
        </filter>
        <polygon id="path-2" points="0.300169064 0.133291242 30.2162571 0.133291242 30.2162571 26.9630481 0.300169064 26.9630481"></polygon>
    </defs>
    <g id="Page-1" stroke="none" stroke-width="1" fill="none" fill-rule="evenodd">
        <g id="bigprize" transform="translate(4.000000, 2.000000)">
            <g id="Group-11" filter="url(#filter-1)" fill-rule="nonzero">
                <polygon id="Path-5" fill="#FFD968" points="0 0 0 111 103.545806 84.8273212 210 111 210 0"></polygon>
                <rect id="Rectangle-3" fill="#C3C3C3" x="25" y="11" width="160" height="4" rx="2"></rect>
                <circle id="Oval-2" fill="#C3C3C3" cx="14" cy="13" r="4"></circle>
                <g id="screw" transform="translate(8.000000, 8.000000)">
                    <path d="M11.3790625,4.81526786 L8.70667411,0.186517857 C8.64066964,0.0722098214 8.51870536,0.00178571429 8.38671875,0.00178571429 L3.04185268,0.00178571429 C2.90986607,0.00178571429 2.78787946,0.0722098214 2.72189732,0.186517857 L0.0495089286,4.81526786 C-0.0164955357,4.92957589 -0.0164955357,5.07042411 0.0495089286,5.18473214 L2.72189732,9.81348214 C2.78790179,9.92779018 2.90986607,9.99821429 3.04185268,9.99821429 L8.38669643,9.99821429 C8.51868304,9.99821429 8.64066964,9.92779018 8.70665179,9.81348214 L11.3790625,5.18473214 C11.445067,5.07042411 11.445067,4.92957589 11.3790625,4.81526786 Z M5.71428571,7.56160714 C4.30180804,7.56160714 3.15267857,6.41247768 3.15267857,5 C3.15267857,3.58752232 4.30180804,2.43839286 5.71428571,2.43839286 C7.12676339,2.43839286 8.27589286,3.58752232 8.27589286,5 C8.27589286,6.41247768 7.12676339,7.56160714 5.71428571,7.56160714 Z" id="Shape" fill="#787680"></path>
                    <path d="M11.3790625,4.81526786 L8.70667411,0.186517857 C8.64066964,0.0722098214 8.51870536,0.00178571429 8.38671875,0.00178571429 L5.71428571,0.00178571429 L5.71428571,2.43839286 C7.12676339,2.43839286 8.27589286,3.58752232 8.27589286,5 C8.27589286,6.41247768 7.12676339,7.56160714 5.71428571,7.56160714 L5.71428571,9.99821429 L8.38671875,9.99821429 C8.51870536,9.99821429 8.64069196,9.92779018 8.70667411,9.81348214 L11.3790848,5.18473214 C11.445067,5.07042411 11.445067,4.92957589 11.3790625,4.81526786 Z" id="Shape" fill="#57565C"></path>
                    <path d="M5.71428571,1.46939732 L5.71428571,2.60582589 C7.03654018,2.60582589 8.10845982,3.67774554 8.10845982,5 C8.10845982,6.32225446 7.03654018,7.39415179 5.71428571,7.39415179 L5.71428571,8.53058036 C7.66419643,8.53058036 9.24488839,6.94986607 9.24488839,4.99997768 C9.24488839,3.05008929 7.66419643,1.46939732 5.71428571,1.46939732 Z" id="Shape" fill="#787680"></path>
                    <path d="M3.32011161,5 C3.32011161,3.67774554 4.39203125,2.60582589 5.71428571,2.60582589 L5.71428571,1.46939732 C3.764375,1.46939732 2.18368304,3.05011161 2.18368304,5 C2.18368304,6.94988839 3.764375,8.53060268 5.71428571,8.53060268 L5.71428571,7.39419643 C4.39203125,7.39417411 3.32011161,6.32225446 3.32011161,5 Z" id="Shape" fill="#57565C"></path>
                </g>
                <circle id="Oval-2-Copy" fill="#C3C3C3" cx="195.5" cy="13.5" r="3.5"></circle>
                <g id="screw-copy" transform="translate(190.000000, 8.000000)">
                    <path d="M11.3790625,4.81526786 L8.70667411,0.186517857 C8.64066964,0.0722098214 8.51870536,0.00178571429 8.38671875,0.00178571429 L3.04185268,0.00178571429 C2.90986607,0.00178571429 2.78787946,0.0722098214 2.72189732,0.186517857 L0.0495089286,4.81526786 C-0.0164955357,4.92957589 -0.0164955357,5.07042411 0.0495089286,5.18473214 L2.72189732,9.81348214 C2.78790179,9.92779018 2.90986607,9.99821429 3.04185268,9.99821429 L8.38669643,9.99821429 C8.51868304,9.99821429 8.64066964,9.92779018 8.70665179,9.81348214 L11.3790625,5.18473214 C11.445067,5.07042411 11.445067,4.92957589 11.3790625,4.81526786 Z M5.71428571,7.56160714 C4.30180804,7.56160714 3.15267857,6.41247768 3.15267857,5 C3.15267857,3.58752232 4.30180804,2.43839286 5.71428571,2.43839286 C7.12676339,2.43839286 8.27589286,3.58752232 8.27589286,5 C8.27589286,6.41247768 7.12676339,7.56160714 5.71428571,7.56160714 Z" id="Shape" fill="#787680"></path>
                    <path d="M11.3790625,4.81526786 L8.70667411,0.186517857 C8.64066964,0.0722098214 8.51870536,0.00178571429 8.38671875,0.00178571429 L5.71428571,0.00178571429 L5.71428571,2.43839286 C7.12676339,2.43839286 8.27589286,3.58752232 8.27589286,5 C8.27589286,6.41247768 7.12676339,7.56160714 5.71428571,7.56160714 L5.71428571,9.99821429 L8.38671875,9.99821429 C8.51870536,9.99821429 8.64069196,9.92779018 8.70667411,9.81348214 L11.3790848,5.18473214 C11.445067,5.07042411 11.445067,4.92957589 11.3790625,4.81526786 Z" id="Shape" fill="#57565C"></path>
                    <path d="M5.71428571,1.46939732 L5.71428571,2.60582589 C7.03654018,2.60582589 8.10845982,3.67774554 8.10845982,5 C8.10845982,6.32225446 7.03654018,7.39415179 5.71428571,7.39415179 L5.71428571,8.53058036 C7.66419643,8.53058036 9.24488839,6.94986607 9.24488839,4.99997768 C9.24488839,3.05008929 7.66419643,1.46939732 5.71428571,1.46939732 Z" id="Shape" fill="#787680"></path>
                    <path d="M3.32011161,5 C3.32011161,3.67774554 4.39203125,2.60582589 5.71428571,2.60582589 L5.71428571,1.46939732 C3.764375,1.46939732 2.18368304,3.05011161 2.18368304,5 C2.18368304,6.94988839 3.764375,8.53060268 5.71428571,8.53060268 L5.71428571,7.39419643 C4.39203125,7.39417411 3.32011161,6.32225446 3.32011161,5 Z" id="Shape" fill="#57565C"></path>
                </g>
            </g>
            <g id="Group-20" transform="translate(41.000000, 35.000000)">
                <path d="M16.9469205,13.6774164 C17.7229874,13.8550209 18.4990542,14.0326253 19.2757072,14.2694312 C19.7610421,14.417728 20.1490755,14.6844277 20.1490755,15.1879333 C20.1490755,15.8391495 19.6959791,16.3127613 18.9849752,16.3127613 C17.3027155,16.3127613 18.0143055,14.8022445 17.2054141,14.1809221 L16.7857284,13.8550209 L16.9469205,13.6774164 Z M14.3596402,12.1962073 L21.6689708,12.1962073 L21.6689708,11.0414854 L14.3596402,11.0414854 L14.3596402,12.1962073 Z M14.3596402,9.64995768 L21.6689708,9.64995768 L21.6689708,8.79124321 L14.3596402,8.79124321 L14.3596402,9.64995768 Z M14.3596402,7.48822461 L21.6689708,7.48822461 L21.6689708,6.4220119 L14.3596402,6.4220119 L14.3596402,7.48822461 Z M18.1110208,22.4726455 C19.0816905,21.8507369 19.8899958,21.2587222 20.6983011,20.4293154 L13.9716067,20.4293154 C15.20077,21.2587222 16.6561885,21.9984475 18.1110208,22.4726455 Z M16.2998073,14.299325 C16.2998073,15.8092557 15.9445985,16.6685563 17.7558119,16.6685563 L19.0166275,16.6685563 C19.3401841,16.6685563 20.1490755,16.6685563 20.4075691,16.5202596 C21.2158744,16.1058492 21.4749541,15.0097427 21.7334477,14.299325 L22.251021,14.3286327 C22.2187825,14.7137353 22.1214811,15.098838 22.1214811,15.4839407 C22.1214811,16.4018566 23.4479458,16.5495672 23.4479458,16.8461608 C23.4479458,16.9645637 23.2539291,17.1714758 23.1566277,17.2605711 C22.8658957,17.5272708 22.5095145,17.7640767 22.0892427,17.9123735 C21.4427157,18.1192855 19.0816905,18.0893917 18.2405606,18.0893917 C17.1409372,18.0893917 16.0413138,18.0893917 14.9416903,18.0008826 C14.1656235,17.9416811 13.486858,17.7048752 13.486858,16.9053622 L13.486858,14.299325 L16.2998073,14.299325 Z M12.1932179,14.3585265 C12.3872346,15.0396365 12.5812513,15.7500542 12.5812513,16.4610581 C12.5812513,17.2605711 11.9018997,18.0307764 11.0285314,18.0307764 C10.4787197,18.0307764 9.54087456,17.7933844 9.54087456,17.2013696 C9.54087456,16.4610581 10.640498,16.1351569 11.1580713,15.6316513 C11.5132801,15.2764424 11.6105816,14.8022445 11.7723599,14.3286327 L12.1932179,14.3585265 Z M15.9768369,23.5681659 C14.7154352,22.6795576 13.9716067,22.0283414 12.9692847,20.9029272 C11.4165649,22.2059458 9.70265285,22.9462573 7.8263764,23.8348656 L7.63235968,23.5980597 C9.47639771,21.8800446 10.6727364,20.6368136 11.4488033,18.2675823 L15.4270252,18.3560914 C15.2652469,18.5635897 15.0712302,18.7705018 14.8772135,18.978 L21.5071925,18.978 L22.9948494,17.853172 L27.4584062,19.0078938 C26.8757699,19.3039012 26.2937197,19.5706009 25.743908,19.8666083 C25.7116696,19.895916 24.7087614,20.7845242 24.5475693,20.932821 C23.5446611,21.7616416 22.5423391,22.5910485 21.4427157,23.33136 C23.9655191,23.6865688 26.4877364,23.8940671 29.0427783,23.8940671 L29.0750167,24.2199682 C28.0721086,24.5159756 27.1993264,24.9004921 27.1993264,26.0259063 C27.1993264,26.3518075 27.2960417,26.6777087 27.3933432,26.9737161 L27.1993264,27.1812143 C24.1911881,26.7369102 21.1513975,26.0558001 18.3701005,24.8711845 C14.6509583,26.1742031 11.5132801,26.5001043 7.56788283,26.766804 L7.47116755,26.4409028 C10.6727364,25.7298989 13.0337616,24.9303859 15.9768369,23.5681659 Z M8.7648077,12.4335993 L8.86152298,11.4265881 L9.24955641,11.3972804 C9.41192086,11.663394 9.57311299,11.9594014 9.73489128,12.1967934 L10.0256233,12.1967934 L10.0256233,4.46777707 L13.9716067,4.46777707 C14.2301003,4.11198206 14.4569416,3.75677321 14.6181337,3.37167055 L8.37677427,3.37167055 L8.37677427,2.83885727 C7.47116755,4.40857559 6.6622761,5.65239272 5.56265267,7.07322813 L7.05030954,7.07322813 L7.05030954,14.6844277 C7.66518426,14.1809221 8.70033085,13.26242 8.7648077,12.4335993 Z M8.89434756,1.65424162 L28.4929666,1.65424162 L28.4929666,3.37167055 L19.1789919,3.37167055 C18.3378621,3.93437764 17.4644938,4.43788325 16.5588871,4.94138887 L21.4098911,4.94138887 L22.7363558,3.7268794 L27.4584062,4.7930921 L26.0024016,5.91850628 L26.0024016,11.5748849 L26.6817532,11.1897822 L30.0128619,12.3450902 C29.4952886,12.5813099 28.9777153,12.7888082 28.4929666,13.0256141 C28.2667115,13.1147094 27.4584062,13.8251271 27.167088,14.0326253 C26.455498,14.5361309 25.6143681,14.9212336 24.8383013,15.3356439 C26.5199749,15.3948454 28.2016485,16.0167539 28.2016485,17.2904649 C28.2016485,18.0307764 27.3288663,18.4451867 26.6172763,18.4451867 C25.3236361,18.4451867 25.2263347,17.6157799 25.0967948,16.697864 C25.032318,16.1943584 24.6771091,15.9276587 24.320728,15.6023436 L23.609138,15.9868601 L23.318406,15.8391495 C23.7386778,15.0695303 24.1267113,14.3286327 24.5147447,13.5590135 L10.4136567,13.5590135 C10.5115443,13.9441162 10.5760211,14.3878341 10.5760211,14.7729368 C10.5760211,15.6914389 9.24955641,16.4903657 8.31229742,16.4903657 C7.85920098,16.4903657 7.43834297,16.4018566 7.05030954,16.2535598 L7.05030954,26.9444084 L2.68464036,26.9444084 L2.68464036,9.41315178 C1.9085735,10.0350603 1.16415891,10.6862766 0.420916627,11.3081851 L5.86153219e-05,11.0414854 C1.22922192,9.56144854 2.06976563,8.11013317 2.74911721,6.33291661 C3.07267379,5.50409596 3.39623037,4.61548768 3.59024708,3.7268794 C3.81650223,2.7796558 3.94545593,1.80253838 4.0749958,0.82483481 L9.18507956,0.884036285 C9.15284113,1.12142834 9.02330127,1.41743571 8.89434756,1.65424162 Z" id="Fill-1" fill="#AE7441"></path>
                <path d="M58.2764667,27.1809799 C56.950002,27.1809799 55.9799184,26.2923716 55.0743117,25.5227524 C54.2660064,24.8715362 53.4254627,24.2496276 52.5843328,23.6570267 C51.1933912,22.6799093 50.2555461,22.265499 48.6705878,21.5843889 L48.8974291,21.3176892 C51.7109645,21.7027919 57.2735586,21.9987992 59.3432656,24.071437 C59.6668222,24.427232 60.2816969,25.3152542 60.2816969,25.788866 C60.2816969,26.7366757 59.1492489,27.1809799 58.2764667,27.1809799 Z M54.2660064,9.85722146 L54.2660064,6.51087273 L52.1318225,6.51087273 C52.0345211,6.83677392 51.9049813,7.13278129 51.743203,7.45868248 C51.1933912,8.55420285 48.4449188,9.91642293 47.3124708,10.47913 L53.6839563,10.47913 L54.5250861,9.85722146 L54.2660064,9.85722146 Z M40.2944583,19.2145714 L53.7806716,19.2145714 L53.7806716,18.0598496 L40.2944583,18.0598496 L40.2944583,19.2145714 Z M40.2944583,16.313113 L53.7806716,16.313113 L53.7806716,15.0100944 L40.2944583,15.0100944 L40.2944583,16.313113 Z M40.2944583,13.3518669 L53.7806716,13.3518669 L53.7806716,12.2264528 L40.2944583,12.2264528 L40.2944583,13.3518669 Z M40.8765084,25.2560527 C38.5483078,26.4406683 35.281676,27.0625769 32.6621572,27.4177858 L32.5970942,27.0924707 C35.6697094,25.5819539 37.707178,24.3680306 39.9386633,21.8505025 L45.6630356,22.265499 C43.9168852,23.6570267 42.913977,24.2197338 40.8765084,25.2560527 Z M58.1469269,6.51087273 L58.1469269,9.85722146 L56.4974917,9.85722146 L59.5701069,10.3900347 L58.2764667,11.3671521 L58.2764667,21.791301 L53.7806716,21.791301 L53.7806716,21.0808833 L40.2944583,21.0808833 L40.2944583,21.4360921 L35.7986631,21.4360921 L35.7986631,10.3607271 C34.7318642,11.1303462 33.6322408,11.8706578 32.4353159,12.4333649 L32.2090608,12.2856542 C32.4997928,11.8413501 32.7911109,11.397046 33.0501906,10.9527418 C33.4053995,10.3015256 33.6644792,9.56121408 33.8584959,8.85021023 C34.5378475,6.45167125 34.4405461,4.02323847 34.4405461,1.5356042 L38.5483078,1.5356042 L38.5483078,2.48341396 C41.1678266,1.86150539 41.8471782,1.59480568 44.2404418,0.499285312 L47.2479939,2.80931515 C44.2076172,3.34212843 41.6531614,3.49042519 38.5483078,3.51973285 L38.5483078,4.7934438 L47.0217388,4.7934438 L47.0217388,6.51087273 L44.4989353,6.51087273 L44.4989353,9.97562441 L40.6180149,9.97562441 L40.6180149,6.51087273 L38.5483078,6.51087273 C37.9334331,7.90240047 37.4803367,8.76170109 36.283998,9.85722146 L40.2944583,9.85722146 L40.2944583,10.47913 L46.0516552,10.47913 C46.3423872,10.123335 46.6337054,9.73881851 46.8593743,9.35371584 C48.1530145,7.33969338 48.0240608,3.84563404 48.0240608,1.59480568 L52.1318225,1.59480568 L52.1318225,2.39431867 C53.522178,1.95060068 55.3978683,1.41720125 56.65927,0.736091213 L57.6293536,0.203277936 L61.0249392,2.54261543 C58.1791653,3.13521634 55.0420733,3.28292695 52.1318225,3.31282076 L52.1318225,4.73424232 L61.0249392,4.73424232 L61.0249392,6.51087273 L58.1469269,6.51087273 Z" id="Fill-3" fill="#AE7441"></path>
                <path d="M77.1283852,7.16249926 C77.1612098,6.65899365 77.2256866,6.15548803 77.2256866,5.65198242 C77.2256866,4.02364877 77.1612098,2.39472898 77.1283852,0.73650152 L82.3674227,0.73650152 C82.2707074,2.89823459 82.1417537,5.03007385 82.0766907,7.16249926 L93.5904984,7.16249926 L93.5904984,9.17593557 L82.4324857,9.17593557 C83.6938874,13.4402002 86.7014396,17.4084575 90.0331345,20.547308 C91.29395,21.7618175 92.9111468,22.6797334 94.5605819,23.3608435 L94.3988036,23.7752538 C93.2347034,23.9235506 92.2323813,24.1609426 91.7792849,25.2857706 C91.7148081,25.4633751 91.6819835,25.6409795 91.6819835,25.8191701 C91.6819835,26.2628881 91.9088248,26.7071922 92.0700169,27.0922949 L91.6819835,27.299207 C91.0999333,27.0629872 90.5178832,26.7962875 89.9680715,26.5002801 C89.2564815,26.1151775 88.6099545,25.581778 87.9628413,25.1081662 C84.7935108,22.6504258 82.7560423,19.1264726 81.8504355,15.4243289 L81.0093057,11.9595772 C80.6540968,12.9665884 80.2660634,13.9437059 79.8774438,14.9507171 C78.4220254,18.7114761 75.1559796,21.7618175 71.6630926,24.0126459 C69.7874023,25.1972615 67.6198077,26.055976 65.5501007,26.8847966 L65.1620672,26.5594816 C68.848971,24.101155 71.4690759,21.4951178 73.6032597,17.7636664 C75.2526949,14.8915156 76.1583016,12.3745737 76.6758749,9.17593557 L65.9381341,9.17593557 L65.9381341,7.16249926 L77.1283852,7.16249926 Z" id="Fill-5" fill="#AE7441"></path>
                <g id="Group-9" transform="translate(96.715281, 0.514174)">
                    <mask id="mask-3" fill="white">
                        <use xlink:href="#path-2"></use>
                    </mask>
                    <g id="Clip-8"></g>
                    <path d="M17.2147925,2.79852993 L16.8589975,2.97613436 C17.8290811,3.06522964 20.8688717,3.21294026 21.1601898,4.30846062 L21.2897297,4.81196624 C22.3893531,4.19064383 23.1331816,3.62793673 24.1032651,2.79852993 L17.2147925,2.79852993 Z M26.8523237,10.1723374 L26.8523237,13.3404956 C26.8523237,14.7326095 26.6260686,15.1177121 25.2357132,15.5620163 C24.4590601,15.8281298 23.5856918,15.9471189 22.7773866,15.9471189 C21.4837464,15.9471189 22.6156083,15.0286168 21.5488094,14.3475068 C21.1601898,14.1107009 19.3812148,13.7554921 18.8964661,13.6669829 L18.8964661,13.4588985 C18.5406711,13.5186862 18.1848761,13.6071953 17.7968427,13.5778876 C16.8589975,13.4887923 16.3736626,12.8668838 16.2118844,11.8305649 C16.1151691,11.2678578 15.7271356,11.0011581 15.2740392,10.5568539 L15.4358175,10.3206342 C16.4387256,10.4390371 19.8020728,10.4390371 19.7692482,12.0673708 C19.7692482,12.7783746 19.7047714,12.7783746 19.1555458,13.2818803 C20.1578678,13.3404956 21.1601898,13.3996971 22.1625118,13.3996971 C22.7451481,13.3996971 22.8741018,13.1042758 22.8741018,12.6007702 L22.8741018,10.1723374 L13.624604,10.1723374 L13.624604,8.42501468 L22.8741018,8.42501468 L22.8741018,6.8259887 L26.8523237,6.8259887 L26.8523237,8.42501468 L29.1166336,8.42501468 L29.1166336,10.1723374 L26.8523237,10.1723374 Z M17.6673028,4.51595886 C17.4088092,4.01245325 16.6972192,3.56814911 16.1796459,3.27214173 C15.1767378,3.62793673 14.1744158,3.98314559 13.1720938,4.30846062 C13.980399,4.39755591 17.0207758,4.7234571 17.0207758,5.78966981 C17.0207758,6.38168456 17.0207758,6.35179074 16.6972192,6.8259887 C17.5383491,6.55928898 18.3466544,6.26328161 19.1555458,5.87817894 C18.1203992,5.61147923 18.1526377,5.40456714 17.6673028,4.51595886 Z M13.6574286,5.78966981 C13.3983489,5.40456714 13.0425539,5.10797361 12.6867589,4.84186005 L12.6867589,7.86230759 C13.5601272,7.65480935 14.4006709,7.44789726 15.2418008,7.21050521 C14.2394788,6.94439165 14.2066542,6.61849046 13.6574286,5.78966981 Z M28.6635372,2.91693288 L27.9197088,3.47963997 C26.7550223,4.33835444 25.5264452,5.1970689 24.2650434,5.90807276 C20.8043948,7.83241378 16.6327424,8.12900731 12.6867589,8.42501468 L12.6867589,14.2589977 L17.0852526,14.2291039 C16.9562989,14.9401077 16.8267591,16.7167381 16.6327424,17.3978482 L19.3495625,17.3978482 C18.7024494,17.0426393 18.3466544,16.7460458 18.2171145,15.8879175 C18.1203992,15.3252104 17.7323658,15.0585107 17.2792694,14.6142065 L17.4410477,14.3774006 C17.8935579,14.4366021 18.7991647,14.4659098 19.7047714,14.6142065 C20.674855,14.9993092 21.4837464,15.472921 21.7428261,16.3023278 C21.8717798,16.7460458 21.7428261,17.1311484 21.4837464,17.3978482 L29.1482859,17.3978482 L29.1482859,19.2934677 L17.6673028,19.2934677 C20.9016963,22.4024243 25.0733487,22.5806149 29.5363193,22.787527 L29.5363193,23.1134282 C27.6934536,24.0014503 27.5316753,25.3044689 28.8253155,26.6965828 L28.5990603,26.9632825 C24.232805,25.867176 20.674855,24.8900586 17.5055245,21.7213143 C16.6972192,20.9218013 16.2763612,20.6551016 15.6298342,19.707878 C13.9481606,22.2248199 12.5894575,23.1427359 9.61414372,24.5049559 C7.09134026,25.6596778 3.24324438,26.341374 0.461947352,26.785092 L0.300169064,26.4890846 C3.7930561,25.186066 6.63882998,23.9721427 9.19387186,21.3362116 C10.0350017,20.4774972 10.3902106,20.3297866 11.0050853,19.2934677 L2.01408108,19.2934677 L2.01408108,17.3978482 L11.8133906,17.3978482 C11.975755,16.8650349 12.0724703,15.9172251 12.1697718,15.3844119 L8.90255371,15.3844119 L8.90255371,9.96483919 L7.57726128,9.96483919 C7.41489684,10.4683448 7.22088012,10.9718504 6.99462498,11.475356 C6.0245414,13.6962906 3.69634082,14.7918109 1.49709394,15.8281298 L1.17353736,15.6212178 C3.04922766,13.5778876 3.46949952,12.6599717 3.89035753,9.96483919 L1.85230279,9.96483919 L1.85230279,8.21751644 L8.90255371,8.21751644 L8.90255371,6.02647571 L6.28362113,6.02647571 L5.24847454,6.94439165 L1.85230279,5.49307628 L2.79073409,4.69356329 L2.79073409,1.25870542 L6.67165456,1.25870542 L6.67165456,4.2498453 L8.90255371,4.2498453 L8.90255371,0.133291242 L12.6867589,0.133291242 L12.6867589,3.59804292 C13.333872,3.09453731 14.7570521,1.90992165 15.1122609,1.28801308 L15.7593741,0.133291242 L21.5804617,0.133291242 C21.0628884,0.547701568 20.5136628,0.932804233 19.963265,1.28801308 L25.0416964,1.28801308 L26.1413199,0.340789482 L30.2162571,2.38353345 C29.6986838,2.56172403 29.1482859,2.73932845 28.6635372,2.91693288 Z" id="Fill-7" fill="#AE7441" mask="url(#mask-3)"></path>
                </g>
            </g>
        </g>
    </g>
</svg>