<?xml version="1.0" encoding="UTF-8"?>
<svg width="237px" height="40px" viewBox="0 0 237 40" version="1.1" xmlns="http://www.w3.org/2000/svg" xmlns:xlink="http://www.w3.org/1999/xlink">
    <!-- Generator: Sketch 51.2 (57519) - http://www.bohemiancoding.com/sketch -->
    <title>douknow</title>
    <desc>Created with Sketch.</desc>
    <defs>
        <polygon id="path-1" points="0 39.1276596 215.708936 39.1276596 215.708936 0 0 0"></polygon>
        <polygon id="path-3" points="0 0 19 0 19 31 0 31"></polygon>
        <polygon id="path-5" points="0 0 15 0 15 25 0 25"></polygon>
    </defs>
    <g id="Page-1" stroke="none" stroke-width="1" fill="none" fill-rule="evenodd">
        <g id="Desktop-HD-II-I" transform="translate(-288.000000, -1079.000000)">
            <g id="douknow" transform="translate(288.000000, 1079.000000)">
                <g>
                    <path d="M32.3540426,15.9429787 C34.0919149,17.2757447 35.9702128,18.5234043 37.4255319,20.1565957 C38.2238298,21.0170213 39.0221277,21.92 39.7268085,22.8655319 C41.0885106,24.7574468 42.1217021,28.0255319 42.1217021,30.3046809 C42.1217021,31.9812766 41.6051064,33.5293617 39.9608511,34.346383 C39.3506383,34.6468085 38.3174468,35.0765957 37.6604255,35.0765957 C36.8153191,35.0765957 35.7821277,34.8621277 35.2655319,34.173617 C34.7957447,33.5293617 34.7021277,32.7123404 34.6553191,31.9812766 C34.5608511,30.1753191 34.467234,28.4119149 34.373617,26.6493617 C34.2791489,24.6289362 33.1055319,18.867234 32.212766,17.0178723 L31.7906383,16.1148936 L32.3540426,15.9429787 Z M30.5225532,13.2774468 L30.5225532,35.6357447 C30.5225532,36.2382979 30.4757447,36.9259574 30.1940426,37.4417021 C29.1608511,39.333617 24.6995745,39.4629787 22.6808511,39.4629787 C22.3523404,39.4629787 21.6008511,39.4629787 21.3659574,39.333617 C21.1310638,39.1617021 21.0374468,38.56 20.9897872,38.3446809 C20.6144681,35.9795745 17.3276596,35.6357447 15.2612766,35.3353191 L15.5429787,34.7761702 C17.186383,34.8621277 18.8774468,34.9480851 20.5676596,34.9480851 C21.506383,34.9480851 23.8076596,35.0765957 23.8076596,33.787234 L23.8076596,13.2774468 L30.5225532,13.2774468 Z M33.0110638,5.1506383 L34.9838298,3.30212766 L43.107234,4.76425532 C42.4034043,5.36595745 41.6519149,5.96765957 40.947234,6.61276596 L39.3506383,9.06382979 C37.6604255,11.6434043 34.7957447,13.4068085 31.9787234,14.8680851 L31.5089362,14.6102128 C32.212766,12.4170213 32.6357447,10.2680851 33.0587234,7.98893617 L23.2910638,7.98893617 C19.8629787,11.3855319 17.3744681,13.1480851 13.1012766,15.5131915 L12.6314894,15.2119149 C13.3829787,14.266383 14.04,13.2340426 14.6978723,12.2451064 C16.012766,10.1812766 18.4076596,4.50638298 18.7361702,2.18382979 L18.9242553,0.937021277 L27.1412766,0.937021277 C26.6255319,2.35574468 25.827234,3.6893617 25.2629787,5.1506383 L33.0110638,5.1506383 Z M22.2110638,16.5021277 C20.5676596,24.8434043 19.9097872,29.3582979 12.7259574,35.3778723 L12.2561702,35.12 C13.1480851,32.8842553 13.8995745,30.5191489 14.4161702,28.1548936 C14.6510638,27.1225532 14.7446809,26.0042553 14.8382979,24.9293617 C15.026383,22.0919149 15.2144681,19.2110638 15.2144681,16.372766 L22.2110638,16.5021277 Z M13.8995745,0.85106383 C11.88,5.88170213 11.2697872,7.08595745 7.46638298,11.0417021 L11.7395745,11.0417021 L11.7395745,39.1617021 L5.07148936,39.1617021 L5.07148936,13.0195745 C3.61531915,14.1370213 2.06638298,15.0834043 0.469787234,16.0289362 L0,15.6851064 C2.95829787,10.9982979 4.97787234,6.26893617 5.63489362,0.893617021 L13.8995745,0.85106383 Z" id="Fill-1" fill="#14438B"></path>
                    <path d="M80.1489362,32.6689362 L80.1021277,7.94553191 L76.2510638,7.94553191 L76.2510638,32.6689362 L80.1489362,32.6689362 Z M69.7710638,3.4306383 L76.2510638,3.4306383 L76.2510638,5.02212766 L79.9140426,5.02212766 L81.7923404,3.21617021 L88.507234,4.50553191 L86.4417021,6.22553191 L86.4885106,37.9148936 L80.1489362,37.9148936 L80.1489362,35.6791489 L76.2510638,35.6357447 L76.2510638,37.9148936 L69.8178723,37.9148936 L69.7710638,3.4306383 Z M68.4093617,7.94553191 L62.7744681,7.94553191 L62.7744681,16.0289362 L68.6910638,16.0289362 L68.6910638,18.9531915 L62.5395745,18.9531915 C62.2110638,21.4893617 61.9293617,23.9838298 61.0842553,26.4340426 C63.6195745,27.9821277 68.6910638,29.7021277 68.5506383,34.346383 C68.5029787,36.7540426 65.6859574,38.3446809 63.5259574,37.0119149 C62.0229787,36.1089362 61.8348936,32.0238298 61.412766,30.4331915 C61.1778723,29.6161702 60.8025532,29.0570213 60.332766,28.3259574 C59.5344681,29.6161702 58.6893617,30.8629787 57.7965957,32.067234 C55.8246809,34.732766 50.706383,38.0434043 47.56,39.6774468 L47.0902128,39.3761702 C47.7948936,38.6885106 48.4995745,37.9148936 49.1565957,37.1838298 C51.1761702,34.9480851 53.9931915,29.7446809 54.6034043,26.907234 C55.1668085,24.3276596 55.6365957,21.6187234 55.6834043,18.9531915 L46.8085106,18.9531915 L46.8085106,16.0289362 L55.9182979,16.0289362 L55.9651064,7.94553191 L54.8851064,7.94553191 C52.5378723,11.1268085 50.9880851,12.5889362 47.653617,14.8680851 L47.0902128,14.653617 C49.626383,10.4391489 49.9080851,5.53787234 50.4246809,0.85106383 L57.7497872,0.85106383 C57.28,2.22638298 56.8110638,3.64595745 56.4348936,5.02212766 L68.4093617,5.02212766 L68.4093617,7.94553191 Z" id="Fill-3" fill="#14438B"></path>
                    <mask id="mask-2" fill="white">
                        <use xlink:href="#path-1"></use>
                    </mask>
                    <g id="Clip-6"></g>
                    <path d="M118.839149,27.8621277 L126.211915,27.8621277 L126.211915,25.9276596 L118.839149,25.9276596 L118.839149,27.8621277 Z M118.839149,23.3906383 L126.211915,23.3906383 L126.211915,21.412766 L118.839149,21.412766 L118.839149,23.3906383 Z M118.839149,18.8323404 L126.211915,18.8323404 L126.211915,16.8544681 L118.839149,16.8544681 L118.839149,18.8323404 Z M109.822979,0 C112.217872,0.386382979 119.449362,0.687659574 120.24766,3.22468085 C120.342128,3.52595745 120.388936,3.86978723 120.388936,4.21361702 C120.388936,4.68680851 120.295319,5.20255319 120.013617,5.58978723 C119.402553,6.40680851 118.228936,7.09446809 117.148936,7.09446809 L116.914043,7.09446809 C113.76766,6.7506383 113.76766,4.34212766 112.124255,2.49361702 C111.372766,1.67659574 110.480851,0.945531915 109.541277,0.25787234 L109.822979,0 Z M127.057021,0.386382979 L135.509787,0.859574468 C132.738723,4.08510638 130.250213,5.76170213 126.211915,7.52425532 L136.589787,7.52425532 L136.589787,10.147234 L124.380426,10.147234 C122.737021,11.9106383 121.187234,13.0714894 118.980426,14.2323404 L126.446809,14.2748936 L128.137021,12.426383 L135.04,13.7165957 L133.348936,15.5217021 L133.348936,32.6348936 L126.211915,32.6348936 L126.211915,30.7004255 L118.839149,30.7004255 L118.839149,32.5914894 L111.795745,32.5914894 L111.795745,13.0714894 L116.209362,13.0714894 C116.585532,12.1251064 116.867234,11.1361702 117.102128,10.147234 L107.569362,10.147234 L107.569362,7.52425532 L122.595745,7.52425532 C124.708936,5.24510638 126.02383,3.22468085 127.057021,0.386382979 Z M97.2851064,0.817021277 C99.7276596,1.29021277 104.564255,1.89191489 106.254468,3.56851064 C106.817872,4.12765957 107.146383,5.24510638 107.146383,5.97617021 C107.146383,7.43829787 105.12766,8.81446809 103.624681,8.81446809 C100.431489,8.81446809 100.431489,7.00851064 99.68,4.77276596 C99.2110638,3.44 98.0365957,2.14978723 97.0034043,1.16085106 L97.2851064,0.817021277 Z M100.05617,30.8723404 L100.05617,15.8655319 L95.0314894,15.8655319 L94.9846809,13.0280851 L100.05617,13.0280851 L101.793191,11.3940426 L109.024681,12.426383 L106.817872,14.5761702 L106.817872,31.6034043 C112.734468,34.7421277 119.731064,34.5268085 126.35234,34.5268085 C129.733617,34.5268085 133.067234,34.2689362 136.401702,33.7531915 L136.401702,34.1395745 C135.086809,34.7421277 134.100426,35.4297872 134.100426,36.8919149 C134.100426,37.3642553 134.335319,37.9234043 134.476596,38.3531915 L134.241702,38.6119149 C131.518298,38.7404255 128.841702,38.7838298 126.117447,38.7838298 C121.797447,38.7838298 114.754043,38.7838298 110.85617,37.2782979 C110.011064,36.9344681 109.165957,36.5046809 108.414468,35.9889362 C107.709787,35.4731915 107.052766,34.9140426 106.489362,34.2689362 C105.784681,33.4944681 104.892766,32.1617021 103.671489,32.1617021 C101.699574,32.1617021 99.492766,35.1285106 98.2246809,36.3761702 C97.7548936,36.8485106 97.2851064,37.2782979 96.8161702,37.7089362 L94.4680851,32.9787234 C96.2995745,32.2051064 98.1778723,31.5174468 100.05617,30.8723404 Z" id="Fill-5" fill="#14438B" mask="url(#mask-2)"></path>
                    <path d="M171.341277,24.2851064 C172.937872,25.4025532 176.365957,27.9829787 176.365957,30.0034043 C176.365957,31.0782979 175.239149,32.067234 174.064681,32.067234 C172.092766,32.067234 172.32766,30.1753191 172.092766,28.8425532 C171.811064,27.2085106 171.434894,26.0910638 170.731064,24.586383 L171.341277,24.2851064 Z M166.692766,24.413617 C168.054468,25.4459574 169.979574,26.9506383 170.684255,28.4987234 C171.012766,29.1438298 171.341277,30.0034043 171.341277,30.7344681 C171.341277,31.8093617 170.12,33.013617 168.946383,33.013617 C168.33617,33.013617 167.537872,32.8842553 167.349787,32.2825532 C167.021277,31.1642553 167.349787,29.2297872 167.161702,28.0255319 C166.926809,26.7353191 166.645106,25.7897872 166.081702,24.6289362 L166.692766,24.413617 Z M165.8,20.3719149 L168.617872,20.3719149 L168.617872,16.7174468 L165.8,16.7174468 L165.8,20.3719149 Z M165.8,14.0519149 L168.617872,14.0519149 L168.617872,10.827234 L165.8,10.827234 L165.8,14.0519149 Z M165.8,8.07489362 L168.617872,8.07489362 L168.617872,5.02212766 L165.8,5.02212766 L165.8,8.07489362 Z M162.841702,24.8868085 C164.109787,26.6068085 166.034894,29.4017021 166.034894,31.4655319 C166.034894,32.8417021 164.814468,33.7012766 163.358298,33.7012766 C162.325106,33.7012766 161.573617,33.0561702 161.573617,32.067234 C161.573617,31.2076596 161.902979,30.3046809 162.090213,29.4442553 C162.701277,26.5634043 162.513191,27.853617 162.137872,25.0587234 L162.841702,24.8868085 Z M159.508085,0.85106383 L165.8,0.85106383 L165.8,2.31319149 L182.235745,2.31319149 L182.235745,5.02212766 L174.862979,5.02212766 L174.862979,8.07489362 L180.59234,8.07489362 L180.59234,10.827234 L174.862979,10.827234 L174.862979,14.0519149 L180.028936,14.0519149 L180.028936,16.7174468 L174.862979,16.7174468 L174.862979,20.3719149 L176.835745,20.3719149 L178.619574,18.6519149 L184.677447,20.7165957 L182.611064,22.1353191 L182.517447,34.733617 C182.517447,35.5931915 182.329362,36.452766 182.04766,37.227234 C181.437447,38.9897872 176.224681,39.2910638 174.440851,39.2910638 C172.139574,39.2910638 173.782979,38.2161702 172.65617,37.1412766 C171.857872,36.4102128 169.08766,36.1948936 168.00766,36.066383 L168.054468,35.292766 C169.979574,35.4212766 171.904681,35.507234 173.782979,35.507234 C175.379574,35.507234 176.694468,35.6357447 176.694468,33.8306383 L176.788085,23.0808511 L165.8,23.0808511 L163.499574,24.8868085 L157.441702,22.1353191 L159.508085,20.8451064 L159.508085,0.85106383 Z M148.378723,25.2731915 L151.196596,25.2731915 L151.196596,6.52680851 L148.378723,6.52680851 L148.378723,25.2731915 Z M148.378723,2.61446809 L148.378723,3.90382979 L151.008511,3.90382979 L152.605106,2.22723404 L158.24,3.47404255 L156.596596,5.02212766 L156.549787,28.7565957 C157.770213,27.08 158.286809,26.5208511 158.850213,24.586383 L159.695319,24.6289362 C159.930213,25.7038298 159.742979,26.8212766 160.071489,27.8970213 C160.588085,29.7029787 160.4,31.6374468 158.897021,33.4868085 C158.24,34.2604255 157.629787,34.3897872 156.268085,34.3897872 C154.530213,34.3897872 153.074894,33.3140426 154.530213,31.9387234 C155.234894,31.2510638 155.563404,30.3906383 156.361702,29.573617 L151.196596,29.573617 L151.196596,27.9395745 L148.47234,27.9395745 L148.47234,31.1217021 L142.978723,31.1217021 L142.978723,2.61446809 L148.378723,2.61446809 Z" id="Fill-7" fill="#14438B" mask="url(#mask-2)"></path>
                </g>
                <g id="Group-3" transform="translate(197.000000, 0.000000)">
                    <mask id="mask-4" fill="white">
                        <use xlink:href="#path-3"></use>
                    </mask>
                    <g id="Clip-2"></g>
                    <path d="M10.2682396,30.5827711 C9.14145795,31.1519324 7.84192927,31.1519324 6.71593282,30.5015772 C5.67552466,29.8922209 4.9389942,28.8367001 4.9389942,27.6581826 C4.89580745,26.3590801 5.58915115,25.1403675 6.80230632,24.4498173 C7.84192927,23.8404611 9.44455044,23.9626539 10.4841734,24.5310112 C11.654927,25.1813664 12.3042988,26.3590801 12.261112,27.6179876 C12.21714,28.8768951 11.4374228,30.0136099 10.2682396,30.5827711 M17.026574,12.1847137 C16.1165113,13.2812334 14.5570769,14.6213348 12.7377367,15.9614363 C11.5245815,16.8553732 10.6577056,17.8297001 10.1378941,18.8860248 C9.70445618,19.7791578 9.53170916,20.6730947 9.66205464,21.6884205 L7.14858557,21.6884205 C7.01824009,19.9825445 7.14858557,18.3578625 7.53805157,16.8553732 C8.0154615,15.2306911 8.79517871,13.7683968 9.96436191,12.4282954 C11.6109551,10.5190327 12.9104837,8.36699214 12.8241102,5.80817815 C12.7377367,4.62966062 12.3042988,3.73652762 11.654927,3.20836526 C10.8744246,2.51781508 9.74842814,2.39642617 8.75120674,2.88358962 C8.10183501,3.20836526 7.49565003,3.81772153 7.06221206,4.75185343 C6.49842862,5.92956706 6.19533613,7.39186133 6.19533613,9.13793232 L0,9.13793232 C0,7.31066742 0.390251211,5.52359752 1.34350065,3.93911044 C2.25277812,2.47762008 3.5523068,1.50248927 5.06933968,0.893133 C6.6287741,0.243581727 8.44889946,0 10.2242676,0 C12.650578,0.0409989046 15.0337016,0.650355173 16.7234815,2.11184554 C18.3692894,3.49294589 19.1497918,5.3612097 18.9762596,7.43286023 C18.8466993,9.09773732 18.1093837,10.8438083 17.026574,12.1847137" id="Fill-1" fill="#14438B" mask="url(#mask-4)"></path>
                </g>
                <g id="Group-3-Copy" transform="translate(226.826932, 22.146597) rotate(17.000000) translate(-226.826932, -22.146597) translate(219.326932, 9.646597)">
                    <mask id="mask-6" fill="white">
                        <use xlink:href="#path-5"></use>
                    </mask>
                    <g id="Clip-2"></g>
                    <path d="M8.10650496,24.6635251 C7.21694049,25.1225261 6.19099679,25.1225261 5.30205222,24.5980461 C4.48067736,24.1066298 3.89920595,23.2554033 3.89920595,22.304986 C3.86511114,21.2573226 4.41248775,20.2744899 5.37024184,19.7175946 C6.19099679,19.2261783 7.45622403,19.3247209 8.27697899,19.7830736 C9.20125817,20.3075536 9.71392007,21.2573226 9.67982526,22.2725706 C9.64511055,23.2878187 9.02954433,24.2045241 8.10650496,24.6635251 M13.4420321,9.82638199 C12.7235615,10.7106721 11.4924291,11.7913991 10.0561079,12.872126 C9.09835385,13.5930429 8.41397812,14.3787904 8.00360064,15.2306652 C7.66141277,15.9509337 7.52503355,16.6718506 7.62793787,17.4906617 L5.64362019,17.4906617 C5.54071586,16.1149553 5.64362019,14.8047278 5.95109334,13.5930429 C6.32799592,12.2828154 6.94356214,11.1035458 7.86660151,10.0228189 C9.16654346,8.48309087 10.1924872,6.7475743 10.1242975,4.68401464 C10.0561079,3.73359727 9.71392007,3.01332872 9.20125817,2.58739134 C8.58507205,2.03049603 7.69612748,1.93260175 6.90884743,2.3254755 C6.39618553,2.58739134 5.91761844,3.07880768 5.57543057,3.83213986 C5.13033838,4.78190892 4.89105484,5.96117849 4.89105484,7.36930026 L0,7.36930026 C0,5.89569953 0.308093062,4.45451413 1.06065841,3.17670197 C1.77850904,1.99808071 2.80445274,1.21168489 4.00211027,0.720268548 C5.23324271,0.196436877 6.67018379,0 8.07179025,0 C9.98729842,0.0330636327 11.8687118,0.524479978 13.2027485,1.70310124 C14.5020706,2.81689185 15.1182567,4.32355621 14.9812576,5.99424212 C14.8789732,7.33688493 14.2968818,8.7450067 13.4420321,9.82638199" id="Fill-1" fill="#14438B" mask="url(#mask-6)"></path>
                </g>
            </g>
        </g>
    </g>
</svg>