<?xml version="1.0" encoding="UTF-8"?>
<svg width="195px" height="35px" viewBox="0 0 195 35" version="1.1" xmlns="http://www.w3.org/2000/svg" xmlns:xlink="http://www.w3.org/1999/xlink">
    <!-- Generator: Sketch 51.2 (57519) - http://www.bohemiancoding.com/sketch -->
    <title>encyclopedia</title>
    <desc>Created with Sketch.</desc>
    <defs>
        <polygon id="path-1" points="0 21.6737783 163.802111 21.6737783 163.802111 -4.7826087e-05 0 -4.7826087e-05"></polygon>
    </defs>
    <g id="Page-1" stroke="none" stroke-width="1" fill="none" fill-rule="evenodd">
        <g id="Desktop-HD" transform="translate(-623.000000, -3001.000000)">
            <g id="encyclopedia" transform="translate(623.000000, 3001.000000)">
                <g id="Group-4-Copy" fill="#A96F3D" fill-rule="nonzero">
                    <rect id="Rectangle-3-Copy-5" x="0" y="0" width="195" height="35" rx="17.5"></rect>
                </g>
                <g id="Group-10-Copy" transform="translate(15.000000, 6.000000)">
                    <path d="M22.4718125,9.90664783 C22.4718125,10.0759522 22.6055542,10.3174739 22.9057166,10.3174739 C23.1732,10.3174739 23.5066465,10.1725609 23.7741299,10.0759522 L23.7741299,6.57221304 L22.4718125,6.57221304 L22.4718125,9.90664783 Z M19.0326539,5.0499087 L19.0326539,2.31951739 L17.9639306,2.31951739 L17.9306465,5.0499087 L19.0326539,5.0499087 Z M13.1226022,18.1949087 L23.7741299,18.1949087 L23.7741299,15.5850391 L13.1226022,15.5850391 L13.1226022,18.1949087 Z M14.524772,7.61099565 L14.524772,6.57221304 L13.1226022,6.57221304 L13.1226022,12.3228217 C14.1574362,10.6316913 14.524772,9.44751739 14.524772,7.61099565 Z M21.5035469,12.4921261 C20.1013771,12.4921261 19.0326539,12.3711261 19.0326539,11.1630391 L19.0326539,6.57221304 L17.8973624,6.57221304 C17.6637683,10.2452565 17.429569,10.9698217 13.1226022,13.0234739 L13.1226022,14.0627348 L23.7741299,14.0627348 L23.7741299,12.1779087 C23.0394583,12.4194304 22.3047867,12.4921261 21.5035469,12.4921261 Z M7.88004871,0.797213043 L29.6176133,0.797213043 L29.6176133,2.31951739 L22.4718125,2.31951739 L22.4718125,5.0499087 L23.6071041,5.0499087 L25.0092738,4.13164783 L29.8512074,4.88060435 L28.3485801,5.82325652 L28.3485801,21.5532565 L23.7741299,21.5532565 L23.7741299,19.7406478 L13.1226022,19.7406478 L13.1226022,21.4561696 L8.4809786,21.4561696 L8.4809786,4.39756087 L13.1226022,4.39756087 L13.1226022,5.0499087 L14.524772,5.0499087 L14.5919454,2.31951739 L7.88004871,2.31951739 L7.88004871,0.797213043 Z M0.968447232,0.603995652 C3.50590849,0.797213043 7.57988635,1.57056087 7.84676458,3.09286522 C8.1136428,4.47025652 6.3774214,5.09821304 5.10899336,4.66347391 C4.07355424,4.32534348 3.70621845,3.79351739 3.0387203,2.73034348 C2.5376428,1.9086913 1.73640295,1.32903913 0.768137269,0.7733 L0.968447232,0.603995652 Z M0.434085609,6.37899565 C2.07045461,6.59660435 6.07725904,7.20064783 6.91178303,8.28773478 C7.74630701,9.39921304 6.71147306,10.8249087 4.84150996,10.5589957 C2.6713845,10.2452565 2.70466863,8.67416957 1.66922952,7.63538696 C1.26860959,7.22456087 0.700963838,6.88643043 0.16720738,6.57221304 L0.434085609,6.37899565 Z M6.57773137,11.4772565 L6.97835129,11.5738652 C6.87849889,15.5362565 6.01008561,18.3393435 2.9049786,21.6498652 L0.000181549815,18.1944304 C2.93826273,16.2129957 4.80822583,14.0383435 6.57773137,11.4772565 Z" id="Fill-1" fill="#FFFFFF"></path>
                    <path d="M60.9013092,20.8039174 C58.8976044,20.8039174 58.9314937,19.7407435 58.5641579,18.5570478 C58.2966745,17.6627 57.5287188,16.8654391 56.6941948,16.164787 L56.9943572,16.0198739 C58.3971321,16.4063087 60.9013092,17.1313522 61.902859,17.928613 C62.4039365,18.3150478 63.0714347,18.8951783 63.0714347,19.4509174 C63.0714347,20.2725696 61.9700325,20.8039174 60.9013092,20.8039174 Z M56.6270214,8.14291739 L58.0630804,8.14291739 L58.0630804,5.77504783 L56.6270214,5.77504783 L56.6270214,8.14291739 Z M52.1197446,8.14291739 L53.6556561,8.14291739 L53.6556561,5.77504783 L52.1197446,5.77504783 L52.1197446,8.14291739 Z M52.1197446,4.25226522 L53.6556561,4.25226522 L53.6556561,2.34352609 L52.1197446,2.34352609 L52.1197446,4.25226522 Z M47.678431,8.14291739 L49.0140325,8.14291739 L49.0140325,5.77504783 L47.678431,5.77504783 L47.678431,8.14291739 Z M44.7403498,12.4922217 L60.6677151,12.4922217 L60.6677151,10.9699174 L44.7403498,10.9699174 L44.7403498,12.4922217 Z M55.2581358,15.1255261 L55.2581358,19.2577 C55.2581358,20.3930913 55.0245417,21.1908304 53.2883203,21.3596565 C52.5203646,21.4323522 51.7524089,21.4806565 51.0177373,21.4806565 C49.2482317,21.4806565 50.2497815,21.0215261 49.6155675,20.2725696 C49.2482317,19.8134391 47.6451469,19.5958304 46.9776487,19.4753087 L47.044217,19.1850043 C47.7788886,19.2093957 48.5135601,19.2333087 49.2482317,19.3060043 C49.4485417,19.3299174 49.6821358,19.3299174 49.8824458,19.3299174 C50.5838332,19.3299174 50.9844531,19.1610913 50.9844531,18.6053522 L50.9844531,15.1255261 L43.2710066,15.1255261 L43.2710066,13.6037 L63.3056339,13.6037 L63.3056339,15.1255261 L55.2581358,15.1255261 Z M42.4697668,20.9249174 L42.1357151,20.7317 C44.2392723,19.1610913 44.7736339,18.049613 45.5748738,15.9954826 L50.149324,16.1164826 C48.3132502,18.7741783 46.0759513,19.7651348 42.4697668,20.9249174 Z M62.0033166,5.0983087 L62.0033166,10.1726565 L58.0630804,10.1726565 L58.0630804,9.66474348 L47.678431,9.66474348 L47.678431,10.1726565 L45.1076856,10.1726565 C44.7403498,10.6557 44.4062982,10.8250043 43.6383424,10.8250043 C42.0358627,10.8250043 42.2028886,10.0272652 42.0358627,9.10948261 C41.9686893,8.62596087 41.8355528,8.38443913 41.5680694,7.9497 L41.5680694,21.6499609 L37.2943867,21.6499609 L37.2943867,12.9996565 C36.326121,14.2077435 35.3239661,15.2465261 33.9217963,16.2130913 L33.4878923,16.1408739 C33.7547705,15.6329609 33.9883646,15.1255261 34.255848,14.6180913 C35.090372,12.9269609 35.524276,9.47200435 35.524276,7.6110913 C35.524276,7.03143913 35.4909919,6.42691739 35.4909919,5.84726522 L37.2943867,5.84726522 L37.2943867,4.56648261 L34.0216487,4.56648261 L34.0216487,3.04465652 L37.2943867,3.04465652 L37.2943867,0.0239608696 L41.5680694,0.0239608696 L41.5680694,3.04465652 L43.7720841,3.04465652 L43.7720841,4.56648261 L41.5680694,4.56648261 L41.5680694,6.91043913 C42.4031985,7.32126522 43.2377225,7.7320913 43.9723941,8.26343913 L43.9723941,3.69700435 L47.678431,3.69700435 L47.678431,4.25274348 L49.0140325,4.25274348 L49.0140325,2.34352609 L43.5046007,2.34352609 L43.5046007,0.8217 L63.0714347,0.8217 L63.0714347,2.34352609 L56.6276266,2.34352609 L56.6276266,4.25274348 L57.9293387,4.25274348 L59.0646303,3.35839565 L63.4054863,4.18004783 L62.0033166,5.0983087 Z" id="Fill-3" fill="#FFFFFF"></path>
                    <path d="M87.2768664,3.45524348 C89.1468295,4.68772174 90.8164827,6.08902609 92.3523941,7.53863478 C93.5209697,8.65011304 94.5231247,9.49567826 95.3576487,10.7281565 C96.4596561,12.3470696 97.5610583,14.014287 97.5610583,15.8503304 C97.5610583,17.0345043 96.2254568,18.2913739 94.6229771,18.2913739 C93.4205122,18.2913739 92.5527041,17.8078522 92.0849107,17.0105913 C91.7181801,16.3821565 91.5178701,15.0047652 91.4174125,14.304113 C91.2503867,13.1443304 91.0500768,11.9606348 90.682741,10.8247652 C89.8815011,8.36028696 88.6124679,5.79872174 86.8096782,3.62454783 L87.2768664,3.45524348 Z M77.8604827,19.0642435 C79.1634052,19.0642435 79.5301358,18.9915478 79.5301358,18.0254609 L79.5301358,0.0725043478 L84.4719218,0.0725043478 L84.4719218,19.3784609 C84.4719218,19.8132 84.3720694,20.2484174 84.0713018,20.6348522 C83.7372502,21.1183739 82.8361579,21.2628087 82.1686598,21.3355043 C80.8657373,21.4804174 79.4974568,21.5770261 78.1945343,21.5770261 C75.6570731,21.5770261 77.7606303,20.6831565 75.7236413,19.8375913 C75.0561432,19.5716783 73.6206893,19.3540696 72.8521284,19.2335478 L72.8860177,18.9193304 C74.5556708,18.9915478 76.1914347,19.0642435 77.8604827,19.0642435 Z M77.5936044,3.69676522 C77.1597004,4.97754783 76.8589328,6.28224348 76.4922022,7.56302609 C76.1242613,8.86772174 75.423479,10.124113 74.6888074,11.3565913 C73.0191542,14.0865043 70.481693,16.3821565 67.5097225,18.4358087 L67.0419292,18.3396783 C69.9140472,14.135287 71.8838627,8.26367826 72.1174568,3.60015652 L77.5936044,3.69676522 Z" id="Fill-5" fill="#FFFFFF"></path>
                    <mask id="mask-2" fill="white">
                        <use xlink:href="#path-1"></use>
                    </mask>
                    <g id="Clip-8"></g>
                    <path d="M108.877845,18.2671261 L122.167292,18.2671261 L122.167292,13.8695174 L108.877845,13.8695174 L108.877845,18.2671261 Z M108.877845,12.226213 L122.167292,12.226213 L122.167292,8.19112609 L108.877845,8.19112609 L108.877845,12.226213 Z M100.797668,0.797213043 L130.214185,0.797213043 L130.214185,2.39221304 L115.555852,2.39221304 C113.719173,4.56638696 112.383572,5.29143043 109.445491,6.59660435 L122.03355,6.59660435 L123.502893,5.46073478 L128.878583,6.25799565 L127.275498,7.32116957 L127.309387,21.6015609 L122.167292,21.6015609 L122.167292,19.9343435 L108.877845,19.9343435 L108.877845,21.6015609 L103.869491,21.6015609 L103.869491,5.79886522 L107.775838,5.77495217 C108.477225,4.9289087 109.278465,3.3826913 109.578627,2.39221304 L100.797668,2.39221304 L100.797668,0.797213043 Z" id="Fill-7" fill="#FFFFFF" mask="url(#mask-2)"></path>
                    <path d="M148.642701,7.65944348 C150.712974,7.82874783 155.85507,8.57770435 155.85507,10.6796609 C155.85507,11.4769217 154.753063,11.9360522 153.750908,11.9360522 C151.514214,11.9360522 151.313904,9.9067913 150.011587,8.81922609 C149.543793,8.45670435 149.009432,8.14296522 148.442391,7.85266087 L148.642701,7.65944348 Z M148.642701,2.24696522 C150.345033,2.41626957 154.352443,2.92370435 155.320708,4.10787826 C155.721328,4.56653043 155.85507,4.66313913 155.85507,5.12226957 C155.85507,5.99222609 154.753063,6.37913913 153.684339,6.37913913 C152.549048,6.37913913 151.614066,5.77509565 151.180162,5.02566087 C150.946568,4.61483478 150.679085,4.2040087 150.378923,3.81757391 C149.944413,3.28622609 149.109889,2.82709565 148.442391,2.46457391 L148.642701,2.24696522 Z M156.756162,13.7725739 L156.756162,9.56521739e-05 L161.697948,9.56521739e-05 L161.697948,13.7725739 L163.802111,13.7725739 L163.802111,15.391487 L161.697948,15.391487 L161.697948,21.6739217 L156.756162,21.6739217 L156.756162,15.391487 L146.939764,15.391487 L146.939764,13.7725739 L156.756162,13.7725739 Z M134.351705,2.15035652 C137.289786,1.6190087 140.328325,1.01496522 143.066096,0.0240086957 L148.275365,1.81222609 C146.806022,2.15035652 145.236827,2.34357391 143.700915,2.48848696 L143.700915,5.55748696 L147.641151,5.55748696 L147.641151,7.12809565 L143.700915,7.12809565 L143.700915,8.96461739 C144.936059,9.23005217 146.205092,9.54426957 147.373668,9.95509565 C148.843011,10.4625304 149.577683,10.9938783 149.844561,11.622313 C150.378923,12.7577043 149.143173,13.2895304 147.67383,13.2895304 C145.937609,13.2895304 145.336679,12.2502696 144.936059,11.2597913 C144.702465,10.6557478 144.235277,10.1000087 143.700915,9.61648696 L143.700915,21.6739217 L138.992723,21.6739217 L138.992723,14.7635304 C137.957889,16.2375304 136.72214,17.7593565 134.985919,18.8469217 L134.618583,18.7259217 C134.918745,18.1945739 135.086376,17.6627478 135.286686,17.1070087 C135.853727,15.391487 136.288236,13.7003565 136.454657,11.9360522 C136.555114,10.8250522 136.588399,9.68918261 136.688856,8.57770435 L138.992723,8.57770435 L138.992723,7.12809565 L134.418273,7.12809565 L134.418273,5.55748696 L138.992723,5.55748696 L138.992723,2.56118261 C137.456812,2.51287826 135.887616,2.48848696 134.351705,2.34357391 L134.351705,2.15035652 Z" id="Fill-9" fill="#FFFFFF" mask="url(#mask-2)"></path>
                </g>
            </g>
        </g>
    </g>
</svg>