<?xml version="1.0" encoding="UTF-8"?>
<svg width="156px" height="29px" viewBox="0 0 156 29" version="1.1" xmlns="http://www.w3.org/2000/svg" xmlns:xlink="http://www.w3.org/1999/xlink">
    <!-- Generator: Sketch 51.2 (57519) - http://www.bohemiancoding.com/sketch -->
    <title>instructions</title>
    <desc>Created with Sketch.</desc>
    <defs>
        <polygon id="path-1" points="0 0.171593617 30.9465787 0.171593617 30.9465787 27.7283809 0 27.7283809"></polygon>
        <polygon id="path-3" points="0 28.8807915 155.631277 28.8807915 155.631277 -0.000123404255 0 -0.000123404255"></polygon>
    </defs>
    <g id="Page-1" stroke="none" stroke-width="1" fill="none" fill-rule="evenodd">
        <g id="Desktop-HD" transform="translate(-832.000000, -2440.000000)">
            <g id="instructions" transform="translate(832.000000, 2440.000000)">
                <g id="Group-3" transform="translate(0.000000, 0.497813)">
                    <mask id="mask-2" fill="white">
                        <use xlink:href="#path-1"></use>
                    </mask>
                    <g id="Clip-2"></g>
                    <path d="M23.0141532,14.5734872 L23.0141532,13.2018489 L23.763217,13.2018489 C24.1716851,12.3602319 24.5801532,11.9548489 24.9553021,11.0817638 L20.3251745,11.0817638 L20.3251745,9.05608298 L25.0231745,9.05608298 L26.1807064,7.74676383 L30.6744723,8.7753383 C30.1981319,9.14925319 29.6866213,9.55463617 29.244834,9.95940213 C29.0739191,10.1155085 28.9381745,10.333934 28.8018128,10.5208915 C27.678834,11.8610617 26.895217,12.0794872 25.5334511,13.2018489 L27.3036851,13.2018489 L27.3036851,14.5734872 L30.2660043,14.5734872 L30.2660043,16.568317 L27.3036851,16.568317 L27.3036851,21.6809553 C27.3036851,23.3641894 26.2825149,23.9250617 24.7504511,24.2372745 C24.0698766,24.3619128 23.3886851,24.3619128 22.6735574,24.3619128 C21.5845149,24.3619128 22.197217,23.5826149 21.5160255,22.8341681 C21.0057489,22.2732957 20.0185149,22.0240191 19.2694511,21.8993809 L19.2694511,21.4316787 C20.1542596,21.4939979 21.0396851,21.5871681 21.8911745,21.5871681 C22.6056851,21.5871681 23.0141532,21.5248489 23.0141532,20.7455511 L23.0141532,16.568317 L19.5415574,16.568317 L19.5415574,14.5734872 L23.0141532,14.5734872 Z M20.6651532,4.09893404 C20.8354511,2.97718936 20.8354511,1.57408298 20.8693872,0.265380851 L25.8401106,0.265380851 C25.4655787,1.54323191 25.1595362,2.85255106 24.7504511,4.13040213 L30.3338766,4.13040213 L30.3338766,6.18816809 L23.6268553,6.18816809 C22.3329617,7.46601915 20.9378766,7.93372128 19.4397489,8.96229574 L18.9634085,8.80618936 C19.848217,7.09210426 20.426983,5.75131702 20.6651532,4.09893404 Z M10.8606851,0.202444681 C11.8818553,0.3277 13.2436213,0.3277 14.4011532,0.576359574 C15.7629191,0.857721277 16.8525787,1.48091277 16.8525787,3.16414681 C16.8525787,4.13040213 15.8992809,4.53578511 15.0477915,4.53578511 C13.3114936,4.53578511 12.6648553,3.50659362 12.0515362,2.13557234 C11.813983,1.66787021 10.9964298,0.826253191 10.5540255,0.514040426 L10.8606851,0.202444681 Z M8.17047234,7.09210426 L8.17047234,5.12812553 L19.4051957,5.12812553 L19.4051957,7.09210426 L13.8563234,7.09210426 L13.8563234,9.80391277 L15.1841532,9.80391277 L16.2398766,8.49459362 L20.2227489,9.49231702 L19.1676426,10.6769979 C19.1330894,13.3579553 19.065217,15.0720404 19.065217,17.7529979 C19.065217,18.7507213 19.065217,21.6809553 18.8949191,22.3041468 C18.4518979,23.8010404 15.5586851,24.2995936 14.1290468,24.2995936 C13.4478553,24.2995936 13.584217,23.8627426 13.4478553,23.3950404 C13.2090681,22.397934 11.9157915,22.0548702 10.9964298,21.8993809 L10.9964298,21.4939979 C11.6776213,21.5248489 12.3242596,21.556317 12.9715149,21.556317 C14.2987277,21.556317 15.150217,21.6809553 15.1841532,20.309317 C15.1841532,19.031466 15.3198979,14.0119979 15.3544511,11.8925298 L13.8563234,11.8925298 C13.7884511,13.5134447 13.8223872,14.2304234 13.584217,15.8513383 C13.0393872,19.4053809 10.3497915,21.150934 8.06866383,22.4602532 L7.62625957,22.1795085 C9.12377021,20.1223596 9.19225957,19.4677 9.56679149,16.6621043 C9.9413234,14.043466 9.83889787,12.2664447 9.83889787,9.61695532 L9.87283404,7.09210426 L8.17047234,7.09210426 Z M1.87253617,0.171593617 C3.37066383,0.420870213 5.85540851,0.732465957 6.87719574,1.85482766 C7.42140851,2.4157 7.86442979,2.94572128 7.86442979,3.75648723 C7.86442979,5.09665745 7.48989787,5.78278511 5.61785532,5.78278511 C3.4046,5.78278511 3.54034468,3.60038085 2.96219574,2.19789149 C2.55372766,1.23101915 2.41736596,1.13784894 1.60042979,0.420870213 L1.87253617,0.171593617 Z M7.79655745,22.1795085 C8.74985532,23.2087 9.39649362,23.644934 10.7921957,24.0811681 C13.6520894,24.9851043 16.9543872,24.7981468 19.9500255,24.7981468 C23.5929191,24.7981468 27.2358128,24.7043596 30.8441532,24.5174021 L30.9465787,24.860466 C29.8914723,25.2967 28.0188128,26.2944234 29.3127064,27.4476362 L29.1424085,27.7283809 C25.1595362,27.7283809 21.1421106,27.6975298 17.1586213,27.6345936 C14.7750681,27.6037426 11.6430681,27.5099553 9.56679149,26.2944234 C8.44319574,25.6397638 6.77538723,23.3018702 5.78753617,23.3018702 C5.1069617,23.3018702 2.72340851,26.6998064 2.31494043,27.354466 L-0.000123404255,24.1434872 C1.0556,23.5202957 2.14525957,22.9902745 3.20036596,22.3356149 L3.20036596,10.7701681 L0.102302128,10.7701681 L0.102302128,8.80618936 L2.99613191,8.80618936 L3.77913191,7.46601915 L9.46436596,8.61923191 L7.79655745,9.89708298 L7.79655745,22.1795085 Z" id="Fill-1" fill="#AE7441" mask="url(#mask-2)"></path>
                </g>
                <path d="M59.2002915,1.3862617 C60.8008447,1.6355383 64.2734404,1.94713404 64.3067596,4.2541766 C64.3067596,5.43885745 63.5243766,6.15583617 62.230483,6.15583617 C59.9154191,6.15583617 60.2560149,4.65955957 59.9154191,3.13181489 C59.7790574,2.41483617 59.5069511,2.22787872 58.9960574,1.69785745 L59.2002915,1.3862617 Z M52.5278234,8.52458085 L54.6725894,8.24445319 L54.604717,5.62581489 C54.2295681,5.81277234 53.8211,5.93741064 53.4805043,6.12436809 C53.2083979,6.24900638 53.0041638,6.46743191 52.7659936,6.6235383 C52.2551,6.96598511 51.7448234,7.30904894 51.2339298,7.62064468 L51.2339298,8.11981489 C51.2339298,9.24155957 51.6084617,9.52230426 52.7999298,9.55377234 L52.5278234,8.52458085 Z M49.6339936,8.33824043 L49.701866,8.5869 L46.3316957,9.02375106 L46.3316957,9.42913404 C46.3316957,9.5846234 46.3656319,9.7092617 46.5019936,9.8339 C46.6383553,9.92768723 47.9655681,9.95915532 48.2376745,9.95915532 C49.8721638,9.95915532 49.8382277,9.21070851 50.3151851,8.05749574 L49.6339936,8.33824043 Z M49.2255255,6.87281489 L49.5315681,7.71443191 C49.9061,7.21587872 50.1788234,6.68585745 50.4509298,6.12436809 L46.3316957,6.12436809 L46.3316957,7.24672979 L49.2255255,6.87281489 Z M45.2765894,19.2798787 L48.2043553,19.2798787 L48.2043553,17.5028574 L45.2765894,17.5028574 L45.2765894,19.2798787 Z M45.2765894,15.5074106 L45.2765894,15.7881553 L48.0334404,15.7881553 L49.0891638,14.5411553 L52.7999298,15.5697298 L51.8126957,16.505134 L51.8126957,21.4301979 L48.2043553,21.4301979 L48.2043553,21.056283 L45.2765894,21.056283 L45.2765894,21.5863043 L41.5652064,21.5863043 L41.5652064,15.5074106 L45.2765894,15.5074106 Z M40.7476532,14.3850489 L52.3229723,14.3850489 L52.3229723,12.7018149 L40.7476532,12.7018149 L40.7476532,14.3850489 Z M42.3482064,0.388538298 L46.6383553,0.388538298 L46.6383553,1.44858085 L51.7787596,1.44858085 L51.7787596,3.10096383 L46.6383553,3.10096383 L46.6383553,4.28564468 L51.0296957,4.28564468 L52.0169298,3.28792128 L54.604717,4.62809149 L54.4683553,0.388538298 L58.4857809,0.388538298 C58.5191,2.85168723 58.5536532,5.28275106 58.5875894,7.7459 L63.4898234,7.09124043 L63.8982915,8.96143191 L58.6554617,9.55377234 C58.6554617,11.5486021 58.7239511,13.5440489 58.8596957,15.5388787 C60.085717,13.8241766 60.9026532,12.0471553 61.6177809,10.0837936 L65.8394404,10.9562617 C65.362483,11.922517 64.8515894,12.8893894 64.3067596,13.8556447 C63.2855894,15.6320489 60.9026532,17.721283 59.2681638,19.0923043 C59.5069511,19.809283 60.664483,22.8018362 61.5153553,22.8018362 C61.7195894,22.8018362 61.9916957,22.1471766 62.0601851,21.9916872 C62.6389511,20.5577298 63.0474191,19.0299851 63.5922489,17.5960277 L64.3413128,17.6589638 C64.0692064,19.0299851 63.7625468,20.4330915 63.7625468,21.8361979 C63.7625468,23.5817511 65.6006532,22.5840277 65.6006532,23.5817511 C65.6006532,24.4542191 64.6473553,26.8859 64.1710149,27.6028787 C63.9328447,27.9767936 63.5922489,28.3507085 63.0813553,28.3507085 C62.6050149,28.3507085 62.0941213,28.1014319 61.6856532,27.8830064 C58.4172915,26.2312404 57.2258234,24.0179851 55.7622489,20.9939638 C54.4338021,21.5554532 53.038717,22.0540064 51.6423979,22.4902404 C51.1660574,23.1449 50.6551638,23.7995596 50.1109511,24.3919 C51.5745255,24.2049426 53.038717,24.0179851 54.5022915,23.7687085 L54.604717,24.1740915 C50.1442702,25.9819638 45.4808234,27.291283 40.7482702,28.4130277 L39.4543766,25.2958362 C40.5101,25.2958362 41.5652064,25.2649851 42.654866,25.233517 C42.2457809,24.4227511 42.3821426,23.1140489 41.9736745,22.5217085 C41.8373128,22.3347511 41.7015681,22.1471766 41.5652064,21.9293681 L41.8039936,21.7109426 C42.7906106,21.9293681 45.2765894,22.5525596 45.8208021,23.3010064 C45.9911,23.5194319 46.0935255,23.7687085 46.0935255,24.0179851 C46.0935255,24.3604319 45.9226106,24.6411766 45.7183766,24.9219213 L47.8637596,24.6726447 C48.0001213,23.7687085 48.1019298,22.8647723 48.1698021,21.9602191 L51.4042277,21.8670489 C52.7999298,20.9939638 54.1277596,20.0591766 55.3537809,18.967666 C54.9107596,16.2243894 54.8089511,12.9202404 54.6725894,10.0837936 L53.0720362,10.3330702 L53.0041638,10.0214745 C52.7999298,10.3016021 52.5956957,10.6138149 52.3575255,10.8624745 C51.472717,11.7670277 49.4976319,11.7984957 48.2376745,11.7984957 C46.9443979,11.7984957 45.5826319,11.7670277 44.2548021,11.6423894 C43.7784617,11.5800702 43.3354404,11.517134 42.9948447,11.1432191 C42.5530574,10.644666 42.5863766,9.99000638 42.5863766,9.36681489 L40.714334,9.61609149 L40.4755468,7.8705383 L42.5863766,7.65211277 L42.5863766,6.12436809 L40.2379936,6.12436809 L40.2379936,14.8842191 C40.2379936,18.7183894 39.726483,22.0848574 37.6502064,25.4827936 C36.9350787,26.6989426 35.9817809,27.7898362 35.028483,28.8807298 L34.5521426,28.7875596 C36.2884404,24.5165383 36.5266106,19.9968574 36.5266106,15.4765596 L36.5266106,3.50634681 L40.2379936,3.50634681 L40.2379936,4.28564468 L42.3482064,4.28564468 L42.3482064,0.388538298 Z" id="Fill-4" fill="#AE7441"></path>
                <mask id="mask-4" fill="white">
                    <use xlink:href="#path-3"></use>
                </mask>
                <g id="Clip-7"></g>
                <path d="M86.8074894,11.9855149 L92.8333191,11.9855149 L92.8333191,8.18219574 L86.8074894,8.18219574 L86.8074894,11.9855149 Z M86.7735532,5.28281277 C84.390617,5.28281277 84.4930426,3.50579149 83.9482128,2.00951489 C83.6754894,1.19936596 83.607617,1.35547234 82.8585532,0.825451064 L82.8585532,0.3886 C84.6972766,0.233110638 88.9183191,0.980940426 88.9522553,3.63104681 C88.9522553,4.62815319 87.7607872,5.28281277 86.7735532,5.28281277 Z M99.7445745,27.3530468 C98.9955106,28.4130894 96.5780213,28.4754085 95.3871702,28.4754085 C92.9357447,28.4754085 89.8376809,28.1014936 89.8376809,25.2650468 L89.8376809,14.7596426 L92.8333191,14.7596426 L92.8333191,13.9180255 L86.8074894,13.9180255 L86.8074894,14.7596426 L88.4759149,14.7596426 C88.4074255,16.5366638 88.2377447,18.2507489 87.9310851,19.9969191 C87.2498936,23.9865787 83.9136596,26.7613234 80.3392553,28.7561532 L79.9647234,28.6000468 C82.1094894,26.6366851 83.6415532,24.6103872 83.9482128,21.7733234 C84.2203191,19.4977489 84.2203191,17.2536426 84.3221277,14.9466 L81.9391915,14.9466 L81.9391915,5.59440851 L86.8074894,5.59440851 L86.8074894,6.24906809 L90.0419149,6.24906809 C90.5528085,5.40745106 91.0976383,4.50351489 91.4715532,3.56872766 C91.9145745,2.47721702 92.2551702,1.32400426 92.6290851,0.201642553 L97.7355532,0.700812766 C95.9653191,3.28798298 93.9229787,4.78425957 91.0291489,6.24906809 L92.7654468,6.24906809 L94.1272128,5.06438723 L99.1658085,5.99979149 L97.7355532,7.18447234 L97.7355532,14.7596426 L94.570234,14.7596426 L94.570234,24.2673234 C94.570234,24.921983 94.9102128,25.4205362 95.6932128,25.4205362 C96.0338085,25.4205362 96.3404681,25.2650468 96.5780213,25.0774723 C97.1574043,24.5789191 97.8040426,19.1546851 97.8379787,18.6246638 L98.4512979,18.6561319 C98.484617,19.8093447 98.4512979,21.9602809 98.7573404,22.9894723 C99.268234,24.6727064 100.936043,24.2673234 100.936043,24.952834 C100.936043,25.6074936 100.119106,26.8236426 99.7445745,27.3530468 Z M74.6879574,23.2072809 L77.139383,23.2072809 L77.139383,18.282217 L74.6879574,18.282217 L74.6879574,23.2072809 Z M81.3264894,17.2844936 L81.3604255,26.4805787 L77.139383,26.4805787 L77.139383,25.0774723 L74.6879574,25.0774723 L74.6879574,26.5428979 L70.500234,26.5428979 L70.500234,15.8196851 L74.6879574,15.8196851 L74.6879574,16.4120255 L77.0708936,16.4120255 L78.5344681,15.1650255 L82.9264255,16.0998128 L81.3264894,17.2844936 Z M70.1257021,9.9586 L80.2368298,9.9586 L80.2368298,8.02608936 L70.1257021,8.02608936 L70.1257021,9.9586 Z M70.091766,13.8865574 L80.3392553,13.8865574 L80.3392553,11.9848979 L70.091766,11.9848979 L70.091766,13.8865574 Z M69.3427021,5.93747234 L69.3427021,4.0049617 L74.5176596,4.0049617 C74.0752553,3.78653617 73.7685957,3.56872766 73.6667872,3.10102553 C73.5304255,2.50868511 73.4625532,1.32400426 72.8831702,0.887153191 L72.2025957,0.3886 L72.4068298,0.139323404 C73.8025319,-0.17227234 77.5478511,-0.0476340426 77.9896383,1.41717447 C78.0920638,1.82255745 78.3647872,2.22794043 78.2623617,2.6333234 C78.126,3.16334468 77.8199574,3.59957872 77.343617,4.0049617 L81.1901277,4.0049617 L81.1901277,5.93747234 L69.3427021,5.93747234 Z" id="Fill-6" fill="#AE7441" mask="url(#mask-4)"></path>
                <path d="M123.606638,8.96149362 L127.079234,8.96149362 L127.079234,4.09874894 L123.606638,4.09874894 L123.606638,8.96149362 Z M127.079234,15.8505362 L127.079234,11.0501106 L123.572085,11.0501106 L123.402404,15.8505362 L127.079234,15.8505362 Z M123.606638,2.07183404 L127.181043,2.07183404 L128.542809,0.638493617 L133.547468,1.69791915 L132.015404,3.25651489 L132.015404,25.6389617 C132.015404,28.1952809 130.108809,28.3507702 127.793745,28.5377277 C127.181043,28.6000468 126.534404,28.6315149 125.887149,28.6315149 C123.334532,28.6315149 125.376872,27.9145362 123.538766,26.3559404 C123.027872,25.9197064 120.780681,25.6698128 120.06617,25.5766426 L120.06617,25.1712596 C121.63217,25.2027277 123.19817,25.2650468 124.76417,25.2650468 C125.342936,25.2650468 126.602894,25.3896851 126.942872,24.7664936 C127.079234,24.5480681 127.079234,24.0488979 127.079234,23.7996213 L127.079234,17.9076851 L123.299979,17.9076851 C122.857574,19.6538553 122.516979,20.8693872 121.564298,22.4903021 C119.929809,25.2335787 114.414872,27.446834 111.418617,28.6000468 L111.111957,28.3822383 C112.371915,27.446834 113.597319,26.4497277 114.82334,25.4828553 C116.116617,24.4228128 117.069915,23.1449617 117.580809,21.617834 C117.95534,20.4954723 118.295936,19.3422596 118.431681,18.1575787 C118.669851,15.6635787 118.635915,13.1072596 118.635915,10.6138766 L118.635915,0.763131915 L123.606638,0.763131915 L123.606638,2.07183404 Z M108.967809,17.1913234 L111.827702,17.1913234 L111.827702,11.4863447 L108.967809,11.4863447 L108.967809,17.1913234 Z M108.967809,4.22338723 L108.967809,9.3668766 L111.827085,9.3668766 L111.827085,4.19191915 L108.967809,4.22338723 Z M104.439489,0.856302128 L108.967809,0.887153191 L108.967809,2.13415319 L111.861021,2.13415319 L113.393085,0.669344681 L117.818979,1.69791915 L116.491149,2.85113191 L116.491149,21.3994085 L111.827085,21.3994085 L111.827085,19.1861532 L108.967809,19.1861532 L108.967809,21.3994085 L104.439489,21.3679404 L104.439489,0.856302128 Z" id="Fill-8" fill="#AE7441" mask="url(#mask-4)"></path>
                <path d="M155.128404,21.2436723 C154.550255,22.0538213 153.630277,22.4906723 152.57517,22.4906723 C151.519447,22.5215234 150.600702,21.9915021 150.021936,21.1813532 C149.408617,20.3082681 149.340745,19.1865234 149.920128,18.2819702 C150.498277,17.3157149 151.554,16.8171617 152.779404,16.8480128 C153.903,16.9103319 154.92417,17.5964596 155.367191,18.5312468 C155.809596,19.4043319 155.673234,20.4643745 155.128404,21.2436723 M155.128404,10.5821617 C154.550255,11.3929277 153.630277,11.8291617 152.57517,11.8291617 C151.519447,11.8606298 150.600702,11.3306085 150.021936,10.5198426 C149.408617,9.64737447 149.340745,8.55648085 149.920128,7.6210766 C150.498277,6.65420426 151.554,6.15565106 152.779404,6.21797021 C153.903,6.2494383 154.92417,6.93494894 155.367191,7.87035319 C155.809596,8.7434383 155.673234,9.80286383 155.128404,10.5821617" id="Fill-9" fill="#AE7441" mask="url(#mask-4)"></path>
            </g>
        </g>
    </g>
</svg>