<?xml version="1.0" standalone="no"?><!DOCTYPE svg PUBLIC "-//W3C//DTD SVG 1.1//EN" "http://www.w3.org/Graphics/SVG/1.1/DTD/svg11.dtd"><svg t="1535098713104" class="icon" style="" viewBox="0 0 1024 1024" version="1.1" xmlns="http://www.w3.org/2000/svg" p-id="1909" xmlns:xlink="http://www.w3.org/1999/xlink" width="32" height="32"><defs><style type="text/css"></style></defs><path d="M111.8 563.8c-18.9 0-34.3-15.4-34.3-34.3s15.4-34.3 34.3-34.3h823.4c18.9 0 34.3 15.4 34.3 34.3s-15.4 34.3-34.3 34.3H111.8zM111.8 220.7c-18.9 0-34.3-15.4-34.3-34.3s15.4-34.3 34.3-34.3h823.4c18.9 0 34.3 15.4 34.3 34.3s-15.4 34.3-34.3 34.3H111.8zM111.8 906.9c-18.9 0-34.3-15.4-34.3-34.3s15.4-34.3 34.3-34.3h823.4c18.9 0 34.3 15.4 34.3 34.3s-15.4 34.3-34.3 34.3H111.8z" p-id="1910"></path></svg>