<?xml version="1.0" encoding="UTF-8"?>
<svg width="585px" height="30px" viewBox="0 0 585 30" version="1.1" xmlns="http://www.w3.org/2000/svg" xmlns:xlink="http://www.w3.org/1999/xlink">
    <!-- Generator: Sketch 51.2 (57519) - http://www.bohemiancoding.com/sketch -->
    <title>story</title>
    <desc>Created with Sketch.</desc>
    <defs></defs>
    <g id="Page-1" stroke="none" stroke-width="1" fill="none" fill-rule="evenodd">
        <g id="Desktop-HD" transform="translate(-287.000000, -1100.000000)" fill="#AE7441">
            <g id="story" transform="translate(287.000000, 1100.000000)">
                <path d="M8.76957447,24.9279574 L20.8493617,24.9279574 L20.8493617,16.7366809 L8.76957447,16.7366809 L8.76957447,24.9279574 Z M8.76957447,13.4794468 L8.76957447,14.7049787 L20.6738298,14.7049787 L22.3282979,13.2215745 L27.7525532,14.2211489 L26.0617021,15.7371064 L26.0617021,29.4100851 L20.8493617,29.4100851 L20.8493617,27.0241277 L8.76957447,27.0241277 L8.76957447,29.4745532 L3.52212766,29.4745532 L3.52212766,13.4794468 L8.76957447,13.4794468 Z M16.4821277,0.806042553 C15.8131915,1.51582979 15.1091489,2.16051064 14.4044681,2.83774468 C12.0095745,5.09540426 7.00851064,7.28795745 3.76851064,8.41646809 C5.95212766,8.41646809 8.13574468,8.41646809 10.283617,8.38455319 C14.5455319,8.32008511 18.7717021,8.12668085 22.9978723,8.02965957 C21.5540426,5.67561702 19.7221277,3.93434043 17.292766,2.41838298 L17.6795745,2.16051064 C21.0606383,3.25710638 23.9840426,3.12817021 27.2948936,5.74008511 C28.3155319,6.54625532 29.8302128,8.70689362 29.8302128,9.99689362 C29.8302128,11.4158298 28.4214894,12.0930638 27.012766,12.0930638 C26.4842553,12.0930638 25.3576596,11.7707234 25.0404255,11.3188085 C24.6178723,10.7066809 24.2304255,10.0939149 23.8429787,9.44859574 L23.4204255,8.7713617 C21.3778723,9.41668085 19.2995745,9.96434043 17.1868085,10.4162553 C11.903617,11.5766809 6.16340426,11.9315745 0.774893617,12.4154043 L0,8.32008511 C0.458297872,8.28753191 0.915957447,8.22306383 1.33851064,8.12668085 C2.07829787,7.9326383 3.27574468,6.93306383 3.80361702,6.48178723 C5.88191489,4.74051064 7.64297872,3.09561702 9.01595745,0.806042553 L16.4821277,0.806042553 Z" id="Fill-1"></path>
                <path d="M64.2007021,16.188383 C63.9536809,16.188383 63.6721915,16.1564681 63.4258085,16.0275319 C62.756234,15.7045532 62.8270851,15.2532766 62.7919787,14.6079574 C62.756234,14.1566809 62.6860213,13.7054043 62.5104894,13.2860426 C62.3336809,12.834766 62.0872979,12.3834894 61.8058085,11.9960426 L62.1581489,11.8026383 C63.0383617,12.3509362 63.9192128,12.9637021 64.7285745,13.608383 C65.1868723,13.9632766 65.6445319,14.4471064 65.6445319,15.0273191 C65.6445319,15.8660426 65.0458085,16.188383 64.2007021,16.188383 Z M60.6083617,15.9624255 C59.8685745,15.9624255 59.3407021,15.5437021 59.3407021,14.8664681 C59.3407021,14.4151915 59.4109149,13.9307234 59.4109149,13.4475319 C59.4109149,12.7377447 59.2347447,12.4798723 58.9181489,11.8026383 L59.3407021,11.6737021 C60.2911277,12.4154043 61.9813404,13.608383 61.9813404,14.8339149 C61.9813404,15.6081702 61.4183617,15.9624255 60.6083617,15.9624255 Z M60.6434681,7.57838298 L57.9664468,9.67455319 L61.8058085,9.06178723 C61.3832553,8.25561702 61.3475106,8.22306383 60.6434681,7.57838298 Z M63.7424043,11.4802979 C62.4747447,11.4802979 62.4747447,10.8994468 62.0872979,9.89987234 C60.3268723,10.6096596 58.4955957,11.1579574 56.6987872,11.8026383 L55.3258085,9.99689362 C57.086234,9.25519149 58.1777234,8.02965957 59.2698511,6.6107234 L55.8536809,7.41689362 L55.3960213,5.51412766 C55.6424043,5.38519149 55.8536809,5.22434043 56.1007021,5.06285106 C57.1921915,4.22412766 58.1432553,1.67668085 58.6009149,0.451787234 L61.9468723,0.999446809 C61.136234,1.96710638 60.1500638,3.22455319 59.1294255,4.0313617 L57.2981489,5.48221277 L60.0798511,5.28880851 C60.6434681,4.45008511 60.8196383,4.09582979 61.2421915,3.12817021 L64.5875106,3.6113617 C63.4609149,4.96582979 62.5104894,5.96604255 61.2421915,7.22348936 C62.4396383,7.70731915 65.2219787,8.70689362 65.2219787,10.158383 C65.2219787,10.8675319 64.5172979,11.4802979 63.7424043,11.4802979 Z M51.3109149,14.2211489 L53.0011277,14.2211489 L53.0011277,12.3509362 L51.3109149,12.3509362 L51.3109149,14.2211489 Z M48.8802766,6.86859574 L55.0436809,6.86859574 L55.0436809,5.51412766 L48.8802766,5.51412766 L48.8802766,6.86859574 Z M48.8100638,9.38412766 L55.1145319,9.38412766 L55.1145319,8.02965957 L48.8100638,8.02965957 L48.8100638,9.38412766 Z M47.6828298,4.25668085 L47.6828298,2.80582979 L50.9585745,2.80582979 C50.042617,1.9026383 50.8883617,1.64476596 49.4796383,0.483702128 L49.796234,0.193276596 C50.9936809,0.128808511 53.7058085,0.225829787 53.6700638,1.9026383 C53.6700638,2.25753191 53.3885745,2.57987234 53.1421915,2.80582979 L55.712617,2.80582979 L55.712617,4.25668085 L47.6828298,4.25668085 Z M59.1294255,22.0575319 L59.1294255,21.444766 L46.802617,21.444766 L46.4502766,22.8637021 L60.2560213,22.8637021 L61.5243191,22.0575319 L59.1294255,22.0575319 Z M44.619,16.6722128 C44.055383,16.6722128 43.7738936,16.4788085 43.7738936,15.9305106 C43.7738936,15.2532766 44.1607021,14.6405106 44.1607021,13.9632766 C44.1607021,13.3505106 44.055383,12.7377447 44.0202766,12.1249787 L44.4428298,12.0605106 C45.3236809,12.9962553 46.3443191,14.0277447 46.3443191,15.3502979 C46.3443191,16.3173191 45.6051702,16.6722128 44.619,16.6722128 Z M45.3236809,8.38455319 L43.4566596,9.86795745 L45.921766,9.48114894 C45.746234,9.06178723 45.6051702,8.7713617 45.3236809,8.38455319 Z M64.6934681,24.089234 C64.4821915,25.2822128 64.341766,26.4758298 63.9894255,27.6043404 C63.4609149,29.1841277 61.8760213,29.4745532 60.3268723,29.6034894 C59.7632553,29.6679574 59.1996383,29.7005106 58.6360213,29.7005106 C57.5796383,29.7005106 58.3545319,28.9588085 57.4385745,28.2171064 C56.9802766,27.8296596 54.9734681,27.5398723 54.3741064,27.4754043 L54.4800638,26.9915745 C55.7483617,27.0885957 57.0160213,27.2175319 58.2836809,27.2175319 C59.1294255,27.2175319 59.9043191,27.1205106 60.0798511,26.2173191 C60.2209149,25.5726383 60.3268723,24.9273191 60.4321915,24.3145532 L46.0277234,24.3145532 L44.5487872,25.5726383 L41.061766,24.089234 L42.5407021,23.0896596 L43.245383,19.542 L47.2251702,19.6390213 L47.0847447,19.9939149 L59.1294255,19.9939149 L59.1294255,18.6394468 L43.0698511,18.6394468 L43.0698511,17.0915745 L58.9883617,17.0915745 L60.3970851,16.1564681 L64.6934681,16.8011489 L63.2145319,17.8977447 L63.2145319,22.0575319 L62.0170851,22.0575319 L65.996234,23.1541277 L64.6934681,24.089234 Z M56.6987872,16.2528511 C56.3119787,16.2528511 55.9596383,16.1239149 55.712617,15.8334894 L55.712617,16.4788085 L53.0011277,16.4788085 L53.0011277,15.5437021 L51.3109149,15.5437021 L51.3109149,16.4788085 L48.5636809,16.4788085 L48.5636809,15.8334894 C48.2464468,15.9949787 47.8238936,16.188383 47.4715532,16.188383 C47.1900638,16.188383 47.049,16.092 46.9787872,15.8660426 C46.6615532,15.1243404 46.6966596,14.2862553 46.5555957,13.4794468 C46.4502766,12.8666809 46.2741064,12.5443404 45.992617,11.9641277 L46.3800638,11.8026383 C47.1549574,12.3834894 47.9643191,13.0281702 48.5636809,13.7698723 L48.5636809,11.1898723 C48.176234,11.3188085 47.7530426,11.4477447 47.3304894,11.4477447 C46.6264468,11.4477447 46.3443191,10.932 46.2038936,10.3837021 C44.7243191,10.932 43.2811277,11.609234 41.8015532,12.1894468 L40.4981489,10.2873191 C42.3651702,9.54561702 42.8579362,8.80391489 43.9494255,7.28795745 L41.4843191,8.28753191 L40.1815532,6.44987234 C40.4279362,6.32093617 40.6749574,6.15944681 40.886234,5.96604255 C41.3087872,5.61114894 42.7519787,2.83774468 42.9287872,2.19306383 L43.2102766,1.22540426 L46.9436809,1.70923404 C45.6760213,3.38604255 44.0904894,4.77242553 42.4704894,6.15944681 L44.9355957,5.67561702 C45.2528298,5.22434043 45.429,4.80497872 45.6760213,4.32114894 L48.7749574,4.9013617 L45.8515532,7.86817021 C47.1900638,8.48093617 48.7392128,9.02923404 48.9504894,10.5451915 L51.3109149,10.5451915 L51.3109149,11.0609362 L52.8951702,11.0609362 L53.846234,10.3837021 L56.3464468,11.544766 L55.712617,11.9315745 L55.712617,14.898383 C56.6285745,13.8668936 56.9802766,13.2215745 57.2624043,11.8671064 L57.6849574,11.8671064 C58.0372979,12.7377447 58.3896383,13.7054043 58.3896383,14.6405106 C58.3896383,15.5437021 57.7551702,16.2528511 56.6987872,16.2528511 Z M39.2304894,5.99795745 C37.6455957,5.99795745 37.2581489,5.44965957 36.9766596,4.12774468 C36.8355957,3.57944681 36.5892128,3.06370213 36.2719787,2.57987234 C35.8494255,1.93455319 35.2155957,1.38689362 34.6168723,0.870510638 L34.9692128,0.548170213 C36.5892128,0.90306383 41.379,1.61221277 41.2730426,4.0313617 C41.2379362,5.12731915 40.4636809,5.99795745 39.2304894,5.99795745 Z M38.0330426,12.5768936 C37.2581489,12.5768936 36.3779362,12.1894468 36.1666596,11.4477447 C35.9196383,10.4807234 35.9904894,9.31965957 35.462617,8.41646809 C35.2155957,7.96519149 34.6877234,7.44944681 34.2651702,7.09455319 L34.6877234,6.77221277 C35.8851702,7.12710638 38.3502766,8.02965957 39.4066596,8.73944681 C40.005383,9.15817021 40.4636809,10.2228511 40.4636809,10.8349787 C40.4636809,11.9641277 39.0894255,12.5768936 38.0330426,12.5768936 Z M41.2028298,17.639234 C40.8504894,17.639234 40.4981489,17.5102979 40.1815532,17.382 C40.1815532,19.6715745 40.0404894,21.8960426 39.7232553,24.1537021 C39.5828298,25.0568936 39.5119787,26.0239149 39.195383,26.9271064 L38.5966596,28.7009362 L33.771766,24.9598723 C36.3779362,21.8960426 38.1741064,18.1875319 39.2304894,14.4151915 L39.7941064,14.4471064 L40.0755957,16.0275319 C41.4843191,14.8664681 42.189,13.8988085 42.6466596,12.1575319 L43.0698511,12.1575319 C43.245383,12.9962553 43.4566596,13.8024255 43.4566596,14.6724255 C43.4566596,15.9305106 42.8930426,17.639234 41.2028298,17.639234 Z" id="Fill-3"></path>
                <path d="M93.4994043,13.8988723 C93.4994043,14.1248298 93.6404681,14.4471702 93.9570638,14.4471702 C94.2385532,14.4471702 94.5908936,14.253766 94.872383,14.1248298 L94.872383,9.44865957 L93.4994043,9.44865957 L93.4994043,13.8988723 Z M89.8713191,7.41695745 L89.8713191,3.77291489 L88.7447234,3.77291489 L88.709617,7.41695745 L89.8713191,7.41695745 Z M83.6377021,24.9605745 L94.872383,24.9605745 L94.872383,21.477383 L83.6377021,21.477383 L83.6377021,24.9605745 Z M85.1172766,10.8350426 L85.1172766,9.44865957 L83.6383404,9.44865957 L83.6383404,17.1235532 C84.7298298,14.8665319 85.1172766,13.2861064 85.1172766,10.8350426 Z M92.4774894,17.3495106 C90.9985532,17.3495106 89.8713191,17.1880213 89.8713191,15.5756809 L89.8713191,9.44865957 L88.6738723,9.44865957 C88.4281277,14.3507872 88.1811064,15.3178085 83.6383404,18.0586596 L83.6383404,19.4456809 L94.872383,19.4456809 L94.872383,16.9301489 C94.0974894,17.2524894 93.323234,17.3495106 92.4774894,17.3495106 Z M78.108766,1.74121277 L101.036426,1.74121277 L101.036426,3.77291489 L93.4994043,3.77291489 L93.4994043,7.41695745 L94.6968511,7.41695745 L96.1757872,6.19142553 L101.28217,7.191 L99.6979149,8.44908511 L99.6979149,29.4427021 L94.872383,29.4427021 L94.872383,27.0235532 L83.6383404,27.0235532 L83.6383404,29.3131277 L78.7425957,29.3131277 L78.7425957,6.54631915 L83.6383404,6.54631915 L83.6383404,7.41695745 L85.1172766,7.41695745 L85.1881277,3.77291489 L78.108766,3.77291489 L78.108766,1.74121277 Z M70.818766,1.48334043 C73.4951489,1.74121277 77.7921702,2.77334043 78.0736596,4.80504255 C78.3551489,6.64334043 76.5238723,7.48142553 75.186,6.90121277 C74.0938723,6.44993617 73.7064255,5.74014894 73.002383,4.32121277 C72.4738723,3.22461702 71.6281277,2.451 70.6074894,1.70929787 L70.818766,1.48334043 Z M70.2551489,9.19078723 C71.9804681,9.48121277 76.2066383,10.287383 77.0874894,11.738234 C77.9677021,13.2216383 76.8762128,15.1244043 74.9038723,14.7695106 C72.6142979,14.3507872 72.6500426,12.2539787 71.5579149,10.8675957 C71.1353617,10.3192979 70.5366383,9.86802128 69.9736596,9.44865957 L70.2551489,9.19078723 Z M76.7351489,15.9950426 L77.1577021,16.1239787 C77.0517447,21.4122766 76.1364255,25.1533404 72.8613191,29.5716383 L69.7968511,24.9599362 C72.8964255,22.3154681 74.868766,19.4131277 76.7351489,15.9950426 Z" id="Fill-4"></path>
                <path d="M126.918511,25.0568936 L129.841915,25.0568936 L129.841915,16.6722128 L126.918511,16.6722128 L126.918511,25.0568936 Z M126.918511,13.8024255 L126.918511,14.6405106 L129.700851,14.6405106 L131.285745,13.1571064 L136.427234,14.124766 L134.842979,15.6726383 L134.842979,29.345617 L129.841915,29.345617 L129.841915,27.1530638 L126.918511,27.1530638 L126.918511,29.4100851 L121.847234,29.4100851 L121.847234,13.8024255 L126.918511,13.8024255 Z M115.120851,9.15817021 L125.968085,9.15817021 L125.968085,3.70838298 L115.120851,3.70838298 L115.120851,9.15817021 Z M111.17617,25.0888085 L114.24,25.0888085 L114.24,16.7366809 L111.17617,16.7366809 L111.17617,25.0888085 Z M115.120213,0.677106383 L115.120213,1.64476596 L125.827021,1.64476596 L127.588085,0.290297872 L133.152128,1.22540426 L131.42617,2.70880851 L131.42617,12.0930638 L125.968085,12.0930638 L125.968085,11.2224255 L115.120213,11.2224255 L115.120213,12.1894468 L109.767447,12.1894468 L109.767447,0.677106383 L115.120213,0.677106383 Z M111.17617,13.8024255 L111.17617,14.7049787 L114.134681,14.7049787 L115.577872,13.3505106 L120.684894,14.3507234 L119.1,15.7690213 L119.1,29.3781702 L114.24,29.3781702 L114.24,27.282 L111.17617,27.282 L111.17617,29.4426383 L106.280426,29.4426383 L106.280426,13.8024255 L111.17617,13.8024255 Z" id="Fill-5"></path>
                <path d="M159.809489,0.419170213 C161.710979,0.515553191 162.41566,0.258319149 164.282043,0.741510638 C165.408638,1.03193617 166.923957,1.90257447 166.923957,3.09555319 C166.923957,4.61151064 166.149064,5.44959574 164.458213,5.44959574 C163.22566,5.44959574 162.063319,4.99831915 161.710979,3.83725532 L161.323532,2.6123617 C160.971191,1.54768085 160.548638,1.41874468 159.598213,0.77406383 L159.809489,0.419170213 Z M161.570553,7.96512766 L156.604596,7.96512766 L156.604596,5.90151064 L170.586511,5.90151064 L170.586511,7.96512766 L166.46566,7.96512766 L166.46566,14.9953404 L170.69183,14.9953404 L170.69183,17.0589574 L166.46566,17.0589574 L166.46566,26.6047021 L171.32566,26.6047021 L171.32566,28.6683191 L156.745021,28.6683191 L156.745021,26.6047021 L161.570553,26.6047021 L161.570553,17.0589574 L157.660979,17.0589574 L157.660979,14.9953404 L161.570553,14.9953404 L161.570553,7.96512766 Z M147.729064,17.1559787 C148.821191,18.5749149 149.948426,20.4132128 149.948426,22.2189574 C149.948426,22.9281064 149.455021,23.6378936 148.609915,23.6378936 C147.517787,23.6378936 147.623745,22.8317234 147.623745,22.1544894 C147.623745,20.3487447 147.623745,18.9617234 147.201191,17.2204468 L147.729064,17.1559787 Z M146.249489,14.4795957 L148.257574,14.4795957 L148.257574,11.8351277 L146.249489,11.8351277 L146.249489,14.4795957 Z M146.249489,9.99682979 L148.257574,9.99682979 L148.257574,7.64278723 L146.249489,7.64278723 L146.249489,9.99682979 Z M146.249489,5.80448936 L148.257574,5.80448936 L148.257574,3.28959574 L146.249489,3.28959574 L146.249489,5.80448936 Z M145.228851,17.4138511 C146.215021,19.0906596 146.989915,20.9289574 146.989915,22.8636383 C146.989915,23.5408723 146.567362,24.8627872 145.651404,24.8627872 C144.982468,24.8627872 144.524809,24.5085319 144.524809,23.895766 C144.524809,23.3800213 144.665234,22.8317234 144.736085,22.3153404 C144.876511,21.5098085 144.911617,20.6710851 144.911617,19.8649149 C144.911617,19.0906596 144.806298,18.3170426 144.736085,17.5427872 L145.228851,17.4138511 Z M155.477362,1.45129787 L155.477362,3.28959574 L151.920766,3.28959574 L151.920766,5.80448936 L155.30183,5.80448936 L155.30183,7.64278723 L151.920766,7.64278723 L151.920766,9.99682979 L155.230979,9.99682979 L155.230979,11.8351277 L151.920766,11.8351277 L151.920766,14.4789574 L152.695021,14.4789574 L153.963319,13.3504468 L158.189489,14.4151277 L156.604596,15.446617 C156.569489,17.8006596 156.533745,20.1227872 156.498638,22.4768298 C156.498638,23.5408723 156.498638,24.6055532 156.463532,25.6370426 C156.358213,27.7976809 154.983957,28.6038511 152.836085,28.9587447 C152.202255,29.0551277 151.498213,29.1840638 150.863745,29.1840638 C149.701404,29.1840638 150.546511,28.0236383 149.525872,27.3783191 C148.962255,27.0240638 146.989915,26.7336383 146.250128,26.6047021 L146.250128,26.1208723 C147.799915,26.2172553 149.349064,26.2823617 150.863745,26.2823617 C152.272468,26.2823617 152.730128,26.0238511 152.765872,24.7344894 C152.765872,23.9927872 152.800979,23.283 152.765872,22.5732128 C152.554596,22.8961915 152.377787,22.9606596 151.955234,22.9606596 C150.476298,22.9606596 150.723319,21.7670426 150.723319,20.8319362 C150.723319,19.4774681 150.546511,18.123 150.088851,16.8655532 L150.476298,16.6721489 C151.391617,17.510234 152.272468,18.5749149 152.765872,19.6389574 C152.800979,18.543 152.836085,17.4464043 152.871191,16.3172553 L146.250128,16.3172553 L146.250128,17.0915106 L142.622681,17.0915106 L142.622681,0.935553191 L146.250128,0.935553191 L146.250128,1.45129787 L155.477362,1.45129787 Z M143.643957,17.6072553 C143.820128,18.8647021 143.996298,20.1227872 143.996298,21.380234 C143.996298,22.7672553 143.749915,25.5725745 141.636511,25.5725745 C141.072894,25.5725745 140.615234,25.2821489 140.615234,24.7344894 C140.615234,24.3151277 141.072894,23.5408723 141.284809,23.1540638 C141.601404,22.6383191 141.882894,22.0574681 142.09417,21.4772553 C142.587574,20.1872553 142.869064,18.9617234 143.045234,17.6398085 L143.643957,17.6072553 Z" id="Fill-6"></path>
                <path d="M184.459149,9.44859574 L199.004043,9.44859574 L199.004043,4.25668085 L184.459149,4.25668085 L184.459149,9.44859574 Z M179.106383,0.709021277 L184.459149,0.709021277 L184.459149,2.19306383 L198.758298,2.19306383 L200.412766,0.612638298 L205.907234,1.80561702 L204.463404,2.96668085 L204.463404,13.2215745 L199.004043,13.2215745 L199.004043,11.544766 L184.459149,11.544766 L184.459149,13.3185957 L179.106383,13.3185957 L179.106383,0.709021277 Z M184.459149,22.5088085 C185.234043,23.0571064 186.818936,24.1537021 187.734255,24.4760426 L189.178723,24.9917872 L189.178723,12.6732766 L194.70766,12.6732766 L194.70766,16.865617 L206.259574,16.865617 L206.259574,19.0907234 L194.70766,19.0907234 L194.70766,25.6690213 C196.50383,25.7341277 198.3,25.7985957 200.09617,25.7985957 C202.279787,25.7985957 205.519787,25.6690213 207.668298,25.2502979 L207.668298,25.6690213 C206.4,26.088383 205.449574,26.4758298 205.449574,27.8622128 C205.449574,28.3141277 205.590638,28.4105106 205.801915,28.7654043 L205.554894,29.1196596 C203.018936,29.2166809 200.483617,29.345617 197.983404,29.345617 C195.482553,29.345617 191.784894,29.1841277 189.495319,28.3460426 C188.051489,27.8296596 186.044043,26.669234 185.128085,25.5081702 L183.755106,23.7668936 C181.465532,26.5077447 179.845532,27.5717872 176.711489,29.2811489 L176.429362,29.0232766 C176.745957,28.6358298 177.028085,28.2171064 177.345319,27.7977447 C177.69766,27.282 177.979149,26.7011489 178.225532,26.1209362 C179.880638,22.2834894 179.915745,19.1232766 179.986596,15.0598723 L185.480426,15.0598723 C185.269149,18.155617 185.198936,19.5745532 184.459149,22.5088085 Z" id="Fill-7"></path>
                <path d="M221.858298,16.9945532 L223.619362,16.9945532 L223.619362,12.1249787 L221.858298,12.1249787 L221.858298,16.9945532 Z M221.858298,9.48114894 L221.858298,10.319234 L223.478298,10.319234 L224.394255,9.38412766 L227.775319,10.2228511 L226.964681,11.1579574 L226.964681,19.8649787 L223.619362,19.8649787 L223.619362,18.768383 L221.858298,18.768383 L221.858298,19.8324255 L218.442128,19.8324255 L218.442128,9.48114894 L221.858298,9.48114894 Z M228.866809,20.8645532 L229.078085,20.9615745 L229.395319,20.4777447 C228.127021,16.3498723 227.880638,12.4154043 227.775319,8.15859574 L217.279787,8.15859574 L217.279787,6.35285106 L227.669362,6.35285106 L227.669362,3.99880851 L230.662979,3.99880851 L230.662979,6.35285106 L232.635319,6.35285106 C231.930638,5.96604255 231.895532,5.86902128 231.719362,5.15987234 C231.649149,4.99838298 231.578936,4.64348936 231.472979,4.51455319 L231.015319,3.96689362 L231.190851,3.80540426 C232.318085,3.96689362 233.867872,4.0632766 234.571915,4.99838298 C234.677872,5.15987234 234.748085,5.3207234 234.748085,5.48221277 C234.748085,5.7726383 234.219574,6.15944681 234.008298,6.35285106 L235.558085,6.35285106 L235.558085,8.15859574 L230.838511,8.15859574 C230.838511,11.0609362 231.085532,13.608383 231.36766,16.5432766 C232.247234,13.9951915 232.388298,12.8666809 232.776383,10.1258298 L236.050851,10.1258298 C235.417021,13.8988085 234.60766,16.4143404 232.282979,19.6390213 C232.494255,20.058383 233.233404,21.444766 233.797021,21.444766 C234.149362,21.444766 235.417021,18.3490213 235.558085,18.0911489 L235.980638,18.1230638 C235.769362,19.2196596 235.382553,20.3488085 235.382553,21.4773191 C235.382553,22.7028511 236.121702,22.799234 236.121702,23.315617 C236.121702,24.024766 235.346809,25.379234 234.430851,25.379234 C233.233404,25.379234 230.944468,22.734766 230.345745,21.9285957 C228.901915,23.315617 228.056809,23.9928511 226.260638,24.9598723 L225.908298,24.702 C227.034894,23.6698723 227.880638,22.7028511 228.761489,21.4773191 C225.697021,22.799234 222.492128,23.7668936 219.287234,24.702 L216.962553,22.1545532 C220.942979,21.9285957 224.957872,21.5417872 228.866809,20.8645532 Z M216.787021,26.3143404 L236.403191,26.3143404 L236.403191,3.51497872 L216.787021,3.51497872 L216.787021,26.3143404 Z M216.787021,0.77412766 L216.787021,1.70923404 L236.227021,1.70923404 L237.776809,0.290297872 L242.601702,1.32178723 L241.122766,2.57987234 L241.122766,29.6360426 L236.403191,29.6360426 L236.403191,28.1200851 L216.787021,28.1200851 L216.787021,29.6679574 L212.067447,29.6679574 L212.067447,0.77412766 L216.787021,0.77412766 Z" id="Fill-8"></path>
                <path d="M275.14066,27.7656383 C274.295553,27.7656383 273.590872,27.4432979 273.309383,26.6690426 C272.745766,25.1211702 272.675553,23.4443617 271.970872,21.8639362 C271.584064,20.9932979 271.301936,20.7998936 270.633,20.1226596 L270.984702,19.8967021 C272.570234,20.6709574 275.66917,22.1224468 276.796404,23.3473404 C277.324277,23.8956383 277.817043,24.8632979 277.817043,25.5724468 C277.817043,26.7979787 276.338106,27.7656383 275.14066,27.7656383 Z M269.329596,4.19202128 C269.787255,5.77244681 270.28066,6.83648936 271.372149,8.15904255 C271.618532,7.41734043 271.970872,6.675 272.182149,5.93329787 C272.358319,5.35308511 272.534489,4.77287234 272.71066,4.19202128 L269.329596,4.19202128 Z M268.026191,6.54606383 C266.371723,9.57734043 265.068319,11.0932979 262.285979,13.3184043 L272.147681,13.3184043 C269.963426,10.9318085 269.117681,9.51287234 268.026191,6.54606383 Z M262.321085,4.19202128 C262.004489,4.67585106 261.687255,5.12712766 261.334915,5.61159574 C262.039596,5.70797872 263.272149,6.09478723 263.588745,6.70755319 L263.870872,7.25585106 C264.082149,6.90095745 264.328532,6.54606383 264.468957,6.15925532 C264.715979,5.51457447 264.963,4.83734043 265.279596,4.19202128 L262.321085,4.19202128 Z M262.427043,8.70734043 C261.370021,8.70734043 261.299809,8.15904255 260.912362,7.38478723 C260.806404,7.15882979 260.701085,6.93351064 260.595766,6.70755319 C260.101723,7.35287234 259.573851,7.99755319 259.010234,8.61031915 C260.560021,8.93265957 261.475979,9.48095745 261.617043,10.7064894 C262.180021,10.0611702 262.637681,9.38393617 263.095979,8.64287234 C262.884702,8.67478723 262.637681,8.70734043 262.427043,8.70734043 Z M269.858106,19.0267021 L269.858106,27.1203191 C269.858106,28.9260638 268.097043,29.3460638 266.477043,29.571383 C266.124702,29.6032979 265.772362,29.667766 265.420021,29.667766 C262.919809,29.667766 264.927255,28.3458511 262.884702,27.4107447 C262.074064,27.0239362 261.159383,26.8305319 260.278532,26.6690426 L260.313638,26.3467021 C261.334915,26.4111702 262.321085,26.4430851 263.307255,26.4430851 C264.187468,26.4430851 264.927255,26.3141489 264.927255,25.3790426 L264.927255,19.0267021 L257.672362,19.0267021 L257.672362,16.9943617 L277.429596,16.9943617 L277.429596,19.0267021 L269.858106,19.0267021 Z M259.926191,11.7705319 C258.834064,11.7705319 258.764489,11.0288298 258.764489,10.2226596 C258.764489,9.6743617 258.728745,9.70691489 258.482362,9.19053191 C257.672362,9.93223404 256.756404,10.5775532 255.735128,11.0932979 C256.861723,12.9315957 256.615979,13.4154255 256.615979,15.7043617 C258.270447,14.511383 259.714915,13.1894681 260.982574,11.6415957 C260.630872,11.7060638 260.278532,11.7705319 259.926191,11.7705319 Z M255.347681,28.3458511 L255.101298,28.1205319 C257.813426,25.3790426 258.587681,23.7992553 259.75066,20.2841489 L264.399383,20.2841489 C262.391298,24.4120213 259.67917,26.4111702 255.347681,28.3458511 Z M251.403638,3.99861702 L251.403638,21.6060638 L251.861298,21.6060638 L252.107681,21.6060638 C252.988532,21.6060638 253.37534,21.5096809 253.37534,20.6384043 L253.37534,17.672234 L253.37534,14.8018085 C253.37534,13.5118085 253.516404,11.738617 252.671298,10.5775532 L251.861298,9.44840426 C253.129596,7.41734043 253.446191,6.35265957 253.621723,3.99861702 L251.403638,3.99861702 Z M279.296617,12.9315957 C278.274702,13.0605319 276.619596,13.5762766 276.619596,14.7373404 C276.619596,15.2856383 277.042149,15.8984043 277.288532,16.382234 L276.796404,16.6075532 C275.598319,15.8658511 274.365766,15.0596809 273.23917,14.1890426 L273.23917,15.3826596 L260.982574,15.3826596 L260.982574,14.1890426 C259.573851,15.092234 258.165128,15.801383 256.651085,16.5111702 C256.615979,17.1884043 256.615979,17.8330851 256.615979,18.5103191 C256.615979,19.4454255 256.686191,20.3805319 256.686191,21.3162766 C256.686191,22.8635106 256.016617,23.4762766 254.46683,23.8956383 C254.044277,23.9926596 253.552149,24.1215957 253.093851,24.1215957 C252.248745,24.1215957 252.318957,23.9926596 252.318957,23.3798936 C252.318957,22.7990426 251.966617,22.5411702 251.403638,22.4447872 L251.403638,29.5069149 L247.247681,29.5069149 L247.247681,0.77393617 L251.403638,0.77393617 L251.403638,1.96755319 L253.586617,1.96755319 L254.678745,0.77393617 L258.482362,1.61202128 L257.320021,2.70861702 C256.933213,4.67585106 256.404064,6.99797872 254.784064,8.44882979 L253.762787,9.35202128 C254.326404,9.77138298 254.889383,10.2226596 255.418532,10.7064894 C257.988957,7.57819149 258.728745,4.45053191 259.538745,0.709468085 L263.97683,0.709468085 C263.694702,1.16074468 263.448319,1.64457447 263.237043,2.12840426 L265.490872,2.12840426 L266.969809,0.999255319 L269.399809,2.12840426 L272.71066,2.12840426 L273.978957,0.870957447 L278.838319,1.70904255 L277.113,3.03159574 C275.810234,5.57904255 274.542574,7.19138298 272.288106,9.12606383 C275.210872,11.3830851 275.66917,11.7060638 279.331723,12.5441489 L279.296617,12.9315957 Z" id="Fill-9"></path>
                <path d="M300.63517,15.7691489 C299.649,17.6719149 297.993894,19.2523404 296.162617,20.2512766 L295.810277,19.9614894 C296.867298,19.0908511 297.748149,17.7038298 297.958787,16.446383 C297.043468,16.4789362 296.198362,16.1885106 295.563894,15.6082979 C294.930064,15.0274468 294.577723,14.2531915 294.61283,13.4470213 C294.61283,12.6414894 295.000277,11.8346809 295.704319,11.2870213 C296.339426,10.7706383 297.324957,10.512766 298.170702,10.6097872 C299.262191,10.7061702 300.248362,11.3834043 300.706021,12.2865957 C301.233894,13.3506383 301.198787,14.7370213 300.63517,15.7691489" id="Fill-10"></path>
                <path d="M341.94383,9.93242553 L343.987021,9.93242553 L343.987021,8.57795745 L341.94383,8.57795745 L341.94383,9.93242553 Z M344.233404,20.8645532 L339.443617,20.8645532 C339.091277,21.1543404 338.70383,21.4128511 338.281277,21.6381702 C339.162128,22.6702979 339.725106,23.0896596 340.922553,23.7988085 C342.261064,22.799234 343.10617,22.0575319 344.233404,20.8645532 Z M335.81617,18.9937021 L339.936383,18.9937021 L339.936383,17.8007234 L335.81617,17.8007234 L335.81617,18.9937021 Z M335.81617,15.9624255 L339.936383,15.9624255 L339.936383,14.7049787 L335.81617,14.7049787 L335.81617,15.9624255 Z M338.738936,25.1532766 C338.034894,24.1862553 337.507021,23.2830638 337.012979,22.2509362 C336.344043,22.5732766 335.64,22.8637021 334.935319,23.1215745 L334.935319,25.8630638 L338.738936,25.1532766 Z M332.012553,9.93242553 L334.266383,9.93242553 L334.266383,8.57795745 L332.012553,8.57795745 L332.012553,9.93242553 Z M340.14766,2.12859574 C340.112553,2.96668085 339.86617,3.25710638 339.267447,3.80540426 L348.14234,3.80540426 L348.14234,5.57859574 L328.631489,5.57859574 L328.631489,3.80540426 L336.344043,3.80540426 C336.132766,3.67582979 335.886383,3.54753191 335.781064,3.35412766 C335.393617,2.90221277 335.64,1.32178723 334.900213,0.870510638 L334.301489,0.515617021 L334.37234,0.257744681 C335.781064,0.0643404255 340.218511,0.128808511 340.14766,2.12859574 Z M338.52766,6.93306383 L338.52766,6.38540426 L341.94383,6.38540426 L341.94383,6.96561702 L343.845957,6.96561702 L344.867234,6.09497872 L348.318511,6.96561702 L347.191915,7.80370213 L347.191915,11.609234 L338.52766,11.609234 L338.52766,7.12710638 L337.365957,7.73923404 L337.365957,11.6411489 L328.560638,11.6411489 L328.560638,6.38540426 L332.012553,6.38540426 L332.012553,6.96561702 L334.161064,6.96561702 L335.322766,5.96604255 L338.52766,6.93306383 Z M322.538298,25.2822128 L324.299362,25.2822128 L324.299362,19.8005106 L322.538298,19.8005106 L322.538298,25.2822128 Z M318.981064,14.9309362 L327.504894,14.9309362 L327.504894,12.9637021 L318.981064,12.9637021 L318.981064,14.9309362 Z M318.981064,10.5771064 L327.504894,10.5771064 L327.504894,8.57795745 L318.981064,8.57795745 L318.981064,10.5771064 Z M324.193404,17.8007234 L325.496809,16.6722128 L328.913617,17.8651915 L327.856596,18.6713617 L327.856596,24.1217872 C330.216383,23.1215745 331.554894,22.3479574 333.631915,20.8645532 L328.419574,20.8645532 L328.419574,18.9937021 L331.519149,18.9937021 L331.519149,17.8007234 L329.018936,17.8007234 L329.018936,15.9624255 L331.519149,15.9624255 L331.519149,14.7049787 L328.983191,14.7049787 L328.983191,12.9637021 L331.519149,12.9637021 L331.519149,11.9641277 L335.81617,11.9641277 L335.81617,12.9637021 L339.936383,12.9637021 L339.936383,11.9641277 L344.268511,11.9641277 L344.268511,12.9637021 L347.790638,12.9637021 L347.790638,14.7049787 L344.268511,14.7049787 L344.268511,15.9624255 L347.649574,15.9624255 L347.649574,17.8007234 L344.268511,17.8007234 L344.268511,18.9937021 L348.529787,18.9937021 L348.529787,20.8645532 L344.691702,20.8645532 L348.459574,22.4124255 C346.275957,23.3800851 344.303617,23.7988085 341.94383,24.3790213 C344.479787,25.3466809 346.275957,25.7985957 349.023191,26.088383 L349.023191,26.3143404 C348.213191,26.6366809 347.297234,27.2175319 347.297234,28.1200851 C347.297234,28.5068936 347.473404,28.9588085 347.578723,29.3130638 L347.368085,29.5071064 C344.128085,28.7654043 341.94383,27.7977447 339.407872,25.7660426 C336.767234,27.3139149 334.407447,28.6039149 331.519149,29.7649787 L329.828298,26.6366809 C330.32234,26.5402979 330.638936,26.4113617 330.638936,25.8949787 L330.638936,24.3790213 C329.722979,24.5730638 328.80766,24.7664681 327.856596,24.8954043 L327.856596,28.8943404 L324.299362,28.8943404 L324.299362,27.2494468 L322.538936,27.2494468 L322.538936,28.7973191 L318.805532,28.7973191 L318.805532,16.865617 L322.538936,16.865617 L322.538936,17.8007234 L324.193404,17.8007234 Z M322.045532,4.0632766 C321.622979,3.64391489 321.975319,1.80561702 321.375957,1.22540426 L320.918298,0.77412766 L321.094468,0.548170213 C322.468085,0.548170213 324.088085,0.354765957 325.637872,1.64476596 C326.09617,2.03157447 326.201489,2.54731915 326.09617,3.12817021 C326.024681,3.6113617 325.919362,3.93434043 325.320638,4.45008511 L328.068511,4.45008511 L328.068511,6.38540426 L318.171702,6.38540426 L318.171702,4.45008511 L322.538936,4.45008511 C322.362128,4.35306383 322.186596,4.22412766 322.045532,4.0632766 Z" id="Fill-11"></path>
                <path d="M370.185957,18.8002979 L374.377021,18.8002979 L374.377021,10.7385957 L370.185957,10.7385957 L370.185957,18.8002979 Z M356.204681,8.57795745 L356.204681,2.16051064 L361.134894,2.16051064 L361.134894,8.57795745 L365.325957,8.57795745 L365.325957,0.77412766 L370.185957,0.77412766 L370.185957,8.57795745 L374.377021,8.57795745 L374.377021,0.806042553 L379.307872,0.806042553 L379.307872,8.57795745 L384.132766,8.57795745 L384.132766,10.7385957 L379.307872,10.7385957 L379.307872,23.1215745 L374.377021,23.1215745 L374.377021,20.8964681 L370.185957,20.8964681 L370.185957,23.0896596 L365.325957,23.0896596 L365.325957,10.7385957 L361.134894,10.7385957 L361.134894,26.3468936 L382.194894,26.3468936 L382.194894,28.4105106 L361.028936,28.4105106 L359.691064,29.4745532 L354.442979,28.055617 L356.204681,26.669234 L356.204681,10.7385957 L353.07,10.7385957 L353.07,8.57795745 L356.204681,8.57795745 Z" id="Fill-12"></path>
                <path d="M406.28234,11.8996596 L411.670213,11.8996596 L411.670213,8.7713617 L406.28234,8.7713617 L406.28234,11.8996596 Z M406.28234,6.83604255 L411.670213,6.83604255 L411.670213,3.64391489 L406.28234,3.64391489 L406.28234,6.83604255 Z M396.21,11.8996596 L401.42234,11.8996596 L401.42234,8.7713617 L396.21,8.7713617 L396.21,11.8996596 Z M396.21,6.83604255 L401.42234,6.83604255 L401.42234,3.64391489 L396.21,3.64391489 L396.21,6.83604255 Z M396.21,13.8024255 L396.21,14.8664681 L391.384468,14.8664681 L391.384468,1.06391489 L396.21,1.06391489 L396.21,1.70923404 L411.564894,1.70923404 L412.973617,0.548170213 L418.221702,1.51582979 L416.565957,2.70880851 L416.565957,14.898383 L411.670213,14.898383 L411.670213,13.8024255 L406.176383,13.8024255 C406.951915,14.2537021 407.761277,14.6724255 408.571277,15.0917872 C411.072128,16.3498723 416.63617,16.6722128 419.524468,16.704766 L419.630426,17.0590213 C419.348298,17.1879574 419.101915,17.3494468 418.854894,17.5428511 C418.221702,17.994766 417.72766,19.1232766 417.72766,19.8649787 C417.72766,20.154766 417.868723,20.4451915 417.974681,20.7030638 L417.658085,20.9615745 C415.932128,20.5741277 414.20617,20.0902979 412.515319,19.5100851 L412.515319,29.6034894 L407.55,29.6034894 L407.55,18.3490213 L409.592553,18.3490213 C407.374468,17.2524255 406.352553,16.5751915 404.838511,14.7375319 C402.126383,16.4143404 399.590426,17.5428511 396.421277,18.4134894 L400.189787,18.4779574 C399.977872,19.6390213 399.836809,20.8000851 399.45,21.9605106 C398.81617,23.8313617 397.547872,25.2177447 396.033191,26.5722128 C394.519149,27.9585957 390.926809,29.0232766 388.92,29.6034894 L388.637872,29.3130638 C391.631489,27.5398723 393.991277,25.5400851 394.483404,22.122 C394.660213,21.0579574 394.660213,19.9939149 394.695319,18.8973191 C392.511702,19.3166809 390.292979,19.6715745 388.074255,19.8324255 L387.93383,19.4775319 C390.434043,18.768383 393.005106,17.8977447 395.188085,16.5432766 C396.527234,15.7371064 397.935957,14.8664681 399.09766,13.8024255 L396.21,13.8024255 Z" id="Fill-13"></path>
                <path d="M434.418511,26.1860426 L445.512766,26.1860426 L445.512766,24.6700851 L434.418511,24.6700851 L434.418511,26.1860426 Z M434.418511,22.6702979 L445.512766,22.6702979 L445.512766,21.1868936 L434.418511,21.1868936 L434.418511,22.6702979 Z M434.418511,19.1551915 L445.512766,19.1551915 L445.512766,17.639234 L434.418511,17.639234 L434.418511,19.1551915 Z M423.887872,20.1873191 C425.578085,19.2522128 427.691489,17.5428511 428.994894,16.2209362 C429.522766,15.6726383 430.01617,15.0917872 430.508936,14.5115745 C431.037447,13.8988085 431.565957,13.2541277 431.988511,12.5768936 L424.099787,12.5768936 L424.099787,10.5771064 L433.326383,10.5771064 C433.925106,9.80348936 434.277447,8.93285106 434.7,8.09412766 L426.705319,8.12668085 L426.705319,6.09497872 L435.580213,6.09497872 C435.757021,5.48221277 435.968298,4.86944681 436.108723,4.25668085 C432.72766,4.12774468 429.276383,3.96689362 425.931064,3.41859574 L425.931064,3.03114894 C431.178511,2.90221277 436.390851,2.25753191 441.53234,1.4832766 C443.364255,1.19285106 445.159787,0.90306383 446.921489,0.451787234 L452.098085,3.22455319 C448.752766,3.99880851 445.195532,4.19221277 441.778723,4.28859574 C441.603191,4.9013617 441.391915,5.48221277 441.145532,6.09497872 L452.06234,6.09497872 L452.06234,8.12668085 L440.264681,8.09412766 C439.771915,8.93285106 439.348723,9.77093617 438.820213,10.5771064 L454.986383,10.5771064 L454.986383,12.5768936 L437.271064,12.5768936 C436.390851,13.608383 435.474894,14.4471064 434.418511,15.3177447 L434.418511,15.6400851 L445.371702,15.6400851 L446.674468,14.4151915 L452.239149,15.2851915 L450.970851,16.4788085 L450.970851,29.4426383 L445.512766,29.4426383 L445.512766,28.1200851 L434.418511,28.1200851 L434.418511,29.4426383 L429.100213,29.4426383 L429.100213,18.4779574 C427.445106,19.2522128 425.860213,19.8968936 424.134894,20.5422128 L423.887872,20.1873191 Z" id="Fill-14"></path>
                <path d="M487.313617,20.1870638 C487.348723,21.2511064 487.383191,23.4442979 487.946809,24.3149362 C488.581277,25.3464255 490.16617,25.1536596 490.16617,25.7019574 C490.16617,25.9591915 489.778085,26.6689787 489.672766,26.9268511 C488.616383,29.2489787 485.94,29.1519574 483.579574,29.1519574 L482.946383,29.1519574 C481.607872,29.1519574 479.318936,29.1845106 478.01617,28.9585532 C476.641915,28.7006809 475.831915,27.8619574 475.831915,26.5719574 L475.831915,18.0264255 L480.868085,18.0264255 L480.868085,25.9917447 C480.868085,26.8949362 482.664894,26.7334468 483.262979,26.7334468 C483.685532,26.7334468 484.284255,26.7334468 484.671702,26.5400426 C485.094255,26.3466383 485.341277,25.8302553 485.446596,25.4434468 C486.010213,23.7021702 486.397021,21.9934468 486.644043,20.1870638 L487.313617,20.1870638 Z M467.485532,15.2536596 L482.24234,15.2536596 L482.24234,12.8025957 L467.485532,12.8025957 L467.485532,15.2536596 Z M467.485532,10.7708936 L482.24234,10.7708936 L482.24234,7.99748936 L467.485532,7.99748936 L467.485532,10.7708936 Z M467.485532,5.96642553 L482.24234,5.96642553 L482.24234,3.64429787 L467.485532,3.64429787 L467.485532,5.96642553 Z M482.136383,1.61195745 L483.404043,0.000255319149 L488.82766,1.03174468 L487.242766,2.64408511 L487.242766,18.2198298 L482.24234,18.2198298 L482.24234,17.2847234 L467.485532,17.2847234 L467.485532,18.0264255 L462.519574,18.0264255 L462.519574,1.03174468 L467.485532,1.03174468 L467.485532,1.61195745 L482.136383,1.61195745 Z M463.575957,26.3140851 C464.879362,25.4115319 465.900638,24.3474894 466.358298,22.896 C466.851064,21.2836596 467.06234,19.7357872 467.238511,18.0908936 L472.591915,18.0908936 C472.486596,19.3489787 472.309787,20.5419574 471.958085,21.7674894 C471.254043,24.1534468 469.281702,25.6374894 467.06234,26.862383 C464.843617,28.1204681 461.251915,28.9904681 458.715957,29.538766 L458.469574,29.1519574 C460.23,28.3457872 461.991064,27.4106809 463.575957,26.3140851 Z" id="Fill-15"></path>
                <path d="M504.250851,24.9279574 L516.330638,24.9279574 L516.330638,16.7366809 L504.250851,16.7366809 L504.250851,24.9279574 Z M504.250851,13.4794468 L504.250851,14.7049787 L516.154468,14.7049787 L517.809574,13.2215745 L523.233191,14.2211489 L521.542979,15.7371064 L521.542979,29.4100851 L516.330638,29.4100851 L516.330638,27.0241277 L504.250851,27.0241277 L504.250851,29.4745532 L499.002766,29.4745532 L499.002766,13.4794468 L504.250851,13.4794468 Z M511.963404,0.806042553 C511.294468,1.51582979 510.590426,2.16051064 509.885745,2.83774468 C507.490851,5.09540426 502.489149,7.28795745 499.249149,8.41646809 C501.433404,8.41646809 503.616383,8.41646809 505.764894,8.38455319 C510.026809,8.32008511 514.252979,8.12668085 518.479149,8.02965957 C517.034681,5.67561702 515.203404,3.93434043 512.773404,2.41838298 L513.160851,2.16051064 C516.541915,3.25710638 519.465319,3.12817021 522.775532,5.74008511 C523.796809,6.54625532 525.310851,8.70689362 525.310851,9.99689362 C525.310851,11.4158298 523.902128,12.0930638 522.493404,12.0930638 C521.965532,12.0930638 520.838298,11.7707234 520.521064,11.3188085 C520.098511,10.7066809 519.711702,10.0939149 519.324255,9.44859574 L518.901702,8.7713617 C516.858511,9.41668085 514.780851,9.96434043 512.668085,10.4162553 C507.384894,11.5766809 501.644043,11.9315745 496.25617,12.4154043 L495.481277,8.32008511 C495.939574,8.28753191 496.396596,8.22306383 496.819787,8.12668085 C497.558936,7.9326383 498.757021,6.93306383 499.284894,6.48178723 C501.362553,4.74051064 503.124255,3.09561702 504.497234,0.806042553 L511.963404,0.806042553 Z" id="Fill-16"></path>
                <path d="M559.681277,16.188383 C559.434894,16.188383 559.153404,16.1564681 558.906383,16.0275319 C558.236809,15.7045532 558.308298,15.2532766 558.272553,14.6079574 C558.236809,14.1566809 558.167234,13.7054043 557.991064,13.2860426 C557.814255,12.834766 557.567872,12.3834894 557.286383,11.9960426 L557.638723,11.8026383 C558.518936,12.3509362 559.399787,12.9637021 560.209149,13.608383 C560.667447,13.9632766 561.125745,14.4471064 561.125745,15.0273191 C561.125745,15.8660426 560.526383,16.188383 559.681277,16.188383 Z M556.088936,15.9624255 C555.349787,15.9624255 554.821277,15.5437021 554.821277,14.8664681 C554.821277,14.4151915 554.891489,13.9307234 554.891489,13.4475319 C554.891489,12.7377447 554.715319,12.4798723 554.398723,11.8026383 L554.821277,11.6737021 C555.77234,12.4154043 557.462553,13.608383 557.462553,14.8339149 C557.462553,15.6081702 556.899574,15.9624255 556.088936,15.9624255 Z M556.124043,7.57838298 L553.447021,9.67455319 L557.286383,9.06178723 C556.86383,8.25561702 556.828085,8.22306383 556.124043,7.57838298 Z M559.222979,11.4802979 C557.955319,11.4802979 557.955319,10.8994468 557.567872,9.89987234 C555.807447,10.6096596 553.97617,11.1579574 552.179362,11.8026383 L550.806383,9.99689362 C552.566809,9.25519149 553.658936,8.02965957 554.750426,6.6107234 L551.334255,7.41689362 L550.876596,5.51412766 C551.123617,5.38519149 551.334255,5.22434043 551.581277,5.06285106 C552.673404,4.22412766 553.62383,1.67668085 554.082128,0.451787234 L557.427447,0.999446809 C556.617447,1.96710638 555.631277,3.22455319 554.61,4.0313617 L552.778723,5.48221277 L555.560426,5.28880851 C556.124043,4.45008511 556.300213,4.09582979 556.722766,3.12817021 L560.068085,3.6113617 C558.941489,4.96582979 557.991064,5.96604255 556.722766,7.22348936 C557.920213,7.70731915 560.703191,8.70689362 560.703191,10.158383 C560.703191,10.8675319 559.998511,11.4802979 559.222979,11.4802979 Z M546.791489,14.2211489 L548.481702,14.2211489 L548.481702,12.3509362 L546.791489,12.3509362 L546.791489,14.2211489 Z M544.361489,6.86859574 L550.524255,6.86859574 L550.524255,5.51412766 L544.361489,5.51412766 L544.361489,6.86859574 Z M544.290638,9.38412766 L550.595106,9.38412766 L550.595106,8.02965957 L544.290638,8.02965957 L544.290638,9.38412766 Z M543.163404,4.25668085 L543.163404,2.80582979 L546.439149,2.80582979 C545.523191,1.9026383 546.368936,1.64476596 544.960213,0.483702128 L545.276809,0.193276596 C546.474894,0.128808511 549.186383,0.225829787 549.151277,1.9026383 C549.151277,2.25753191 548.869787,2.57987234 548.622766,2.80582979 L551.193191,2.80582979 L551.193191,4.25668085 L543.163404,4.25668085 Z M554.61,22.0575319 L554.61,21.444766 L542.283191,21.444766 L541.930851,22.8637021 L555.736596,22.8637021 L557.004894,22.0575319 L554.61,22.0575319 Z M540.099574,16.6722128 C539.535957,16.6722128 539.254468,16.4788085 539.254468,15.9305106 C539.254468,15.2532766 539.641277,14.6405106 539.641277,13.9632766 C539.641277,13.3505106 539.535957,12.7377447 539.500851,12.1249787 L539.923404,12.0605106 C540.804255,12.9962553 541.825532,14.0277447 541.825532,15.3502979 C541.825532,16.3173191 541.085745,16.6722128 540.099574,16.6722128 Z M540.804255,8.38455319 L538.937234,9.86795745 L541.402979,9.48114894 C541.226809,9.06178723 541.085745,8.7713617 540.804255,8.38455319 Z M560.174043,24.089234 C559.962766,25.2822128 559.82234,26.4758298 559.47,27.6043404 C558.941489,29.1841277 557.356596,29.4745532 555.807447,29.6034894 C555.24383,29.6679574 554.680213,29.7005106 554.116596,29.7005106 C553.060213,29.7005106 553.835106,28.9588085 552.919149,28.2171064 C552.460851,27.8296596 550.454043,27.5398723 549.855319,27.4754043 L549.960638,26.9915745 C551.228936,27.0885957 552.496596,27.2175319 553.764255,27.2175319 C554.61,27.2175319 555.384894,27.1205106 555.560426,26.2173191 C555.701489,25.5726383 555.807447,24.9273191 555.913404,24.3145532 L541.508298,24.3145532 L540.029362,25.5726383 L536.54234,24.089234 L538.021915,23.0896596 L538.726596,19.542 L542.705745,19.6390213 L542.565319,19.9939149 L554.61,19.9939149 L554.61,18.6394468 L538.550426,18.6394468 L538.550426,17.0915745 L554.468936,17.0915745 L555.87766,16.1564681 L560.174043,16.8011489 L558.695106,17.8977447 L558.695106,22.0575319 L557.49766,22.0575319 L561.476809,23.1541277 L560.174043,24.089234 Z M552.179362,16.2528511 C551.792553,16.2528511 551.440213,16.1239149 551.193191,15.8334894 L551.193191,16.4788085 L548.481702,16.4788085 L548.481702,15.5437021 L546.791489,15.5437021 L546.791489,16.4788085 L544.044255,16.4788085 L544.044255,15.8334894 C543.727021,15.9949787 543.304468,16.188383 542.952766,16.188383 C542.671277,16.188383 542.530213,16.092 542.459362,15.8660426 C542.142128,15.1243404 542.177234,14.2862553 542.03617,13.4794468 C541.930851,12.8666809 541.754681,12.5443404 541.473191,11.9641277 L541.860638,11.8026383 C542.635532,12.3834894 543.444894,13.0281702 544.044255,13.7698723 L544.044255,11.1898723 C543.657447,11.3188085 543.234255,11.4477447 542.811702,11.4477447 C542.10766,11.4477447 541.825532,10.932 541.685106,10.3837021 C540.204894,10.932 538.761702,11.609234 537.282128,12.1894468 L535.978723,10.2873191 C537.845745,9.54561702 538.338511,8.80391489 539.430638,7.28795745 L536.964894,8.28753191 L535.662128,6.44987234 C535.909149,6.32093617 536.155532,6.15944681 536.366809,5.96604255 C536.789362,5.61114894 538.232553,2.83774468 538.409362,2.19306383 L538.690851,1.22540426 L542.424255,1.70923404 C541.156596,3.38604255 539.571702,4.77242553 537.951064,6.15944681 L540.416809,5.67561702 C540.733404,5.22434043 540.909574,4.80497872 541.156596,4.32114894 L544.255532,4.9013617 L541.332128,7.86817021 C542.671277,8.48093617 544.220426,9.02923404 544.431064,10.5451915 L546.791489,10.5451915 L546.791489,11.0609362 L548.375745,11.0609362 L549.326809,10.3837021 L551.82766,11.544766 L551.193191,11.9315745 L551.193191,14.898383 C552.109787,13.8668936 552.460851,13.2215745 552.742979,11.8671064 L553.165532,11.8671064 C553.518511,12.7377447 553.870213,13.7054043 553.870213,14.6405106 C553.870213,15.5437021 553.236383,16.2528511 552.179362,16.2528511 Z M534.711064,5.99795745 C533.12617,5.99795745 532.738723,5.44965957 532.457234,4.12774468 C532.31617,3.57944681 532.069787,3.06370213 531.752553,2.57987234 C531.33,1.93455319 530.696809,1.38689362 530.097447,0.870510638 L530.449787,0.548170213 C532.069787,0.90306383 536.859574,1.61221277 536.754255,4.0313617 C536.718511,5.12731915 535.944255,5.99795745 534.711064,5.99795745 Z M533.514255,12.5768936 C532.738723,12.5768936 531.858511,12.1894468 531.647234,11.4477447 C531.400851,10.4807234 531.471064,9.31965957 530.943191,8.41646809 C530.696809,7.96519149 530.168298,7.44944681 529.745745,7.09455319 L530.168298,6.77221277 C531.365745,7.12710638 533.830851,8.02965957 534.887234,8.73944681 C535.486596,9.15817021 535.944255,10.2228511 535.944255,10.8349787 C535.944255,11.9641277 534.57,12.5768936 533.514255,12.5768936 Z M536.683404,17.639234 C536.331702,17.639234 535.978723,17.5102979 535.662128,17.382 C535.662128,19.6715745 535.521064,21.8960426 535.204468,24.1537021 C535.064043,25.0568936 534.992553,26.0239149 534.675957,26.9271064 L534.077872,28.7009362 L529.25234,24.9598723 C531.858511,21.8960426 533.655319,18.1875319 534.711064,14.4151915 L535.274681,14.4471064 L535.55617,16.0275319 C536.964894,14.8664681 537.669574,13.8988085 538.127234,12.1575319 L538.550426,12.1575319 C538.726596,12.9962553 538.937234,13.8024255 538.937234,14.6724255 C538.937234,15.9305106 538.373617,17.639234 536.683404,17.639234 Z" id="Fill-17"></path>
                <path d="M581.971851,19.4131915 L579.82334,19.4131915 L577.921851,3.22468085 L584.049511,3.22468085 L581.971851,19.4131915 Z M581.513553,27.4748936 C580.563128,27.636383 579.576957,27.4104255 578.83717,26.7657447 C578.062915,26.1210638 577.745681,25.2823404 577.815894,24.3146809 C577.886745,23.5410638 578.273553,22.8638298 578.943128,22.3480851 C579.682277,21.7997872 580.598872,21.5738298 581.549298,21.702766 C582.394404,21.8317021 583.204404,22.38 583.662064,23.0253191 C583.944191,23.4440426 584.120362,23.8953191 584.155468,24.347234 C584.190574,24.7665957 584.120362,25.1853191 583.979936,25.572766 C583.626957,26.6048936 582.640787,27.2821277 581.513553,27.4748936 Z" id="Fill-18"></path>
            </g>
        </g>
    </g>
</svg>