<?xml version="1.0" encoding="utf-8"?>
<!-- Generator: Adobe Illustrator 22.0.1, SVG Export Plug-In . SVG Version: 6.00 Build 0)  -->
<svg version="1.1" id="圖層_1" xmlns="http://www.w3.org/2000/svg" xmlns:xlink="http://www.w3.org/1999/xlink" x="0px" y="0px"
	 viewBox="0 0 370 78" style="enable-background:new 0 0 370 78;" xml:space="preserve">
<style type="text/css">
	.st0{filter:url(#filter-1);}
	.st1{fill:#AEDEF4;}
	.st2{fill:#A96F3D;}
	.st3{filter:url(#Adobe_OpacityMaskFilter);}
	.st4{fill:#FFFFFF;}
	.st5{mask:url(#mask-3_10_);fill:#A96F3D;}
	.st6{filter:url(#Adobe_OpacityMaskFilter_1_);}
	.st7{mask:url(#mask-3_9_);fill:#A96F3D;}
	.st8{filter:url(#Adobe_OpacityMaskFilter_2_);}
	.st9{mask:url(#mask-3_8_);fill:#A96F3D;}
	.st10{filter:url(#Adobe_OpacityMaskFilter_3_);}
	.st11{mask:url(#mask-3_7_);fill:#A96F3D;}
	.st12{filter:url(#Adobe_OpacityMaskFilter_4_);}
	.st13{mask:url(#mask-3_6_);fill:#A96F3D;}
</style>
<filter  filterUnits="objectBoundingBox" height="131.8%" id="filter-1" width="105.9%" x="-2.1%" y="-11.4%">
	<feOffset  dx="3" dy="3" in="SourceAlpha" result="shadowOffsetOuter1"></feOffset>
	<feGaussianBlur  in="shadowOffsetOuter1" result="shadowBlurOuter1" stdDeviation="3"></feGaussianBlur>
	
		<feColorMatrix  in="shadowBlurOuter1" result="shadowMatrixOuter1" type="matrix" values="0 0 0 0 0   0 0 0 0 0   0 0 0 0 0  0 0 0 0.5 0">
		</feColorMatrix>
	<feMerge>
		<feMergeNode  in="shadowMatrixOuter1"></feMergeNode>
		<feMergeNode  in="SourceGraphic"></feMergeNode>
	</feMerge>
</filter>
<title>Group 4</title>
<desc>Created with Sketch.</desc>
<g id="Desktop-HD-II-I" transform="translate(-538.000000, -3977.000000)">
	<g id="Group-4" transform="translate(541.000000, 3980.000000)" class="st0">
		<path id="Rectangle-3-Copy-6_1_" class="st1" d="M33,0h292c18.2,0,33,14.8,33,33l0,0c0,18.2-14.8,33-33,33H33C14.8,66,0,51.2,0,33
			l0,0C0,14.8,14.8,0,33,0z"/>
	</g>
</g>
<g id="Group-9-Copy" transform="translate(56.736607, 14.487805)">
	<path id="Fill-1" class="st2" d="M32.4,4.4c2.2,0.3,5.2,0.5,7,2C40,7,40.7,7.8,40.7,8.7c0,1.4-1.1,2.6-2.5,2.6
		c-0.6,0-1.3-0.1-1.8-0.4c-2.2-1.2-1.7-3.3-2.3-4.2c-0.4-0.7-1.2-1.4-1.9-2L32.4,4.4z M3.1,12.3h9.5V7.8C9.3,7.7,7.2,7.4,4,6.9V6.5
		c2.9-0.4,6.4-1,9.2-1.8c1.5-0.4,3-1.1,4.5-1.6l6.5,2.7c-1.7,0.6-3.4,1-5.2,1.5v5.1h6c0-0.6,0-1.3,0-1.9c0-2.4,0.1-4.8,0.2-7.2h6.6
		c-0.2,3-0.2,6.1-0.3,9.1h11v2.6H31.4c0,1,0,2,0,3c0,1.7,0.2,3.3,0.3,5c1.1-1.7,1.9-3.4,2.6-5.3l6.6,0.6c-0.7,1.5-1.3,3-2.1,4.4
		c-1.3,2.5-3.7,4.6-5.9,6.5c0.3,1.6,0.7,2.7,1.9,4c0.3,0.3,1.1,1.2,1.6,1.2c0.4,0,0.7-0.3,1-0.6c1-1,2.3-2.9,3-4.1l0.6,0.1
		c-0.4,1.2-1.1,2.4-1.1,3.6c0,1.5,2,1.4,2,1.9c0,0.2-0.2,0.7-0.4,0.9c-1.2,2.2-3.1,3.7-5.9,3.7c-1.5,0-2.7-0.3-3.8-1.2
		c-1-0.8-1.9-1.6-2.7-2.6c-0.9-1.1-1.5-2.4-2-3.6c-2.4,1-4.9,1.8-7.5,2.4l-0.4-0.3c1.3-0.9,2.6-1.7,3.8-2.6c1.1-0.8,2.2-1.8,3.2-2.8
		c-0.3-1.5-0.6-3-0.8-4.4C25,21.4,25,18.2,25,14.9h-6v5.8c1.8-0.4,3.6-1.1,5.4-1.7l0.2,0.4c-1.7,1.9-3.4,3.1-5.6,4.5v11.8
		c0,1.1-0.4,1.8-1.1,2.6c-0.8,0.9-3.7,1.2-4.8,1.3c-0.9,0.1-1.8,0.2-2.7,0.2c-0.4,0-1.7,0-1.9-0.4c-0.1-0.2-0.1-0.5-0.1-0.7
		c0-2.2-2.9-2.7-4.7-3.1l0.1-0.4c2.2,0.1,4.5,0.3,6.7,0.3c1.1,0,2.2-0.2,2.2-1.3v-7.7c-2.6,0.9-5.3,1.7-8,2.5L3,23.8
		c3.3-0.3,6.5-0.9,9.7-1.5v-7.3H3.1V12.3z"/>
	<g id="Clip-4">
	</g>
	<defs>
		<filter id="Adobe_OpacityMaskFilter" filterUnits="userSpaceOnUse" x="47.7" y="4.2" width="38.8" height="35.3">
			<feColorMatrix  type="matrix" values="1 0 0 0 0  0 1 0 0 0  0 0 1 0 0  0 0 0 1 0"/>
		</filter>
	</defs>
	<mask maskUnits="userSpaceOnUse" x="47.7" y="4.2" width="38.8" height="35.3" id="mask-3_10_">
		<g class="st3">
			<polygon id="path-2_10_" class="st4" points="3,39.8 248.3,39.8 248.3,3 3,3 			"/>
		</g>
	</mask>
	<path id="Fill-3" class="st5" d="M74.5,17.4h3v-4.6h-3V17.4z M65.8,17.4h3.1v-4.6h-3.1V17.4z M65.8,10h3.1V6.9h-3.1V10z M67.8,30.9
		c1.8-1.6,2.3-2.2,3.7-4.1H65c-0.7,0.6-1.4,1.2-2.2,1.8c-0.6,0.5-1.3,1-1.9,1.5C63.2,30.3,65.5,30.6,67.8,30.9z M57.1,17.4h3v-4.6
		h-3V17.4z M48.8,4.3l36.7,0v2.7H74.5V10h2.9l1.5-1.6l6.7,1.1L84,11.2v10h-6.5v-1.1H57.1v1.2h-6.7V9h6.7v1h3V6.9H48.8V4.3z
		 M67.9,23.9h18.6v2.9h-7.4c-1.4,2-2.9,3.8-4.8,5.5C76.4,32.8,85,35,85,37.5c0,1.1-1.1,2-2.3,2c-1.8,0-5.4-1.7-6.8-2.3
		c-1.9-0.8-3.8-1.5-5.7-2.2c-1.7,0.9-3.4,1.7-5.2,2.3c-5.1,1.7-11.1,2-16.4,2.2l-0.1-0.4c5.7-1.1,11.2-3,16.1-5.9
		c-3.7-1-7.3-1.8-11.1-2.3c1.6-1.3,3.1-2.7,4.5-4.2H47.7v-2.9h12.9c0.7-0.7,1.2-1.6,1.7-2.4h7.6C69.3,22.3,68.6,23.1,67.9,23.9z"/>
	<defs>
		<filter id="Adobe_OpacityMaskFilter_1_" filterUnits="userSpaceOnUse" x="91.7" y="3" width="40.1" height="36.7">
			<feColorMatrix  type="matrix" values="1 0 0 0 0  0 1 0 0 0  0 0 1 0 0  0 0 0 1 0"/>
		</filter>
	</defs>
	<mask maskUnits="userSpaceOnUse" x="91.7" y="3" width="40.1" height="36.7" id="mask-3_9_">
		<g class="st6">
			<polygon id="path-2_9_" class="st4" points="3,39.8 248.3,39.8 248.3,3 3,3 			"/>
		</g>
	</mask>
	<path id="Fill-5" class="st7" d="M119,9.5c-2.7-1.3-4.4-2.4-6.5-4.5c-2.6,1.9-4.8,3.1-7.8,4.5H119z M103.1,18.3h16.6v-2h-16.6V18.3
		z M103.1,12.9v0.8h16.4l1.7-1.5l6.8,1.2l-1.7,1.5v6.6h-6.6v-0.7h-16.6v1.2h-6.7v-9.1H103.1z M108.1,31v-1.6H94.9l0-2.5h13.2v-1.1
		c-4.8-0.2-9.7-0.6-14.5-1.4l0.1-0.5c9,0,18.2-0.7,27-2.2l8.4,2.5c-4.5,1.1-9.3,1.4-14,1.6v1.1h12.3v2.5h-12.3V31h15.8v2.6h-15.8
		c0,0.9,0.2,3.9-0.4,4.6c-1.2,1.5-6.2,1.6-8,1.6h-0.4c-1.3,0-0.7-0.7-1.2-1.7c-0.7-1.5-2.9-1.7-4.3-1.8l0.1-0.7
		c1.5,0.1,3,0.1,4.5,0.1c2.8,0,2.7,0.2,2.7-2.2H92.2V31H108.1z M104.9,3h9.7l-0.7,0.7c5.3,2.4,12,3.5,17.8,3.8l0,0.4
		c-2.5,0.6-4,2.1-2.2,4.2l-0.4,0.4c-3.1-0.7-6-1.5-9-2.6v2h-17.6v-1.8c-3.6,1.4-6.7,2.2-10.5,3l-0.3-0.4C97.3,10,100.7,7.5,104.9,3z
		"/>
	<defs>
		<filter id="Adobe_OpacityMaskFilter_2_" filterUnits="userSpaceOnUse" x="135.7" y="3.1" width="40.1" height="36.5">
			<feColorMatrix  type="matrix" values="1 0 0 0 0  0 1 0 0 0  0 0 1 0 0  0 0 0 1 0"/>
		</filter>
	</defs>
	<mask maskUnits="userSpaceOnUse" x="135.7" y="3.1" width="40.1" height="36.5" id="mask-3_8_">
		<g class="st8">
			<polygon id="path-2_8_" class="st4" points="3,39.8 248.3,39.8 248.3,3 3,3 			"/>
		</g>
	</mask>
	<path id="Fill-6" class="st9" d="M152.1,11.9c0-0.7,0.1-1.4,0.1-2.1c0-2.2-0.1-4.5-0.1-6.7h7.1c-0.1,3-0.3,5.9-0.4,8.8h15.7v2.8
		h-15.2c1.7,5.9,5.8,11.3,10.4,15.6c1.7,1.7,3.9,2.9,6.2,3.9l-0.2,0.6c-1.6,0.2-3,0.5-3.6,2.1c-0.1,0.2-0.1,0.5-0.1,0.7
		c0,0.6,0.3,1.2,0.5,1.7l-0.5,0.3c-0.8-0.3-1.6-0.7-2.3-1.1c-1-0.5-1.9-1.3-2.7-1.9c-4.3-3.4-7.1-8.2-8.3-13.3l-1.1-4.8
		c-0.5,1.4-1,2.7-1.5,4.1c-2,5.2-6.4,9.4-11.2,12.4c-2.6,1.6-5.5,2.8-8.3,3.9l-0.5-0.4c5-3.4,8.6-7,11.5-12.1
		c2.2-3.9,3.5-7.4,4.2-11.8h-14.6v-2.8H152.1z"/>
	<defs>
		<filter id="Adobe_OpacityMaskFilter_3_" filterUnits="userSpaceOnUse" x="179.2" y="3" width="40.8" height="36.8">
			<feColorMatrix  type="matrix" values="1 0 0 0 0  0 1 0 0 0  0 0 1 0 0  0 0 0 1 0"/>
		</filter>
	</defs>
	<mask maskUnits="userSpaceOnUse" x="179.2" y="3" width="40.8" height="36.8" id="mask-3_7_">
		<g class="st10">
			<polygon id="path-2_7_" class="st4" points="3,39.8 248.3,39.8 248.3,3 3,3 			"/>
		</g>
	</mask>
	<path id="Fill-7" class="st11" d="M202.2,6.7l-0.5,0.2c1.3,0.1,5.5,0.3,5.9,1.8l0.2,0.7c1.5-0.9,2.5-1.6,3.8-2.8H202.2z
		 M215.4,16.8v4.4c0,1.9-0.3,2.4-2.2,3.1c-1.1,0.4-2.2,0.5-3.4,0.5c-1.8,0-0.2-1.3-1.7-2.2c-0.5-0.3-3-0.8-3.6-0.9v-0.3
		c-0.5,0.1-1,0.2-1.5,0.2c-1.3-0.1-1.9-1-2.2-2.4c-0.1-0.8-0.7-1.1-1.3-1.7l0.2-0.3c1.4,0.2,6,0.2,5.9,2.4c0,1-0.1,1-0.8,1.7
		c1.4,0.1,2.7,0.2,4.1,0.2c0.8,0,1-0.4,1-1.1v-3.3h-12.6v-2.4h12.6v-2.2h5.4v2.2h3.1v2.4H215.4z M202.8,9c-0.4-0.7-1.3-1.3-2-1.7
		c-1.4,0.5-2.7,1-4.1,1.4c1.1,0.1,5.2,0.6,5.2,2c0,0.8,0,0.8-0.4,1.4c1.1-0.4,2.2-0.8,3.4-1.3C203.5,10.5,203.5,10.2,202.8,9z
		 M197.4,10.8c-0.4-0.5-0.8-0.9-1.3-1.3v4.1c1.2-0.3,2.3-0.6,3.5-0.9C198.2,12.4,198.1,11.9,197.4,10.8z M217.8,6.8l-1,0.8
		c-1.6,1.2-3.3,2.4-5,3.3c-4.7,2.6-10.4,3-15.8,3.5v8l6,0c-0.2,1-0.4,3.4-0.6,4.4h3.7c-0.9-0.5-1.4-0.9-1.5-2.1
		c-0.1-0.8-0.7-1.1-1.3-1.7l0.2-0.3c0.6,0.1,1.9,0.1,3.1,0.3c1.3,0.5,2.4,1.2,2.8,2.3c0.2,0.6,0,1.1-0.4,1.5h10.4v2.6h-15.7
		c4.4,4.3,10.1,4.5,16.2,4.8v0.4c-2.5,1.2-2.7,3-1,4.9l-0.3,0.4c-6-1.5-10.8-2.8-15.1-7.2c-1.1-1.1-1.7-1.5-2.6-2.8
		c-2.3,3.5-4.1,4.7-8.2,6.6c-3.4,1.6-8.7,2.5-12.5,3.1l-0.2-0.4c4.8-1.8,8.6-3.5,12.1-7.1c1.1-1.2,1.6-1.4,2.5-2.8h-12.3v-2.6h13.4
		c0.2-0.7,0.4-2,0.5-2.8h-4.5v-7.4h-1.8c-0.2,0.7-0.5,1.4-0.8,2.1c-1.3,3-4.5,4.6-7.5,6l-0.4-0.3c2.6-2.8,3.1-4.1,3.7-7.8h-2.8v-2.4
		h9.6v-3h-3.6l-1.4,1.3l-4.6-2l1.3-1.1V4.5h5.3v4.1h3V3h5.2v4.8c0.9-0.7,2.8-2.3,3.3-3.2l0.9-1.6h7.9c-0.7,0.6-1.5,1.1-2.2,1.6h6.9
		l1.5-1.3l5.6,2.8C219.3,6.3,218.5,6.6,217.8,6.8z"/>
	<defs>
		<filter id="Adobe_OpacityMaskFilter_4_" filterUnits="userSpaceOnUse" x="240.3" y="6.3" width="8" height="30.6">
			<feColorMatrix  type="matrix" values="1 0 0 0 0  0 1 0 0 0  0 0 1 0 0  0 0 0 1 0"/>
		</filter>
	</defs>
	<mask maskUnits="userSpaceOnUse" x="240.3" y="6.3" width="8" height="30.6" id="mask-3_6_">
		<g class="st12">
			<polygon id="path-2_6_" class="st4" points="3,39.8 248.3,39.8 248.3,3 3,3 			"/>
		</g>
	</mask>
	<path id="Fill-8" class="st13" d="M245.5,26.7h-2.7l-2.4-20.4h7.7L245.5,26.7z M245,36.9c-1.2,0.2-2.4-0.1-3.4-0.9
		c-1-0.8-1.4-1.9-1.3-3.1c0.1-1,0.6-1.8,1.4-2.5c0.9-0.7,2.1-1,3.3-0.8c1.1,0.2,2.1,0.9,2.6,1.7c0.4,0.5,0.6,1.1,0.6,1.7
		c0,0.5,0,1.1-0.2,1.5C247.6,35.8,246.4,36.7,245,36.9z"/>
</g>
</svg>
