<?xml version="1.0" encoding="UTF-8"?>
<svg width="222px" height="123px" viewBox="0 0 222 123" version="1.1" xmlns="http://www.w3.org/2000/svg" xmlns:xlink="http://www.w3.org/1999/xlink">
    <!-- Generator: Sketch 51.2 (57519) - http://www.bohemiancoding.com/sketch -->
    <title>takeprize</title>
    <desc>Created with Sketch.</desc>
    <defs>
        <filter x="-4.3%" y="-6.3%" width="110.5%" height="119.8%" filterUnits="objectBoundingBox" id="filter-1">
            <feOffset dx="2" dy="4" in="SourceAlpha" result="shadowOffsetOuter1"></feOffset>
            <feGaussianBlur stdDeviation="3" in="shadowOffsetOuter1" result="shadowBlurOuter1"></feGaussianBlur>
            <feColorMatrix values="0 0 0 0 0   0 0 0 0 0   0 0 0 0 0  0 0 0 0.3 0" type="matrix" in="shadowBlurOuter1" result="shadowMatrixOuter1"></feColorMatrix>
            <feMerge>
                <feMergeNode in="shadowMatrixOuter1"></feMergeNode>
                <feMergeNode in="SourceGraphic"></feMergeNode>
            </feMerge>
        </filter>
        <polygon id="path-2" points="0 28 186.666667 28 186.666667 0 0 0"></polygon>
    </defs>
    <g id="Page-1" stroke="none" stroke-width="1" fill="none" fill-rule="evenodd">
        <g id="takeprize" transform="translate(4.000000, 2.000000)">
            <g id="Group-11-Copy-2" filter="url(#filter-1)" fill-rule="nonzero">
                <polygon id="Path-5" fill="#FFD968" points="0 0 0 111 103.545806 84.8273212 210 111 210 0"></polygon>
                <rect id="Rectangle-3" fill="#C3C3C3" x="25" y="11" width="160" height="4" rx="2"></rect>
                <circle id="Oval-2" fill="#C3C3C3" cx="14" cy="13" r="4"></circle>
                <g id="screw" transform="translate(8.000000, 8.000000)">
                    <path d="M11.3790625,4.81526786 L8.70667411,0.186517857 C8.64066964,0.0722098214 8.51870536,0.00178571429 8.38671875,0.00178571429 L3.04185268,0.00178571429 C2.90986607,0.00178571429 2.78787946,0.0722098214 2.72189732,0.186517857 L0.0495089286,4.81526786 C-0.0164955357,4.92957589 -0.0164955357,5.07042411 0.0495089286,5.18473214 L2.72189732,9.81348214 C2.78790179,9.92779018 2.90986607,9.99821429 3.04185268,9.99821429 L8.38669643,9.99821429 C8.51868304,9.99821429 8.64066964,9.92779018 8.70665179,9.81348214 L11.3790625,5.18473214 C11.445067,5.07042411 11.445067,4.92957589 11.3790625,4.81526786 Z M5.71428571,7.56160714 C4.30180804,7.56160714 3.15267857,6.41247768 3.15267857,5 C3.15267857,3.58752232 4.30180804,2.43839286 5.71428571,2.43839286 C7.12676339,2.43839286 8.27589286,3.58752232 8.27589286,5 C8.27589286,6.41247768 7.12676339,7.56160714 5.71428571,7.56160714 Z" id="Shape" fill="#787680"></path>
                    <path d="M11.3790625,4.81526786 L8.70667411,0.186517857 C8.64066964,0.0722098214 8.51870536,0.00178571429 8.38671875,0.00178571429 L5.71428571,0.00178571429 L5.71428571,2.43839286 C7.12676339,2.43839286 8.27589286,3.58752232 8.27589286,5 C8.27589286,6.41247768 7.12676339,7.56160714 5.71428571,7.56160714 L5.71428571,9.99821429 L8.38671875,9.99821429 C8.51870536,9.99821429 8.64069196,9.92779018 8.70667411,9.81348214 L11.3790848,5.18473214 C11.445067,5.07042411 11.445067,4.92957589 11.3790625,4.81526786 Z" id="Shape" fill="#57565C"></path>
                    <path d="M5.71428571,1.46939732 L5.71428571,2.60582589 C7.03654018,2.60582589 8.10845982,3.67774554 8.10845982,5 C8.10845982,6.32225446 7.03654018,7.39415179 5.71428571,7.39415179 L5.71428571,8.53058036 C7.66419643,8.53058036 9.24488839,6.94986607 9.24488839,4.99997768 C9.24488839,3.05008929 7.66419643,1.46939732 5.71428571,1.46939732 Z" id="Shape" fill="#787680"></path>
                    <path d="M3.32011161,5 C3.32011161,3.67774554 4.39203125,2.60582589 5.71428571,2.60582589 L5.71428571,1.46939732 C3.764375,1.46939732 2.18368304,3.05011161 2.18368304,5 C2.18368304,6.94988839 3.764375,8.53060268 5.71428571,8.53060268 L5.71428571,7.39419643 C4.39203125,7.39417411 3.32011161,6.32225446 3.32011161,5 Z" id="Shape" fill="#57565C"></path>
                </g>
                <circle id="Oval-2-Copy" fill="#C3C3C3" cx="195.5" cy="13.5" r="3.5"></circle>
                <g id="screw-copy" transform="translate(190.000000, 8.000000)">
                    <path d="M11.3790625,4.81526786 L8.70667411,0.186517857 C8.64066964,0.0722098214 8.51870536,0.00178571429 8.38671875,0.00178571429 L3.04185268,0.00178571429 C2.90986607,0.00178571429 2.78787946,0.0722098214 2.72189732,0.186517857 L0.0495089286,4.81526786 C-0.0164955357,4.92957589 -0.0164955357,5.07042411 0.0495089286,5.18473214 L2.72189732,9.81348214 C2.78790179,9.92779018 2.90986607,9.99821429 3.04185268,9.99821429 L8.38669643,9.99821429 C8.51868304,9.99821429 8.64066964,9.92779018 8.70665179,9.81348214 L11.3790625,5.18473214 C11.445067,5.07042411 11.445067,4.92957589 11.3790625,4.81526786 Z M5.71428571,7.56160714 C4.30180804,7.56160714 3.15267857,6.41247768 3.15267857,5 C3.15267857,3.58752232 4.30180804,2.43839286 5.71428571,2.43839286 C7.12676339,2.43839286 8.27589286,3.58752232 8.27589286,5 C8.27589286,6.41247768 7.12676339,7.56160714 5.71428571,7.56160714 Z" id="Shape" fill="#787680"></path>
                    <path d="M11.3790625,4.81526786 L8.70667411,0.186517857 C8.64066964,0.0722098214 8.51870536,0.00178571429 8.38671875,0.00178571429 L5.71428571,0.00178571429 L5.71428571,2.43839286 C7.12676339,2.43839286 8.27589286,3.58752232 8.27589286,5 C8.27589286,6.41247768 7.12676339,7.56160714 5.71428571,7.56160714 L5.71428571,9.99821429 L8.38671875,9.99821429 C8.51870536,9.99821429 8.64069196,9.92779018 8.70667411,9.81348214 L11.3790848,5.18473214 C11.445067,5.07042411 11.445067,4.92957589 11.3790625,4.81526786 Z" id="Shape" fill="#57565C"></path>
                    <path d="M5.71428571,1.46939732 L5.71428571,2.60582589 C7.03654018,2.60582589 8.10845982,3.67774554 8.10845982,5 C8.10845982,6.32225446 7.03654018,7.39415179 5.71428571,7.39415179 L5.71428571,8.53058036 C7.66419643,8.53058036 9.24488839,6.94986607 9.24488839,4.99997768 C9.24488839,3.05008929 7.66419643,1.46939732 5.71428571,1.46939732 Z" id="Shape" fill="#787680"></path>
                    <path d="M3.32011161,5 C3.32011161,3.67774554 4.39203125,2.60582589 5.71428571,2.60582589 L5.71428571,1.46939732 C3.764375,1.46939732 2.18368304,3.05011161 2.18368304,5 C2.18368304,6.94988839 3.764375,8.53060268 5.71428571,8.53060268 L5.71428571,7.39419643 C4.39203125,7.39417411 3.32011161,6.32225446 3.32011161,5 Z" id="Shape" fill="#57565C"></path>
                </g>
            </g>
            <g id="Group-9-Copy" transform="translate(12.000000, 35.000000)">
                <path d="M22.35435,1.02200521 C24.0661942,1.26968974 26.315195,1.393532 27.6577822,2.50872545 C28.1949387,2.97344048 28.6980287,3.56199777 28.6980287,4.27439732 C28.6980287,5.35832366 27.8591398,6.22583259 26.7848268,6.22583259 C26.3486532,6.22583259 25.7780385,6.13264435 25.4087814,5.91561385 C23.7303954,4.98679687 24.0996525,3.43754242 23.6300207,2.69448884 C23.32768,2.16785269 22.6901489,1.6105625 22.1864505,1.1765015 L22.35435,1.02200521 Z M0.100374663,7.0308073 L7.350467,7.0308073 L7.350467,3.56199777 C4.83319211,3.50007664 3.22233085,3.31431324 0.738514188,2.88025224 L0.738514188,2.60191369 C2.95344842,2.29169495 5.63862274,1.82697992 7.71972409,1.20776861 C8.89502015,0.866895842 10.0356413,0.402180815 11.1768708,0 L16.1110459,2.04401042 C14.801917,2.50872545 13.5603128,2.81833111 12.1842674,3.15920387 L12.1842674,7.0308073 L16.7491855,7.0308073 C16.7151189,6.56609227 16.7151189,6.07072322 16.7151189,5.57535416 C16.7151189,3.74776116 16.8161019,1.92016816 16.8830183,0.123842263 L21.8847182,0.123842263 C21.750277,2.41553721 21.750277,4.73849927 21.6827522,7.0308073 L30.0740741,7.0308073 L30.0740741,9.01350967 L21.6158358,9.01350967 C21.5823776,9.75656325 21.5823776,10.5308839 21.5823776,11.2745506 C21.5823776,12.5442403 21.7168188,13.8139301 21.8171935,15.0529658 C22.6901489,13.7213549 23.2607636,12.4823192 23.8313784,10.995599 L28.8659281,11.4290469 C28.3287716,12.5442403 27.8591398,13.6907009 27.2550669,14.8052813 C26.2476702,16.7254494 24.4354513,18.3053579 22.7905235,19.760811 C22.9918812,20.9998467 23.32768,21.8367016 24.2006355,22.7967857 C24.4354513,23.0444702 25.0060661,23.6949487 25.4087814,23.6949487 C25.711122,23.6949487 25.9459379,23.4779182 26.1472956,23.2608877 C26.919268,22.48718 27.8925981,21.0311138 28.4632128,20.1329509 L28.8993863,20.225526 C28.5641958,21.1243021 28.0939557,22.022465 28.0939557,22.9825491 C28.0939557,24.0977425 29.6379005,24.0664754 29.6379005,24.4380022 C29.6379005,24.6243787 29.4700011,24.9339844 29.3696264,25.0884807 C28.4297546,26.7609643 27.0196427,27.8761577 24.9050831,27.8761577 C23.7979201,27.8761577 22.8239817,27.6284732 21.9850929,26.9473408 C21.2465787,26.3587835 20.5080645,25.7083051 19.9374498,24.9959055 C19.2330021,24.1283966 18.8302868,23.1989665 18.3935049,22.2388824 C16.5478278,23.0138162 14.6346259,23.6023735 12.6873574,24.0664754 L12.3521669,23.8494449 C13.3254969,23.1989665 14.298827,22.5797552 15.2386989,21.8986228 C16.1110459,21.2787984 16.8830183,20.5044777 17.6890573,19.7920781 C17.4536331,18.6768847 17.2522754,17.5310372 17.084376,16.4158438 C16.7491855,13.9377723 16.7491855,11.490968 16.7491855,9.01350967 L12.1842674,9.01350967 L12.1842674,13.4424033 C13.5603128,13.1021436 14.9363582,12.6061615 16.2789454,12.1727135 L16.4468448,12.4516652 C15.1711741,13.8758512 13.8285869,14.8052813 12.1842674,15.8892076 L12.1842674,24.9027173 C12.1842674,25.7389591 11.8484686,26.2968623 11.311312,26.9160737 C10.7072391,27.5665521 8.45823828,27.8142366 7.61934943,27.8761577 C6.91429346,27.9380789 6.24330405,28 5.5717063,28 C5.3034322,28 4.29603558,28 4.12874448,27.7216614 C4.02776148,27.5978192 4.0612197,27.3495216 4.0612197,27.1950253 C4.0612197,25.5531957 1.84628547,25.1504018 0.50369831,24.8101421 L0.604072973,24.4692693 C2.28245901,24.5618445 4.02776148,24.7169539 5.70614752,24.7169539 C6.51157815,24.7169539 7.350467,24.5931116 7.350467,23.6949487 L7.350467,17.8406429 C5.33689042,18.5530424 3.28924729,19.1728668 1.24160417,19.730157 L0,15.7653653 C2.48381666,15.5176808 4.93417511,15.1148869 7.350467,14.5882507 L7.350467,9.01350967 L0.100374663,9.01350967 L0.100374663,7.0308073 Z" id="Fill-1" fill="#AE7441"></path>
                <mask id="mask-3" fill="white">
                    <use xlink:href="#path-2"></use>
                </mask>
                <g id="Clip-4"></g>
                <path d="M54.3402147,11.0593269 L56.5865902,11.0593269 L56.5865902,7.58386038 L54.3402147,7.58386038 L54.3402147,11.0593269 Z M47.832192,11.0593269 L50.144426,11.0593269 L50.144426,7.58386038 L47.832192,7.58386038 L47.832192,11.0593269 Z M47.832192,5.47426017 L50.144426,5.47426017 L50.144426,3.11592981 L47.832192,3.11592981 L47.832192,5.47426017 Z M49.3187992,21.3911477 C50.6730906,20.1499535 51.0365101,19.6844289 52.1267686,18.2264403 L47.2047396,18.2264403 C46.6431458,18.6606433 46.1474104,19.1574894 45.5858166,19.6223999 C45.1236093,20.0258955 44.627874,20.3986836 44.1656666,20.7708576 C45.8833775,20.9256231 47.6010884,21.1743532 49.3187992,21.3911477 Z M41.2583108,11.0593269 L43.471757,11.0593269 L43.471757,7.58386038 L41.2583108,7.58386038 L41.2583108,11.0593269 Z M35.047849,1.06774446 L62.5324203,1.03703704 L62.5324203,3.11592981 L54.3402147,3.11592981 L54.3402147,5.47426017 L56.4872036,5.47426017 L57.6103914,4.26377342 L62.6647361,5.13279359 L61.4427606,6.3426662 L61.4427606,14.0066257 L56.5865902,14.0066257 L56.5865902,13.1996345 L41.2583108,13.1996345 L41.2583108,14.0999763 L36.203966,14.0999763 L36.203966,4.69859058 L41.2583108,4.69859058 L41.2583108,5.47426017 L43.471757,5.47426017 L43.471757,3.11592981 L35.047849,3.11592981 L35.047849,1.06774446 Z M49.3517285,16.0234895 L63.2592593,16.0234895 L63.2592593,18.2264403 L57.7427072,18.2264403 C56.685378,19.747072 55.5621903,21.1430316 54.1749696,22.4149333 C55.7603647,22.8184288 62.2354581,24.5564692 62.2354581,26.4179534 C62.2354581,27.2863594 61.4092326,27.9692926 60.5177472,27.9692926 C59.1628571,27.9692926 56.4872036,26.6660694 55.3969452,26.2005448 C54.0097245,25.6109622 52.5560466,25.0527012 51.1358967,24.5564692 C49.8803931,25.2387882 48.5919603,25.8590782 47.2376689,26.2938954 C43.4058984,27.565797 38.9460768,27.813913 34.9155332,28 L34.8496746,27.689855 C39.1113219,26.8521564 43.2406533,25.3935536 46.940108,23.2219244 C44.1985959,22.4769623 41.4894144,21.8259648 38.6485159,21.4531767 C39.8710901,20.4914201 40.9613486,19.374898 41.9851498,18.2264403 L34.2222222,18.2264403 L34.2222222,16.0234895 L43.8681057,16.0234895 C44.363841,15.4646143 44.7601898,14.8136169 45.1236093,14.1620053 L50.8383357,14.1620053 C50.4090577,14.8136169 49.8803931,15.4339069 49.3517285,16.0234895 Z" id="Fill-3" fill="#AE7441" mask="url(#mask-3)"></path>
                <path d="M87.8869194,4.89897196 C85.8356103,3.87584665 84.6117805,3.06937595 82.9904009,1.45704829 C81.0050503,2.88340896 79.351291,3.84454528 77.1015068,4.89897196 L87.8869194,4.89897196 Z M76.009594,11.6275399 L88.4493655,11.6275399 L88.4493655,10.1391903 L76.009594,10.1391903 L76.009594,11.6275399 Z M76.009594,7.50373731 L76.009594,8.09293965 L88.3498281,8.09293965 L89.6072368,6.91453497 L94.7022305,7.84436992 L93.4118425,9.0227746 L93.4118425,14.0776397 L88.4493655,14.0776397 L88.4493655,13.519125 L76.009594,13.519125 L76.009594,14.4182723 L70.9475795,14.4182723 L70.9475795,7.50373731 L76.009594,7.50373731 Z M79.7812204,21.3021196 L79.7812204,20.0930273 L69.8556667,20.0930273 L69.8886459,18.1707547 L79.7812204,18.1707547 L79.7812204,17.3329826 C76.1421106,17.2090046 72.5353803,16.8990596 68.9292497,16.2791697 L68.9958078,15.906622 C75.7115815,15.906622 82.6594092,15.3794086 89.2432659,14.2016177 L95.5297098,16.0925889 C92.1550335,16.930361 88.515324,17.1470156 85.04171,17.3016812 L85.04171,18.1707547 L94.2723011,18.1707547 L94.2723011,20.0930273 L85.04171,20.0930273 L85.04171,21.3021196 L96.8860562,21.3021196 L96.8860562,23.2556936 L85.04171,23.2556936 C85.04171,23.906885 85.2072058,26.2010916 84.7107183,26.7902939 C83.7843013,27.9067096 80.045654,28 78.7222868,28 L78.424874,28 C77.4654778,28 77.862428,27.4414853 77.5314363,26.7283049 C77.0349487,25.612503 75.3811894,25.4572236 74.2892766,25.3332457 L74.3882143,24.8060323 C75.5131064,24.8680213 76.6379985,24.8987089 77.7628906,24.8987089 C79.8471789,24.8987089 79.7812204,25.0852897 79.7812204,23.2556936 L67.8373368,23.2556936 L67.8373368,21.3021196 L79.7812204,21.3021196 Z M77.3659404,0 L84.6447598,0 L84.0823137,0.557900967 C88.0524153,2.38749699 93.0814505,3.19335394 97.4485022,3.44130992 L97.4814815,3.78255628 C95.6286475,4.21709301 94.4707761,5.36419631 95.7941433,7.00782534 L95.4961309,7.28646895 C93.1803882,6.75925561 90.9635833,6.13936564 88.7473779,5.27090594 L88.7473779,6.79055698 L75.5131064,6.79055698 L75.5131064,5.42618531 C72.8004135,6.480612 70.4846709,7.13180334 67.6058825,7.72100568 L67.4074074,7.41044694 C71.6755214,5.33350869 74.1897392,3.4106223 77.3659404,0 Z" id="Fill-5" fill="#AE7441" mask="url(#mask-3)"></path>
                <path d="M112.833889,6.77370523 C112.866868,6.24295518 112.933426,5.71220513 112.933426,5.18145508 C112.933426,3.46501313 112.866868,1.74795331 112.833889,0 L118.193316,0 C118.094379,2.27870336 117.961862,4.52589536 117.895903,6.77370523 L129.673692,6.77370523 L129.673692,8.89608756 L118.259874,8.89608756 C119.550262,13.3910894 122.626926,17.5740671 126.034582,20.8827592 C127.32497,22.1629852 128.979329,23.1305691 130.666667,23.8485337 L130.501171,24.2853675 C129.31032,24.4416885 128.284366,24.6919258 127.821457,25.8776177 C127.754899,26.0648322 127.72192,26.2520467 127.72192,26.4398791 C127.72192,26.9076064 127.953374,27.3759516 128.11887,27.781892 L127.72192,28 C127.126495,27.7509985 126.531069,27.4698678 125.968623,27.1578436 C125.240681,26.7519033 124.578698,26.1896419 123.917314,25.6904032 C120.675154,23.0996756 118.590866,19.3850431 117.664449,15.4825783 L116.803991,11.8303506 C116.44002,12.8918507 116.043069,13.9218395 115.646119,14.9833396 C114.157256,18.9475914 110.815559,22.1629852 107.242408,24.5356047 C105.323615,25.7843194 103.10681,26.6894984 100.989543,27.5631661 L100.592593,27.2202485 C104.364219,24.6289031 107.043933,21.8818545 109.227758,17.9484961 C110.915097,14.9209347 111.841514,12.2678024 112.37098,8.89608756 L101.386493,8.89608756 L101.386493,6.77370523 L112.833889,6.77370523 Z" id="Fill-6" fill="#AE7441" mask="url(#mask-3)"></path>
                <path d="M151.36807,2.78146506 L150.998062,2.9668145 C152.006897,3.05979508 155.168724,3.21394709 155.471069,4.35724117 L155.605784,4.88270378 C156.749333,4.23428659 157.522874,3.64704083 158.531708,2.78146506 L151.36807,2.78146506 Z M161.39058,10.4768313 L161.39058,13.7831473 C161.39058,15.2359688 161.155287,15.6378651 159.709393,16.1015446 C158.901716,16.3792629 157.99407,16.5034409 157.152866,16.5034409 C155.807551,16.5034409 156.984626,15.5448845 155.875213,14.8340725 C155.471069,14.5869399 153.621641,14.216241 153.116919,14.1238722 L153.116919,13.9067136 C152.746912,13.9691084 152.376904,14.0614773 151.973371,14.0308916 C150.998062,13.937911 150.49334,13.2888821 150.325709,12.2073712 C150.224521,11.6201254 149.820987,11.3417954 149.349792,10.8781159 L149.518032,10.631595 C150.561002,10.7551613 154.058701,10.7551613 154.025175,12.4545037 C154.025175,13.1965132 153.958123,13.1965132 153.386348,13.7219758 C154.428709,13.7831473 155.471069,13.8449304 156.51404,13.8449304 C157.11934,13.8449304 157.254055,13.5366264 157.254055,13.0111638 L157.254055,10.4768313 L147.634468,10.4768313 L147.634468,8.6533109 L157.254055,8.6533109 L157.254055,6.98455421 L161.39058,6.98455421 L161.39058,8.6533109 L163.74534,8.6533109 L163.74534,10.4768313 L161.39058,10.4768313 Z M151.838656,4.57378804 C151.569837,4.04832543 150.829822,3.58464597 150.291574,3.27573023 C149.249213,3.64704083 148.206243,4.01773972 147.163882,4.35724117 C148.004476,4.45022175 151.166303,4.79033491 151.166303,5.90304328 C151.166303,6.52087475 151.166303,6.48967732 150.829822,6.98455421 C151.704551,6.70622419 152.545145,6.39730846 153.386348,5.99541214 C152.309852,5.71708212 152.343378,5.50114696 151.838656,4.57378804 Z M147.668604,5.90304328 C147.399175,5.50114696 147.029168,5.19161951 146.65916,4.91390121 L146.65916,8.06606515 C147.567416,7.84951827 148.442146,7.63358312 149.316265,7.38583881 C148.273905,7.10812051 148.240379,6.76800734 147.668604,5.90304328 Z M163.274144,2.90503135 L162.500603,3.49227711 C161.290002,4.3884386 160.011739,5.28460009 158.699949,6.02660957 C155.101672,8.03486772 150.762769,8.34439517 146.65916,8.6533109 L146.65916,14.7417036 L151.233356,14.7105062 C151.099251,15.4525157 150.964536,17.3066218 150.762769,18.0174339 L153.588115,18.0174339 C152.915153,17.646735 152.545145,17.3372075 152.410431,16.4416577 C152.309852,15.854412 151.906318,15.576082 151.435122,15.1124025 L151.603363,14.8652699 C152.074559,14.9270531 153.016341,14.9576388 153.958123,15.1124025 C154.966957,15.5142988 155.807551,16.008564 156.07698,16.8741398 C156.211085,17.3372075 156.07698,17.7391038 155.807551,18.0174339 L163.778866,18.0174339 L163.778866,19.995718 L151.838656,19.995718 C155.20225,23.2402508 159.541152,23.426212 164.1824,23.6421471 L164.1824,23.9822603 C162.26531,24.9090075 162.097069,26.2688484 163.442385,27.72167 L163.207092,28 C158.666423,26.8560942 154.966957,25.8363664 151.671025,22.5294388 C150.829822,21.6950604 150.392762,21.4167304 149.719799,20.4282 C147.97095,23.0549014 146.558582,24.012846 143.464416,25.4344701 C140.840838,26.6395473 136.838417,27.3509711 133.946018,27.8140388 L133.777778,27.5051231 C137.410191,26.1452822 140.370251,24.8784218 143.026747,22.1275424 C143.901476,21.2313809 144.271484,21.0772289 144.910311,19.995718 L135.560153,19.995718 L135.560153,18.0174339 L145.751514,18.0174339 C145.919755,17.4613855 146.020333,16.4722435 146.121522,15.9161951 L142.724401,15.9161951 L142.724401,10.2602844 L141.34556,10.2602844 C141.177319,10.7857471 140.975552,11.3112097 140.739649,11.8366723 C139.730815,14.1544579 137.309612,15.2977519 135.022515,16.3792629 L134.686034,16.1633277 C136.63665,14.0308916 137.07371,13.0729469 137.511379,10.2602844 L135.392522,10.2602844 L135.392522,8.43676403 L142.724401,8.43676403 L142.724401,6.15017587 L140.000244,6.15017587 L138.923747,7.10812051 L135.392522,5.59351583 L136.367831,4.75913748 L136.367831,1.17449151 L140.403778,1.17449151 L140.403778,4.29606974 L142.724401,4.29606974 L142.724401,0 L146.65916,0 L146.65916,3.6158434 C147.332123,3.09038079 148.812153,1.85410613 149.182161,1.20507723 L149.854514,0 L155.908739,0 C155.370491,0.432482031 154.798716,0.834378345 154.226942,1.20507723 L159.507626,1.20507723 L160.651175,0.216546873 L164.888889,2.34837131 C164.350641,2.53433247 163.778866,2.71968191 163.274144,2.90503135 Z" id="Fill-7" fill="#AE7441" mask="url(#mask-3)"></path>
                <path d="M184.520938,17.9637596 L182.418317,17.9637596 L180.557442,2.07407407 L186.55422,2.07407407 L184.520938,17.9637596 Z M184.073053,25.8766501 C183.142303,26.0351586 182.177197,25.8133721 181.45321,25.1805914 C180.694868,24.5478108 180.385034,23.7245695 180.453747,22.774772 C180.523085,22.0154352 180.902256,21.3507023 181.556905,20.8444778 C182.280891,20.306301 183.17666,20.0845145 184.10741,20.2110707 C184.934465,20.3376268 185.727165,20.8758036 186.175049,21.5092107 C186.451151,21.9202049 186.623558,22.3631513 186.657915,22.8067243 C186.692271,23.218345 186.623558,23.6293391 186.485507,24.009634 C186.140692,25.0227095 185.175586,25.6874425 184.073053,25.8766501 Z" id="Fill-8" fill="#AE7441" mask="url(#mask-3)"></path>
            </g>
        </g>
    </g>
</svg>